<svg width="200" height="55" viewBox="0 0 200 55" fill="none" xmlns="http://www.w3.org/2000/svg">
<path d="M0.785311 44.9787L9.0049 44.8967L15.7783 8.10729L29.4576 7.97085L30.881 0.276274L8.98204 0.494702L0.785311 44.9787ZM24.8383 11.4971L18.6902 44.8001L26.6698 44.7205L45.36 23.593L41.4891 44.5727L49.4687 44.4931L55.6168 11.1901L47.6372 11.2697L28.947 32.3972L32.818 11.4175L24.8383 11.4971ZM59.4037 11.1523L58.0943 18.2457L66.0739 18.1662L61.2351 44.3757L69.2147 44.2961L74.0535 18.0866L82.0332 18.007L83.3425 10.9136L59.4037 11.1523ZM120.416 10.5438L113.096 10.6168L112.357 14.7044L112.237 14.7056C111.08 12.977 108.226 9.58531 100.846 9.65892C95.0864 9.71637 90.9088 11.9781 88.1746 14.5855C85.2029 17.4353 82.4309 22.2632 82.4992 29.1029C82.5638 35.5826 85.3014 39.3354 87.7828 41.4708C90.2036 43.5467 93.8196 45.1308 98.1994 45.0871C100.839 45.0607 104.793 44.4213 107.168 41.9375L107.288 41.9363L106.948 43.9198L114.268 43.8468L120.416 10.5438ZM100.917 16.7386C106.256 16.6853 109.653 20.3716 109.712 26.2513C109.782 33.271 105.328 37.9356 99.1487 37.9973C93.869 38.0499 90.532 34.363 90.4758 28.7233C90.4165 22.7836 93.7771 16.8098 100.917 16.7386ZM118.648 54.9036L126.627 54.824L129.302 40.2766L129.422 40.2754C130.7 42.0028 133.487 44.7351 139.967 44.6705C146.026 44.61 150.203 42.2883 152.878 39.7415C155.85 36.8917 158.622 32.0638 158.554 25.2241C158.505 20.3644 157.023 16.1189 153.27 12.8562C150.304 10.2457 146.933 9.19923 142.853 9.23992C140.214 9.26625 136.38 9.90452 133.944 12.3889L133.824 12.3901L134.165 10.4066L126.845 10.4796L118.648 54.9036ZM141.724 16.3315C147.124 16.2777 150.521 19.964 150.58 25.9037C150.649 32.8633 146.196 37.528 140.076 37.589C134.736 37.6423 131.399 33.9554 131.342 28.1957C131.27 20.936 135.844 16.3902 141.724 16.3315ZM199.631 9.75366L192.311 9.82666L191.572 13.9142L191.452 13.9154C190.295 12.1869 187.441 8.79519 180.061 8.8688C174.301 8.92625 170.124 11.188 167.389 13.7954C164.418 16.6452 161.646 21.4731 161.714 28.3128C161.779 34.7924 164.516 38.5453 166.998 40.6807C169.418 42.7566 173.034 44.3406 177.414 44.297C180.054 44.2706 184.008 43.6312 186.383 41.1473L186.503 41.1461L186.163 43.1296L193.483 43.0566L199.631 9.75366ZM180.132 15.9484C185.471 15.8952 188.868 19.5815 188.927 25.4612C188.997 32.4808 184.543 37.1455 178.364 37.2071C173.084 37.2598 169.747 33.5729 169.691 27.9332C169.631 21.9935 172.992 16.0197 180.132 15.9484Z" fill="#FFE500"/>
</svg>
