<svg width="395" height="130" viewBox="0 0 395 130" fill="none" xmlns="http://www.w3.org/2000/svg">
<path d="M45.5338 4.67727L55.8306 47.4167L60.7304 47.3678L57.2777 66.1632L47.6882 66.2588L49.4803 56.4405L12.1022 56.8133L10.31 66.6317L0.720491 66.7273L4.1732 47.9319L9.07296 47.8831L34.3344 4.78898L45.5338 4.67727ZM20.2724 47.7714L45.7511 47.5172L38.5003 15.388L20.2724 47.7714ZM86.901 16.0252C89.9808 15.9945 92.6451 16.4113 94.8938 17.2756C97.1421 18.0932 99.1143 19.3103 100.811 20.9268C102.461 22.5904 103.74 24.5377 104.649 26.7688C105.558 28.9998 106.026 31.5153 106.054 34.3151C106.088 37.6749 105.536 40.8306 104.399 43.7821C103.261 46.7336 101.676 49.2229 99.6429 51.2499C97.5635 53.3241 95.2221 54.8642 92.6186 55.8702C90.0614 56.8291 87.2662 57.3237 84.233 57.3539C81.1532 57.3846 78.4658 56.9914 76.1709 56.1743C73.9226 55.3566 71.9501 54.1163 70.2535 52.4531C68.5572 50.8366 67.2549 48.9362 66.3464 46.7518C65.4374 44.5207 64.9681 41.912 64.9383 38.9254C64.9057 35.6589 65.4349 32.5735 66.526 29.6691C67.6638 26.7643 69.2721 24.2515 71.3511 22.1306C73.3843 20.1036 75.6793 18.5873 78.236 17.5817C80.8395 16.5757 83.7278 16.0569 86.901 16.0252ZM86.4934 24.2897C84.7201 24.3074 83.0668 24.6506 81.5334 25.3192C80 25.9879 78.6796 26.9578 77.5722 28.2289C76.4648 29.5 75.6164 31.0019 75.027 32.7345C74.4838 34.42 74.2222 36.266 74.2422 38.2726C74.2571 39.7659 74.4577 41.1639 74.8441 42.4668C75.2771 43.7692 75.8949 44.8831 76.6975 45.8085C77.5482 46.8734 78.6065 47.7029 79.8725 48.2969C81.1847 48.8439 82.7274 49.1085 84.5006 49.0908C86.2272 49.0736 87.8574 48.754 89.3913 48.132C90.9247 47.4633 92.2682 46.4699 93.4218 45.1517C94.483 43.9277 95.3085 42.4727 95.8984 40.7867C96.4878 39.0541 96.7723 37.1612 96.7518 35.1079C96.7373 33.6613 96.5136 32.2868 96.0806 30.9844C95.6476 29.682 95.0529 28.5446 94.2965 27.5721C93.3996 26.5543 92.2949 25.7486 90.9822 25.155C89.7162 24.5609 88.2199 24.2725 86.4934 24.2897ZM115.238 17.0027L128.747 16.8679L133.915 43.6977L148.836 16.6675L162.345 16.5328L155.172 55.3863L145.863 55.4791L150.975 27.6367L135.503 55.5825L127.734 55.66L122.487 27.9209L117.374 55.7633L108.065 55.8561L115.238 17.0027ZM208.632 16.0711L201.459 54.9246L192.92 55.0098L193.317 52.6957L193.177 52.6971C192.022 53.922 190.514 54.8237 188.653 55.4023C186.793 56.0276 184.813 56.3507 182.713 56.3716C180.519 56.3935 178.346 56.0652 176.193 55.3866C174.086 54.7076 172.208 53.6296 170.56 52.1526C168.583 50.4923 167.046 48.4775 165.949 46.1083C164.899 43.692 164.381 40.897 164.396 37.7234C164.363 34.4102 164.892 31.3015 165.983 28.3971C167.12 25.4456 168.798 22.9087 171.017 20.7865C172.958 18.9004 175.184 17.4781 177.695 16.5197C180.205 15.5613 182.907 15.0676 185.801 15.0388C188.88 15.0081 191.522 15.4951 193.726 16.4998C195.929 17.5046 197.717 18.9801 199.09 20.9265L199.23 20.9251L200.092 16.1563L208.632 16.0711ZM185.883 23.2984C182.337 23.3804 179.387 24.6932 177.032 27.2368C174.723 29.7333 173.613 33.0812 173.702 37.2806C173.735 40.5937 174.648 43.2448 176.441 45.2336C178.281 47.1754 180.74 48.1309 183.82 48.1002C187.413 48.0643 190.364 46.7982 192.673 44.3017C195.028 41.7581 196.185 38.4564 196.144 34.3966C196.11 30.9901 195.15 28.2929 193.263 26.3049C191.423 24.2698 188.963 23.2676 185.883 23.2984ZM216.063 15.997L225.372 15.9041L219.727 46.482L231.416 46.3654L237.062 15.7875L246.371 15.6947L240.726 46.2725L252.415 46.1559L258.06 15.5781L267.37 15.4852L260.197 54.3387L208.89 54.8505L216.063 15.997ZM274.849 15.4106L284.158 15.3178L281.501 29.625L295.99 29.4805L298.648 15.1733L307.957 15.0804L300.784 53.9339L291.475 54.0267L294.463 37.7561L279.973 37.9006L276.985 54.1713L267.676 54.2641L274.849 15.4106ZM315.452 15.0056L324.762 14.9128L320.246 39.3891L342.051 14.7403L351.36 14.6475L344.188 53.501L334.878 53.5938L339.394 29.1176L317.589 53.7663L308.279 53.8591L315.452 15.0056ZM358.858 14.5727L368.168 14.4798L363.652 38.9561L385.457 14.3074L394.766 14.2145L387.594 53.068L378.284 53.1609L382.8 28.6846L360.995 53.3333L351.685 53.4262L358.858 14.5727ZM367.747 0.343339L374.746 0.273521C374.804 1.34634 375.209 2.15901 375.961 2.71153C376.712 3.21739 377.718 3.46404 378.978 3.45147C380.145 3.43983 381.146 3.17317 381.98 2.65149C382.861 2.08267 383.483 1.25976 383.846 0.182759L390.846 0.112942C390.175 3.05978 388.752 5.40743 386.576 7.15588C384.399 8.85767 381.771 9.72393 378.691 9.75465C375.238 9.78909 372.476 8.92993 370.405 7.17716C368.38 5.37727 367.494 3.09933 367.747 0.343339ZM32.1343 119.617L39.3072 80.7632L48.6167 80.6703L45.2942 98.4843L62.476 80.5321L73.5355 80.4217L54.4063 99.6535L67.2026 119.267L56.1431 119.377L44.898 100.868L41.4439 119.524L32.1343 119.617ZM79.9106 80.3582L89.2202 80.2653L84.7041 104.742L106.509 80.0929L115.819 80L108.646 118.853L99.3365 118.946L103.853 94.4701L82.0473 119.119L72.7378 119.212L79.9106 80.3582ZM123.317 79.9252L132.626 79.8324L129.969 94.1396L144.458 93.995L147.115 79.6878L156.425 79.595L149.252 118.448L139.943 118.541L142.931 102.271L128.441 102.415L125.453 118.686L116.144 118.779L123.317 79.9252ZM180.357 78.0962C183.437 78.0655 186.101 78.4823 188.35 79.3466C190.598 80.1642 192.57 81.3812 194.266 82.9977C195.916 84.6613 197.196 86.6087 198.105 88.8397C199.014 91.0708 199.482 93.5862 199.51 96.3861C199.544 99.7459 198.992 102.902 197.854 105.853C196.717 108.805 195.132 111.294 193.099 113.321C191.019 115.395 188.678 116.935 186.074 117.941C183.517 118.9 180.722 119.395 177.689 119.425C174.609 119.456 171.922 119.062 169.627 118.245C167.378 117.428 165.406 116.187 163.709 114.524C162.013 112.908 160.711 111.007 159.802 108.823C158.893 106.592 158.424 103.983 158.394 100.996C158.361 97.7299 158.891 94.6445 159.982 91.7401C161.12 88.8353 162.728 86.3224 164.807 84.2016C166.84 82.1746 169.135 80.6583 171.692 79.6527C174.295 78.6467 177.184 78.1279 180.357 78.0962ZM179.949 86.3607C178.176 86.3784 176.523 86.7215 174.989 87.3902C173.456 88.0589 172.135 89.0288 171.028 90.2999C169.921 91.571 169.072 93.0728 168.483 94.8055C167.94 96.491 167.678 98.337 167.698 100.344C167.713 101.837 167.913 103.235 168.3 104.538C168.733 105.84 169.351 106.954 170.153 107.879C171.004 108.944 172.062 109.774 173.328 110.368C174.64 110.915 176.183 111.179 177.956 111.162C179.683 111.145 181.313 110.825 182.847 110.203C184.38 109.534 185.724 108.541 186.878 107.223C187.939 105.999 188.764 104.544 189.354 102.858C189.944 101.125 190.228 99.2321 190.208 97.1789C190.193 95.7323 189.969 94.3578 189.536 93.0554C189.103 91.753 188.509 90.6155 187.752 89.643C186.855 88.6252 185.751 87.8196 184.438 87.226C183.172 86.6319 181.676 86.3435 179.949 86.3607ZM203.836 79.1221L231.765 78.8435L230.237 87.1192L220.928 87.212L215.282 117.79L205.973 117.883L211.618 87.3049L202.309 87.3977L203.836 79.1221ZM271.332 101.97L240.603 102.277C240.708 103.396 240.998 104.443 241.475 105.418C241.951 106.347 242.612 107.18 243.46 107.918C244.355 108.796 245.412 109.439 246.629 109.847C247.847 110.255 249.225 110.451 250.765 110.436C251.745 110.426 252.701 110.323 253.632 110.127C254.563 109.884 255.447 109.526 256.282 109.05C256.932 108.717 257.511 108.315 258.02 107.843C258.575 107.324 259.059 106.759 259.473 106.149L269.973 106.044C269.151 107.872 268.14 109.516 266.942 110.974C265.789 112.432 264.565 113.635 263.267 114.581C261.507 115.905 259.464 116.906 257.137 117.582C254.857 118.305 252.271 118.681 249.378 118.71C246.531 118.738 244.031 118.343 241.876 117.525C239.768 116.752 237.842 115.465 236.097 113.662C234.259 111.86 232.909 109.844 232.046 107.612C231.23 105.333 230.81 102.934 230.784 100.414C230.75 97.0079 231.325 93.8286 232.509 90.8767C233.693 87.9247 235.302 85.4352 237.335 83.4082C239.322 81.4283 241.617 79.9353 244.221 78.9293C246.824 77.9233 249.806 77.4035 253.166 77.37C256.106 77.3407 258.7 77.7348 260.948 78.5524C263.196 79.3234 265.192 80.5869 266.936 82.3429C268.54 84.0536 269.75 86.095 270.567 88.467C271.431 90.8385 271.876 93.3775 271.903 96.084C271.913 97.1106 271.854 98.1146 271.723 99.096C271.64 100.077 271.509 101.035 271.332 101.97ZM241.361 94.0086L262.57 93.797C262.418 92.6318 262.057 91.5387 261.487 90.5176C260.963 89.4495 260.348 88.5689 259.641 87.8759C258.747 87.1381 257.715 86.5884 256.544 86.2267C255.42 85.8179 254.228 85.6198 252.968 85.6324C251.428 85.6477 249.961 85.8957 248.565 86.3763C247.216 86.8098 246.056 87.4281 245.084 88.2311C244.204 88.9399 243.443 89.8109 242.8 90.844C242.156 91.8305 241.677 92.8853 241.361 94.0086ZM319.86 77.9648L312.687 116.818L304.148 116.903L304.545 114.589L304.405 114.591C303.25 115.816 301.743 116.717 299.882 117.296C298.021 117.921 296.041 118.244 293.941 118.265C291.748 118.287 289.574 117.959 287.421 117.28C285.314 116.601 283.436 115.523 281.788 114.046C279.812 112.386 278.275 110.371 277.178 108.002C276.127 105.586 275.609 102.791 275.624 99.6171C275.591 96.3039 276.12 93.1952 277.211 90.2908C278.348 87.3393 280.027 84.8024 282.245 82.6802C284.187 80.7941 286.413 79.3718 288.923 78.4134C291.434 77.455 294.136 76.9613 297.029 76.9325C300.109 76.9018 302.75 77.3888 304.954 78.3935C307.157 79.3982 308.945 80.8738 310.318 82.8202L310.458 82.8188L311.321 78.05L319.86 77.9648ZM297.111 85.1921C293.565 85.2741 290.615 86.5869 288.26 89.1305C285.952 91.627 284.842 94.9749 284.93 99.1743C284.963 102.487 285.876 105.138 287.67 107.127C289.509 109.069 291.969 110.025 295.049 109.994C298.642 109.958 301.593 108.692 303.901 106.195C306.256 103.652 307.413 100.35 307.372 96.2903C307.338 92.8838 306.378 90.1866 304.492 88.1986C302.651 86.1635 300.191 85.1613 297.111 85.1921ZM324.211 77.9214L352.14 77.6428L350.612 85.9185L341.303 86.0113L335.657 116.589L326.348 116.682L331.993 86.1042L322.683 86.1971L324.211 77.9214ZM347.12 129.425L356.684 77.5975L365.224 77.5123L364.827 79.8264L364.967 79.825C366.122 78.6468 367.606 77.7686 369.421 77.1905C371.234 76.5657 373.214 76.2192 375.36 76.1512C377.787 76.127 379.984 76.4551 381.951 77.1355C383.964 77.8154 385.818 78.8937 387.513 80.3702C389.585 82.2629 391.124 84.4177 392.128 86.8345C393.132 89.2512 393.649 91.9062 393.677 94.7994C393.711 98.1592 393.159 101.315 392.022 104.266C390.884 107.171 389.229 109.661 387.056 111.736C385.115 113.622 382.842 115.045 380.238 116.005C377.681 116.963 374.932 117.457 371.993 117.487C369.239 117.514 366.832 117.118 364.77 116.299C362.709 115.479 361.016 114.166 359.691 112.359L359.551 112.361L356.43 129.333L347.12 129.425ZM374.043 84.4247C370.496 84.4601 367.569 85.7494 365.261 88.2925C363 90.8352 361.889 94.1598 361.93 98.2662C361.964 101.673 362.878 104.37 364.671 106.359C366.511 108.301 368.994 109.256 372.12 109.225C375.713 109.189 378.664 107.923 380.973 105.427C383.281 102.93 384.415 99.652 384.375 95.5922C384.34 92.1391 383.38 89.4185 381.493 87.4306C379.653 85.3955 377.169 84.3935 374.043 84.4247Z" fill="#FFE500"/>
</svg>
