<svg width="367" height="72" viewBox="0 0 367 72" fill="none" xmlns="http://www.w3.org/2000/svg">
<path d="M17.5703 0.346707C19.8102 0.324365 21.7469 0.651731 23.3804 1.32881C25.0406 2.00561 26.5038 2.99107 27.7701 4.28517C29.01 5.6062 29.9315 7.09042 30.5347 8.73782C31.1378 10.3852 31.4488 12.1555 31.4677 14.0488C31.4916 16.4487 31.0744 18.7329 30.216 20.9016C29.384 23.0433 28.1892 24.9087 26.6316 26.4976C25.1271 28.0594 23.4054 29.2366 21.4666 30.0293C19.5541 30.7951 17.2646 31.1913 14.5981 31.2179C12.3315 31.2405 10.3683 30.9267 8.7084 30.2766C7.0749 29.5995 5.6382 28.6005 4.3983 27.2794C3.13199 25.9853 2.19728 24.5146 1.59415 22.8672C1.01769 21.2195 0.719881 19.4357 0.700731 17.5158C0.67706 15.1426 1.08123 12.8851 1.91324 10.7434C2.74499 8.57498 3.95285 6.68284 5.53681 5.06696C7.01491 3.53214 8.71005 2.36851 10.6222 1.57607C12.5611 0.783356 14.8771 0.37357 17.5703 0.346707ZM14.987 26.0938C16.8269 26.0754 18.4371 25.7527 19.8176 25.1255C21.2245 24.4715 22.4154 23.5529 23.3903 22.3698C24.2332 21.3213 24.8743 20.0882 25.3135 18.6704C25.7791 17.2257 26.0044 15.7567 25.9895 14.2634C25.9773 13.0368 25.7658 11.8789 25.3549 10.7896C24.9704 9.67336 24.4007 8.70566 23.6458 7.88649C22.8915 7.12064 21.9922 6.52958 20.948 6.1133C19.9302 5.6701 18.6747 5.45595 17.1814 5.47084C15.3148 5.48946 13.6781 5.8258 12.2712 6.47986C10.891 7.13366 9.72666 8.03865 8.77814 9.19484C7.90882 10.2702 7.25469 11.5301 6.81574 12.9746C6.37653 14.3924 6.16423 15.8346 6.17886 17.3012C6.19136 18.5544 6.38986 19.7392 6.77434 20.8554C7.15856 21.945 7.74131 22.8859 8.52258 23.6781C9.25053 24.4709 10.1234 25.0889 11.1412 25.5321C12.1854 25.9484 13.4673 26.1356 14.987 26.0938ZM59.2472 0.451033L58.0543 5.18316L47.9768 5.48369C46.6438 5.52365 45.3793 5.74961 44.1834 6.16156C43.0141 6.57324 41.9931 7.14346 41.1203 7.8722C40.3798 8.49295 39.7335 9.20609 39.1815 10.0116C38.656 10.7903 38.2509 11.621 37.9663 12.5039L38.0463 12.5031C39.0738 11.2394 40.3039 10.2405 41.7366 9.50613C43.1691 8.74514 44.792 8.3556 46.6052 8.33751C48.1518 8.32209 49.5273 8.53505 50.7318 8.97639C51.9363 9.41773 53.0097 10.0871 53.952 10.9844C54.8679 11.9086 55.5587 12.9818 56.0242 14.2039C56.5164 15.4257 56.77 16.7832 56.7849 18.2765C56.8032 20.1164 56.4872 21.853 55.8368 23.4862C55.1861 25.0928 54.2929 26.4484 53.1572 27.5531C52.0743 28.604 50.7758 29.4303 49.2617 30.0321C47.7741 30.607 46.0969 30.9037 44.2304 30.9223C42.5771 30.9388 41.0948 30.7136 39.7834 30.2466C38.4987 29.7794 37.3848 29.0572 36.4416 28.0799C35.4452 27.1031 34.673 25.8841 34.125 24.4228C33.5771 22.9615 33.2933 21.2443 33.2736 19.271C33.2404 15.9379 33.8099 12.8787 34.9822 10.0935C36.1544 7.30836 37.7596 5.14558 39.7977 3.60518C41.0419 2.68605 42.4085 2.00572 43.8975 1.56418C45.4129 1.09571 47.1037 0.825502 48.9697 0.753554L59.2472 0.451033ZM45.6923 13.0669C44.6791 13.077 43.7208 13.2599 42.8177 13.6156C41.9412 13.971 41.1996 14.4851 40.5929 15.1578C39.986 15.8039 39.514 16.6087 39.177 17.5721C38.8663 18.5085 38.7161 19.4968 38.7265 20.5367C38.7345 21.3367 38.8485 22.0689 39.0684 22.7334C39.3151 23.3976 39.6676 23.9808 40.1259 24.4829C40.6115 25.0381 41.2025 25.4723 41.899 25.7853C42.6219 26.0715 43.4633 26.2097 44.4233 26.2002C45.4366 26.1901 46.3814 26.0073 47.2579 25.6519C48.1611 25.2962 48.9293 24.7818 49.5627 24.1088C50.1432 23.4896 50.5888 22.7118 50.8995 21.7754C51.2368 20.8386 51.4136 19.8501 51.4299 18.8099C51.3953 18.0102 51.2546 17.2783 51.008 16.614C50.7878 15.9228 50.4616 15.3127 50.0297 14.7837C49.5177 14.2554 48.9002 13.8349 48.177 13.5221C47.4805 13.209 46.6523 13.0573 45.6923 13.0669ZM56.5623 37.4797L62.0272 7.86367L66.907 7.815L66.6801 9.13733L66.7601 9.13653C67.4201 8.46325 68.2685 7.96143 69.3052 7.63107C70.3417 7.27405 71.4731 7.07609 72.6995 7.03719C74.0861 7.02336 75.3413 7.21085 76.4653 7.59966C77.6159 7.9882 78.6754 8.60433 79.6439 9.44804C80.8281 10.5296 81.707 11.7609 82.2809 13.1419C82.8547 14.5229 83.1498 16.0401 83.1663 17.6933C83.1854 19.6132 82.8701 21.4165 82.2202 23.103C81.5701 24.7629 80.6242 26.1858 79.3826 27.3715C78.2733 28.4493 76.9747 29.2623 75.4868 29.8105C74.0255 30.3585 72.4549 30.6408 70.775 30.6576C69.2017 30.6733 67.8261 30.447 66.648 29.9787C65.4699 29.5104 64.5024 28.76 63.7454 27.7275L63.6654 27.7283L61.882 37.4266L56.5623 37.4797ZM71.9466 11.7649C69.92 11.7851 68.2473 12.5219 66.9284 13.9751C65.6362 15.4281 65.0017 17.3278 65.0251 19.6744C65.0446 21.6209 65.5666 23.1625 66.5913 24.299C67.6425 25.4085 69.0613 25.9544 70.8479 25.9366C72.9011 25.9161 74.5873 25.1926 75.9065 23.766C77.2257 22.3395 77.8737 20.4662 77.8505 18.1464C77.8309 16.1731 77.282 14.6185 76.2039 13.4826C75.1523 12.3197 73.7332 11.7471 71.9466 11.7649ZM110.591 7.37928L106.492 29.5813L101.613 29.6299L101.839 28.3076L101.759 28.3084C101.1 29.0084 100.238 29.5236 99.1746 29.8543C98.1115 30.2116 96.9799 30.3962 95.78 30.4081C94.5267 30.4206 93.2848 30.233 92.0542 29.8453C90.8503 29.4573 89.7774 28.8413 88.8356 27.9973C87.7061 27.0485 86.8279 25.8972 86.201 24.5434C85.6005 23.1626 85.3046 21.5655 85.3132 19.752C85.2943 17.8588 85.5966 16.0823 86.2201 14.4227C86.8699 12.7361 87.8289 11.2865 89.0968 10.0738C90.2061 8.99601 91.4781 8.18328 92.9127 7.63561C94.3473 7.08794 95.8912 6.80586 97.5445 6.78937C99.3044 6.77182 100.814 7.05011 102.073 7.62425C103.332 8.19839 104.354 9.04157 105.138 10.1538L105.218 10.153L105.711 7.42795L110.591 7.37928ZM97.5916 11.5091C95.5653 11.556 93.8793 12.3062 92.5338 13.7597C91.2146 15.1863 90.5803 17.0993 90.6309 19.499C90.6498 21.3922 91.1716 22.9071 92.1963 24.0436C93.2474 25.1531 94.653 25.6992 96.4129 25.6816C98.4661 25.6611 100.152 24.9376 101.471 23.511C102.817 22.0575 103.478 20.1709 103.455 17.851C103.436 15.9044 102.887 14.3631 101.809 13.2272C100.757 12.0643 99.3515 11.4916 97.5916 11.5091ZM117.742 13.8683L112.423 13.9213C112.493 12.9339 112.75 11.9846 113.194 11.0735C113.639 10.1624 114.231 9.36974 114.971 8.69566C115.764 7.99439 116.719 7.47817 117.835 7.14701C118.978 6.78893 120.123 6.59083 121.27 6.55273C122.47 6.54076 123.511 6.70371 124.395 7.04159C125.304 7.35253 126.055 7.77173 126.647 8.29918C127.186 8.82717 127.592 9.46315 127.866 10.2071C128.167 10.9242 128.335 11.6959 128.369 12.5222C128.383 13.9088 127.995 15.0861 127.205 16.054C126.441 17.0217 125.421 17.6985 124.145 18.0846C125.028 18.3958 125.727 18.9356 126.241 19.7038C126.755 20.4454 127.031 21.3893 127.069 22.5357C127.082 23.7623 126.839 24.8714 126.342 25.8631C125.872 26.8278 125.134 27.6752 124.128 28.4053C123.307 29.0002 122.431 29.4356 121.501 29.7116C120.57 30.0142 119.572 30.1708 118.505 30.1815C117.492 30.1916 116.557 30.0809 115.702 29.8494C114.846 29.6179 114.096 29.2654 113.451 28.7918C112.619 28.2134 111.971 27.4598 111.508 26.5311C111.072 25.5754 110.848 24.4976 110.836 23.2976C110.834 23.0843 110.832 22.8843 110.83 22.6977C110.828 22.4843 110.852 22.2707 110.904 22.0569L116.223 22.0038C116.198 22.1108 116.186 22.2176 116.187 22.3242C116.188 22.4309 116.189 22.5775 116.191 22.7642C116.2 23.6175 116.446 24.2817 116.931 24.7569C117.442 25.2318 118.098 25.4653 118.898 25.4573C119.325 25.4797 119.711 25.4225 120.056 25.2858C120.401 25.1223 120.706 24.9059 120.97 24.6366C121.207 24.3676 121.391 24.0591 121.521 23.7111C121.677 23.3628 121.753 22.9754 121.749 22.5487C121.746 22.2021 121.676 21.8961 121.54 21.6308C121.43 21.3385 121.281 21.0867 121.092 20.8752C120.904 20.7171 120.69 20.5992 120.449 20.5216C120.235 20.4437 119.928 20.4068 119.528 20.4108L118.168 20.4244L119.004 16.0158L120.444 16.0014C120.844 15.9974 121.203 15.9539 121.523 15.8707C121.868 15.7872 122.16 15.651 122.398 15.4619C122.663 15.2726 122.874 15.0305 123.031 14.7356C123.188 14.414 123.264 14.0399 123.26 13.6132C123.257 13.2666 123.2 12.9471 123.091 12.6549C122.981 12.3626 122.832 12.1108 122.643 11.8993C122.428 11.7148 122.16 11.5708 121.839 11.4673C121.517 11.3372 121.143 11.2742 120.717 11.2785C120.263 11.283 119.877 11.3402 119.558 11.45C119.266 11.5596 119.001 11.7089 118.763 11.898C118.472 12.1409 118.235 12.4366 118.052 12.7851C117.868 13.1336 117.765 13.4947 117.742 13.8683ZM142.627 6.33971C144.387 6.32215 145.909 6.56031 147.194 7.05419C148.479 7.5214 149.606 8.21686 150.575 9.14057C151.518 10.0912 152.249 11.204 152.769 12.4789C153.288 13.7537 153.556 15.1911 153.572 16.7911C153.591 18.711 153.276 20.5142 152.626 22.2008C151.976 23.8873 151.07 25.3098 149.908 26.4681C148.72 27.6533 147.382 28.5334 145.894 29.1083C144.433 29.6562 142.836 29.9388 141.102 29.9561C139.343 29.9736 137.807 29.7489 136.495 29.282C135.211 28.8148 134.084 28.106 133.114 27.1556C132.145 26.2319 131.401 25.1459 130.881 23.8977C130.362 22.6228 130.094 21.1321 130.077 19.4255C130.058 17.559 130.361 15.7959 130.984 14.1362C131.634 12.4763 132.553 11.0404 133.741 9.8285C134.903 8.67019 136.215 7.80373 137.676 7.22913C139.163 6.65427 140.814 6.35779 142.627 6.33971ZM142.394 11.0623C141.381 11.0724 140.436 11.2685 139.56 11.6506C138.684 12.0327 137.929 12.5869 137.296 13.3132C136.663 14.0396 136.179 14.8978 135.842 15.8879C135.531 16.851 135.382 17.9059 135.393 19.0525C135.402 19.9058 135.517 20.7047 135.737 21.4492C135.985 22.1934 136.338 22.8299 136.796 23.3587C137.282 23.9672 137.887 24.4412 138.611 24.7807C139.36 25.0932 140.242 25.2444 141.255 25.2343C142.242 25.2245 143.174 25.0419 144.05 24.6864C144.926 24.3043 145.694 23.7366 146.353 22.9834C146.96 22.284 147.431 21.4525 147.768 20.4891C148.105 19.4991 148.268 18.4174 148.256 17.2441C148.248 16.4175 148.12 15.632 147.872 14.8878C147.625 14.1436 147.285 13.4936 146.853 12.9379C146.34 12.3563 145.709 11.8959 144.959 11.5567C144.236 11.2172 143.381 11.0524 142.394 11.0623ZM158.819 6.89823L167.499 6.81166C168.752 6.79916 169.78 6.92225 170.583 7.18092C171.385 7.43959 172.056 7.81959 172.594 8.32091C172.971 8.71717 173.283 9.23409 173.53 9.87166C173.802 10.4823 173.943 11.1609 173.95 11.9076C173.93 12.6011 173.803 13.2558 173.57 13.8715C173.362 14.4602 173.021 15.0103 172.546 15.5218C172.15 15.9524 171.701 16.3302 171.197 16.6553C170.693 16.9536 170.162 17.1723 169.604 17.3112C170.647 17.5941 171.452 18.1595 172.021 19.0072C172.616 19.8279 172.919 20.8116 172.93 21.9582C172.915 23.1584 172.673 24.2143 172.202 25.1257C171.731 26.0371 171.058 26.8038 170.185 27.4259C169.443 27.94 168.607 28.335 167.676 28.611C166.772 28.86 165.693 28.9908 164.44 29.0033L154.72 29.1002L158.819 6.89823ZM163.305 11.4137L162.621 15.1007L166.221 15.0648C166.648 15.0872 166.981 15.0572 167.22 14.9748C167.459 14.8925 167.685 14.7569 167.896 14.5681C168.108 14.3793 168.279 14.1509 168.409 13.8829C168.54 13.5883 168.603 13.2676 168.6 12.921C168.571 12.7079 168.516 12.5218 168.434 12.3626C168.379 12.1765 168.284 12.0041 168.149 11.8454C167.961 11.6873 167.746 11.5828 167.506 11.5318C167.292 11.454 167.011 11.4034 166.664 11.3802L163.305 11.4137ZM161.747 19.6697L160.875 24.4786L164.715 24.4403C165.061 24.4635 165.394 24.4335 165.714 24.3503C166.033 24.2405 166.338 24.0908 166.629 23.9012C167 23.6575 167.277 23.3614 167.46 23.0128C167.67 22.6374 167.772 22.183 167.767 21.6497C167.764 21.3297 167.708 21.0636 167.599 20.8514C167.49 20.6124 167.354 20.4004 167.192 20.2154C166.977 20.0309 166.736 19.8999 166.469 19.8226C166.201 19.7186 165.8 19.6559 165.267 19.6346L161.747 19.6697ZM200.977 6.47773L196.878 28.6797L191.999 28.7284L192.225 27.4061L192.145 27.4069C191.486 28.1068 190.624 28.6221 189.561 28.9527C188.498 29.31 187.366 29.4946 186.166 29.5066C184.913 29.5191 183.671 29.3315 182.44 28.9437C181.236 28.5557 180.164 27.9397 179.222 27.0957C178.092 26.147 177.214 24.9957 176.587 23.6419C175.987 22.2611 175.691 20.664 175.699 18.8505C175.68 16.9572 175.983 15.1808 176.606 13.5212C177.256 11.8346 178.215 10.385 179.483 9.17225C180.592 8.09446 181.864 7.28174 183.299 6.73407C184.733 6.1864 186.277 5.90432 187.931 5.88783C189.691 5.87028 191.2 6.14857 192.459 6.7227C193.718 7.29684 194.74 8.14003 195.525 9.25226L195.605 9.25146L196.097 6.52641L200.977 6.47773ZM187.978 10.6076C185.951 10.6545 184.265 11.4047 182.92 12.8582C181.601 14.2847 180.966 16.1978 181.017 18.5974C181.036 20.4907 181.558 22.0055 182.582 23.142C183.634 24.2516 185.039 24.7976 186.799 24.7801C188.852 24.7596 190.538 24.0361 191.858 22.6095C193.203 21.156 193.864 19.2693 193.841 16.9494C193.822 15.0029 193.273 13.4616 192.195 12.3256C191.143 11.1627 189.738 10.59 187.978 10.6076ZM203.463 6.45294L219.422 6.29375L218.55 11.0227L213.23 11.0758L210.004 28.5488L204.684 28.6019L207.91 11.1288L202.59 11.1819L203.463 6.45294ZM242.032 19.5089L224.473 19.684C224.533 20.3235 224.699 20.9219 224.971 21.4792C225.243 22.0098 225.621 22.4861 226.105 22.9079C226.617 23.4095 227.221 23.7768 227.916 24.0099C228.612 24.243 229.4 24.3551 230.28 24.3464C230.84 24.3408 231.386 24.282 231.918 24.17C232.45 24.0314 232.955 23.8263 233.432 23.5549C233.804 23.3645 234.135 23.1345 234.425 22.8649C234.742 22.5684 235.019 22.2457 235.256 21.8966L241.255 21.8368C240.786 22.8815 240.209 23.8206 239.523 24.6542C238.865 25.4875 238.165 26.1745 237.424 26.7152C236.418 27.472 235.25 28.0436 233.921 28.4302C232.618 28.8433 231.14 29.058 229.487 29.0745C227.86 29.0907 226.432 28.865 225.2 28.3972C223.996 27.9559 222.895 27.2202 221.898 26.1901C220.848 25.1605 220.076 24.0081 219.583 22.733C219.117 21.4309 218.877 20.0599 218.862 18.62C218.843 16.6734 219.171 14.8567 219.848 13.1699C220.525 11.483 221.444 10.0604 222.606 8.90214C223.741 7.77075 225.053 6.91763 226.54 6.34277C228.028 5.7679 229.732 5.47089 231.652 5.45174C233.331 5.43498 234.814 5.66021 236.099 6.12742C237.383 6.56797 238.524 7.28996 239.52 8.2934C240.437 9.27097 241.128 10.4375 241.595 11.7929C242.089 13.148 242.343 14.5989 242.359 16.1455C242.365 16.7321 242.33 17.3058 242.256 17.8666C242.208 18.4271 242.134 18.9745 242.032 19.5089ZM224.906 14.9595L237.025 14.8386C236.939 14.1728 236.733 13.5481 236.407 12.9647C236.107 12.3543 235.756 11.8511 235.352 11.4551C234.841 11.0335 234.251 10.7194 233.582 10.5127C232.94 10.2791 232.259 10.1659 231.539 10.1731C230.659 10.1819 229.82 10.3236 229.023 10.5982C228.252 10.8459 227.589 11.1992 227.033 11.6581C226.531 12.0631 226.096 12.5608 225.728 13.1512C225.36 13.7149 225.086 14.3177 224.906 14.9595ZM259.483 5.89417L264.384 28.0064L258.944 28.0607L255.705 12.0922L247.505 28.1748L241.505 28.2346L253.484 5.95402L259.483 5.89417ZM270.806 5.78124L276.126 5.72818L274.683 13.5029L278.643 13.4635C279.736 13.4792 280.725 13.6294 281.608 13.9139C282.517 14.1715 283.281 14.5906 283.9 15.1711C284.439 15.7258 284.859 16.4016 285.16 17.1986C285.488 17.9954 285.657 18.8604 285.666 19.7937C285.651 20.9139 285.435 21.9828 285.018 23.0003C284.602 23.9912 283.97 24.8776 283.125 25.6594C282.332 26.3873 281.444 26.9429 280.461 27.326C279.478 27.6825 278.253 27.8681 276.787 27.8827L266.707 27.9832L270.806 5.78124ZM273.81 18.2319L272.9 23.2012L276.94 23.1609C277.366 23.1567 277.779 23.1125 278.178 23.0286C278.577 22.9179 278.909 22.7813 279.174 22.6186C279.572 22.3746 279.862 22.0651 280.045 21.6899C280.228 21.3147 280.33 20.887 280.352 20.4068C280.348 19.9801 280.278 19.6475 280.142 19.4088C280.033 19.1432 279.857 18.9049 279.615 18.694C279.374 18.5364 279.092 18.4192 278.772 18.3424C278.477 18.2387 278.117 18.1889 277.69 18.1932L273.81 18.2319ZM291.586 5.57397L296.906 5.52091L295.387 13.6965L303.667 13.6139L305.185 5.43832L310.505 5.38526L306.406 27.5872L301.087 27.6403L302.794 18.3428L294.514 18.4254L292.807 27.7229L287.487 27.776L291.586 5.57397ZM314.788 5.34254L320.108 5.28948L318.665 13.0643L322.625 13.0248C323.719 13.0405 324.707 13.1907 325.59 13.4752C326.499 13.7328 327.263 14.1519 327.882 14.7324C328.421 15.2871 328.841 15.9629 329.143 16.7599C329.471 17.5567 329.639 18.4217 329.649 19.355C329.633 20.4752 329.417 21.5441 329.001 22.5616C328.584 23.5525 327.953 24.4389 327.107 25.2207C326.314 25.9486 325.426 26.5042 324.443 26.8873C323.46 27.2438 322.235 27.4294 320.769 27.444L310.689 27.5445L314.788 5.34254ZM330.688 27.345L334.787 5.14306L340.107 5.09L336.008 27.292L330.688 27.345ZM317.792 17.7932L316.882 22.7625L320.922 22.7222C321.348 22.718 321.761 22.6739 322.16 22.5899C322.559 22.4792 322.891 22.3426 323.156 22.1799C323.554 21.9359 323.844 21.6264 324.027 21.2512C324.21 20.876 324.313 20.4483 324.334 19.9681C324.33 19.5414 324.26 19.2088 324.124 18.9701C324.015 18.7045 323.839 18.4663 323.597 18.2553C323.356 18.0977 323.075 17.9805 322.754 17.9037C322.459 17.8 322.099 17.7502 321.672 17.7545L317.792 17.7932ZM364.409 18.2883L346.85 18.4634C346.91 19.1029 347.076 19.7012 347.348 20.2585C347.62 20.7892 347.998 21.2654 348.482 21.6873C348.994 22.1889 349.598 22.5562 350.293 22.7893C350.989 23.0224 351.777 23.1345 352.657 23.1257C353.217 23.1201 353.763 23.0614 354.295 22.9494C354.827 22.8107 355.332 22.6057 355.809 22.3343C356.18 22.1439 356.511 21.9139 356.802 21.6443C357.119 21.3478 357.396 21.025 357.632 20.676L363.632 20.6161C363.163 21.6609 362.585 22.6 361.9 23.4336C361.242 24.2668 360.542 24.9538 359.801 25.4946C358.795 26.2513 357.627 26.823 356.298 27.2096C354.995 27.6226 353.517 27.8374 351.864 27.8539C350.237 27.8701 348.808 27.6443 347.577 27.1766C346.372 26.7353 345.272 25.9995 344.275 24.9694C343.224 23.9398 342.453 22.7875 341.96 21.5123C341.494 20.2103 341.253 18.8393 341.239 17.3993C341.22 15.4528 341.548 13.6361 342.225 11.9492C342.901 10.2624 343.82 8.83982 344.982 7.6815C346.118 6.55012 347.429 5.697 348.917 5.12213C350.405 4.54727 352.108 4.25026 354.028 4.23111C355.708 4.21435 357.191 4.43958 358.475 4.90679C359.76 5.34733 360.9 6.06933 361.897 7.07277C362.813 8.05034 363.505 9.21684 363.972 10.5722C364.466 11.9274 364.72 13.3783 364.735 14.9248C364.741 15.5115 364.707 16.0852 364.633 16.646C364.585 17.2065 364.51 17.7539 364.409 18.2883ZM347.283 13.7389L359.402 13.618C359.316 12.9521 359.109 12.3275 358.783 11.7441C358.484 11.1337 358.132 10.6305 357.728 10.2345C357.217 9.81291 356.628 9.49878 355.959 9.29211C355.317 9.0585 354.635 8.94529 353.915 8.95247C353.035 8.96125 352.197 9.10295 351.399 9.37758C350.629 9.62529 349.965 9.97858 349.41 10.4375C348.907 10.8425 348.472 11.3402 348.105 11.9306C347.737 12.4943 347.463 13.097 347.283 13.7389ZM238.239 64.269L242.338 42.067L247.658 42.0139L245.759 52.1934L255.578 41.9349L261.897 41.8719L250.966 52.8615L258.278 64.0691L251.959 64.1321L245.533 53.5557L243.559 64.2159L238.239 64.269ZM280.179 41.6895L286.099 41.6305L268.115 71.3713L262.195 71.4304L268.02 61.8918L263.62 41.8547L269.34 41.7976L272.242 55.9694L280.179 41.6895ZM283.277 71.2201L288.742 41.6041L293.622 41.5555L293.395 42.8778L293.475 42.877C294.135 42.2037 294.983 41.7019 296.02 41.3715C297.057 41.0145 298.188 40.8165 299.414 40.7776C300.801 40.7638 302.056 40.9513 303.18 41.3401C304.331 41.7286 305.39 42.3448 306.359 43.1885C307.543 44.2701 308.422 45.5014 308.996 46.8824C309.57 48.2634 309.865 49.7805 309.881 51.4338C309.9 53.3537 309.585 55.1569 308.935 56.8435C308.285 58.5034 307.339 59.9262 306.098 61.112C304.988 62.1898 303.69 63.0028 302.202 63.551C300.74 64.0989 299.17 64.3813 297.49 64.398C295.917 64.4137 294.541 64.1874 293.363 63.7191C292.185 63.2509 291.217 62.5005 290.46 61.468L290.38 61.4688L288.597 71.167L283.277 71.2201ZM298.662 45.5054C296.635 45.5256 294.962 46.2623 293.643 47.7155C292.351 49.1685 291.717 51.0683 291.74 53.4148C291.76 55.3614 292.282 56.9029 293.306 58.0394C294.357 59.149 295.776 59.6949 297.563 59.677C299.616 59.6566 301.302 58.933 302.621 57.5065C303.941 56.0799 304.589 54.2067 304.566 51.8868C304.546 49.9136 303.997 48.359 302.919 47.223C301.867 46.0601 300.448 45.4876 298.662 45.5054ZM328.736 56.166L334.495 56.1085C333.642 58.7572 332.182 60.7585 330.115 62.1125C328.048 63.4398 325.641 64.1172 322.895 64.1446C321.161 64.1352 319.666 63.9101 318.408 63.4693C317.15 63.0552 316.037 62.3596 315.067 61.3825C314.098 60.4588 313.34 59.3597 312.794 58.0851C312.274 56.7835 312.019 55.2926 312.029 53.6125C311.984 51.7461 312.273 49.9832 312.897 48.3235C313.547 46.6636 314.479 45.2276 315.694 44.0154C316.855 42.8305 318.167 41.964 319.628 41.4161C321.116 40.8412 322.846 40.5439 324.819 40.5242C327.833 40.4942 330.227 41.2303 332.002 42.7327C333.777 44.2084 334.889 46.1308 335.34 48.4997L329.5 48.558C329.143 47.4948 328.521 46.6743 327.635 46.0964C326.749 45.5186 325.706 45.2356 324.507 45.2476C323.44 45.2582 322.442 45.4682 321.513 45.8775C320.61 46.2598 319.842 46.8142 319.209 47.5405C318.576 48.2402 318.091 49.0718 317.754 50.0352C317.444 50.9983 317.307 52.0397 317.345 53.1594C317.355 54.1727 317.498 55.0913 317.773 55.9153C318.074 56.7123 318.48 57.3616 318.992 57.8632C319.477 58.3917 320.055 58.786 320.724 59.046C321.393 59.306 322.195 59.4314 323.128 59.4221C324.434 59.409 325.578 59.1309 326.56 58.5878C327.541 58.0446 328.266 57.2374 328.736 56.166ZM340.732 41.0856L346.052 41.0325L344.609 48.8073L348.569 48.7678C349.662 48.7835 350.651 48.9337 351.533 49.2182C352.443 49.4758 353.207 49.8949 353.826 50.4754C354.365 51.0301 354.785 51.7059 355.086 52.503C355.414 53.2997 355.583 54.1648 355.592 55.098C355.577 56.2182 355.361 57.2871 354.944 58.3047C354.527 59.2955 353.896 60.1819 353.051 60.9637C352.258 61.6916 351.37 62.2472 350.387 62.6303C349.404 62.9868 348.179 63.1724 346.713 63.187L336.633 63.2875L340.732 41.0856ZM356.632 63.0881L360.731 40.8861L366.051 40.833L361.952 63.035L356.632 63.0881ZM343.736 53.5362L342.826 58.5055L346.865 58.4652C347.292 58.461 347.705 58.4169 348.104 58.3329C348.503 58.2222 348.835 58.0856 349.1 57.9229C349.498 57.679 349.788 57.3694 349.971 56.9942C350.154 56.619 350.256 56.1913 350.278 55.7111C350.274 55.2844 350.204 54.9518 350.068 54.7131C349.959 54.4475 349.783 54.2093 349.541 53.9983C349.299 53.8407 349.018 53.7235 348.697 53.6467C348.403 53.543 348.043 53.4933 347.616 53.4975L343.736 53.5362Z" fill="#FFE500"/>
</svg>
