<svg width="461" height="125" viewBox="0 0 461 125" fill="none" xmlns="http://www.w3.org/2000/svg">
<path d="M0.0329086 52.6029L9.59576 0.704987L47.1839 0.330069L37.621 52.228L28.0315 52.3237L35.9338 9.40272L17.5247 9.58634L9.62243 52.5073L0.0329086 52.6029ZM79.2103 13.0313L89.5698 12.9279L58.0973 64.9744L47.7378 65.0778L57.9318 48.3853L50.2317 13.3203L60.2412 13.2205L65.3188 38.0211L79.2103 13.0313ZM91.1152 12.9125L119.044 12.634L117.516 20.9096L108.207 21.0025L102.561 51.5803L93.2519 51.6731L98.8972 21.0953L89.5876 21.1882L91.1152 12.9125ZM158.611 35.7605L127.882 36.067C127.987 37.186 128.277 38.2331 128.754 39.2084C129.23 40.1371 129.891 40.9705 130.739 41.7088C131.634 42.5865 132.691 43.2294 133.908 43.6372C135.126 44.0451 136.504 44.2414 138.044 44.226C139.024 44.2162 139.98 44.1134 140.911 43.9174C141.842 43.6748 142.726 43.316 143.561 42.8409C144.211 42.5078 144.79 42.1053 145.299 41.6335C145.854 41.1146 146.338 40.5498 146.752 39.939L157.251 39.8342C156.43 41.6625 155.419 43.306 154.221 44.7647C153.068 46.2229 151.844 47.4252 150.546 48.3715C148.786 49.6958 146.743 50.6963 144.416 51.3728C142.136 52.0956 139.55 52.4714 136.657 52.5003C133.81 52.5287 131.31 52.1336 129.155 51.315C127.047 50.5427 125.121 49.2552 123.376 47.4525C121.538 45.6507 120.188 43.6341 119.325 41.4026C118.509 39.1239 118.089 36.7247 118.063 34.2048C118.029 30.7983 118.604 27.6191 119.788 24.6671C120.972 21.7152 122.581 19.2257 124.614 17.1986C126.601 15.2187 128.896 13.7257 131.5 12.7197C134.103 11.7137 137.085 11.1939 140.445 11.1604C143.385 11.1311 145.979 11.5253 148.227 12.3429C150.475 13.1138 152.471 14.3773 154.215 16.1333C155.819 17.8441 157.029 19.8855 157.846 22.2574C158.71 24.6289 159.155 27.1679 159.182 29.8745C159.192 30.9011 159.133 31.9051 159.002 32.8864C158.919 33.8673 158.788 34.8253 158.611 35.7605ZM128.64 27.799L149.849 27.5875C149.697 26.4222 149.336 25.3291 148.766 24.3081C148.242 23.2399 147.627 22.3594 146.92 21.6664C146.026 20.9286 144.994 20.3789 143.823 20.0172C142.699 19.6084 141.507 19.4102 140.247 19.4228C138.707 19.4382 137.24 19.6862 135.844 20.1668C134.495 20.6002 133.335 21.2185 132.363 22.0216C131.483 22.7304 130.722 23.6014 130.079 24.6345C129.435 25.621 128.956 26.6758 128.64 27.799ZM168.361 12.142L177.671 12.0492L172.025 42.627L183.715 42.5104L189.36 11.9326L198.67 11.8397L193.024 42.4176L204.714 42.301L210.359 11.7231L219.669 11.6303L212.496 50.4838L161.188 50.9955L168.361 12.142ZM262.17 34.7275L231.442 35.034C231.546 36.153 231.837 37.2002 232.313 38.1755C232.789 39.1041 233.451 39.9376 234.298 40.6758C235.194 41.5536 236.25 42.1964 237.468 42.6043C238.685 43.0122 240.064 43.2084 241.604 43.1931C242.584 43.1833 243.539 43.0804 244.471 42.8845C245.402 42.6418 246.285 42.283 247.12 41.808C247.77 41.4748 248.349 41.0724 248.858 40.6006C249.413 40.0817 249.897 39.5168 250.311 38.906L260.811 38.8013C259.989 40.6296 258.979 42.2731 257.78 43.7318C256.628 45.19 255.403 46.3923 254.106 47.3386C252.345 48.6629 250.302 49.6633 247.975 50.3399C245.696 51.0627 243.109 51.4385 240.216 51.4673C237.37 51.4957 234.869 51.1006 232.714 50.2821C230.606 49.5098 228.68 48.2222 226.935 46.4195C225.097 44.6178 223.747 42.6012 222.885 40.3696C222.068 38.091 221.648 35.6917 221.623 33.1719C221.589 29.7654 222.164 26.5861 223.348 23.6342C224.532 20.6822 226.14 18.1927 228.173 16.1657C230.16 14.1858 232.456 12.6928 235.059 11.6868C237.663 10.6808 240.644 10.161 244.004 10.1275C246.944 10.0982 249.538 10.4923 251.786 11.3099C254.034 12.0809 256.03 13.3444 257.774 15.1004C259.378 16.8112 260.588 18.8525 261.406 21.2245C262.269 23.596 262.715 26.135 262.742 28.8415C262.752 29.8682 262.692 30.8721 262.562 31.8535C262.478 32.8344 262.348 33.7924 262.17 34.7275ZM232.199 26.7661L253.408 26.5545C253.257 25.3893 252.896 24.2962 252.326 23.2752C251.802 22.207 251.186 21.3264 250.479 20.6334C249.585 19.8957 248.553 19.3459 247.382 18.9842C246.258 18.5754 245.066 18.3773 243.806 18.3899C242.266 18.4052 240.799 18.6532 239.404 19.1338C238.054 19.5673 236.894 20.1856 235.922 20.9886C235.042 21.6975 234.281 22.5684 233.638 23.6016C232.994 24.588 232.515 25.6429 232.199 26.7661ZM295.7 37.0532L305.78 36.9527C304.286 41.5878 301.731 45.0901 298.114 47.4597C294.497 49.7825 290.286 50.9679 285.479 51.0159C282.446 50.9995 279.828 50.6055 277.627 49.8341C275.426 49.1094 273.477 47.8921 271.78 46.1823C270.084 44.5658 268.758 42.6422 267.803 40.4116C266.893 38.1339 266.447 35.5249 266.464 32.5846C266.385 29.3186 266.891 26.2334 267.982 23.329C269.12 20.4242 270.752 17.9111 272.877 15.7898C274.91 13.7161 277.205 12.1998 279.762 11.2409C282.366 10.2349 285.394 9.71466 288.847 9.68021C294.12 9.62762 298.31 10.9159 301.416 13.545C304.522 16.1275 306.469 19.4916 307.257 23.6373L297.038 23.7392C296.413 21.8787 295.325 20.4428 293.775 19.4316C292.224 18.4203 290.399 17.9251 288.3 17.9461C286.433 17.9647 284.687 18.3321 283.06 19.0484C281.48 19.7175 280.136 20.6876 279.029 21.9587C277.921 23.1832 277.072 24.6384 276.483 26.3244C275.939 28.0099 275.701 29.8323 275.767 31.7918C275.785 33.565 276.034 35.1726 276.515 36.6146C277.042 38.0094 277.754 39.1457 278.649 40.0234C279.499 40.9483 280.509 41.6383 281.68 42.0933C282.851 42.5483 284.254 42.7677 285.887 42.7514C288.173 42.7286 290.175 42.2419 291.893 41.2914C293.61 40.3409 294.879 38.9282 295.7 37.0532ZM313.614 10.6932L341.542 10.4147L340.015 18.6903L330.705 18.7832L325.06 49.361L315.751 49.4539L321.396 18.876L312.086 18.9689L313.614 10.6932ZM346.087 10.3693L361.276 10.2178C363.469 10.196 365.268 10.4114 366.673 10.864C368.077 11.3167 369.251 11.9817 370.193 12.859C370.853 13.5525 371.399 14.4571 371.83 15.5728C372.307 16.6415 372.552 17.8291 372.566 19.1357C372.531 20.3494 372.309 21.495 371.9 22.5725C371.537 23.6028 370.94 24.5655 370.108 25.4605C369.416 26.2141 368.629 26.8753 367.748 27.4441C366.867 27.9663 365.937 28.3489 364.959 28.592C366.784 29.0872 368.194 30.0765 369.189 31.56C370.23 32.9963 370.761 34.7178 370.781 36.7244C370.755 38.8247 370.33 40.6724 369.506 42.2674C368.682 43.8623 367.505 45.2041 365.976 46.2928C364.678 47.1924 363.215 47.8837 361.587 48.3666C360.004 48.8024 358.116 49.0313 355.923 49.0532L338.914 49.2228L346.087 10.3693ZM353.936 18.2715L352.74 24.7237L359.04 24.6609C359.787 24.7001 360.37 24.6476 360.788 24.5034C361.207 24.3592 361.601 24.122 361.971 23.7916C362.341 23.4612 362.641 23.0615 362.87 22.5926C363.098 22.0769 363.209 21.5158 363.203 20.9092C363.152 20.5363 363.056 20.2106 362.913 19.932C362.816 19.6063 362.65 19.3046 362.414 19.0269C362.084 18.7502 361.709 18.5673 361.288 18.4781C360.914 18.3419 360.423 18.2534 359.816 18.2128L353.936 18.2715ZM351.21 32.7194L349.684 41.135L356.403 41.068C357.011 41.1086 357.593 41.0561 358.152 40.9105C358.71 40.7183 359.244 40.4563 359.754 40.1245C360.403 39.698 360.888 39.1798 361.209 38.5699C361.576 37.9129 361.754 37.1177 361.745 36.1845C361.739 35.6245 361.641 35.1588 361.451 34.7873C361.26 34.3692 361.023 33.9982 360.74 33.6744C360.363 33.3514 359.941 33.1223 359.473 32.987C359.005 32.805 358.303 32.6953 357.37 32.6579L351.21 32.7194ZM381.085 10.0203L390.395 9.9274L385.878 34.4037L407.684 9.75496L416.993 9.6621L409.82 48.5156L400.511 48.6084L405.027 24.1322L383.222 48.7809L373.912 48.8737L381.085 10.0203ZM459.514 32.7592L428.785 33.0656C428.89 34.1847 429.18 35.2318 429.657 36.2071C430.133 37.1357 430.794 37.9692 431.642 38.7074C432.537 39.5852 433.594 40.228 434.811 40.6359C436.029 41.0438 437.407 41.2401 438.947 41.2247C439.927 41.2149 440.883 41.1121 441.814 40.9161C442.745 40.6735 443.628 40.3146 444.464 39.8396C445.114 39.5064 445.693 39.104 446.202 38.6322C446.757 38.1133 447.241 37.5485 447.655 36.9376L458.154 36.8329C457.333 38.6612 456.322 40.3047 455.124 41.7634C453.971 43.2216 452.747 44.4239 451.449 45.3702C449.689 46.6945 447.646 47.6949 445.319 48.3715C443.039 49.0943 440.453 49.4701 437.56 49.499C434.713 49.5273 432.213 49.1323 430.058 48.3137C427.95 47.5414 426.024 46.2539 424.279 44.4512C422.441 42.6494 421.091 40.6328 420.228 38.4013C419.412 36.1226 418.992 33.7234 418.966 31.2035C418.932 27.797 419.507 24.6178 420.691 21.6658C421.875 18.7139 423.484 16.2244 425.517 14.1973C427.504 12.2174 429.799 10.7244 432.403 9.71841C435.006 8.71239 437.988 8.19263 441.348 8.15912C444.288 8.12979 446.882 8.52394 449.13 9.34156C451.378 10.1125 453.374 11.376 455.118 13.132C456.722 14.8428 457.932 16.8841 458.749 19.2561C459.613 21.6276 460.058 24.1666 460.085 26.8732C460.095 27.8998 460.035 28.9038 459.905 29.8851C459.822 30.866 459.691 31.824 459.514 32.7592ZM429.543 24.7977L450.752 24.5861C450.6 23.4209 450.239 22.3278 449.669 21.3068C449.145 20.2386 448.53 19.358 447.823 18.6651C446.929 17.9273 445.896 17.3775 444.726 17.0159C443.602 16.6071 442.41 16.4089 441.15 16.4215C439.61 16.4369 438.143 16.6848 436.747 17.1654C435.398 17.5989 434.238 18.2172 433.266 19.0203C432.386 19.7291 431.625 20.6 430.982 21.6332C430.338 22.6196 429.859 23.6745 429.543 24.7977ZM176.372 75.0653L185.682 74.9724L183.024 89.2796L197.513 89.1351L200.171 74.8279L209.48 74.735L202.308 113.589L192.998 113.681L195.986 97.4108L181.497 97.5553L178.509 113.826L169.199 113.919L176.372 75.0653ZM255.754 74.2735L248.581 113.127L240.041 113.212L240.438 110.898L240.298 110.899C239.144 112.124 237.636 113.026 235.775 113.605C233.914 114.23 231.934 114.553 229.834 114.574C227.641 114.596 225.468 114.268 223.314 113.589C221.207 112.91 219.33 111.832 217.682 110.355C215.705 108.695 214.168 106.68 213.071 104.311C212.02 101.894 211.502 99.0994 211.517 95.9258C211.484 92.6126 212.013 89.5038 213.104 86.5995C214.242 83.648 215.92 81.1111 218.139 78.9889C220.08 77.1028 222.306 75.6805 224.816 74.7221C227.327 73.7637 230.029 73.27 232.922 73.2412C236.002 73.2104 238.644 73.6975 240.847 74.7022C243.051 75.7069 244.839 77.1825 246.212 79.1289L246.352 79.1275L247.214 74.3587L255.754 74.2735ZM233.005 81.5008C229.458 81.5828 226.508 82.8956 224.153 85.4392C221.845 87.9357 220.735 91.2836 220.823 95.4829C220.856 98.7961 221.77 101.447 223.563 103.436C225.402 105.378 227.862 106.333 230.942 106.303C234.535 106.267 237.486 105.001 239.794 102.504C242.149 99.9605 243.306 96.6588 243.266 92.599C243.232 89.1925 242.271 86.4952 240.385 84.5073C238.544 82.4722 236.084 81.47 233.005 81.5008ZM279.521 74.0364L293.031 73.9017L298.198 100.731L313.12 73.7013L326.629 73.5666L319.456 112.42L310.146 112.513L315.259 84.6705L299.787 112.616L292.017 112.694L286.77 84.9547L281.658 112.797L272.348 112.89L279.521 74.0364ZM350.574 72.0677C353.654 72.0369 356.318 72.4537 358.567 73.318C360.815 74.1356 362.788 75.3527 364.484 76.9692C366.134 78.6328 367.413 80.5801 368.322 82.8112C369.231 85.0422 369.7 87.5577 369.728 90.3575C369.761 93.7174 369.209 96.873 368.072 99.8245C366.935 102.776 365.349 105.265 363.316 107.292C361.237 109.366 358.895 110.907 356.292 111.913C353.735 112.871 350.939 113.366 347.906 113.396C344.826 113.427 342.139 113.034 339.844 112.217C337.596 111.399 335.623 110.159 333.927 108.496C332.231 106.879 330.928 104.979 330.02 102.794C329.111 100.563 328.641 97.9544 328.612 94.9678C328.579 91.7013 329.108 88.6159 330.199 85.7116C331.337 82.8067 332.945 80.2939 335.024 78.1731C337.058 76.146 339.353 74.6297 341.909 73.6242C344.513 72.6181 347.401 72.0993 350.574 72.0677ZM350.167 80.3321C348.393 80.3498 346.74 80.693 345.207 81.3617C343.673 82.0303 342.353 83.0002 341.245 84.2713C340.138 85.5424 339.29 87.0443 338.7 88.7769C338.157 90.4624 337.895 92.3085 337.916 94.315C337.93 95.8083 338.131 97.2063 338.517 98.5092C338.95 99.8116 339.568 100.926 340.371 101.851C341.221 102.916 342.28 103.745 343.546 104.339C344.858 104.886 346.401 105.151 348.174 105.133C349.9 105.116 351.531 104.796 353.065 104.174C354.598 103.506 355.941 102.512 357.095 101.194C358.156 99.9701 358.982 98.5151 359.572 96.8291C360.161 95.0965 360.446 93.2036 360.425 91.1504C360.411 89.7038 360.187 88.3293 359.754 87.0268C359.321 85.7244 358.726 84.587 357.97 83.6145C357.073 82.5967 355.968 81.791 354.656 81.1974C353.39 80.6033 351.893 80.3149 350.167 80.3321ZM369.347 124.873L378.911 73.0451L387.45 72.9599L387.053 75.274L387.193 75.2726C388.348 74.0943 389.833 73.2162 391.647 72.638C393.461 72.0132 395.441 71.6668 397.587 71.5987C400.014 71.5745 402.211 71.9026 404.177 72.583C406.191 73.263 408.045 74.3412 409.74 75.8177C411.812 77.7105 413.351 79.8653 414.355 82.282C415.359 84.6988 415.875 87.3538 415.904 90.247C415.938 93.6068 415.386 96.7625 414.249 99.714C413.111 102.619 411.456 105.109 409.283 107.184C407.342 109.07 405.069 110.493 402.465 111.452C399.908 112.411 397.159 112.905 394.219 112.934C391.466 112.962 389.059 112.566 386.997 111.746C384.936 110.927 383.242 109.614 381.918 107.807L381.778 107.808L378.657 124.78L369.347 124.873ZM396.27 79.8723C392.723 79.9077 389.796 81.1969 387.488 83.7401C385.226 86.2827 384.116 89.6073 384.157 93.7138C384.191 97.1203 385.105 99.818 386.898 101.807C388.738 103.749 391.22 104.704 394.347 104.673C397.94 104.637 400.891 103.371 403.2 100.874C405.508 98.3777 406.642 95.0996 406.602 91.0398C406.567 87.5866 405.607 84.8661 403.72 82.8781C401.88 80.843 399.396 79.8411 396.27 79.8723ZM460.142 95.756L429.414 96.0625C429.518 97.1815 429.809 98.2287 430.285 99.204C430.761 100.133 431.423 100.966 432.27 101.704C433.166 102.582 434.222 103.225 435.44 103.633C436.657 104.041 438.036 104.237 439.576 104.222C440.556 104.212 441.511 104.109 442.443 103.913C443.374 103.67 444.257 103.311 445.092 102.836C445.742 102.503 446.322 102.101 446.83 101.629C447.385 101.11 447.869 100.545 448.283 99.9345L458.783 99.8298C457.961 101.658 456.951 103.302 455.752 104.76C454.6 106.218 453.375 107.421 452.078 108.367C450.317 109.691 448.274 110.692 445.947 111.368C443.668 112.091 441.081 112.467 438.188 112.496C435.342 112.524 432.841 112.129 430.686 111.311C428.578 110.538 426.652 109.251 424.907 107.448C423.069 105.646 421.719 103.63 420.857 101.398C420.04 99.1195 419.62 96.7202 419.595 94.2004C419.561 90.7939 420.136 87.6146 421.32 84.6627C422.504 81.7107 424.112 79.2212 426.145 77.1942C428.132 75.2143 430.428 73.7213 433.031 72.7153C435.635 71.7093 438.616 71.1895 441.976 71.156C444.916 71.1267 447.51 71.5208 449.758 72.3384C452.006 73.1094 454.002 74.3729 455.746 76.1289C457.35 77.8396 458.561 79.881 459.378 82.253C460.241 84.6245 460.687 87.1635 460.714 89.87C460.724 90.8966 460.664 91.9006 460.534 92.882C460.45 93.8629 460.32 94.8209 460.142 95.756ZM430.171 87.7945L451.38 87.583C451.229 86.4178 450.868 85.3247 450.298 84.3036C449.774 83.2355 449.158 82.3549 448.451 81.6619C447.557 80.9241 446.525 80.3744 445.355 80.0127C444.23 79.6039 443.038 79.4058 441.778 79.4184C440.238 79.4337 438.771 79.6817 437.376 80.1623C436.027 80.5958 434.866 81.2141 433.894 82.0171C433.014 82.7259 432.253 83.5969 431.61 84.63C430.966 85.6165 430.487 86.6713 430.171 87.7945Z" fill="#FFE500"/>
</svg>
