<svg width="581" height="219" viewBox="0 0 581 219" fill="none" xmlns="http://www.w3.org/2000/svg">
<path d="M1.51726 89.8566L17.9107 0.888677L43.9494 0.628958C48.6692 0.581881 52.5146 1.10355 55.4856 2.19397C58.5366 3.2836 61.1529 4.89758 63.3343 7.03593C65.1942 9.01748 66.6588 11.483 67.7283 14.4325C68.877 17.3012 69.4704 20.6554 69.5087 24.4952C69.5622 29.8549 68.6093 34.5847 66.6501 38.6844C64.7709 42.7834 62.2045 46.1691 58.951 48.8417C56.0151 51.2711 52.7128 53.0642 49.0442 54.2208C45.4556 55.3767 41.5809 55.9353 37.4203 55.8968L24.101 56.0297L17.9564 89.6926L1.51726 89.8566ZM31.5033 16.1139L27.0676 40.6393L39.307 40.5172C41.2269 40.4981 42.9841 40.2006 44.5784 39.6246C46.2527 39.0479 47.6451 38.274 48.7554 37.3028C50.1834 36.0885 51.2486 34.5978 51.951 32.8308C52.6526 30.9837 53.0326 28.9798 53.0911 26.8191C52.9935 25.06 52.7388 23.5824 52.3269 22.3865C51.9141 21.1105 51.303 19.9966 50.4934 19.0446C49.5231 18.0142 48.3556 17.2658 46.9909 16.7994C45.7053 16.2522 44.0626 15.9886 42.0627 16.0085L31.5033 16.1139ZM138.958 62.3244L86.2806 62.8498C86.4597 64.7682 86.9576 66.5633 87.7743 68.2352C88.5903 69.8272 89.7246 71.2559 91.1773 72.5215C92.7123 74.0263 94.5234 75.1282 96.6105 75.8275C98.6976 76.5267 101.061 76.8631 103.701 76.8368C105.381 76.82 107.019 76.6437 108.616 76.3077C110.212 75.8918 111.726 75.2767 113.158 74.4624C114.272 73.8912 115.265 73.2013 116.137 72.3925C117.088 71.503 117.919 70.5347 118.628 69.4875L136.627 69.308C135.219 72.4422 133.487 75.2596 131.432 77.7603C129.456 80.2601 127.357 82.3211 125.133 83.9434C122.115 86.2136 118.612 87.9286 114.624 89.0885C110.716 90.3275 106.282 90.9718 101.322 91.0212C96.4425 91.0699 92.1556 90.3926 88.4614 88.9894C84.848 87.6654 81.5458 85.4582 78.5548 82.3679C75.4039 79.2791 73.0893 75.8221 71.6111 71.9966C70.212 68.0904 69.491 63.9774 69.4479 59.6576C69.3896 53.8179 70.3753 48.3678 72.4049 43.3073C74.4346 38.2468 77.1921 33.9791 80.6777 30.5041C84.084 27.11 88.0186 24.5506 92.4817 22.826C96.9447 21.1014 102.056 20.2104 107.816 20.1529C112.856 20.1027 117.302 20.7783 121.157 22.18C125.01 23.5016 128.432 25.6676 131.422 28.6779C134.171 31.6106 136.246 35.1101 137.647 39.1763C139.128 43.2418 139.891 47.5944 139.937 52.2342C139.955 53.9941 139.852 55.7152 139.629 57.3975C139.486 59.079 139.262 60.7213 138.958 62.3244ZM87.5793 48.6762L123.937 48.3135C123.678 46.316 123.059 44.4421 122.081 42.6918C121.183 40.8606 120.128 39.3511 118.916 38.1631C117.383 36.8983 115.614 35.9559 113.607 35.3359C111.68 34.6351 109.637 34.2955 107.477 34.317C104.837 34.3433 102.321 34.7685 99.9294 35.5924C97.6167 36.3355 95.6271 37.3954 93.9608 38.772C92.4528 39.9871 91.1477 41.4802 90.0453 43.2513C88.9421 44.9424 88.1201 46.7507 87.5793 48.6762ZM155.673 21.8357L178.832 21.6047L187.691 67.5986L213.27 21.2612L236.429 21.0302L224.132 87.6362L208.173 87.7953L216.938 40.0656L190.414 87.9725L177.095 88.1053L168.1 40.5527L159.336 88.2825L143.376 88.4417L155.673 21.8357ZM277.478 18.4607C282.758 18.408 287.325 19.1225 291.18 20.6041C295.034 22.0057 298.415 24.0921 301.323 26.8633C304.152 29.7152 306.345 33.0535 307.903 36.8781C309.461 40.7028 310.264 45.015 310.312 49.8147C310.37 55.5744 309.424 60.9841 307.474 66.0438C305.524 71.1035 302.807 75.3709 299.321 78.8458C295.757 82.4015 291.743 85.0417 287.28 86.7663C282.896 88.4101 278.104 89.2579 272.904 89.3098C267.625 89.3625 263.018 88.6884 259.084 87.2875C255.229 85.8859 251.848 83.7595 248.939 80.9084C246.032 78.1373 243.799 74.8794 242.242 71.1347C240.683 67.3101 239.879 62.8379 239.828 57.7181C239.772 52.1184 240.679 46.8291 242.549 41.8502C244.5 36.8705 247.257 32.5628 250.821 28.9271C254.307 25.4521 258.241 22.8527 262.624 21.1289C267.087 19.4043 272.038 18.5149 277.478 18.4607ZM276.779 32.6283C273.739 32.6587 270.905 33.2469 268.276 34.3932C265.648 35.5395 263.384 37.2022 261.486 39.3812C259.587 41.5602 258.133 44.1349 257.123 47.1051C256.191 49.9945 255.743 53.1592 255.777 56.599C255.803 59.1589 256.147 61.5556 256.809 63.7891C257.551 66.0218 258.61 67.9313 259.986 69.5177C261.445 71.3432 263.259 72.7652 265.429 73.7836C267.679 74.7212 270.323 75.1748 273.363 75.1445C276.323 75.115 279.118 74.5671 281.747 73.5008C284.376 72.3545 286.679 70.6515 288.657 68.3916C290.476 66.2934 291.891 63.7992 292.902 60.9089C293.913 57.9387 294.4 54.6937 294.365 51.1739C294.34 48.694 293.957 46.3377 293.215 44.105C292.472 41.8723 291.453 39.9223 290.156 38.2552C288.619 36.5104 286.725 35.1293 284.474 34.1117C282.304 33.0932 279.739 32.5988 276.779 32.6283ZM326.055 20.1362L342.014 19.9771L337.458 44.5037L362.297 44.256L366.853 19.7293L382.812 19.5701L370.516 86.1761L354.557 86.3353L359.679 58.4428L334.84 58.6905L329.718 86.583L313.759 86.7422L326.055 20.1362ZM390.381 19.4946L438.259 19.0171L435.64 33.2039L419.681 33.3631L410.003 85.7822L394.044 85.9414L403.722 33.5223L387.762 33.6815L390.381 19.4946ZM0.554543 197.872L12.8508 131.266L28.81 131.106L23.1143 161.645L52.5689 130.869L71.5279 130.68L38.7351 163.649L60.6715 197.272L41.7125 197.461L22.4351 165.732L16.5137 197.712L0.554543 197.872ZM82.4567 130.571L108.495 130.312C112.255 130.274 115.339 130.643 117.747 131.419C120.155 132.195 122.166 133.335 123.781 134.839C124.913 136.028 125.849 137.579 126.588 139.492C127.406 141.324 127.827 143.359 127.849 145.599C127.79 147.68 127.409 149.644 126.708 151.491C126.085 153.257 125.062 154.908 123.637 156.442C122.45 157.734 121.101 158.867 119.591 159.842C118.079 160.738 116.486 161.393 114.81 161.81C117.939 162.659 120.356 164.355 122.061 166.898C123.846 169.36 124.755 172.312 124.789 175.751C124.745 179.352 124.017 182.519 122.604 185.254C121.191 187.988 119.174 190.288 116.553 192.154C114.328 193.697 111.82 194.882 109.028 195.71C106.315 196.457 103.079 196.849 99.319 196.886L70.1605 197.177L82.4567 130.571ZM95.9125 144.118L93.8627 155.179L104.662 155.071C105.943 155.138 106.942 155.048 107.66 154.801C108.377 154.554 109.053 154.147 109.688 153.581C110.322 153.015 110.835 152.329 111.227 151.525C111.618 150.641 111.809 149.68 111.798 148.64C111.712 148 111.546 147.442 111.302 146.964C111.136 146.406 110.851 145.889 110.446 145.413C109.881 144.939 109.238 144.625 108.517 144.472C107.874 144.239 107.033 144.087 105.992 144.017L95.9125 144.118ZM91.2393 168.886L88.6231 183.312L100.143 183.198C101.183 183.267 102.182 183.177 103.14 182.928C104.097 182.598 105.012 182.149 105.887 181.58C106.999 180.849 107.831 179.961 108.38 178.915C109.009 177.789 109.315 176.426 109.299 174.826C109.29 173.866 109.122 173.068 108.796 172.431C108.468 171.714 108.062 171.078 107.576 170.523C106.931 169.969 106.207 169.576 105.405 169.344C104.601 169.032 103.4 168.844 101.799 168.78L91.2393 168.886ZM208.93 129.31L196.634 195.916L181.995 196.062L182.675 192.095L182.435 192.097C180.456 194.197 177.872 195.743 174.681 196.735C171.492 197.807 168.097 198.361 164.497 198.396C160.737 198.434 157.012 197.871 153.32 196.708C149.708 195.544 146.49 193.696 143.664 191.164C140.276 188.318 137.641 184.864 135.76 180.802C133.959 176.66 133.071 171.869 133.097 166.428C133.04 160.748 133.947 155.419 135.818 150.44C137.767 145.38 140.644 141.032 144.448 137.393C147.776 134.16 151.592 131.722 155.895 130.079C160.199 128.436 164.831 127.59 169.791 127.54C175.071 127.487 179.599 128.322 183.377 130.045C187.154 131.767 190.219 134.297 192.573 137.633L192.813 137.631L194.291 129.456L208.93 129.31ZM169.932 141.699C163.853 141.84 158.795 144.091 154.759 148.451C150.801 152.731 148.898 158.47 149.05 165.669C149.107 171.349 150.672 175.893 153.746 179.303C156.9 182.631 161.116 184.269 166.396 184.217C172.556 184.155 177.614 181.985 181.572 177.705C185.608 173.345 187.592 167.685 187.523 160.725C187.464 154.885 185.818 150.261 182.584 146.853C179.429 143.365 175.212 141.647 169.932 141.699ZM205.274 218.031L221.669 129.183L236.308 129.037L235.627 133.004L235.867 133.001C237.847 130.982 240.392 129.476 243.503 128.485C246.612 127.414 250.006 126.82 253.685 126.703C257.845 126.662 261.611 127.224 264.983 128.391C268.435 129.556 271.613 131.405 274.519 133.936C278.071 137.181 280.708 140.875 282.43 145.018C284.151 149.161 285.036 153.712 285.086 158.672C285.143 164.431 284.197 169.841 282.248 174.901C280.297 179.881 277.46 184.149 273.735 187.706C270.407 190.94 266.511 193.379 262.047 195.023C257.663 196.667 252.952 197.514 247.912 197.564C243.192 197.612 239.065 196.933 235.531 195.528C231.997 194.123 229.094 191.872 226.823 188.774L226.583 188.777L221.233 217.872L205.274 218.031ZM251.427 140.887C245.347 140.947 240.329 143.157 236.372 147.517C232.495 151.876 230.592 157.575 230.662 164.615C230.721 170.455 232.287 175.079 235.361 178.489C238.514 181.817 242.771 183.455 248.131 183.402C254.29 183.34 259.349 181.17 263.306 176.89C267.264 172.61 269.208 166.991 269.139 160.031C269.08 154.111 267.433 149.447 264.199 146.039C261.044 142.551 256.787 140.833 251.427 140.887ZM295.604 128.445L343.481 127.968L340.863 142.155L324.903 142.314L315.226 194.733L299.267 194.892L308.944 142.473L292.985 142.632L295.604 128.445ZM351.271 127.89L367.231 127.731L359.489 169.69L396.869 127.435L412.828 127.276L400.532 193.882L384.573 194.041L392.315 152.082L354.934 194.337L338.975 194.496L351.271 127.89ZM409.287 215.996L425.682 127.148L440.321 127.002L439.641 130.969L439.881 130.966C441.861 128.947 444.406 127.441 447.516 126.45C450.625 125.379 454.02 124.785 457.699 124.668C461.859 124.627 465.624 125.189 468.996 126.356C472.448 127.521 475.626 129.37 478.532 131.901C482.084 135.146 484.721 138.84 486.443 142.983C488.164 147.126 489.05 151.677 489.099 156.637C489.157 162.397 488.21 167.806 486.261 172.866C484.31 177.846 481.473 182.114 477.748 185.672C474.42 188.905 470.524 191.344 466.061 192.988C461.677 194.632 456.965 195.479 451.925 195.53C447.205 195.577 443.078 194.898 439.544 193.493C436.01 192.088 433.107 189.837 430.836 186.739L430.596 186.742L425.246 215.837L409.287 215.996ZM455.44 138.852C449.36 138.912 444.342 141.122 440.385 145.482C436.509 149.841 434.605 155.54 434.676 162.58C434.734 168.42 436.3 173.044 439.374 176.454C442.528 179.782 446.784 181.42 452.144 181.367C458.304 181.305 463.362 179.135 467.32 174.855C471.277 170.575 473.221 164.956 473.152 157.996C473.093 152.076 471.446 147.412 468.212 144.005C465.057 140.516 460.8 138.798 455.44 138.852ZM504.897 126.358L520.856 126.199L516.528 149.523L528.408 149.404C531.688 149.452 534.653 149.902 537.302 150.756C540.029 151.529 542.322 152.786 544.18 154.527C545.796 156.191 547.057 158.219 547.96 160.61C548.944 163 549.45 165.595 549.478 168.395C549.432 171.756 548.784 174.962 547.534 178.015C546.284 180.988 544.39 183.647 541.853 185.992C539.475 188.176 536.811 189.843 533.863 190.992C530.913 192.062 527.239 192.618 522.839 192.662L492.6 192.964L504.897 126.358ZM552.597 192.365L564.894 125.759L580.853 125.6L568.557 192.206L552.597 192.365ZM513.91 163.71L511.178 178.618L523.298 178.497C524.578 178.484 525.816 178.352 527.014 178.1C528.211 177.768 529.207 177.358 530.002 176.87C531.194 176.138 532.065 175.209 532.614 174.084C533.163 172.958 533.47 171.675 533.536 170.234C533.523 168.954 533.313 167.956 532.906 167.24C532.578 166.444 532.051 165.729 531.324 165.096C530.6 164.623 529.756 164.272 528.794 164.041C527.911 163.73 526.829 163.581 525.549 163.594L513.91 163.71Z" fill="#FFE500"/>
</svg>
