<svg width="282" height="114" viewBox="0 0 282 114" fill="none" xmlns="http://www.w3.org/2000/svg">
<path d="M0.0965478 23.4481L6.64822 23.3827C7.22132 24.6931 8.14091 25.65 9.40699 26.2534C10.6731 26.8568 12.2021 27.1495 13.994 27.1317C15.7579 27.1141 17.3649 26.804 18.8149 26.2015C20.2647 25.571 21.5429 24.5782 22.6494 23.2231C23.1753 22.6019 23.6164 21.9114 23.9728 21.1518C24.3293 20.3922 24.6012 19.5775 24.7885 18.7076L10.3412 18.8517L11.3375 13.4655L25.1549 13.3276C25.0605 12.2925 24.7988 11.3151 24.3696 10.3953C23.9684 9.47529 23.4564 8.68235 22.8338 8.01653C22.0417 7.21239 21.0975 6.59178 20.0011 6.15469C18.9044 5.68961 17.5861 5.46475 16.0461 5.48011C14.2545 5.52598 12.6903 5.9196 11.3537 6.66097C10.0447 7.37406 8.97655 8.36476 8.14916 9.63308L1.47149 9.69968C2.89558 6.49332 4.91588 4.10705 7.53239 2.54087C10.1486 0.946701 13.1227 0.132998 16.4545 0.0997652C18.8624 0.0757481 20.9099 0.419343 22.5971 1.13055C24.284 1.81376 25.8064 2.84863 27.1643 4.23515C28.4382 5.62252 29.3916 7.16708 30.0246 8.86885C30.6856 10.5703 31.0263 12.443 31.0467 14.4869C31.0441 17.0351 30.606 19.4336 29.7324 21.6824C28.8868 23.931 27.6603 25.8893 26.0528 27.5574C24.4731 29.1972 22.6513 30.4335 20.5875 31.2661C18.5235 32.0707 16.1055 32.4869 13.3336 32.5145C10.0578 32.5472 7.2504 31.8191 4.91143 30.3304C2.60019 28.8134 0.995224 26.5193 0.0965478 23.4481ZM48.7617 8.13594L53.9076 31.3538L48.1958 31.4107L44.7944 14.6438L36.1844 31.5305L29.8848 31.5934L42.462 8.19877L48.7617 8.13594ZM81.6641 21.9205L63.227 22.1044C63.2897 22.7758 63.464 23.4041 63.7499 23.9892C64.0354 24.5464 64.4325 25.0465 64.9409 25.4894C65.4782 26.0161 66.1121 26.4018 66.8425 26.6465C67.573 26.8912 68.4002 27.009 69.3242 26.9998C69.9122 26.9939 70.4856 26.9322 71.0444 26.8146C71.603 26.669 72.1329 26.4537 72.6341 26.1687C73.0241 25.9688 73.3717 25.7274 73.6769 25.4443C74.0098 25.133 74.3004 24.794 74.5488 24.4275L80.8485 24.3647C80.3554 25.4617 79.7492 26.4478 79.0299 27.323C78.3386 28.1979 77.6037 28.9193 76.8254 29.4871C75.7692 30.2817 74.5432 30.8819 73.1471 31.2879C71.7794 31.7215 70.2276 31.947 68.4917 31.9643C66.7837 31.9814 65.2833 31.7443 63.9903 31.2532C62.7257 30.7898 61.5699 30.0173 60.523 28.9357C59.4202 27.8546 58.6101 26.6446 58.0927 25.3057C57.6031 23.9385 57.3507 22.499 57.3356 20.9871C57.3152 18.9432 57.6602 17.0356 58.3706 15.2645C59.081 13.4933 60.0461 11.9996 61.266 10.7834C62.4582 9.5954 63.8354 8.69962 65.3974 8.09601C66.9595 7.4924 68.7485 7.18054 70.7644 7.16044C72.5283 7.14284 74.0847 7.37933 75.4337 7.8699C76.7824 8.33247 77.98 9.09057 79.0265 10.1442C79.9888 11.1706 80.7151 12.3954 81.2053 13.8186C81.7235 15.2415 81.9907 16.7649 82.0069 18.3889C82.0131 19.0048 81.9771 19.6072 81.8989 20.196C81.8488 20.7846 81.7705 21.3594 81.6641 21.9205ZM63.6816 17.1436L76.407 17.0166C76.316 16.3175 76.0994 15.6616 75.7573 15.049C75.4429 14.4081 75.0736 13.8798 74.6494 13.464C74.113 13.0213 73.4937 12.6915 72.7915 12.4745C72.117 12.2292 71.4018 12.1103 70.6458 12.1179C69.7219 12.1271 68.8413 12.2759 68.0041 12.5642C67.1947 12.8243 66.4984 13.1953 65.9151 13.6771C65.3873 14.1024 64.9305 14.625 64.5447 15.2449C64.1586 15.8368 63.8709 16.4697 63.6816 17.1436ZM83.2106 31.0615L87.5143 7.7494L93.1 7.69369L91.1065 18.3821L101.416 7.61075L108.051 7.54456L96.5738 19.0836L104.252 30.8516L97.6159 30.9178L90.8688 19.8125L88.7963 31.0058L83.2106 31.0615ZM110.028 7.52484L126.786 7.3577L125.869 12.3231L120.283 12.3788L116.896 30.7255L111.31 30.7812L114.698 12.4345L109.112 12.4902L110.028 7.52484ZM123.774 38.4273L129.512 7.3305L134.636 7.27939L134.398 8.66784L134.482 8.667C135.175 7.96005 136.066 7.43314 137.154 7.08627C138.242 6.71139 139.43 6.50354 140.718 6.46269C142.174 6.44817 143.492 6.64503 144.672 7.05328C145.88 7.46125 146.993 8.10819 148.01 8.99409C149.253 10.1297 150.176 11.4226 150.779 12.8727C151.381 14.3227 151.691 15.9157 151.708 17.6516C151.728 19.6675 151.397 21.5609 150.715 23.3318C150.032 25.0747 149.039 26.5687 147.735 27.8138C146.571 28.9454 145.207 29.7991 143.645 30.3747C142.11 30.95 140.461 31.2465 138.697 31.2641C137.045 31.2806 135.601 31.043 134.364 30.5513C133.127 30.0596 132.111 29.2717 131.316 28.1875L131.232 28.1884L129.36 38.3716L123.774 38.4273ZM139.928 11.4268C137.8 11.448 136.043 12.2216 134.658 13.7475C133.302 15.2731 132.635 17.2678 132.66 19.7317C132.68 21.7756 133.229 23.3942 134.305 24.5876C135.408 25.7526 136.898 26.3258 138.774 26.3071C140.93 26.2856 142.7 25.5259 144.085 24.028C145.471 22.5301 146.151 20.5632 146.127 18.1273C146.106 16.0554 145.53 14.4231 144.398 13.2303C143.294 12.0093 141.804 11.4081 139.928 11.4268ZM167.099 6.19955C168.947 6.18112 170.546 6.43119 171.895 6.94976C173.244 7.44033 174.427 8.17056 175.445 9.14046C176.435 10.1386 177.203 11.307 177.748 12.6457C178.294 13.9843 178.575 15.4936 178.591 17.1735C178.612 19.1894 178.28 21.0828 177.598 22.8537C176.916 24.6246 175.964 26.1181 174.745 27.3344C173.497 28.5789 172.092 29.5029 170.53 30.1065C168.996 30.6819 167.319 30.9786 165.499 30.9968C163.651 31.0152 162.038 30.7793 160.661 30.289C159.312 29.7984 158.129 29.0542 157.111 28.0563C156.093 27.0864 155.312 25.9461 154.767 24.6355C154.221 23.2968 153.94 21.7316 153.922 19.9397C153.902 17.9798 154.22 16.1285 154.874 14.3859C155.557 12.643 156.522 11.1353 157.769 9.86279C158.989 8.64656 160.366 7.73679 161.9 7.13346C163.462 6.52985 165.195 6.21854 167.099 6.19955ZM166.855 11.1582C165.791 11.1689 164.799 11.3748 163.879 11.776C162.959 12.1771 162.167 12.7591 161.502 13.5217C160.838 14.2844 160.329 15.1855 159.975 16.2251C159.649 17.2364 159.492 18.344 159.504 19.548C159.513 20.4439 159.633 21.2828 159.865 22.0645C160.125 22.8459 160.496 23.5143 160.977 24.0695C161.488 24.7084 162.123 25.2061 162.882 25.5626C163.67 25.8907 164.595 26.0495 165.659 26.0389C166.695 26.0286 167.673 25.8368 168.594 25.4636C169.514 25.0624 170.32 24.4663 171.012 23.6754C171.649 22.941 172.144 22.068 172.498 21.0565C172.851 20.0169 173.022 18.8811 173.01 17.6492C173.001 16.7812 172.867 15.9565 172.607 15.1751C172.347 14.3936 171.991 13.7111 171.537 13.1276C170.999 12.517 170.336 12.0336 169.548 11.6774C168.789 11.321 167.891 11.1479 166.855 11.1582ZM184.101 6.78601L189.687 6.73029L188.093 15.3146L196.786 15.2279L198.381 6.64358L203.966 6.58787L199.663 29.9L194.077 29.9557L195.87 20.1933L187.176 20.28L185.383 30.0424L179.798 30.0981L184.101 6.78601ZM208.463 6.54301L214.049 6.4873L212.455 15.0716L221.148 14.9849L222.743 6.40059L228.328 6.34487L224.025 29.657L218.439 29.7127L220.232 19.9503L211.538 20.037L209.745 29.7994L204.16 29.8551L208.463 6.54301ZM242.687 5.44561C244.535 5.42718 246.134 5.67725 247.483 6.19582C248.832 6.68639 250.015 7.41662 251.033 8.38652C252.023 9.38469 252.791 10.5531 253.336 11.8917C253.882 13.2303 254.163 14.7396 254.179 16.4195C254.2 18.4354 253.868 20.3288 253.186 22.0997C252.504 23.8706 251.553 25.3642 250.333 26.5804C249.085 27.8249 247.68 28.749 246.118 29.3526C244.584 29.9279 242.907 30.2247 241.087 30.2428C239.239 30.2612 237.626 30.0253 236.249 29.535C234.9 29.0445 233.717 28.3002 232.699 27.3023C231.681 26.3324 230.9 25.1922 230.355 23.8815C229.809 22.5429 229.528 20.9776 229.51 19.1857C229.49 17.2258 229.808 15.3746 230.462 13.6319C231.145 11.8891 232.11 10.3814 233.357 9.10885C234.577 7.89262 235.954 6.98284 237.488 6.37951C239.051 5.7759 240.784 5.4646 242.687 5.44561ZM242.443 10.4043C241.379 10.4149 240.387 10.6208 239.467 11.022C238.547 11.4232 237.755 12.0051 237.09 12.7678C236.426 13.5305 235.917 14.4316 235.563 15.4712C235.237 16.4825 235.08 17.5901 235.092 18.794C235.101 19.69 235.221 20.5288 235.453 21.3106C235.713 22.092 236.084 22.7603 236.565 23.3156C237.076 23.9545 237.711 24.4522 238.47 24.8086C239.258 25.1368 240.183 25.2956 241.247 25.285C242.283 25.2746 243.261 25.0829 244.182 24.7097C245.102 24.3085 245.908 23.7124 246.6 22.9215C247.237 22.1871 247.732 21.3141 248.086 20.3025C248.44 19.2629 248.61 18.1272 248.598 16.8952C248.589 16.0273 248.455 15.2026 248.195 14.4211C247.935 13.6397 247.579 12.9572 247.125 12.3737C246.587 11.763 245.924 11.2796 245.136 10.9235C244.377 10.567 243.479 10.394 242.443 10.4043ZM280.703 19.9352L262.266 20.1191C262.329 20.7905 262.503 21.4188 262.789 22.0039C263.074 22.5611 263.471 23.0612 263.98 23.5041C264.517 24.0308 265.151 24.4165 265.881 24.6612C266.612 24.906 267.439 25.0237 268.363 25.0145C268.951 25.0086 269.524 24.9469 270.083 24.8293C270.642 24.6838 271.172 24.4685 271.673 24.1834C272.063 23.9835 272.411 23.7421 272.716 23.459C273.049 23.1477 273.339 22.8088 273.588 22.4423L279.887 22.3794C279.394 23.4764 278.788 24.4625 278.069 25.3377C277.378 26.2126 276.643 26.934 275.864 27.5018C274.808 28.2964 273.582 28.8966 272.186 29.3026C270.818 29.7362 269.266 29.9617 267.531 29.979C265.823 29.9961 264.322 29.759 263.029 29.2679C261.765 28.8045 260.609 28.032 259.562 26.9504C258.459 25.8693 257.649 24.6593 257.132 23.3204C256.642 21.9533 256.39 20.5137 256.375 19.0018C256.354 16.9579 256.699 15.0503 257.41 13.2792C258.12 11.508 259.085 10.0143 260.305 8.79806C261.497 7.61011 262.874 6.71433 264.436 6.11072C265.998 5.50711 267.787 5.19525 269.803 5.17515C271.567 5.15755 273.124 5.39404 274.473 5.88461C275.821 6.34718 277.019 7.10528 278.065 8.15889C279.028 9.18534 279.754 10.4102 280.244 11.8333C280.762 13.2562 281.03 14.7797 281.046 16.4036C281.052 17.0195 281.016 17.6219 280.938 18.2107C280.888 18.7993 280.809 19.3741 280.703 19.9352ZM262.721 15.1583L275.446 15.0314C275.355 14.3322 275.138 13.6764 274.796 13.0637C274.482 12.4228 274.113 11.8945 273.688 11.4787C273.152 11.036 272.533 10.7062 271.83 10.4892C271.156 10.2439 270.441 10.125 269.685 10.1326C268.761 10.1418 267.88 10.2906 267.043 10.5789C266.234 10.839 265.537 11.21 264.954 11.6918C264.426 12.1171 263.969 12.6397 263.584 13.2596C263.198 13.8515 262.91 14.4844 262.721 15.1583ZM50.776 46.1177L70.641 45.9196L66.3373 69.2317L60.7516 69.2874L64.1388 50.9407L55.4452 51.0274L52.0581 69.3741L46.4723 69.4298L50.776 46.1177ZM75.1381 45.8747L80.7238 45.819L78.0142 60.5048L91.0973 45.7156L96.683 45.6598L92.3793 68.9719L86.7936 69.0276L89.5033 54.3419L76.4201 69.1311L70.8344 69.1868L75.1381 45.8747ZM124.449 45.3829L120.145 68.695L115.021 68.7461L115.259 67.3576L115.175 67.3585C114.483 68.0934 113.578 68.6345 112.461 68.9816C111.345 69.3568 110.157 69.5506 108.897 69.5632C107.581 69.5763 106.277 69.3793 104.985 68.9722C103.721 68.5648 102.594 67.918 101.605 67.0318C100.419 66.0356 99.4973 64.8267 98.839 63.4052C98.2086 61.9554 97.8978 60.2785 97.9068 58.3743C97.887 56.3864 98.2044 54.5211 98.8591 52.7785C99.5414 51.0076 100.548 49.4855 101.88 48.2121C103.044 47.0805 104.38 46.2271 105.886 45.652C107.393 45.077 109.014 44.7808 110.75 44.7635C112.598 44.7451 114.183 45.0373 115.505 45.6401C116.827 46.243 117.9 47.1283 118.723 48.2961L118.807 48.2953L119.325 45.434L124.449 45.3829ZM110.799 49.7192C108.672 49.7685 106.901 50.5562 105.488 52.0823C104.103 53.5802 103.437 55.589 103.49 58.1086C103.51 60.0965 104.058 61.6871 105.134 62.8804C106.238 64.0455 107.714 64.6188 109.561 64.6003C111.717 64.5788 113.488 63.8191 114.873 62.3212C116.286 60.7951 116.98 58.8141 116.956 56.3782C116.935 54.3343 116.359 52.7159 115.227 51.5232C114.123 50.3021 112.647 49.7008 110.799 49.7192ZM128.907 45.3384L134.493 45.2827L132.898 53.867L141.592 53.7803L143.186 45.196L148.772 45.1403L144.468 68.4524L138.882 68.5081L140.675 58.7457L131.982 58.8324L130.189 68.5948L124.603 68.6505L128.907 45.3384ZM153.269 45.0954L158.855 45.0397L156.145 59.7255L169.228 44.9362L174.814 44.8805L170.51 68.1926L164.924 68.2483L167.634 53.5626L154.551 68.3518L148.965 68.4075L153.269 45.0954ZM179.313 44.8357L184.898 44.7799L183.304 53.3643L191.997 53.2776L193.592 44.6932L199.178 44.6375L194.874 67.9496L189.288 68.0053L191.081 58.243L182.387 58.3297L180.595 68.092L175.009 68.1477L179.313 44.8357ZM213.537 43.7383C215.385 43.7198 216.983 43.9699 218.332 44.4885C219.681 44.979 220.865 45.7093 221.882 46.6792C222.872 47.6773 223.64 48.8457 224.185 50.1844C224.731 51.523 225.012 53.0323 225.029 54.7122C225.049 56.7281 224.718 58.6215 224.035 60.3924C223.353 62.1633 222.402 63.6568 221.182 64.8731C219.934 66.1176 218.529 67.0416 216.967 67.6452C215.433 68.2206 213.756 68.5173 211.936 68.5355C210.088 68.5539 208.476 68.318 207.099 67.8277C205.75 67.3371 204.566 66.5929 203.548 65.595C202.53 64.6251 201.749 63.4848 201.204 62.1742C200.659 60.8356 200.377 59.2703 200.359 57.4784C200.339 55.5185 200.657 53.6672 201.312 51.9246C201.994 50.1817 202.959 48.674 204.207 47.4015C205.427 46.1853 206.804 45.2755 208.338 44.6722C209.9 44.0686 211.633 43.7573 213.537 43.7383ZM213.292 48.6969C212.228 48.7076 211.236 48.9135 210.316 49.3147C209.396 49.7159 208.604 50.2978 207.939 51.0605C207.275 51.8231 206.766 52.7242 206.412 53.7638C206.086 54.7751 205.929 55.8827 205.941 57.0867C205.95 57.9826 206.071 58.8215 206.303 59.6032C206.562 60.3847 206.933 61.053 207.415 61.6082C207.925 62.2472 208.56 62.7448 209.32 63.1013C210.107 63.4294 211.032 63.5882 212.096 63.5776C213.132 63.5673 214.111 63.3755 215.031 63.0023C215.951 62.6011 216.757 62.0051 217.449 61.2141C218.086 60.4797 218.581 59.6067 218.935 58.5952C219.289 57.5556 219.459 56.4198 219.447 55.1879C219.438 54.3199 219.304 53.4952 219.044 52.7138C218.785 51.9323 218.428 51.2499 217.974 50.6663C217.436 50.0557 216.773 49.5723 215.985 49.2161C215.226 48.8597 214.328 48.6866 213.292 48.6969ZM223.601 73.0393L243.9 36.3791L247.848 36.3397L227.548 73L223.601 73.0393ZM44.4446 99.8916L50.4923 99.8312C49.596 102.612 48.0628 104.714 45.8929 106.135C43.7227 107.529 41.1957 108.24 38.3118 108.269C36.4916 108.259 34.9212 108.023 33.6005 107.56C32.2801 107.125 31.1108 106.395 30.0925 105.369C29.0748 104.399 28.2792 103.245 27.7058 101.907C27.1602 100.54 26.8925 98.9746 26.9029 97.2104C26.8554 95.2508 27.1589 93.3996 27.8136 91.657C28.4963 89.9141 29.4753 88.4063 30.7506 87.1335C31.9703 85.8893 33.3473 84.9795 34.8816 84.4042C36.4437 83.8006 38.2606 83.4884 40.3325 83.4678C43.4964 83.4362 46.0102 84.2092 47.874 85.7866C49.7376 87.3361 50.9058 89.3546 51.3786 91.842L45.2469 91.9032C44.8718 90.7868 44.2191 89.9253 43.289 89.3186C42.3589 88.7118 41.2639 88.4147 40.004 88.4273C38.884 88.4384 37.8362 88.6589 36.8604 89.0887C35.9124 89.4901 35.1062 90.0722 34.4417 90.8349C33.777 91.5695 33.2677 92.4427 32.9138 93.4542C32.5878 94.4655 32.4447 95.559 32.4845 96.7347C32.4951 97.7986 32.6447 98.7632 32.9334 99.6284C33.2497 100.465 33.6765 101.147 34.2138 101.674C34.7234 102.229 35.3295 102.643 36.0323 102.916C36.7351 103.189 37.5764 103.32 38.5564 103.31C39.9283 103.297 41.1294 103.005 42.1598 102.434C43.1902 101.864 43.9518 101.017 44.4446 99.8916ZM57.0405 84.0571L62.6262 84.0014L59.9165 98.6872L72.9997 83.898L78.5854 83.8422L74.2817 107.154L68.696 107.21L71.4057 92.5243L58.3225 107.314L52.7368 107.369L57.0405 84.0571ZM83.0841 83.7974L88.6698 83.7417L87.0754 92.326L95.7689 92.2393L97.3634 83.6549L102.949 83.5992L98.6454 106.911L93.0597 106.967L94.8524 97.2047L86.1589 97.2914L84.3661 107.054L78.7804 107.109L83.0841 83.7974ZM105.598 83.5728L122.355 83.4057L121.439 88.3711L115.853 88.4268L112.466 106.773L106.88 106.829L110.267 88.4825L104.682 88.5382L105.598 83.5728ZM146.096 97.2816L127.659 97.4655C127.721 98.1369 127.896 98.7652 128.181 99.3503C128.467 99.9075 128.864 100.408 129.373 100.851C129.91 101.377 130.544 101.763 131.274 102.008C132.005 102.252 132.832 102.37 133.756 102.361C134.344 102.355 134.917 102.293 135.476 102.176C136.035 102.03 136.564 101.815 137.066 101.53C137.456 101.33 137.803 101.088 138.108 100.805C138.441 100.494 138.732 100.155 138.98 99.7887L145.28 99.7258C144.787 100.823 144.181 101.809 143.461 102.684C142.77 103.559 142.035 104.28 141.257 104.848C140.201 105.643 138.975 106.243 137.579 106.649C136.211 107.083 134.659 107.308 132.923 107.325C131.215 107.342 129.715 107.105 128.422 106.614C127.157 106.151 126.001 105.378 124.955 104.297C123.852 103.216 123.042 102.006 122.524 100.667C122.035 99.2997 121.782 97.8601 121.767 96.3482C121.747 94.3043 122.092 92.3967 122.802 90.6256C123.513 88.8544 124.478 87.3607 125.698 86.1445C126.89 84.9565 128.267 84.0607 129.829 83.4571C131.391 82.8535 133.18 82.5417 135.196 82.5215C136.96 82.504 138.516 82.7404 139.865 83.231C141.214 83.6936 142.412 84.4517 143.458 85.5053C144.42 86.5317 145.147 87.7566 145.637 89.1797C146.155 90.6026 146.422 92.1261 146.439 93.75C146.445 94.3659 146.409 94.9683 146.331 95.5571C146.28 96.1457 146.202 96.7205 146.096 97.2816ZM128.113 92.5047L140.839 92.3778C140.748 91.6786 140.531 91.0228 140.189 90.4101C139.874 89.7692 139.505 89.2409 139.081 88.8251C138.545 88.3824 137.925 88.0526 137.223 87.8356C136.549 87.5903 135.833 87.4714 135.077 87.479C134.153 87.4882 133.273 87.637 132.436 87.9253C131.626 88.1854 130.93 88.5564 130.347 89.0382C129.819 89.4635 129.362 89.9861 128.976 90.606C128.59 91.1979 128.302 91.8308 128.113 92.5047ZM154.996 89.9684L149.411 90.0241C149.484 88.9874 149.754 87.9906 150.221 87.0339C150.687 86.0772 151.309 85.245 152.086 84.5372C152.919 83.8008 153.921 83.2588 155.094 82.9111C156.294 82.5351 157.496 82.3271 158.7 82.2871C159.96 82.2745 161.054 82.4456 161.981 82.8004C162.937 83.1269 163.725 83.5671 164.347 84.1209C164.912 84.6753 165.339 85.343 165.627 86.1242C165.942 86.8771 166.118 87.6874 166.155 88.5551C166.169 90.011 165.762 91.2471 164.932 92.2635C164.13 93.2795 163.059 93.9902 161.719 94.3956C162.646 94.7224 163.38 95.2891 163.92 96.0957C164.46 96.8744 164.75 97.8655 164.79 99.0692C164.803 100.357 164.548 101.522 164.027 102.563C163.533 103.576 162.757 104.466 161.701 105.232C160.839 105.857 159.92 106.314 158.943 106.604C157.966 106.922 156.917 107.086 155.797 107.097C154.733 107.108 153.752 106.992 152.854 106.749C151.955 106.506 151.168 106.135 150.491 105.638C149.616 105.031 148.937 104.24 148.451 103.264C147.993 102.261 147.757 101.129 147.745 99.8693C147.743 99.6453 147.741 99.4353 147.739 99.2393C147.736 99.0153 147.762 98.791 147.816 98.5665L153.402 98.5108C153.375 98.623 153.362 98.7352 153.363 98.8472C153.364 98.9592 153.366 99.1132 153.368 99.3091C153.376 100.205 153.635 100.903 154.144 101.401C154.681 101.9 155.37 102.145 156.21 102.137C156.658 102.16 157.064 102.1 157.426 101.957C157.788 101.785 158.108 101.558 158.385 101.275C158.635 100.993 158.827 100.669 158.964 100.303C159.128 99.9377 159.208 99.5309 159.204 99.0829C159.2 98.7189 159.127 98.3977 158.984 98.1191C158.869 97.8122 158.712 97.5477 158.514 97.3257C158.316 97.1597 158.091 97.0359 157.838 96.9544C157.613 96.8727 157.291 96.8339 156.871 96.8381L155.443 96.8523L156.321 92.2233L157.833 92.2083C158.253 92.2041 158.63 92.1583 158.966 92.0709C159.329 91.9833 159.635 91.8403 159.885 91.6418C160.163 91.443 160.385 91.1887 160.55 90.8791C160.714 90.5414 160.795 90.1486 160.79 89.7006C160.786 89.3367 160.727 89.0012 160.612 88.6944C160.497 88.3875 160.34 88.123 160.142 87.901C159.916 87.7073 159.635 87.5561 159.298 87.4474C158.96 87.3108 158.567 87.2447 158.12 87.2491C157.644 87.2539 157.238 87.3139 156.903 87.4293C156.596 87.5444 156.318 87.7011 156.068 87.8996C155.762 88.1547 155.514 88.4652 155.321 88.8311C155.129 89.1971 155.021 89.5762 154.996 89.9684ZM194.53 82.6858L190.226 105.998L185.103 106.049L185.341 104.661L185.257 104.661C184.564 105.396 183.66 105.937 182.543 106.284C181.427 106.66 180.238 106.854 178.979 106.866C177.663 106.879 176.359 106.682 175.066 106.275C173.802 105.868 172.676 105.221 171.687 104.335C170.501 103.338 169.579 102.13 168.921 100.708C168.29 99.2583 167.979 97.5813 167.988 95.6771C167.969 93.6892 168.286 91.824 168.941 90.0814C169.623 88.3105 170.63 86.7883 171.961 85.515C173.126 84.3833 174.462 83.53 175.968 82.9549C177.474 82.3799 179.095 82.0837 180.831 82.0664C182.679 82.0479 184.264 82.3401 185.586 82.943C186.908 83.5458 187.981 84.4312 188.805 85.599L188.889 85.5982L189.406 82.7369L194.53 82.6858ZM180.881 87.0221C178.753 87.0713 176.983 87.859 175.57 89.3852C174.185 90.8831 173.519 92.8918 173.572 95.4114C173.592 97.3993 174.14 98.9899 175.216 100.183C176.319 101.348 177.795 101.922 179.643 101.903C181.799 101.882 183.569 101.122 184.955 99.6241C186.367 98.0979 187.062 96.1169 187.037 93.681C187.017 91.6371 186.441 90.0188 185.309 88.826C184.205 87.605 182.729 87.0037 180.881 87.0221ZM197.141 82.6597L213.898 82.4926L212.981 87.458L207.396 87.5137L204.008 105.86L198.423 105.916L201.81 87.5694L196.224 87.6251L197.141 82.6597ZM226.486 81.611C228.334 81.5926 229.933 81.8426 231.282 82.3612C232.631 82.8518 233.814 83.582 234.832 84.5519C235.822 85.5501 236.59 86.7185 237.135 88.0571C237.681 89.3957 237.962 90.905 237.978 92.5849C237.998 94.6008 237.667 96.4942 236.985 98.2651C236.303 100.036 235.351 101.53 234.131 102.746C232.884 103.99 231.479 104.914 229.917 105.518C228.383 106.093 226.705 106.39 224.886 106.408C223.038 106.427 221.425 106.191 220.048 105.7C218.699 105.21 217.516 104.466 216.498 103.468C215.48 102.498 214.699 101.358 214.154 100.047C213.608 98.7083 213.327 97.143 213.309 95.3511C213.289 93.3912 213.607 91.5399 214.261 89.7973C214.944 88.0544 215.909 86.5467 217.156 85.2742C218.376 84.058 219.753 83.1482 221.287 82.5449C222.849 81.9413 224.582 81.63 226.486 81.611ZM226.242 86.5697C225.178 86.5803 224.186 86.7862 223.266 87.1874C222.346 87.5886 221.553 88.1705 220.889 88.9332C220.225 89.6958 219.716 90.597 219.362 91.6365C219.036 92.6478 218.879 93.7555 218.891 94.9594C218.9 95.8554 219.02 96.6942 219.252 97.4759C219.512 98.2574 219.883 98.9257 220.364 99.4809C220.875 100.12 221.51 100.618 222.269 100.974C223.057 101.302 223.982 101.461 225.046 101.45C226.082 101.44 227.06 101.248 227.981 100.875C228.901 100.474 229.707 99.8778 230.399 99.0868C231.036 98.3524 231.531 97.4795 231.885 96.4679C232.238 95.4283 232.409 94.2925 232.397 93.0606C232.388 92.1926 232.254 91.3679 231.994 90.5865C231.734 89.8051 231.377 89.1226 230.924 88.5391C230.386 87.9284 229.723 87.445 228.935 87.0888C228.175 86.7324 227.278 86.5593 226.242 86.5697ZM237.75 113.294L243.488 82.1974L248.612 82.1463L248.374 83.5348L248.458 83.5339C249.151 82.827 250.042 82.3001 251.13 81.9532C252.218 81.5783 253.406 81.3705 254.694 81.3296C256.15 81.3151 257.468 81.512 258.648 81.9202C259.856 82.3282 260.969 82.9751 261.986 83.861C263.229 84.9967 264.152 86.2895 264.755 87.7396C265.357 89.1897 265.667 90.7827 265.684 92.5186C265.704 94.5345 265.373 96.4279 264.691 98.1988C264.008 99.9417 263.015 101.436 261.711 102.681C260.547 103.812 259.183 104.666 257.621 105.242C256.086 105.817 254.437 106.113 252.673 106.131C251.021 106.147 249.577 105.91 248.34 105.418C247.103 104.927 246.087 104.139 245.292 103.054L245.208 103.055L243.336 113.239L237.75 113.294ZM253.904 86.2938C251.776 86.315 250.019 87.0885 248.634 88.6144C247.278 90.14 246.612 92.1348 246.636 94.5987C246.656 96.6426 247.205 98.2612 248.281 99.4545C249.384 100.62 250.874 101.193 252.75 101.174C254.906 101.153 256.676 100.393 258.062 98.8949C259.447 97.397 260.127 95.4301 260.103 92.9943C260.082 90.9224 259.506 89.29 258.374 88.0973C257.27 86.8762 255.78 86.2751 253.904 86.2938Z" fill="#FFE500"/>
</svg>
