<svg width="338" height="48" viewBox="0 0 338 48" fill="none" xmlns="http://www.w3.org/2000/svg">
<path d="M12.4866 42.5844L13.4347 37.3747C11.6341 37.326 9.88038 36.9601 8.17348 36.2771C6.46625 35.5608 5.00619 34.5586 3.79328 33.2707C2.54737 32.0164 1.61563 30.5089 0.998035 28.7483C0.380444 26.9877 0.0606776 25.0075 0.0387351 22.8076C0.00482389 19.4078 0.675366 16.4509 2.05036 13.9371C3.45836 11.3896 5.48831 9.36924 8.14021 7.87605C9.5655 7.0618 11.2761 6.44471 13.272 6.02478C15.2676 5.57152 17.282 5.33475 19.3152 5.31447L20.2188 0.655225L27.0685 0.586904L26.1649 5.24615C27.9325 5.32852 29.6699 5.72788 31.3771 6.44422C33.084 7.12723 34.5604 8.09589 35.8063 9.35019C37.0192 10.6382 37.9344 12.1624 38.552 13.923C39.203 15.6833 39.5392 17.6467 39.5608 19.8133C39.5951 23.2464 38.9082 26.2368 37.5002 28.7843C36.0919 31.2984 34.0783 33.2853 31.4594 34.7448C30.0011 35.5927 28.2741 36.2433 26.2786 36.6966C24.2827 37.1165 22.2846 37.3198 20.2844 37.3064L19.3363 42.5161L12.4866 42.5844ZM14.6208 30.9626L18.1291 11.7266C16.8288 11.7062 15.5302 11.8525 14.2333 12.1655C12.9697 12.4781 11.8909 12.9389 10.9969 13.5478C9.73896 14.4271 8.73432 15.6372 7.98298 17.1781C7.23165 18.719 6.86662 20.5561 6.8879 22.6893C6.90053 23.9559 7.07882 25.1208 7.42278 26.1841C7.79973 27.2137 8.35852 28.0915 9.09913 28.8175C9.80674 29.5772 10.6457 30.1355 11.616 30.4925C12.5862 30.8495 13.5878 31.0062 14.6208 30.9626ZM24.9788 11.6583L21.4705 30.8942C22.7377 30.9483 24.0032 30.819 25.2668 30.5064C26.5637 30.1934 27.6757 29.7156 28.6026 29.073C29.8276 28.2274 30.8158 27.0342 31.5671 25.4933C32.3184 23.9524 32.7 22.0985 32.7117 19.9316C32.666 18.6986 32.4547 17.5674 32.0778 16.5377C31.7338 15.4744 31.2081 14.563 30.5004 13.8033C29.7598 13.0773 28.9044 12.5359 27.9341 12.1788C26.9638 11.8218 25.9787 11.6483 24.9788 11.6583ZM57.4982 11.684C59.6981 11.662 61.6012 11.9597 63.2074 12.5771C64.8133 13.1611 66.2221 14.0304 67.4336 15.185C68.6122 16.3733 69.5261 17.7643 70.1754 19.3579C70.8247 20.9515 71.1593 22.7482 71.1792 24.7481C71.2031 27.148 70.8089 29.4021 69.9966 31.5103C69.1842 33.6185 68.0519 35.3965 66.5996 36.8444C65.1143 38.326 63.4419 39.4261 61.5823 40.1446C59.7557 40.8296 57.7591 41.1828 55.5926 41.2044C53.3927 41.2264 51.4731 40.9455 49.8339 40.3618C48.228 39.7778 46.8191 38.8918 45.6072 37.7038C44.3956 36.5492 43.4653 35.1918 42.8164 33.6315C42.1671 32.0379 41.8319 30.1745 41.8106 28.0412C41.7873 25.708 42.1654 23.5041 42.9447 21.4296C43.7574 19.3547 44.9062 17.5598 46.3912 16.0449C47.8435 14.5971 49.4827 13.514 51.309 12.7957C53.1686 12.0772 55.2317 11.7066 57.4982 11.684ZM57.2071 17.5871C55.9405 17.5998 54.7595 17.8449 53.6642 18.3225C52.569 18.8001 51.6258 19.4929 50.8348 20.4008C50.0439 21.3088 49.4379 22.3815 49.0168 23.6191C48.6288 24.8231 48.442 26.1417 48.4563 27.5749C48.4669 28.6415 48.6102 29.6402 48.8862 30.5708C49.1955 31.5011 49.6368 32.2967 50.21 32.9577C50.8177 33.7183 51.5736 34.3108 52.4779 34.7352C53.4152 35.1258 54.5171 35.3149 55.7837 35.3022C57.017 35.2899 58.1814 35.0616 59.277 34.6174C60.3723 34.1397 61.332 33.4301 62.156 32.4885C62.9139 31.6143 63.5036 30.575 63.925 29.3707C64.346 28.1331 64.5492 26.781 64.5345 25.3145C64.5242 24.2812 64.3644 23.2994 64.0551 22.3691C63.7458 21.4388 63.321 20.6263 62.7807 19.9317C62.1401 19.2047 61.351 18.6292 60.4134 18.2052C59.5091 17.7809 58.4404 17.5748 57.2071 17.5871ZM74.2693 12.4167L94.2183 12.2177L93.1272 18.1289L86.4775 18.1952L82.4451 40.0365L75.7955 40.1029L79.8278 18.2616L73.1782 18.3279L74.2693 12.4167ZM109.205 11.1682C111.405 11.1463 113.308 11.444 114.914 12.0613C116.52 12.6453 117.928 13.5147 119.14 14.6693C120.319 15.8576 121.233 17.2486 121.882 18.8422C122.531 20.4358 122.866 22.2325 122.886 24.2324C122.91 26.6323 122.515 28.8863 121.703 30.9945C120.891 33.1027 119.758 34.8808 118.306 36.3287C116.821 37.8102 115.148 38.9103 113.289 39.6289C111.462 40.3138 109.466 40.6671 107.299 40.6887C105.099 40.7106 103.18 40.4298 101.54 39.8461C99.9344 39.2621 98.5255 38.3761 97.3136 37.1881C96.102 36.0335 95.1717 34.676 94.5228 33.1157C93.8735 31.5221 93.5383 29.6587 93.517 27.5255C93.4937 25.1923 93.8718 22.9884 94.6511 20.9139C95.4638 18.839 96.6126 17.0441 98.0976 15.5292C99.5499 14.0813 101.189 12.9982 103.015 12.28C104.875 11.5614 106.938 11.1908 109.205 11.1682ZM108.913 17.0714C107.647 17.084 106.466 17.3292 105.371 17.8068C104.275 18.2844 103.332 18.9772 102.541 19.8851C101.75 20.793 101.144 21.8658 100.723 23.1034C100.335 24.3073 100.148 25.6259 100.163 27.0592C100.173 28.1258 100.317 29.1244 100.593 30.055C100.902 30.9853 101.343 31.781 101.916 32.442C102.524 33.2026 103.28 33.7951 104.184 34.2194C105.122 34.6101 106.224 34.7991 107.49 34.7865C108.723 34.7742 109.888 34.5459 110.983 34.1016C112.079 33.624 113.038 32.9144 113.862 31.9728C114.62 31.0985 115.21 30.0593 115.631 28.855C116.052 27.6174 116.256 26.2653 116.241 24.7987C116.231 23.7654 116.071 22.7836 115.762 21.8533C115.452 20.9231 115.027 20.1106 114.487 19.4159C113.847 18.689 113.057 18.1135 112.12 17.6895C111.216 17.2651 110.147 17.0591 108.913 17.0714ZM157.144 11.5901L152.02 39.3426L145.92 39.4034L146.204 37.7505L146.104 37.7515C145.279 38.6264 144.202 39.2705 142.873 39.6838C141.544 40.1304 140.13 40.3612 138.63 40.3762C137.063 40.3918 135.511 40.1573 133.973 39.6726C132.468 39.1876 131.127 38.4176 129.949 37.3626C128.537 36.1766 127.44 34.7375 126.656 33.0452C125.906 31.3193 125.536 29.3229 125.546 27.056C125.523 24.6895 125.901 22.4689 126.68 20.3944C127.492 18.2862 128.691 16.4741 130.276 14.9582C131.663 13.611 133.252 12.5951 135.046 11.9105C136.839 11.2259 138.769 10.8733 140.835 10.8527C143.035 10.8308 144.922 11.1786 146.496 11.8963C148.07 12.614 149.347 13.668 150.328 15.0582L150.428 15.0572L151.044 11.6509L157.144 11.5901ZM140.894 16.7524C138.361 16.811 136.254 17.7488 134.572 19.5656C132.923 21.3488 132.13 23.7402 132.194 26.7397C132.217 29.1062 132.869 30.9998 134.15 32.4205C135.464 33.8074 137.221 34.4899 139.421 34.468C141.987 34.4424 144.095 33.538 145.744 31.7548C147.426 29.9379 148.253 27.5796 148.224 24.6797C148.199 22.2465 147.514 20.3199 146.166 18.8999C144.851 17.4463 143.094 16.7305 140.894 16.7524ZM162.451 11.5372L186.1 11.3013L180.977 39.0538L174.327 39.1201L178.359 17.2788L168.01 17.382L163.977 39.2233L157.328 39.2896L162.451 11.5372ZM191.454 11.2479L215.102 11.012L209.979 38.7645L203.329 38.8308L207.362 16.9895L197.012 17.0927L192.98 38.934L186.33 39.0004L191.454 11.2479ZM248.155 10.6823L243.031 38.4348L236.932 38.4956L237.215 36.8427L237.115 36.8437C236.29 37.7187 235.214 38.3628 233.884 38.776C232.555 39.2227 231.141 39.4534 229.641 39.4684C228.074 39.484 226.522 39.2495 224.984 38.7648C223.479 38.2798 222.138 37.5098 220.96 36.4548C219.549 35.2689 218.451 33.8297 217.667 32.1375C216.917 30.4115 216.547 28.4151 216.557 26.1482C216.534 23.7817 216.912 21.5611 217.691 19.4866C218.503 17.3784 219.702 15.5663 221.287 14.0505C222.674 12.7032 224.264 11.6873 226.057 11.0027C227.85 10.3181 229.78 9.96555 231.847 9.94494C234.046 9.92299 235.933 10.2709 237.507 10.9885C239.081 11.7062 240.358 12.7602 241.339 14.1505L241.439 14.1495L242.055 10.7432L248.155 10.6823ZM231.905 15.8446C229.373 15.9032 227.265 16.841 225.583 18.6578C223.934 20.441 223.141 22.8324 223.205 25.8319C223.228 28.1985 223.88 30.0921 225.161 31.5127C226.475 32.8997 228.232 33.5822 230.432 33.5602C232.999 33.5346 235.106 32.6302 236.755 30.847C238.437 29.0302 239.264 26.6718 239.235 23.7719C239.211 21.3387 238.525 19.4121 237.177 17.9922C235.863 16.5385 234.105 15.8227 231.905 15.8446ZM246.631 47.6494L253.462 10.6294L259.562 10.5685L259.278 12.2214L259.378 12.2204C260.203 11.3788 261.264 10.7516 262.56 10.3386C263.855 9.89235 265.27 9.6449 266.803 9.59627C268.536 9.57898 270.105 9.81334 271.51 10.2994C272.948 10.785 274.273 11.5552 275.483 12.6098C276.963 13.9618 278.062 15.5009 278.779 17.2272C279.497 18.9535 279.866 20.8499 279.886 22.9164C279.91 25.3163 279.516 27.5704 278.704 29.6786C277.891 31.7534 276.709 33.532 275.157 35.0142C273.77 36.3614 272.147 37.3777 270.287 38.0629C268.46 38.7479 266.497 39.1008 264.397 39.1217C262.43 39.1413 260.711 38.8585 259.238 38.2731C257.766 37.6878 256.556 36.7498 255.61 35.4592L255.51 35.4602L253.281 47.583L246.631 47.6494ZM265.862 15.506C263.328 15.5312 261.237 16.4521 259.589 18.2687C257.973 20.0849 257.18 22.4595 257.21 25.3927C257.234 27.8259 257.887 29.7529 259.167 31.1735C260.481 32.5605 262.255 33.2428 264.488 33.2205C267.055 33.1949 269.162 32.2905 270.811 30.5073C272.46 28.7241 273.27 26.3826 273.241 23.4827C273.217 21.0162 272.531 19.0729 271.183 17.653C269.869 16.1994 268.095 15.4837 265.862 15.506ZM314.167 10.0239L309.044 37.7764L302.944 37.8372L303.227 36.1843L303.127 36.1853C302.303 37.0602 301.226 37.7043 299.897 38.1176C298.568 38.5642 297.153 38.795 295.653 38.81C294.087 38.8256 292.534 38.5911 290.996 38.1064C289.491 37.6214 288.15 36.8514 286.973 35.7964C285.561 34.6104 284.463 33.1713 283.68 31.479C282.929 29.7531 282.559 27.7567 282.57 25.4898C282.546 23.1233 282.924 20.9027 283.703 18.8282C284.516 16.72 285.714 14.9079 287.299 13.392C288.686 12.0448 290.276 11.0289 292.069 10.3443C293.862 9.65972 295.792 9.30712 297.859 9.2865C300.059 9.26456 301.946 9.61243 303.52 10.3301C305.094 11.0478 306.371 12.1017 307.351 13.492L307.451 13.491L308.067 10.0847L314.167 10.0239ZM297.918 15.1862C295.385 15.2448 293.277 16.1825 291.596 17.9994C289.947 19.7826 289.154 22.174 289.217 25.1735C289.241 27.54 289.893 29.4336 291.174 30.8543C292.488 32.2412 294.244 32.9237 296.444 32.9018C299.011 32.8762 301.119 31.9718 302.768 30.1886C304.45 28.3717 305.276 26.0134 305.247 23.1135C305.223 20.6803 304.537 18.7537 303.189 17.3337C301.875 15.8801 300.118 15.1643 297.918 15.1862ZM317.275 9.99289L337.224 9.79391L336.133 15.7051L329.483 15.7714L325.451 37.6127L318.801 37.679L322.833 15.8377L316.184 15.9041L317.275 9.99289Z" fill="#FFE500"/>
</svg>
