<svg width="328" height="50" viewBox="0 0 328 50" fill="none" xmlns="http://www.w3.org/2000/svg">
<path d="M0 39.8845L7.49046 1.22781L18.7782 1.22781C20.8242 1.22781 22.4887 1.47159 23.7718 1.95915C25.0896 2.44672 26.2166 3.16065 27.1529 4.10094C27.9505 4.97159 28.5747 6.05119 29.0255 7.33975C29.511 8.59348 29.7538 10.0562 29.7538 11.7278C29.7538 14.0611 29.3203 16.1159 28.4533 17.892C27.6211 19.6681 26.494 21.1308 25.0722 22.28C23.7891 23.3248 22.35 24.091 20.7548 24.5786C19.1943 25.0661 17.5124 25.2925 15.7091 25.2577H9.93526L7.12634 39.8845H0ZM13.3164 7.91438L11.2877 18.5711H16.5934C17.4257 18.5711 18.1886 18.4492 18.8822 18.2054C19.6104 17.9616 20.2173 17.6308 20.7028 17.2129C21.327 16.6905 21.7951 16.0462 22.1072 15.2801C22.4193 14.4791 22.5927 13.6084 22.6274 12.6681C22.5927 11.9019 22.4887 11.2577 22.3153 10.7353C22.1419 10.1781 21.8818 9.6905 21.5351 9.27259C21.1189 8.81985 20.6161 8.489 20.0266 8.28005C19.4717 8.03627 18.7608 7.91438 17.8939 7.91438H13.3164Z" fill="#FFE500"/>
<path d="M28.2229 39.8845L35.7134 1.22781L42.6316 1.22781L35.1412 39.8845H28.2229Z" fill="#FFE500"/>
<path d="M75.1545 10.9442L69.5366 39.8845L63.1906 39.8845L63.5027 38.1606H63.3986C62.5317 39.0661 61.4046 39.7278 60.0175 40.1457C58.6304 40.5985 57.1566 40.8248 55.5961 40.8248C53.9662 40.8248 52.3537 40.5636 50.7585 40.0412C49.198 39.5189 47.8108 38.7004 46.5971 37.586C45.1406 36.3323 44.0136 34.8174 43.216 33.0412C42.4531 31.2303 42.089 29.1407 42.1237 26.7726C42.1237 24.2999 42.5398 21.984 43.3721 19.8248C44.239 17.6308 45.5048 15.7502 47.1693 14.183C48.6258 12.79 50.2903 11.7452 52.1629 11.0487C54.0356 10.3522 56.0469 10.0039 58.1969 10.0039C60.4857 10.0039 62.445 10.387 64.0748 11.1532C65.7047 11.9194 67.0225 13.0338 68.0281 14.4965H68.1322L68.8084 10.9442H75.1545ZM58.1969 16.1681C55.5614 16.2029 53.3593 17.1606 51.5908 19.0412C49.8569 20.887 49.0072 23.3771 49.0419 26.5114C49.0419 28.984 49.7008 30.9691 51.0186 32.4666C52.371 33.9293 54.1916 34.6606 56.4804 34.6606C59.1506 34.6606 61.3526 33.7378 63.0865 31.892C64.8551 30.0114 65.7394 27.5562 65.7394 24.5263C65.7394 21.984 65.0458 19.9641 63.6587 18.4666C62.3063 16.9343 60.4857 16.1681 58.1969 16.1681Z" fill="#FFE500"/>
<path d="M99.7146 10.9442H107.413L83.6414 49.5487H75.9429L83.6414 37.1681L78.1796 10.9442L85.618 10.9442L89.2072 29.489L99.7146 10.9442Z" fill="#FFE500"/>
<path d="M117.841 28.8099H124.968C124.898 28.984 124.864 29.1756 124.864 29.3845C124.864 29.5935 124.864 29.8024 124.864 30.0114C124.864 30.5338 124.95 31.0562 125.124 31.5786C125.297 32.0661 125.557 32.484 125.904 32.8323C126.251 33.285 126.684 33.6159 127.204 33.8248C127.759 34.0338 128.418 34.1383 129.181 34.1383C130.048 34.1731 130.811 34.0686 131.47 33.8248C132.129 33.5462 132.701 33.1457 133.186 32.6233C133.603 32.2054 133.897 31.7353 134.071 31.2129C134.279 30.6905 134.4 30.1159 134.435 29.489C134.435 28.5139 134.227 27.6432 133.811 26.8771C133.394 26.0761 132.718 25.2402 131.782 24.3696C131.505 24.1606 131.21 23.9343 130.898 23.6905C130.586 23.4467 129.892 22.9069 128.817 22.0711C126.598 20.4343 125.02 18.9368 124.083 17.5786C123.182 16.1855 122.748 14.4616 122.783 12.4069C122.783 10.6308 123.078 8.97657 123.667 7.44423C124.291 5.91189 125.245 4.57109 126.528 3.42184C127.534 2.51637 128.73 1.81985 130.117 1.33229C131.505 0.8099 133.134 0.548706 135.007 0.548706C136.602 0.548706 138.024 0.792487 139.272 1.28005C140.521 1.76761 141.578 2.51637 142.445 3.52632C143.07 4.29249 143.555 5.23279 143.902 6.34721C144.283 7.42682 144.474 8.6109 144.474 9.89945C144.474 10.2825 144.457 10.6482 144.422 10.9965C144.387 11.3447 144.353 11.6756 144.318 11.989L137.192 11.989C137.226 11.8149 137.244 11.6407 137.244 11.4666C137.278 11.2925 137.313 11.1184 137.348 10.9442C137.348 10.4567 137.278 10.0039 137.14 9.58602C137.001 9.13328 136.81 8.73278 136.568 8.38453C136.255 8.03627 135.891 7.75766 135.475 7.54871C135.094 7.33975 134.591 7.23527 133.967 7.23527C133.412 7.2701 132.909 7.35716 132.458 7.49647C132.007 7.63577 131.609 7.84472 131.262 8.12333C130.776 8.50642 130.43 8.99398 130.221 9.58602C130.013 10.1432 129.909 10.7527 129.909 11.4144C129.909 12.3895 130.187 13.2776 130.742 14.0786C131.296 14.8796 132.84 16.1507 135.371 17.892C137.729 19.5636 139.394 21.2353 140.365 22.9069C141.37 24.5786 141.873 26.494 141.873 28.6532C141.873 30.3248 141.578 31.9094 140.989 33.4069C140.399 34.8696 139.602 36.1233 138.596 37.1681C137.417 38.387 135.995 39.2925 134.331 39.8845C132.666 40.5114 130.776 40.8248 128.661 40.8248C126.927 40.8248 125.419 40.5985 124.135 40.1457C122.887 39.7278 121.777 39.0313 120.806 38.0562C119.731 37.081 118.951 35.9492 118.466 34.6606C117.98 33.3721 117.737 31.9965 117.737 30.5338C117.703 30.2552 117.685 29.9766 117.685 29.698C117.72 29.3845 117.772 29.0885 117.841 28.8099Z" fill="#FFE500"/>
<path d="M145.438 39.8845L149.859 17.1084H146.478L147.675 10.9442H151.056L152.928 1.22781L159.847 1.22781L157.974 10.9442H162.136L160.939 17.1084L156.778 17.1084L152.356 39.8845H145.438Z" fill="#FFE500"/>
<path d="M194.428 10.9442L188.81 39.8845H182.464L182.776 38.1606H182.672C181.805 39.0661 180.678 39.7278 179.291 40.1457C177.904 40.5985 176.43 40.8248 174.87 40.8248C173.24 40.8248 171.627 40.5636 170.032 40.0412C168.471 39.5189 167.084 38.7004 165.871 37.586C164.414 36.3323 163.287 34.8174 162.489 33.0412C161.727 31.2303 161.362 29.1407 161.397 26.7726C161.397 24.2999 161.813 21.984 162.646 19.8248C163.512 17.6308 164.778 15.7502 166.443 14.183C167.899 12.79 169.564 11.7452 171.436 11.0487C173.309 10.3522 175.32 10.0039 177.47 10.0039C179.759 10.0039 181.718 10.387 183.348 11.1532C184.978 11.9194 186.296 13.0338 187.302 14.4965H187.406L188.082 10.9442H194.428ZM177.47 16.1681C174.835 16.2029 172.633 17.1606 170.864 19.0412C169.13 20.887 168.281 23.3771 168.315 26.5114C168.315 28.984 168.974 30.9691 170.292 32.4666C171.644 33.9293 173.465 34.6606 175.754 34.6606C178.424 34.6606 180.626 33.7378 182.36 31.892C184.129 30.0114 185.013 27.5562 185.013 24.5263C185.013 21.984 184.319 19.9641 182.932 18.4666C181.58 16.9343 179.759 16.1681 177.47 16.1681Z" fill="#FFE500"/>
<path d="M195.372 39.8845L199.794 17.1084H196.413L197.609 10.9442H200.99L202.863 1.22781L209.781 1.22781L207.908 10.9442L212.07 10.9442L210.873 17.1084H206.712L202.291 39.8845H195.372Z" fill="#FFE500"/>
<path d="M209.927 39.8845L215.545 10.9442H222.463L216.845 39.8845H209.927ZM216.169 7.60094L217.417 1.22781L224.336 1.22781L223.087 7.60094H216.169Z" fill="#FFE500"/>
<path d="M240.265 10.0039C242.554 10.0039 244.531 10.3348 246.195 10.9965C247.86 11.6233 249.316 12.5462 250.564 13.7651C251.778 15.0189 252.715 16.4815 253.373 18.1532C254.032 19.8248 254.362 21.7054 254.362 23.795C254.362 26.3024 253.928 28.6532 253.061 30.8472C252.194 33.0412 250.998 34.887 249.472 36.3845C247.912 37.9169 246.16 39.0487 244.218 39.7801C242.311 40.4766 240.23 40.8248 237.976 40.8248C235.688 40.8248 233.694 40.5114 231.994 39.8845C230.33 39.2577 228.873 38.3174 227.625 37.0636C226.377 35.8447 225.423 34.4169 224.764 32.78C224.105 31.1084 223.776 29.1582 223.776 26.9293C223.776 24.4915 224.192 22.193 225.024 20.0338C225.891 17.8746 227.105 16.0114 228.665 14.4442C230.191 12.9467 231.908 11.8323 233.815 11.1009C235.757 10.3696 237.907 10.0039 240.265 10.0039ZM239.901 16.1681C238.583 16.1681 237.352 16.4119 236.208 16.8995C235.063 17.387 234.075 18.1009 233.243 19.0412C232.411 19.9815 231.769 21.096 231.318 22.3845C230.902 23.6383 230.694 25.0139 230.694 26.5114C230.694 27.6258 230.833 28.6706 231.11 29.6457C231.422 30.6208 231.873 31.4567 232.463 32.1532C233.087 32.9542 233.867 33.581 234.803 34.0338C235.774 34.4517 236.919 34.6606 238.236 34.6606C239.52 34.6606 240.733 34.4343 241.878 33.9815C243.022 33.494 244.028 32.7626 244.895 31.7875C245.692 30.882 246.316 29.8024 246.767 28.5487C247.218 27.2601 247.443 25.8497 247.443 24.3174C247.443 23.2378 247.287 22.2104 246.975 21.2353C246.663 20.2601 246.23 19.4069 245.675 18.6756C245.016 17.9094 244.201 17.2999 243.23 16.8472C242.294 16.3945 241.184 16.1681 239.901 16.1681Z" fill="#FFE500"/>
<path d="M255.696 39.8845L261.314 10.9442H267.66L267.192 13.1905H267.296C268.267 12.1457 269.446 11.3621 270.833 10.8397C272.255 10.2825 273.885 10.0039 275.722 10.0039C277.075 10.0039 278.289 10.1955 279.364 10.5786C280.439 10.9616 281.392 11.5537 282.225 12.3547C283.126 13.2601 283.785 14.3397 284.201 15.5935C284.617 16.8472 284.825 18.2402 284.825 19.7726C284.825 20.4691 284.773 21.1656 284.669 21.8621C284.6 22.5238 284.513 23.2029 284.409 23.8995L281.34 39.8845H274.422L277.595 23.4815C277.664 23.0636 277.716 22.6457 277.751 22.2278C277.786 21.7751 277.82 21.3223 277.855 20.8696C277.82 19.3024 277.404 18.1358 276.607 17.3696C275.844 16.6034 274.803 16.2029 273.486 16.1681C272.341 16.1681 271.336 16.3596 270.469 16.7427C269.602 17.1258 268.839 17.6656 268.18 18.3621C267.556 18.989 267.036 19.7378 266.619 20.6084C266.238 21.4442 265.926 22.5761 265.683 24.0039L262.614 39.8845H255.696Z" fill="#FFE500"/>
<path d="M301.367 21.5487L309.118 1.22781L328 1.22781L326.283 7.8099H313.539L310.626 15.3323C311.424 14.8796 312.239 14.5661 313.071 14.392C313.938 14.183 314.822 14.0786 315.724 14.0786C317.25 14.0786 318.637 14.3398 319.885 14.8621C321.134 15.3497 322.226 16.081 323.162 17.0562C324.099 18.1009 324.827 19.3895 325.347 20.9218C325.867 22.4194 326.127 24.1258 326.127 26.0412C326.127 28.0611 325.833 29.8895 325.243 31.5263C324.654 33.1631 323.856 34.6084 322.85 35.8621C321.533 37.4641 319.92 38.7004 318.013 39.5711C316.14 40.4069 313.955 40.8248 311.459 40.8248C309.482 40.79 307.731 40.5114 306.205 39.989C304.714 39.4666 303.431 38.6482 302.356 37.5338C301.35 36.5587 300.57 35.4094 300.015 34.086C299.46 32.7278 299.183 31.387 299.183 30.0636C299.183 29.5761 299.183 29.2452 299.183 29.0711C299.183 28.8621 299.2 28.6532 299.235 28.4442H306.153C306.118 28.5835 306.101 28.7228 306.101 28.8621C306.101 28.9666 306.101 29.0711 306.101 29.1756C306.101 29.8373 306.222 30.4815 306.465 31.1084C306.708 31.7353 307.072 32.2751 307.557 32.7278C308.043 33.285 308.598 33.6855 309.222 33.9293C309.846 34.1383 310.626 34.2427 311.563 34.2427C312.776 34.2776 313.799 34.1383 314.632 33.8248C315.464 33.5114 316.209 33.0587 316.868 32.4666C317.631 31.7701 318.203 30.9865 318.585 30.1159C319.001 29.2452 319.209 28.2875 319.209 27.2427C319.209 26.3024 319.088 25.397 318.845 24.5263C318.602 23.6208 318.255 22.8721 317.805 22.28C317.25 21.6184 316.574 21.1134 315.776 20.7651C315.013 20.4169 314.163 20.2427 313.227 20.2427C311.875 20.2776 310.678 20.5562 309.638 21.0786C308.632 21.5661 307.817 22.2975 307.193 23.2726L301.367 21.5487Z" fill="#FFE500"/>
</svg>
