<svg width="326" height="99" viewBox="0 0 326 99" fill="none" xmlns="http://www.w3.org/2000/svg">
<path d="M7.53917 3.84357L29.9757 3.61977L28.7407 10.296L13.436 10.4487L11.9048 18.7418L17.2146 18.6889C19.3316 18.6678 21.0521 18.9109 22.376 19.4183C23.7347 19.9254 24.9223 20.6771 25.9387 21.6735C26.8511 22.671 27.5393 23.8095 28.0032 25.089C28.4669 26.3339 28.7061 27.7025 28.721 29.1948C28.7442 31.52 28.3476 33.5197 27.5313 35.1938C26.7147 36.8332 25.5486 38.2332 24.033 39.3937C22.793 40.3431 21.3946 41.0686 19.8377 41.5701C18.3152 42.0364 16.6169 42.279 14.7429 42.2977L0.427203 42.4405L7.53917 3.84357ZM10.6698 25.4181L8.79397 35.6931L15.5093 35.6261C16.3422 35.6178 17.0873 35.5062 17.7446 35.2914C18.4363 35.0416 19.0577 34.7056 19.6088 34.2836C20.2287 33.7915 20.7085 33.1794 21.0482 32.4471C21.4227 31.7145 21.6049 30.845 21.5949 29.8385C21.588 29.1445 21.478 28.5555 21.2649 28.0717C21.0862 27.5529 20.8214 27.1043 20.4706 26.726C20.0149 26.2794 19.4563 25.9552 18.7949 25.7536C18.1678 25.5169 17.4202 25.3855 16.5523 25.3594L10.6698 25.4181Z" fill="#FFE500"/>
<path d="M64.9301 12.9547L59.5956 41.8503L53.2447 41.9136L53.5399 40.1927L53.4357 40.1937C52.5771 41.1047 51.4558 41.7753 50.0718 42.2056C48.6881 42.6706 47.2154 42.9109 45.6537 42.9265C44.0226 42.9427 42.4062 42.6986 40.8046 42.1939C39.2377 41.6889 37.8414 40.8872 36.6157 39.7888C35.1456 38.5539 34.0026 37.0555 33.1868 35.2936C32.4053 33.4965 32.0201 31.4179 32.0313 29.0576C32.0067 26.5936 32.4001 24.2816 33.2116 22.1216C34.0574 19.9266 35.3054 18.0399 36.9557 16.4616C38.3994 15.0588 40.0548 14.0011 41.922 13.2883C43.7891 12.5755 45.7985 12.2084 47.9502 12.1869C50.2407 12.1641 52.2053 12.5263 53.844 13.2735C55.4828 14.0207 56.8126 15.1181 57.8336 16.5657L57.9377 16.5646L58.5791 13.018L64.9301 12.9547ZM48.0115 18.3296C45.3743 18.3907 43.18 19.367 41.4288 21.2587C39.7119 23.1154 38.8864 25.6052 38.9522 28.7283C38.9768 31.1923 39.6559 33.1639 40.9896 34.6431C42.3576 36.0872 44.1869 36.7978 46.4774 36.7749C49.1496 36.7483 51.3442 35.8066 53.0611 33.95C54.8123 32.0583 55.6729 29.6028 55.6428 26.5835C55.6175 24.05 54.9034 22.0441 53.5003 20.5656C52.1316 19.0521 50.302 18.3068 48.0115 18.3296Z" fill="#FFE500"/>
<path d="M63.3438 51.4444L70.4563 12.8996L76.8072 12.8362L76.512 14.5572L76.6161 14.5562C77.4751 13.6799 78.5792 13.0268 79.9285 12.5968C81.2775 12.1322 82.75 11.8745 84.3461 11.8239C86.1508 11.8059 87.7845 12.0499 89.2473 12.5559C90.7448 13.0616 92.1237 13.8635 93.3842 14.9616C94.9254 16.3693 96.0693 17.9718 96.8161 19.7691C97.5629 21.5665 97.9471 23.541 97.9685 25.6927C97.9935 28.1915 97.583 30.5384 96.7372 32.7334C95.891 34.8937 94.66 36.7455 93.0441 38.2888C91.6004 39.6915 89.9103 40.7496 87.9737 41.4631C86.0719 42.1763 84.0278 42.5437 81.8414 42.5655C79.7938 42.586 78.0034 42.2914 76.4702 41.682C74.9369 41.0725 73.6777 40.0959 72.6925 38.7521L72.5884 38.7532L70.2673 51.3753L63.3438 51.4444ZM83.3662 17.977C80.7287 18.0033 78.5517 18.9621 76.8351 20.8535C75.1533 22.7445 74.3276 25.217 74.3581 28.271C74.3833 30.8045 75.0628 32.8108 76.3964 34.2899C77.7645 35.734 79.6111 36.4444 81.9363 36.4213C84.6085 36.3946 86.8031 35.4529 88.52 33.5963C90.2369 31.7396 91.0803 29.3017 91.0502 26.2824C91.0245 23.7142 90.3102 21.6909 88.9071 20.2125C87.5384 18.699 85.6915 17.9538 83.3662 17.977Z" fill="#FFE500"/>
<path d="M133.662 12.2691L128.327 41.1647L121.976 41.2281L122.271 39.5071L122.167 39.5081C121.309 40.4191 120.187 41.0897 118.803 41.5201C117.42 41.9851 115.947 42.2253 114.385 42.2409C112.754 42.2572 111.138 42.013 109.536 41.5084C107.969 41.0034 106.573 40.2017 105.347 39.1032C103.877 37.8684 102.734 36.37 101.918 34.608C101.137 32.811 100.752 30.7324 100.763 28.3721C100.738 25.9081 101.132 23.5961 101.943 21.4361C102.789 19.241 104.037 17.3543 105.687 15.776C107.131 14.3733 108.786 13.3155 110.653 12.6027C112.521 11.89 114.53 11.5228 116.682 11.5014C118.972 11.4785 120.937 11.8407 122.575 12.588C124.214 13.3352 125.544 14.4326 126.565 15.8801L126.669 15.8791L127.311 12.3325L133.662 12.2691ZM116.743 17.6441C114.106 17.7051 111.911 18.6815 110.16 20.5732C108.443 22.4298 107.618 24.9197 107.684 28.0427C107.708 30.5068 108.387 32.4784 109.721 33.9575C111.089 35.4016 112.918 36.1122 115.209 36.0894C117.881 36.0627 120.076 35.1211 121.793 33.2644C123.544 31.3727 124.404 28.9172 124.374 25.8979C124.349 23.3645 123.635 21.3585 122.232 19.8801C120.863 18.3666 119.033 17.6212 116.743 17.6441Z" fill="#FFE500"/>
<path d="M168.868 2.23441L167.315 8.39323L154.199 8.78436C152.465 8.83637 150.819 9.13045 149.262 9.6666C147.741 10.2024 146.412 10.9445 145.276 11.893C144.312 12.7009 143.471 13.629 142.752 14.6774C142.068 15.6908 141.541 16.772 141.171 17.9211L141.275 17.92C142.612 16.2754 144.213 14.9752 146.078 14.0195C147.942 13.0291 150.054 12.5221 152.414 12.4986C154.427 12.4785 156.217 12.7557 157.785 13.3301C159.353 13.9045 160.75 14.7756 161.976 15.9434C163.168 17.1463 164.067 18.543 164.673 20.1336C165.314 21.7237 165.644 23.4906 165.663 25.434C165.687 27.8286 165.276 30.0888 164.429 32.2144C163.582 34.3053 162.42 36.0697 160.942 37.5075C159.532 38.8751 157.842 39.9506 155.872 40.7338C153.936 41.482 151.753 41.8682 149.323 41.8924C147.172 41.9139 145.243 41.6208 143.536 41.013C141.864 40.405 140.414 39.465 139.186 38.193C137.89 36.9218 136.885 35.3352 136.171 33.4334C135.458 31.5315 135.089 29.2966 135.063 26.7284C135.02 22.3903 135.761 18.4089 137.287 14.784C138.813 11.1592 140.902 8.34431 143.554 6.33949C145.174 5.14327 146.952 4.25782 148.89 3.68317C150.863 3.07346 153.063 2.72178 155.492 2.62814L168.868 2.23441ZM151.226 18.6538C149.907 18.6669 148.66 18.905 147.485 19.3679C146.344 19.8305 145.379 20.4995 144.589 21.3751C143.799 22.216 143.185 23.2634 142.746 24.5172C142.342 25.736 142.147 27.0222 142.16 28.3757C142.171 29.4168 142.319 30.3698 142.605 31.2347C142.926 32.0992 143.385 32.8582 143.982 33.5117C144.614 34.2342 145.383 34.7992 146.289 35.2067C147.23 35.5791 148.325 35.7591 149.575 35.7466C150.893 35.7334 152.123 35.4956 153.264 35.033C154.439 34.5701 155.439 33.9006 156.263 33.0247C157.019 32.2189 157.599 31.2066 158.003 29.9878C158.442 28.7686 158.672 27.4821 158.694 26.1283C158.648 25.0875 158.465 24.1348 158.144 23.2703C157.858 22.3708 157.433 21.5767 156.871 20.8882C156.205 20.2007 155.401 19.6534 154.46 19.2462C153.553 18.8388 152.476 18.6413 151.226 18.6538Z" fill="#FFE500"/>
<path d="M201.325 11.5942L195.991 40.4898L189.64 40.5532L189.935 38.8322L189.831 38.8332C188.972 39.7442 187.851 40.4148 186.467 40.8451C185.083 41.3102 183.611 41.5504 182.049 41.566C180.418 41.5823 178.801 41.3381 177.2 40.8335C175.633 40.3285 174.237 39.5268 173.011 38.4283C171.541 37.1935 170.398 35.6951 169.582 33.9331C168.801 32.1361 168.415 30.0574 168.427 27.6972C168.402 25.2332 168.795 22.9211 169.607 20.7612C170.453 18.5661 171.701 16.6794 173.351 15.1011C174.795 13.6984 176.45 12.6406 178.317 11.9278C180.184 11.2151 182.194 10.8479 184.345 10.8265C186.636 10.8036 188.601 11.1658 190.239 11.913C191.878 12.6603 193.208 13.7577 194.229 15.2052L194.333 15.2042L194.974 11.6576L201.325 11.5942ZM184.407 16.9692C181.77 17.0302 179.575 18.0066 177.824 19.8983C176.107 21.7549 175.282 24.2448 175.348 27.3678C175.372 29.8319 176.051 31.8035 177.385 33.2826C178.753 34.7267 180.582 35.4373 182.873 35.4145C185.545 35.3878 187.739 34.4462 189.456 32.5895C191.208 30.6978 192.068 28.2423 192.038 25.223C192.013 22.6896 191.299 20.6836 189.896 19.2052C188.527 17.6917 186.697 16.9463 184.407 16.9692Z" fill="#FFE500"/>
<path d="M206.852 11.5391L213.775 11.47L211.799 22.1104L222.575 22.0029L224.551 11.3626L231.474 11.2935L226.14 40.1891L219.216 40.2582L221.438 28.1576L210.663 28.2651L208.441 40.3657L201.517 40.4347L206.852 11.5391Z" fill="#FFE500"/>
<path d="M237.049 11.2379L243.972 11.1688L241.996 21.8092L252.772 21.7017L254.748 11.0614L261.672 10.9923L256.337 39.8879L249.413 39.957L251.636 27.8564L240.86 27.9639L238.638 40.0645L231.714 40.1335L237.049 11.2379Z" fill="#FFE500"/>
<path d="M296.085 10.6491L290.751 39.5447L284.4 39.608L284.695 37.887L284.591 37.8881C283.732 38.799 282.611 39.4697 281.227 39.9C279.843 40.365 278.371 40.6053 276.809 40.6209C275.178 40.6371 273.561 40.3929 271.96 39.8883C270.393 39.3833 268.997 38.5816 267.771 37.4831C266.301 36.2483 265.158 34.7499 264.342 32.9879C263.56 31.1909 263.175 29.1123 263.186 26.752C263.162 24.288 263.555 21.976 264.367 19.816C265.213 17.6209 266.461 15.7343 268.111 14.1559C269.555 12.7532 271.21 11.6955 273.077 10.9827C274.944 10.2699 276.954 9.90276 279.105 9.8813C281.396 9.85845 283.36 10.2206 284.999 10.9679C286.638 11.7151 287.968 12.8125 288.989 14.2601L289.093 14.259L289.734 10.7124L296.085 10.6491ZM279.167 16.024C276.529 16.085 274.335 17.0614 272.584 18.9531C270.867 20.8097 270.042 23.2996 270.107 26.4227C270.132 28.8867 270.811 30.8583 272.145 32.3374C273.513 33.7815 275.342 34.4922 277.633 34.4693C280.305 34.4427 282.499 33.501 284.216 31.6443C285.967 29.7526 286.828 27.2971 286.798 24.2778C286.773 21.7444 286.059 19.7385 284.655 18.26C283.287 16.7465 281.457 16.0012 279.167 16.024Z" fill="#FFE500"/>
<path d="M324.152 10.3691L318.818 39.2647L311.894 39.3338L313.966 27.8594L303.617 39.4163L294.663 39.5056L305.281 28.7791C304.413 28.7183 303.613 28.5354 302.881 28.2303C302.148 27.8906 301.537 27.4628 301.046 26.9471C300.31 26.295 299.747 25.4849 299.355 24.517C298.964 23.5491 298.78 22.475 298.803 21.2947C298.752 19.6986 299.084 18.1508 299.798 16.6512C300.546 15.1513 301.644 13.8735 303.091 12.8178C304.125 12.0787 305.282 11.5118 306.563 11.1172C307.878 10.7223 309.281 10.5174 310.773 10.5025L324.152 10.3691ZM314.759 23.8428L316.092 16.5928L310.106 16.6525C309.516 16.6931 308.962 16.7854 308.443 16.9294C307.958 17.0731 307.544 17.2855 307.2 17.5666C306.717 17.9532 306.341 18.4428 306.069 19.0356C305.797 19.5936 305.681 20.1848 305.722 20.8092C305.727 21.2603 305.8 21.6761 305.943 22.0565C306.085 22.4368 306.314 22.7469 306.629 22.9867C306.945 23.3307 307.346 23.5696 307.833 23.7036C308.321 23.8376 308.981 23.9004 309.814 23.8921L314.759 23.8428Z" fill="#FFE500"/>
<path d="M77.4197 59.686L85.1241 59.6092L61.7178 98.3165L54.0134 98.3934L61.5948 85.979L55.8681 59.901L63.3123 59.8267L67.0885 78.2711L77.4197 59.686Z" fill="#FFE500"/>
<path d="M104.267 78.8895L111.763 78.8147C110.652 82.2619 108.752 84.8666 106.062 86.6288C103.372 88.3563 100.24 89.2379 96.665 89.2736C94.4089 89.2614 92.4623 88.9684 90.8253 88.3947C89.1887 87.8557 87.7392 86.9504 86.4771 85.6788C85.2156 84.4766 84.2295 83.046 83.5188 81.3871C82.8424 79.6932 82.5107 77.7528 82.5236 75.5661C82.4647 73.1371 82.8409 70.8426 83.6524 68.6826C84.4985 66.5223 85.712 64.6533 87.2929 63.0757C88.8046 61.5335 90.5114 60.4058 92.4133 59.6926C94.3494 58.9445 96.6016 58.5576 99.1698 58.5319C103.091 58.4928 106.207 59.4509 108.518 61.4062C110.827 63.3269 112.275 65.8288 112.862 68.9119L105.261 68.9877C104.796 67.6041 103.987 66.5362 102.834 65.7841C101.682 65.032 100.324 64.6638 98.7625 64.6793C97.3743 64.6932 96.0755 64.9664 94.866 65.4991C93.6909 65.9968 92.6916 66.7182 91.868 67.6636C91.0441 68.5742 90.4128 69.6565 89.9741 70.9103C89.5701 72.1638 89.3927 73.5192 89.442 74.9765C89.4551 76.2952 89.6406 77.4908 89.9984 78.5632C90.3905 79.6005 90.9196 80.4456 91.5855 81.0984C92.2171 81.7863 92.9685 82.2994 93.8395 82.6378C94.7106 82.9762 95.7535 83.1393 96.9682 83.1272C98.6687 83.1103 100.158 82.7483 101.435 82.0414C102.712 81.3345 103.656 80.2839 104.267 78.8895Z" fill="#FFE500"/>
<path d="M117.589 59.2853L138.36 59.0782L137.224 65.2328L130.3 65.3019L126.102 88.0428L119.178 88.1119L123.376 65.3709L116.453 65.44L117.589 59.2853Z" fill="#FFE500"/>
<path d="M170.579 58.7568L165.244 87.6524L158.893 87.7158L159.189 85.9948L159.085 85.9958C158.226 86.9068 157.105 87.5774 155.721 88.0077C154.337 88.4727 152.864 88.713 151.302 88.7286C149.671 88.7449 148.055 88.5007 146.453 87.996C144.886 87.491 143.49 86.6893 142.264 85.5909C140.794 84.3561 139.651 82.8577 138.836 81.0957C138.054 79.2987 137.669 77.22 137.68 74.8598C137.655 72.3957 138.049 70.0837 138.86 67.9237C139.706 65.7287 140.954 63.842 142.604 62.2637C144.048 60.861 145.704 59.8032 147.571 59.0904C149.438 58.3776 151.447 58.0105 153.599 57.989C155.889 57.9662 157.854 58.3284 159.493 59.0756C161.132 59.8229 162.461 60.9202 163.482 62.3678L163.586 62.3668L164.228 58.8202L170.579 58.7568ZM153.66 64.1318C151.023 64.1928 148.829 65.1691 147.078 67.0608C145.361 68.9175 144.535 71.4074 144.601 74.5304C144.626 76.9945 145.305 78.966 146.638 80.4452C148.006 81.8893 149.836 82.5999 152.126 82.5771C154.798 82.5504 156.993 81.6087 158.71 79.7521C160.461 77.8604 161.322 75.4049 161.292 72.3856C161.266 69.8521 160.552 67.8462 159.149 66.3678C157.78 64.8542 155.951 64.1089 153.66 64.1318Z" fill="#FFE500"/>
<path d="M176.105 58.7017L183.029 58.6326L181.052 69.273L191.828 69.1655L193.804 58.5251L200.728 58.4561L195.393 87.3517L188.47 87.4208L190.692 75.3202L179.916 75.4277L177.694 87.5282L170.771 87.5973L176.105 58.7017Z" fill="#FFE500"/>
<path d="M218.526 57.3414C220.817 57.3186 222.798 57.6286 224.47 58.2713C226.143 58.8794 227.609 59.7845 228.871 60.9867C230.098 62.224 231.049 63.6722 231.725 65.3315C232.401 66.9907 232.75 68.8615 232.771 70.9438C232.796 73.4425 232.385 75.7894 231.539 77.9844C230.694 80.1795 229.515 82.0308 228.002 83.5383C226.456 85.0809 224.715 86.2262 222.778 86.9744C220.877 87.6876 218.798 88.0554 216.542 88.0779C214.251 88.1007 212.253 87.8083 210.546 87.2006C208.874 86.5925 207.407 85.67 206.145 84.4331C204.884 83.2309 203.915 81.8175 203.24 80.193C202.564 78.5337 202.214 76.5936 202.192 74.3725C202.168 71.9432 202.562 69.6485 203.373 67.4885C204.219 65.3282 205.415 63.4594 206.962 61.8821C208.474 60.3745 210.181 59.2469 212.082 58.499C214.018 57.7508 216.166 57.365 218.526 57.3414ZM218.223 63.4878C216.904 63.5009 215.675 63.7562 214.534 64.2535C213.394 64.7507 212.412 65.4721 211.588 66.4174C210.765 67.3627 210.134 68.4797 209.695 69.7682C209.291 71.0218 209.097 72.3947 209.112 73.887C209.123 74.9975 209.272 76.0373 209.559 77.0062C209.881 77.9748 210.341 78.8033 210.938 79.4915C211.57 80.2834 212.357 80.9003 213.299 81.3421C214.275 81.7489 215.422 81.9457 216.741 81.9326C218.025 81.9198 219.237 81.6821 220.378 81.2195C221.519 80.7222 222.518 79.9833 223.376 79.003C224.165 78.0927 224.779 77.0106 225.218 75.7567C225.656 74.4682 225.867 73.0604 225.852 71.5334C225.842 70.4575 225.675 69.4353 225.353 68.4667C225.031 67.4981 224.589 66.6521 224.026 65.9289C223.359 65.172 222.538 64.5728 221.561 64.1313C220.62 63.6895 219.507 63.475 218.223 63.4878Z" fill="#FFE500"/>
<path d="M239.6 58.0684L250.897 57.9557C252.528 57.9394 253.866 58.0996 254.91 58.4363C255.955 58.7729 256.827 59.2675 257.528 59.92C258.019 60.4357 258.425 61.1084 258.746 61.9382C259.101 62.733 259.283 63.6162 259.293 64.5879C259.267 65.4906 259.102 66.3426 258.798 67.1439C258.528 67.9102 258.083 68.6261 257.465 69.2918C256.95 69.8522 256.365 70.344 255.71 70.767C255.054 71.1553 254.363 71.4399 253.636 71.6207C254.993 71.9889 256.042 72.7247 256.782 73.828C257.556 74.8962 257.951 76.1765 257.965 77.6688C257.946 79.2308 257.63 80.605 257.017 81.7911C256.404 82.9773 255.529 83.9752 254.392 84.7849C253.427 85.4539 252.339 85.9681 251.128 86.3272C249.951 86.6513 248.547 86.8215 246.916 86.8378L234.266 86.964L239.6 58.0684ZM245.438 63.9452L244.548 68.7438L249.234 68.6971C249.789 68.7262 250.223 68.6872 250.534 68.58C250.845 68.4727 251.139 68.2963 251.414 68.0506C251.689 67.8049 251.912 67.5076 252.082 67.1589C252.251 66.7754 252.334 66.3581 252.329 65.9069C252.292 65.6296 252.22 65.3874 252.114 65.1802C252.042 64.9379 251.918 64.7136 251.743 64.5071C251.498 64.3013 251.219 64.1652 250.906 64.0989C250.627 63.9976 250.262 63.9318 249.811 63.9016L245.438 63.9452ZM243.41 74.6902L242.275 80.949L247.273 80.8992C247.724 80.9294 248.158 80.8903 248.573 80.7821C248.988 80.6391 249.385 80.4442 249.765 80.1975C250.248 79.8803 250.608 79.4949 250.847 79.0413C251.119 78.5527 251.252 77.9613 251.245 77.2672C251.241 76.8508 251.168 76.5044 251.027 76.2282C250.885 75.9172 250.709 75.6413 250.498 75.4005C250.218 75.1603 249.904 74.9899 249.556 74.8892C249.207 74.7539 248.686 74.6723 247.991 74.6445L243.41 74.6902Z" fill="#FFE500"/>
<path d="M260.294 86.7044L265.629 57.8087L272.552 57.7397L270.081 70.9881L282.86 57.6369L291.085 57.5548L276.858 71.8576L286.375 86.4442L278.15 86.5263L269.787 72.7612L267.218 86.6353L260.294 86.7044Z" fill="#FFE500"/>
<path d="M324.665 57.2199L319.331 86.1155L312.98 86.1789L313.275 84.4579L313.171 84.4589C312.312 85.3699 311.191 86.0405 309.807 86.4708C308.423 86.9358 306.951 87.1761 305.389 87.1917C303.758 87.208 302.141 86.9638 300.54 86.4591C298.973 85.9541 297.577 85.1524 296.351 84.054C294.881 82.8192 293.738 81.3208 292.922 79.5588C292.14 77.7618 291.755 75.6831 291.766 73.3229C291.742 70.8588 292.135 68.5468 292.947 66.3868C293.793 64.1918 295.041 62.3051 296.691 60.7268C298.135 59.324 299.79 58.2663 301.657 57.5535C303.524 56.8407 305.534 56.4736 307.685 56.4521C309.976 56.4293 311.941 56.7915 313.579 57.5387C315.218 58.2859 316.548 59.3833 317.569 60.8309L317.673 60.8299L318.314 57.2832L324.665 57.2199ZM307.747 62.5949C305.109 62.6559 302.915 63.6322 301.164 65.5239C299.447 67.3806 298.622 69.8704 298.687 72.9935C298.712 75.4575 299.391 77.4291 300.725 78.9083C302.093 80.3524 303.922 81.063 306.213 81.0401C308.885 81.0135 311.079 80.0718 312.796 78.2152C314.548 76.3235 315.408 73.868 315.378 70.8487C315.353 68.3152 314.639 66.3093 313.236 64.8308C311.867 63.3173 310.037 62.572 307.747 62.5949Z" fill="#FFE500"/>
</svg>
