<svg width="354" height="241" viewBox="0 0 354 241" fill="none" xmlns="http://www.w3.org/2000/svg">
<path d="M0.0604768 176.097L33.6536 156.702L37.465 167.803L14.55 181.033L19.2888 194.821L27.2389 190.231C30.4086 188.401 33.2057 187.306 35.6302 186.945C38.1067 186.555 40.5334 186.678 42.9103 187.315C45.1313 188.042 47.1345 189.171 48.92 190.704C50.6755 192.185 52.1983 194.042 53.4883 196.276C55.4983 199.758 56.5997 203.106 56.7927 206.32C56.9556 209.482 56.3889 212.58 55.0926 215.615C54.032 218.098 52.5425 220.378 50.6243 222.456C48.728 224.451 46.3768 226.259 43.5709 227.879L22.1368 240.254L0.0604768 176.097ZM23.1002 205.923L29.0034 222.987L39.058 217.182C40.3051 216.462 41.3322 215.661 42.1395 214.78C42.9687 213.816 43.619 212.782 44.0904 211.679C44.6057 210.411 44.8082 209.082 44.6978 207.691C44.6394 206.27 44.1752 204.806 43.3052 203.299C42.7052 202.259 42.0393 201.466 41.3075 200.919C40.5977 200.289 39.818 199.839 38.9684 199.567C37.9029 199.282 36.7865 199.268 35.6192 199.526C34.4739 199.703 33.2368 200.14 31.9077 200.838L23.1002 205.923ZM94.2145 141.067L110.727 189.107L101.218 194.597L100.2 191.754L100.045 191.844C99.5255 193.945 98.4067 195.908 96.6883 197.731C94.9998 199.607 92.9865 201.22 90.6482 202.57C88.206 203.98 85.5648 204.985 82.7246 205.585C79.9363 206.156 77.1528 206.135 74.3742 205.522C71.1118 204.911 68.118 203.626 65.3929 201.666C62.6898 199.624 60.3442 196.821 58.3561 193.258C56.2261 189.569 54.8547 185.753 54.2417 181.812C53.6508 177.788 53.9274 173.887 55.0715 170.109C56.0539 166.77 57.6481 163.772 59.854 161.112C62.0599 158.453 64.7737 156.194 67.9953 154.334C71.4248 152.354 74.6906 151.23 77.7928 150.963C80.895 150.696 83.8295 151.219 86.5964 152.532L86.7523 152.442L84.7055 146.557L94.2145 141.067ZM73.3053 163.531C69.3862 165.863 66.9117 169.197 65.8816 173.533C64.8736 177.787 65.7455 182.237 68.4975 186.883C70.6275 190.573 73.3247 192.964 76.5893 194.059C79.8758 195.071 83.2337 194.587 86.6632 192.607C90.6642 190.297 93.1688 187.015 94.1769 182.761C95.2069 178.425 94.4169 173.997 91.8069 169.477C89.6169 165.683 86.8377 163.27 83.4692 162.235C80.1227 161.119 76.7348 161.551 73.3053 163.531ZM145.507 150.32L156.731 143.84C157.986 149.974 157.337 155.51 154.784 160.448C152.201 165.334 148.234 169.322 142.882 172.412C139.474 174.311 136.294 175.523 133.342 176.05C130.42 176.628 127.469 176.496 124.488 175.654C121.567 174.915 118.867 173.599 116.388 171.704C113.931 169.728 111.783 167.088 109.945 163.785C107.793 160.178 106.411 156.403 105.798 152.461C105.237 148.49 105.477 144.645 106.517 140.927C107.483 137.32 109.095 134.173 111.353 131.483C113.633 128.712 116.695 126.217 120.541 123.997C126.412 120.607 131.918 119.402 137.057 120.384C142.167 121.314 146.472 123.851 149.974 127.996L138.594 134.566C136.718 132.877 134.593 131.957 132.219 131.803C129.844 131.65 127.487 132.249 125.149 133.599C123.071 134.799 121.347 136.313 119.978 138.143C118.632 139.89 117.74 141.826 117.303 143.948C116.836 146.019 116.804 148.185 117.209 150.446C117.665 152.677 118.55 154.868 119.862 157.02C121.002 158.995 122.296 160.638 123.746 161.948C125.218 163.177 126.732 164 128.289 164.418C129.825 164.917 131.392 165.051 132.991 164.821C134.59 164.59 136.299 163.95 138.117 162.9C140.663 161.43 142.598 159.621 143.92 157.471C145.243 155.322 145.772 152.938 145.507 150.32ZM195.363 121.536L206.587 115.056C207.842 121.19 207.193 126.726 204.64 131.664C202.057 136.55 198.089 140.538 192.737 143.628C189.33 145.526 186.15 146.739 183.198 147.265C180.276 147.844 177.324 147.712 174.344 146.869C171.423 146.131 168.723 144.814 166.244 142.92C163.787 140.944 161.639 138.304 159.801 135.001C157.649 131.393 156.266 127.619 155.654 123.677C155.093 119.706 155.332 115.861 156.372 112.142C157.339 108.536 158.951 105.388 161.209 102.699C163.489 99.928 166.551 97.4324 170.396 95.2124C176.268 91.8224 181.773 90.6183 186.913 91.6001C192.022 92.5299 196.328 95.0671 199.829 99.2117L188.45 105.782C186.574 104.093 184.449 103.172 182.074 103.019C179.7 102.866 177.343 103.465 175.005 104.815C172.926 106.015 171.203 107.529 169.834 109.359C168.487 111.106 167.596 113.041 167.158 115.164C166.691 117.235 166.66 119.401 167.065 121.662C167.521 123.892 168.405 126.084 169.717 128.236C170.857 130.211 172.152 131.853 173.602 133.164C175.073 134.393 176.588 135.216 178.145 135.633C179.68 136.133 181.247 136.267 182.846 136.037C184.445 135.806 186.154 135.166 187.973 134.116C190.519 132.646 192.453 130.837 193.776 128.687C195.099 126.538 195.628 124.154 195.363 121.536ZM256.057 82.5448L221.841 102.3C222.664 103.487 223.651 104.476 224.801 105.267C225.92 106.006 227.188 106.522 228.603 106.813C230.16 107.23 231.75 107.283 233.371 106.97C234.992 106.658 236.659 106.007 238.374 105.017C239.465 104.387 240.471 103.668 241.39 102.86C242.279 102 243.041 101.041 243.677 99.981C244.194 99.1973 244.589 98.3806 244.86 97.531C245.154 96.5994 245.339 95.6609 245.417 94.7154L257.108 87.9654C257.343 90.5319 257.25 93.0106 256.829 95.4014C256.46 97.7622 255.848 99.8822 254.993 101.761C253.858 104.356 252.202 106.768 250.024 108.995C247.928 111.244 245.269 113.299 242.047 115.159C238.878 116.989 235.828 118.126 232.898 118.571C230.049 119.038 227.079 118.813 223.986 117.896C220.79 117.04 218.004 115.635 215.629 113.68C213.275 111.644 211.289 109.223 209.669 106.417C207.479 102.624 206.114 98.7008 205.575 94.6472C205.036 90.5936 205.265 86.7897 206.261 83.2353C207.235 79.7629 208.863 76.6412 211.142 73.87C213.422 71.0988 216.433 68.6332 220.174 66.4732C223.448 64.5832 226.601 63.3858 229.636 62.8811C232.64 62.3245 235.673 62.4784 238.736 63.343C241.612 64.2455 244.257 65.7669 246.671 67.9069C249.136 70.0169 251.239 72.5788 252.979 75.5926C253.639 76.7358 254.206 77.8979 254.68 79.0791C255.206 80.2303 255.665 81.3855 256.057 82.5448ZM217.466 92.5626L241.082 78.9276C240.176 77.7185 239.082 76.7224 237.798 75.9393C236.537 75.0742 235.291 74.4769 234.062 74.1475C232.594 73.8861 231.091 73.9225 229.552 74.2569C228.035 74.5092 226.575 75.0404 225.172 75.8504C223.457 76.8404 221.971 78.0452 220.712 79.4648C219.475 80.8024 218.566 82.2279 217.985 83.7413C217.447 85.0907 217.145 86.547 217.078 88.1102C216.98 89.6213 217.11 91.1055 217.466 92.5626ZM252.056 49.937L262.422 43.952L272.827 74.2138L281.674 32.837L292.04 26.852L308.552 74.892L298.186 80.877L287.781 50.6151L278.934 91.992L268.568 97.977L252.056 49.937ZM253.02 28.3876L260.814 23.8876C261.556 25.0527 262.523 25.7071 263.714 25.8506C264.876 25.9422 266.158 25.583 267.561 24.773C268.86 24.023 269.812 23.0922 270.417 21.9806C271.045 20.7871 271.221 19.4727 270.947 18.0376L278.741 13.5376C279.852 17.2612 279.741 20.7893 278.409 24.1219C277.046 27.4025 274.651 30.0328 271.221 32.0128C267.376 34.2328 263.74 35.0155 260.314 34.361C256.91 33.6245 254.478 31.6334 253.02 28.3876ZM300.389 22.0317L310.755 16.0467L316.818 33.7469L332.952 24.4319L326.889 6.73169L337.256 0.746691L353.768 48.7867L343.401 54.7717L336.469 34.6641L320.335 43.9791L327.267 64.0867L316.901 70.0717L300.389 22.0317Z" fill="#FFE500"/>
</svg>
