<svg width="306" height="127" viewBox="0 0 306 127" fill="none" xmlns="http://www.w3.org/2000/svg">
<path d="M1.04841 52.8721L10.6113 0.974141L24.6806 0.833808C26.9205 0.811467 28.8829 1.04857 30.568 1.54512C32.2997 2.04121 33.7537 2.77341 34.9301 3.74172C36.1074 4.80337 36.983 6.03136 37.557 7.42571C38.1776 8.81959 38.4962 10.3565 38.513 12.0364C38.5432 15.0696 37.7762 17.714 36.212 19.9697C34.6944 22.225 32.5872 23.8561 29.8905 24.863C31.9969 25.4954 33.6889 26.6919 34.9665 28.4526C36.2437 30.1666 36.8962 32.4235 36.9242 35.2234C36.9521 38.0233 36.4408 40.5718 35.3904 42.8691C34.3394 45.1197 32.8883 47.0242 31.0371 48.5828C29.3712 49.9995 27.5382 51.0445 25.5381 51.7178C23.5376 52.3444 21.2541 52.6706 18.6875 52.6962L1.04841 52.8721ZM12.2985 43.7994L19.4381 43.7282C20.4647 43.718 21.4431 43.5449 22.3731 43.2089C23.3031 42.873 24.1151 42.3982 24.809 41.7846C25.5958 41.1233 26.2174 40.2771 26.6738 39.2458C27.1302 38.2146 27.3519 37.0456 27.3388 35.739C27.3309 34.9457 27.207 34.2236 26.9672 33.5726C26.7274 32.9217 26.3947 32.3183 25.9691 31.7625C25.4036 31.2081 24.7458 30.7713 23.9959 30.4521C23.2461 30.1329 22.2878 29.9791 21.1212 29.9908L14.8215 30.0536L12.2985 43.7994ZM16.4821 21.0766L21.8718 21.0228C22.8984 21.0126 23.8305 20.8866 24.6682 20.6449C25.552 20.3561 26.2947 19.952 26.8962 19.4326C27.4977 18.9133 27.9812 18.2551 28.3466 17.4581C28.7582 16.6139 28.9588 15.6785 28.9486 14.6519C28.895 13.9524 28.7484 13.3005 28.5091 12.6962C28.2692 12.0452 27.937 11.4885 27.5124 11.0261C26.9949 10.6112 26.3852 10.3139 25.6834 10.1343C25.0277 9.90746 24.1866 9.79918 23.16 9.80942L18.5402 9.8555L16.4821 21.0766ZM52.719 25.0554L43.4095 25.1482C43.5322 23.4202 43.9824 21.759 44.7598 20.1645C45.5373 18.57 46.5735 17.1829 47.8685 16.0033C49.2563 14.7761 50.9274 13.8727 52.8817 13.2932C54.8822 12.6665 56.8855 12.3198 58.8916 12.2532C60.9915 12.2322 62.8145 12.5174 64.3604 13.1087C65.9526 13.6528 67.2667 14.3864 68.3026 15.3094C69.2452 16.2334 69.9563 17.3464 70.436 18.6483C70.9619 19.9032 71.2553 21.2536 71.3164 22.6998C71.3406 25.1263 70.6612 27.1865 69.278 28.8804C67.9415 30.5738 66.1565 31.7583 63.9232 32.434C65.4687 32.9786 66.6915 33.9231 67.5916 35.2675C68.4913 36.5653 68.9744 38.2172 69.0411 40.2233C69.0625 42.3699 68.6385 44.3109 67.7691 46.0463C66.9459 47.7346 65.654 49.2176 63.8933 50.4952C62.4569 51.5362 60.9245 52.2982 59.2959 52.7811C57.6677 53.3107 55.9204 53.5848 54.0538 53.6035C52.2806 53.6212 50.6452 53.4275 49.1478 53.0224C47.6503 52.6173 46.3374 52.0003 45.2091 51.1716C43.7523 50.1594 42.6191 48.8406 41.8095 47.2153C41.0461 45.5428 40.6539 43.6566 40.633 41.5567C40.6293 41.1834 40.6258 40.8334 40.6225 40.5068C40.6188 40.1335 40.6617 39.7597 40.7513 39.3854L50.0609 39.2926C50.0161 39.4797 49.9946 39.6666 49.9965 39.8533C49.9983 40.0399 50.0009 40.2966 50.0041 40.6232C50.019 42.1165 50.4507 43.2789 51.299 44.1105C52.194 44.9416 53.3415 45.3502 54.7414 45.3362C55.4885 45.3754 56.1642 45.2753 56.7685 45.036C57.3723 44.7499 57.9053 44.3713 58.3672 43.9C58.7826 43.4291 59.1039 42.8892 59.3311 42.2803C59.6051 41.6708 59.7383 40.9928 59.7309 40.2462C59.7248 39.6395 59.6028 39.1041 59.3648 38.6398C59.1731 38.1283 58.912 37.6876 58.5816 37.3175C58.2522 37.0408 57.8767 36.8345 57.4554 36.6987C57.0807 36.5624 56.5433 36.4978 55.8434 36.5048L53.4635 36.5285L54.9266 28.8135L57.4465 28.7884C58.1464 28.7814 58.7757 28.7051 59.3343 28.5596C59.9395 28.4135 60.4505 28.1751 60.8672 27.8442C61.3306 27.5129 61.6997 27.0892 61.9746 26.5731C62.249 26.0104 62.3825 25.3557 62.375 24.609C62.369 24.0024 62.2701 23.4434 62.0783 22.9319C61.8865 22.4205 61.6254 21.9797 61.2951 21.6097C60.9185 21.2867 60.4493 21.0347 59.8875 20.8537C59.3252 20.6259 58.6707 20.5158 57.9241 20.5232C57.1308 20.5311 56.4551 20.6312 55.897 20.8235C55.3855 21.0152 54.9214 21.2765 54.5047 21.6074C53.9956 22.0325 53.5807 22.55 53.2601 23.1599C52.9395 23.7698 52.7592 24.4016 52.719 25.0554ZM79.8304 13.3044L89.14 13.2115L86.4825 27.5187L100.972 27.3742L103.629 13.067L112.939 12.9741L105.766 51.8276L96.4564 51.9205L99.4443 35.6499L84.955 35.7944L81.9671 52.065L72.6576 52.1578L79.8304 13.3044ZM136.87 11.4754C139.95 11.4446 142.615 11.8614 144.863 12.7257C147.112 13.5433 149.084 14.7604 150.78 16.3769C152.43 18.0405 153.71 19.9878 154.619 22.2189C155.527 24.4499 155.996 26.9654 156.024 29.7652C156.057 33.1251 155.505 36.2807 154.368 39.2322C153.231 42.1837 151.646 44.673 149.612 46.7C147.533 48.7742 145.192 50.3143 142.588 51.3203C140.031 52.2792 137.236 52.7738 134.203 52.804C131.123 52.8348 128.435 52.4415 126.14 51.6244C123.892 50.8068 121.92 49.5664 120.223 47.9032C118.527 46.2867 117.224 44.3863 116.316 42.2019C115.407 39.9709 114.938 37.3621 114.908 34.3756C114.875 31.1091 115.404 28.0236 116.496 25.1193C117.633 22.2144 119.242 19.7016 121.321 17.5808C123.354 15.5537 125.649 14.0374 128.206 13.0319C130.809 12.0259 133.697 11.507 136.87 11.4754ZM136.463 19.7398C134.69 19.7575 133.036 20.1007 131.503 20.7694C129.97 21.438 128.649 22.4079 127.542 23.679C126.434 24.9501 125.586 26.452 124.997 28.1846C124.453 29.8701 124.192 31.7162 124.212 33.7227C124.227 35.216 124.427 36.6141 124.814 37.9169C125.247 39.2193 125.864 40.3332 126.667 41.2586C127.518 42.3235 128.576 43.153 129.842 43.7471C131.154 44.294 132.697 44.5586 134.47 44.541C136.197 44.5237 137.827 44.2041 139.361 43.5821C140.894 42.9135 142.238 41.92 143.391 40.6018C144.452 39.3778 145.278 37.9228 145.868 36.2369C146.457 34.5042 146.742 32.6113 146.721 30.5581C146.707 29.1115 146.483 27.737 146.05 26.4346C145.617 25.1321 145.022 23.9947 144.266 23.0222C143.369 22.0044 142.264 21.1987 140.952 20.6051C139.686 20.011 138.189 19.7226 136.463 19.7398ZM188.987 38.3969L199.066 38.2964C197.573 42.9315 195.017 46.4338 191.401 48.8033C187.784 51.1262 183.572 52.3116 178.766 52.3595C175.732 52.3431 173.115 51.9492 170.914 51.1778C168.713 50.453 166.764 49.2358 165.067 47.5259C163.371 45.9094 162.045 43.9859 161.089 41.7553C160.18 39.4776 159.734 36.8686 159.751 33.9283C159.672 30.6622 160.178 27.577 161.269 24.6727C162.406 21.7679 164.038 19.2548 166.164 17.1335C168.197 15.0598 170.492 13.5435 173.049 12.5846C175.652 11.5786 178.68 11.0583 182.134 11.0239C187.407 10.9713 191.596 12.2596 194.703 14.8887C197.809 17.4712 199.756 20.8353 200.544 24.981L190.324 25.0829C189.699 23.2224 188.611 21.7865 187.061 20.7752C185.511 19.764 183.686 19.2688 181.586 19.2898C179.719 19.3084 177.973 19.6758 176.347 20.3921C174.767 21.0612 173.423 22.0313 172.316 23.3024C171.208 24.5269 170.359 25.9821 169.769 27.668C169.226 29.3535 168.987 31.176 169.054 33.1355C169.071 34.9087 169.321 36.5163 169.802 37.9582C170.329 39.353 171.04 40.4893 171.936 41.3671C172.785 42.292 173.795 42.982 174.967 43.437C176.138 43.892 177.54 44.1114 179.173 44.0951C181.46 44.0723 183.462 43.5856 185.179 42.6351C186.896 41.6846 188.166 40.2719 188.987 38.3969ZM226.317 11.8433L235.627 11.7504L232.969 26.0576L247.459 25.9131L250.116 11.6059L259.426 11.513L252.253 50.3665L242.943 50.4594L245.931 34.1887L231.442 34.3333L228.454 50.6039L219.144 50.6967L226.317 11.8433ZM305.699 11.0515L298.526 49.9049L289.986 49.9901L290.383 47.6761L290.243 47.6774C289.089 48.9024 287.581 49.8041 285.72 50.3827C283.86 51.008 281.879 51.3311 279.779 51.352C277.586 51.3739 275.413 51.0455 273.259 50.367C271.152 49.688 269.275 48.61 267.627 47.133C265.65 45.4726 264.113 43.4579 263.016 41.0887C261.965 38.6724 261.448 35.8774 261.463 32.7038C261.429 29.3906 261.959 26.2818 263.05 23.3775C264.187 20.426 265.865 17.8891 268.084 15.7669C270.025 13.8808 272.251 12.4585 274.762 11.5001C277.272 10.5416 279.974 10.048 282.867 10.0191C285.947 9.98842 288.589 10.4754 290.792 11.4802C292.996 12.4849 294.784 13.9605 296.157 15.9069L296.297 15.9055L297.159 11.1367L305.699 11.0515ZM282.95 18.2787C279.404 18.3608 276.453 19.6736 274.099 22.2172C271.79 24.7137 270.68 28.0616 270.769 32.2609C270.802 35.5741 271.715 38.2251 273.508 40.214C275.348 42.1557 277.807 43.1113 280.887 43.0805C284.48 43.0447 287.431 41.7785 289.74 39.2821C292.094 36.7384 293.251 33.4367 293.211 29.3769C293.177 25.9704 292.217 23.2732 290.33 21.2853C288.49 19.2502 286.03 18.248 282.95 18.2787ZM7.65966 77.0274L16.9692 76.9345L12.4531 101.411L34.2583 76.7621L43.5679 76.6692L36.395 115.523L27.0855 115.616L31.6016 91.1393L9.79636 115.788L0.486825 115.881L7.65966 77.0274ZM51.0657 76.5944L84.1741 76.2642L77.0012 115.118L67.6917 115.211L73.337 84.6327L58.8477 84.7772L53.2024 115.355L43.8929 115.448L51.0657 76.5944ZM108.106 74.7654C111.186 74.7347 113.85 75.1515 116.099 76.0158C118.347 76.8334 120.319 78.0504 122.015 79.6669C123.665 81.3305 124.945 83.2779 125.854 85.5089C126.763 87.74 127.231 90.2554 127.259 93.0553C127.293 96.4151 126.741 99.5708 125.603 102.522C124.466 105.474 122.881 107.963 120.848 109.99C118.768 112.064 116.427 113.604 113.823 114.61C111.266 115.569 108.471 116.064 105.438 116.094C102.358 116.125 99.6706 115.732 97.3757 114.914C95.1274 114.097 93.1549 112.856 91.4583 111.193C89.7621 109.577 88.4597 107.676 87.5512 105.492C86.6422 103.261 86.1729 100.652 86.1431 97.6656C86.1105 94.3991 86.6397 91.3137 87.7308 88.4093C88.8686 85.5045 90.4769 82.9916 92.5559 80.8708C94.5891 78.8438 96.8841 77.3275 99.4409 76.3219C102.044 75.3159 104.933 74.7971 108.106 74.7654ZM107.698 83.0299C105.925 83.0476 104.272 83.3907 102.738 84.0594C101.205 84.7281 99.8844 85.698 98.777 86.9691C97.6696 88.2402 96.8212 89.742 96.2318 91.4747C95.6886 93.1602 95.427 95.0062 95.447 97.0128C95.4619 98.506 95.6625 99.9041 96.0489 101.207C96.4819 102.509 97.0997 103.623 97.9023 104.549C98.753 105.614 99.8113 106.443 101.077 107.037C102.389 107.584 103.932 107.849 105.705 107.831C107.432 107.814 109.062 107.494 110.596 106.872C112.13 106.204 113.473 105.21 114.627 103.892C115.688 102.668 116.513 101.213 117.103 99.5269C117.693 97.7943 117.977 95.9013 117.957 93.8481C117.942 92.4015 117.718 91.027 117.285 89.7246C116.852 88.4222 116.258 87.2847 115.501 86.3122C114.604 85.2944 113.5 84.4888 112.187 83.8952C110.921 83.3011 109.425 83.0127 107.698 83.0299ZM131.585 75.7913L159.514 75.5127L157.986 83.7884L148.677 83.8812L143.031 114.459L133.722 114.552L139.367 83.9741L130.058 84.0669L131.585 75.7913ZM199.081 98.6392L168.353 98.9457C168.457 100.065 168.747 101.112 169.224 102.087C169.7 103.016 170.362 103.849 171.209 104.588C172.104 105.465 173.161 106.108 174.378 106.516C175.596 106.924 176.974 107.12 178.514 107.105C179.494 107.095 180.45 106.992 181.381 106.796C182.312 106.554 183.196 106.195 184.031 105.72C184.681 105.387 185.26 104.984 185.769 104.512C186.324 103.993 186.808 103.429 187.222 102.818L197.722 102.713C196.9 104.541 195.889 106.185 194.691 107.643C193.538 109.102 192.314 110.304 191.016 111.25C189.256 112.575 187.213 113.575 184.886 114.252C182.606 114.974 180.02 115.35 177.127 115.379C174.28 115.407 171.78 115.012 169.625 114.194C167.517 113.421 165.591 112.134 163.846 110.331C162.008 108.529 160.658 106.513 159.795 104.281C158.979 102.003 158.559 99.6034 158.533 97.0836C158.499 93.6771 159.074 90.4978 160.258 87.5459C161.442 84.5939 163.051 82.1044 165.084 80.0774C167.071 78.0975 169.366 76.6045 171.97 75.5985C174.573 74.5925 177.555 74.0727 180.915 74.0392C183.855 74.0099 186.449 74.404 188.697 75.2216C190.945 75.9926 192.941 77.2561 194.685 79.0121C196.289 80.7228 197.499 82.7642 198.316 85.1362C199.18 87.5077 199.625 90.0467 199.652 92.7532C199.663 93.7798 199.603 94.7838 199.472 95.7652C199.389 96.7461 199.258 97.7041 199.081 98.6392ZM169.11 90.6778L190.319 90.4662C190.167 89.301 189.806 88.2079 189.236 87.1868C188.712 86.1187 188.097 85.2381 187.39 84.5451C186.496 83.8073 185.464 83.2576 184.293 82.8959C183.169 82.4871 181.977 82.289 180.717 82.3016C179.177 82.3169 177.71 82.5649 176.314 83.0455C174.965 83.479 173.805 84.0973 172.833 84.9003C171.953 85.6091 171.192 86.4801 170.549 87.5132C169.905 88.4997 169.426 89.5545 169.11 90.6778ZM201.658 113.874L208.831 75.0208L218.141 74.9279L214.818 92.742L232 74.7897L243.06 74.6794L223.93 93.9111L236.727 113.524L225.667 113.635L214.422 95.126L210.968 113.781L201.658 113.874ZM275.053 74.3603L285.413 74.2569L253.94 126.303L243.581 126.407L253.775 109.714L246.075 74.6493L256.084 74.5495L261.162 99.3501L275.053 74.3603Z" fill="#FFE500"/>
</svg>
