<svg width="543" height="338" viewBox="0 0 543 338" fill="none" xmlns="http://www.w3.org/2000/svg">
<path d="M0.587814 22.9987L20.3761 0.244364L33.0201 7.54436L29.5941 11.4784L21.6959 6.91841L5.33363 25.7387L0.587814 22.9987ZM33.9093 15.8173C35.4335 16.6973 36.6232 17.6767 37.4784 18.7555C38.3469 19.8112 38.9635 20.9832 39.3282 22.2715C39.6565 23.5695 39.72 24.8995 39.5188 26.2613C39.3176 27.6232 38.817 28.9969 38.017 30.3826C37.057 32.0453 35.8683 33.4375 34.451 34.5591C33.0336 35.6807 31.5302 36.4447 29.9408 36.851C28.3149 37.2672 26.7153 37.3444 25.142 37.0827C23.6052 36.8113 22.0862 36.2422 20.5851 35.3755C19.0609 34.4955 17.853 33.521 16.9614 32.452C16.0929 31.3963 15.4829 30.2128 15.1315 28.9014C14.7668 27.6131 14.6784 26.2996 14.8663 24.9608C15.0675 23.599 15.5948 22.179 16.4481 20.701C17.3814 19.0844 18.5386 17.7202 19.9195 16.6084C21.3235 15.5099 22.8451 14.7411 24.4844 14.3018C26.0738 13.8954 27.6436 13.8164 29.1938 14.0648C30.7671 14.3265 32.3389 14.9107 33.9093 15.8173ZM31.3068 19.765C30.4292 19.2583 29.5161 18.9466 28.5673 18.8299C27.6185 18.7133 26.687 18.8067 25.7728 19.1102C24.8585 19.4138 24.0046 19.9061 23.211 20.5873C22.4539 21.2586 21.7887 22.0909 21.2154 23.0839C20.7887 23.8229 20.4811 24.5691 20.2925 25.3224C20.127 26.089 20.1072 26.8166 20.2331 27.5051C20.3422 28.2763 20.6218 28.992 21.072 29.6522C21.5586 30.3027 22.2407 30.8812 23.1183 31.3879C23.9728 31.8812 24.8677 32.1978 25.8032 32.3376C26.7519 32.4542 27.7017 32.3559 28.6523 32.0426C29.5302 31.7489 30.3592 31.2729 31.1394 30.6149C31.933 29.9338 32.6231 29.0851 33.2098 28.069C33.6231 27.3531 33.9125 26.6118 34.078 25.8452C34.2435 25.0785 34.2815 24.3461 34.192 23.6477C34.0465 22.8863 33.7371 22.1689 33.2638 21.4953C32.8136 20.8351 32.1613 20.2583 31.3068 19.765ZM27.7984 47.2536L47.5667 24.5338L51.7929 26.9738L50.9251 27.997L50.9944 28.037C51.9051 27.793 52.8907 27.7924 53.9514 28.0353C55.0254 28.2551 56.1002 28.6601 57.1759 29.2503C58.3768 29.9436 59.3622 30.7435 60.1321 31.6499C60.9252 32.5697 61.5241 33.639 61.9288 34.858C62.3982 36.3916 62.5288 37.8988 62.3204 39.3797C62.1121 40.8605 61.5946 42.3169 60.7679 43.7487C59.8079 45.4115 58.6192 46.8037 57.2019 47.9253C55.7979 49.0238 54.2598 49.7678 52.5877 50.1572C51.0844 50.521 49.5528 50.5605 47.9929 50.2757C46.4561 50.0042 44.9602 49.4485 43.5053 48.6085C42.1427 47.8218 41.0734 46.9273 40.2972 45.925C39.5211 44.9226 39.0697 43.7844 38.9431 42.5104L38.8738 42.4704L32.4057 49.9136L27.7984 47.2536ZM54.1231 32.9379C52.3679 31.9246 50.553 31.7081 48.6783 32.2886C46.8267 32.8823 45.3142 34.1953 44.1409 36.2276C43.1676 37.9134 42.833 39.5062 43.1372 41.0059C43.4779 42.4959 44.4219 43.6875 45.9692 44.5809C47.7474 45.6075 49.5672 45.8422 51.4286 45.2849C53.29 44.7276 54.8007 43.4443 55.9607 41.4351C56.9473 39.7262 57.2654 38.1085 56.915 36.5821C56.601 35.046 55.6704 33.8313 54.1231 32.9379ZM70.4352 37.737L75.0425 40.397L69.5768 46.6637L76.7475 50.8037L82.2132 44.537L86.8204 47.197L71.9992 64.2281L67.3919 61.5681L73.5908 54.4314L66.4201 50.2914L60.2212 57.4281L55.614 54.7681L70.4352 37.737ZM90.5297 49.3385L95.137 51.9985L89.9406 57.9589L93.3701 59.9389C94.3036 60.5086 95.0781 61.1405 95.6935 61.8346C96.3454 62.5188 96.7902 63.2684 97.028 64.0831C97.2099 64.8347 97.2279 65.6303 97.0819 66.4698C96.959 67.3226 96.6643 68.1532 96.1976 68.9614C95.6145 69.9181 94.8849 70.7285 94.0087 71.3927C93.1459 72.0339 92.1516 72.476 91.0259 72.719C89.9731 72.9426 88.9261 72.9693 87.885 72.7993C86.8572 72.6062 85.7082 72.143 84.438 71.4097L75.7085 66.3697L90.5297 49.3385ZM93.029 76.3697L107.85 59.3385L112.457 61.9985L97.6362 79.0297L93.029 76.3697ZM86.7839 61.5865L83.4725 65.402L86.9712 67.422C87.3407 67.6353 87.7187 67.8074 88.1051 67.9381C88.5048 68.0457 88.8602 68.0969 89.1711 68.0917C89.6375 68.0838 90.0449 67.9649 90.3932 67.7349C90.7415 67.505 91.0473 67.1888 91.3103 66.7864C91.5237 66.4169 91.6326 66.0949 91.6371 65.8204C91.6781 65.5361 91.648 65.2416 91.5468 64.9369C91.419 64.6783 91.2365 64.4344 90.9993 64.2051C90.7986 63.966 90.5135 63.7399 90.144 63.5265L86.7839 61.5865ZM116.172 64.1432L120.779 66.8032L111.444 77.5329L129.336 71.7432L133.943 74.4032L119.122 91.4343L114.515 88.7743L123.85 78.0446L105.958 83.8343L101.351 81.1743L116.172 64.1432ZM124.681 59.7257L128.145 61.7257C127.861 62.2702 127.824 62.7877 128.034 63.2782C128.257 63.7455 128.68 64.1592 129.303 64.5192C129.881 64.8525 130.451 65.0122 131.013 64.9982C131.612 64.9744 132.157 64.7502 132.648 64.3257L136.112 66.3257C134.926 67.5807 133.543 68.322 131.965 68.5498C130.399 68.7545 128.854 68.4169 127.33 67.5369C125.621 66.5502 124.512 65.3248 124.003 63.8605C123.53 62.3865 123.756 61.0083 124.681 59.7257ZM149.898 100.889L154.887 103.769C152.804 105.616 150.529 106.596 148.061 106.711C145.607 106.802 143.19 106.162 140.811 104.788C139.324 103.898 138.15 102.944 137.292 101.925C136.419 100.928 135.814 99.7632 135.476 98.4287C135.112 97.1404 135.018 95.8086 135.196 94.4335C135.411 93.0485 135.95 91.6353 136.813 90.1937C137.723 88.5638 138.869 87.1929 140.25 86.0811C141.654 84.9826 143.187 84.2204 144.849 83.7945C146.452 83.365 148.022 83.286 149.559 83.5574C151.132 83.8191 152.773 84.4433 154.482 85.43C157.092 86.9367 158.778 88.7882 159.543 90.9845C160.32 93.1578 160.3 95.3788 159.483 97.6475L154.426 94.7275C154.659 93.6304 154.541 92.6078 154.072 91.6597C153.603 90.7117 152.849 89.9376 151.81 89.3376C150.886 88.8043 149.92 88.4775 148.912 88.3572C147.94 88.2272 146.997 88.314 146.083 88.6175C145.182 88.898 144.341 89.3672 143.561 90.0253C142.804 90.6967 142.157 91.524 141.62 92.5073C141.113 93.3848 140.769 94.2482 140.587 95.0975C140.441 95.937 140.46 96.7028 140.646 97.3949C140.795 98.0968 141.091 98.7299 141.535 99.2941C141.979 99.8584 142.606 100.374 143.414 100.841C144.545 101.494 145.672 101.836 146.793 101.868C147.914 101.899 148.949 101.573 149.898 100.889ZM153.076 111.038L167.897 94.0065L172.504 96.6665L165.692 104.465L179.363 100.626L184.836 103.786L169.835 107.689L170.431 121.058L164.958 117.898L164.804 105.523L157.683 113.698L153.076 111.038ZM196.492 109.685C198.016 110.565 199.206 111.544 200.061 112.623C200.93 113.678 201.546 114.85 201.911 116.139C202.239 117.437 202.303 118.767 202.102 120.129C201.9 121.49 201.4 122.864 200.6 124.25C199.64 125.913 198.451 127.305 197.034 128.426C195.616 129.548 194.113 130.312 192.523 130.718C190.898 131.134 189.298 131.212 187.725 130.95C186.188 130.678 184.669 130.109 183.168 129.243C181.644 128.363 180.436 127.388 179.544 126.319C178.676 125.263 178.066 124.08 177.714 122.769C177.35 121.48 177.261 120.167 177.449 118.828C177.65 117.466 178.177 116.046 179.031 114.568C179.964 112.952 181.121 111.587 182.502 110.476C183.906 109.377 185.428 108.608 187.067 108.169C188.657 107.763 190.226 107.684 191.777 107.932C193.35 108.194 194.922 108.778 196.492 109.685ZM193.89 113.632C193.012 113.125 192.099 112.814 191.15 112.697C190.201 112.58 189.27 112.674 188.355 112.977C187.441 113.281 186.587 113.773 185.794 114.454C185.037 115.126 184.371 115.958 183.798 116.951C183.371 117.69 183.064 118.436 182.875 119.19C182.71 119.956 182.69 120.684 182.816 121.372C182.925 122.143 183.205 122.859 183.655 123.519C184.141 124.17 184.823 124.748 185.701 125.255C186.556 125.748 187.45 126.065 188.386 126.205C189.335 126.321 190.284 126.223 191.235 125.91C192.113 125.616 192.942 125.14 193.722 124.482C194.516 123.801 195.206 122.952 195.792 121.936C196.206 121.22 196.495 120.479 196.661 119.712C196.826 118.946 196.864 118.213 196.775 117.515C196.629 116.754 196.32 116.036 195.847 115.362C195.396 114.702 194.744 114.125 193.89 113.632ZM190.381 141.121L210.149 118.401L214.376 120.841L213.508 121.864L213.577 121.904C214.488 121.66 215.473 121.66 216.534 121.902C217.608 122.122 218.683 122.527 219.759 123.117C220.96 123.811 221.945 124.611 222.715 125.517C223.508 126.437 224.107 127.506 224.512 128.725C224.981 130.259 225.112 131.766 224.903 133.247C224.695 134.728 224.177 136.184 223.351 137.616C222.391 139.279 221.202 140.671 219.785 141.792C218.381 142.891 216.843 143.635 215.17 144.024C213.667 144.388 212.136 144.428 210.576 144.143C209.039 143.871 207.543 143.316 206.088 142.476C204.725 141.689 203.656 140.795 202.88 139.792C202.104 138.79 201.652 137.652 201.526 136.378L201.457 136.338L194.988 143.781L190.381 141.121ZM216.706 126.805C214.951 125.792 213.136 125.575 211.261 126.156C209.409 126.749 207.897 128.062 206.724 130.095C205.75 131.781 205.416 133.373 205.72 134.873C206.061 136.363 207.005 137.555 208.552 138.448C210.33 139.475 212.15 139.709 214.011 139.152C215.873 138.595 217.383 137.312 218.543 135.302C219.53 133.593 219.848 131.976 219.498 130.449C219.184 128.913 218.253 127.698 216.706 126.805ZM241.519 135.681C243.043 136.561 244.232 137.54 245.088 138.619C245.956 139.674 246.573 140.846 246.938 142.135C247.266 143.433 247.329 144.763 247.128 146.125C246.927 147.486 246.426 148.86 245.626 150.246C244.666 151.909 243.478 153.301 242.06 154.422C240.643 155.544 239.14 156.308 237.55 156.714C235.924 157.13 234.325 157.208 232.751 156.946C231.214 156.675 229.695 156.105 228.194 155.239C226.67 154.359 225.462 153.384 224.571 152.315C223.702 151.26 223.092 150.076 222.741 148.765C222.376 147.476 222.288 146.163 222.476 144.824C222.677 143.462 223.204 142.042 224.057 140.564C224.991 138.948 226.148 137.584 227.529 136.472C228.933 135.373 230.454 134.604 232.094 134.165C233.683 133.759 235.253 133.68 236.803 133.928C238.376 134.19 239.948 134.774 241.519 135.681ZM238.916 139.628C238.039 139.122 237.125 138.81 236.177 138.693C235.228 138.577 234.296 138.67 233.382 138.974C232.468 139.277 231.614 139.769 230.82 140.451C230.063 141.122 229.398 141.954 228.825 142.947C228.398 143.686 228.09 144.432 227.902 145.186C227.736 145.952 227.717 146.68 227.842 147.368C227.951 148.14 228.231 148.855 228.681 149.515C229.168 150.166 229.85 150.745 230.728 151.251C231.582 151.745 232.477 152.061 233.412 152.201C234.361 152.318 235.311 152.219 236.262 151.906C237.139 151.612 237.968 151.136 238.749 150.478C239.542 149.797 240.232 148.948 240.819 147.932C241.232 147.216 241.522 146.475 241.687 145.708C241.853 144.942 241.891 144.209 241.801 143.511C241.656 142.75 241.346 142.032 240.873 141.359C240.423 140.698 239.771 140.122 238.916 139.628ZM259.335 164.073L264.324 166.953C262.242 168.799 259.967 169.78 257.499 169.894C255.044 169.986 252.627 169.345 250.249 167.972C248.761 167.082 247.587 166.128 246.729 165.108C245.857 164.112 245.252 162.947 244.914 161.612C244.549 160.324 244.456 158.992 244.634 157.617C244.848 156.232 245.387 154.819 246.25 153.377C247.16 151.747 248.306 150.376 249.687 149.265C251.091 148.166 252.624 147.404 254.286 146.978C255.889 146.549 257.459 146.47 258.996 146.741C260.569 147.003 262.21 147.627 263.919 148.614C266.529 150.12 268.216 151.972 268.98 154.168C269.757 156.341 269.738 158.562 268.92 160.831L263.863 157.911C264.096 156.814 263.978 155.791 263.509 154.843C263.041 153.895 262.287 153.121 261.247 152.521C260.324 151.988 259.358 151.661 258.349 151.541C257.377 151.411 256.434 151.498 255.52 151.801C254.619 152.082 253.779 152.551 252.998 153.209C252.241 153.88 251.594 154.708 251.057 155.691C250.551 156.568 250.206 157.432 250.024 158.281C249.878 159.121 249.898 159.886 250.083 160.578C250.232 161.28 250.529 161.913 250.973 162.478C251.417 163.042 252.043 163.557 252.851 164.024C253.983 164.677 255.109 165.02 256.23 165.051C257.351 165.083 258.386 164.757 259.335 164.073ZM275.81 156.31L289.632 164.29L286.475 167.918L281.868 165.258L270.203 178.661L265.596 176.001L277.26 162.598L272.653 159.938L275.81 156.31ZM291.881 165.589L296.488 168.249L291.022 174.515L298.193 178.655L303.659 172.389L308.266 175.049L293.445 192.08L288.837 189.42L295.036 182.283L287.865 178.143L281.667 185.28L277.059 182.62L291.881 165.589ZM320.476 181.267C322 182.147 323.19 183.126 324.045 184.205C324.913 185.26 325.53 186.432 325.895 187.721C326.223 189.019 326.286 190.349 326.085 191.711C325.884 193.072 325.383 194.446 324.583 195.832C323.623 197.495 322.435 198.887 321.017 200.008C319.6 201.13 318.097 201.894 316.507 202.3C314.881 202.716 313.282 202.794 311.708 202.532C310.172 202.26 308.653 201.691 307.152 200.825C305.627 199.945 304.419 198.97 303.528 197.901C302.659 196.846 302.049 195.662 301.698 194.351C301.333 193.062 301.245 191.749 301.433 190.41C301.634 189.048 302.161 187.628 303.015 186.15C303.948 184.534 305.105 183.169 306.486 182.058C307.89 180.959 309.412 180.19 311.051 179.751C312.64 179.345 314.21 179.266 315.76 179.514C317.334 179.776 318.905 180.36 320.476 181.267ZM317.873 185.214C316.996 184.708 316.083 184.396 315.134 184.279C314.185 184.162 313.253 184.256 312.339 184.559C311.425 184.863 310.571 185.355 309.777 186.036C309.02 186.708 308.355 187.54 307.782 188.533C307.355 189.272 307.048 190.018 306.859 190.772C306.693 191.538 306.674 192.266 306.8 192.954C306.909 193.725 307.188 194.441 307.638 195.101C308.125 195.752 308.807 196.33 309.685 196.837C310.539 197.33 311.434 197.647 312.37 197.787C313.318 197.903 314.268 197.805 315.219 197.492C316.097 197.198 316.926 196.722 317.706 196.064C318.499 195.383 319.19 194.534 319.776 193.518C320.19 192.802 320.479 192.061 320.644 191.294C320.81 190.528 320.848 189.795 320.758 189.097C320.613 188.336 320.304 187.618 319.83 186.945C319.38 186.284 318.728 185.708 317.873 185.214ZM334.133 189.983L338.74 192.643L329.405 203.373L347.297 197.583L351.904 200.243L337.083 217.274L332.476 214.614L341.811 203.884L323.919 209.674L319.312 207.014L334.133 189.983ZM342.642 185.566L346.106 187.566C345.822 188.11 345.785 188.628 345.995 189.118C346.218 189.585 346.641 189.999 347.264 190.359C347.842 190.692 348.412 190.852 348.974 190.838C349.573 190.814 350.118 190.59 350.609 190.166L354.073 192.166C352.887 193.42 351.504 194.162 349.926 194.39C348.36 194.594 346.815 194.257 345.291 193.377C343.582 192.39 342.473 191.165 341.964 189.7C341.491 188.226 341.717 186.848 342.642 185.566ZM363.7 207.053L371.217 211.393C372.302 212.02 373.125 212.649 373.684 213.28C374.244 213.911 374.628 214.579 374.836 215.284C374.96 215.817 374.965 216.421 374.853 217.095C374.777 217.76 374.553 218.415 374.179 219.062C373.81 219.649 373.368 220.148 372.853 220.559C372.375 220.961 371.801 221.261 371.132 221.46C370.573 221.629 369.993 221.726 369.395 221.75C368.809 221.75 368.241 221.668 367.689 221.504C368.443 222.278 368.849 223.175 368.907 224.194C369.002 225.203 368.763 226.204 368.19 227.197C367.566 228.223 366.82 229.008 365.951 229.554C365.082 230.099 364.113 230.417 363.045 230.508C362.145 230.574 361.224 230.488 360.282 230.253C359.377 230.007 358.382 229.571 357.296 228.944L348.879 224.084L363.7 207.053ZM365.265 213.222L362.801 216.049L365.919 217.849C366.275 218.086 366.577 218.229 366.825 218.28C367.073 218.331 367.336 218.329 367.614 218.274C367.892 218.219 368.156 218.109 368.404 217.945C368.667 217.757 368.884 217.514 369.058 217.213C369.141 217.015 369.188 216.827 369.199 216.648C369.246 216.46 369.252 216.263 369.217 216.058C369.135 215.826 369.003 215.627 368.822 215.461C368.678 215.285 368.462 215.099 368.175 214.902L365.265 213.222ZM359.725 219.538L356.528 223.235L359.853 225.155C360.14 225.352 360.442 225.495 360.76 225.586C361.09 225.654 361.429 225.68 361.776 225.665C362.22 225.644 362.609 225.53 362.944 225.323C363.315 225.106 363.634 224.767 363.901 224.305C364.061 224.028 364.148 223.77 364.162 223.532C364.19 223.271 364.181 223.02 364.136 222.778C364.044 222.51 363.903 222.274 363.712 222.072C363.535 221.846 363.222 221.588 362.773 221.298L359.725 219.538ZM391.517 238.633L376.31 229.853C376.036 230.434 375.874 231.033 375.825 231.652C375.789 232.247 375.873 232.849 376.075 233.459C376.261 234.151 376.594 234.774 377.074 235.329C377.554 235.883 378.176 236.38 378.938 236.82C379.423 237.1 379.923 237.328 380.438 237.502C380.967 237.653 381.505 237.733 382.054 237.742C382.471 237.767 382.873 237.738 383.26 237.653C383.684 237.559 384.087 237.422 384.468 237.242L389.664 240.242C388.728 240.903 387.754 241.418 386.74 241.787C385.749 242.169 384.797 242.405 383.884 242.493C382.633 242.633 381.337 242.532 379.996 242.188C378.664 241.881 377.282 241.315 375.85 240.488C374.442 239.675 373.326 238.754 372.504 237.724C371.691 236.732 371.118 235.539 370.783 234.145C370.403 232.724 370.324 231.339 370.549 229.991C370.809 228.633 371.3 227.33 372.02 226.083C372.993 224.397 374.2 223 375.64 221.892C377.081 220.783 378.596 220.026 380.185 219.62C381.738 219.223 383.302 219.156 384.875 219.417C386.448 219.679 388.066 220.29 389.729 221.25C391.184 222.09 392.345 223.038 393.214 224.093C394.096 225.126 394.711 226.328 395.058 227.699C395.35 229.006 395.353 230.363 395.065 231.767C394.801 233.185 394.282 234.563 393.509 235.903C393.215 236.411 392.894 236.887 392.545 237.332C392.219 237.791 391.876 238.224 391.517 238.633ZM379.085 226.005L389.581 232.065C389.845 231.448 389.986 230.805 390.002 230.137C390.054 229.459 390.008 228.847 389.861 228.301C389.636 227.678 389.288 227.107 388.817 226.589C388.383 226.061 387.854 225.617 387.23 225.257C386.468 224.817 385.674 224.513 384.848 224.344C384.058 224.165 383.307 224.132 382.596 224.245C381.957 224.338 381.329 224.545 380.713 224.866C380.109 225.165 379.567 225.544 379.085 226.005ZM413.467 235.786L406.44 257.317L401.729 254.597L407.061 239.201L391.821 248.877L386.625 245.877L408.271 232.786L413.467 235.786ZM431.097 245.134C432.621 246.014 433.811 246.993 434.666 248.072C435.535 249.128 436.151 250.3 436.516 251.588C436.844 252.886 436.908 254.216 436.706 255.578C436.505 256.94 436.005 258.313 435.205 259.699C434.245 261.362 433.056 262.754 431.639 263.875C430.221 264.997 428.718 265.761 427.128 266.167C425.503 266.584 423.903 266.661 422.33 266.399C420.793 266.128 419.274 265.559 417.773 264.692C416.249 263.812 415.041 262.837 414.149 261.768C413.281 260.713 412.671 259.529 412.319 258.218C411.954 256.929 411.866 255.616 412.054 254.277C412.255 252.915 412.782 251.495 413.636 250.017C414.569 248.401 415.726 247.037 417.107 245.925C418.511 244.826 420.033 244.057 421.672 243.618C423.261 243.212 424.831 243.133 426.381 243.381C427.955 243.643 429.527 244.227 431.097 245.134ZM428.494 249.081C427.617 248.575 426.704 248.263 425.755 248.146C424.806 248.03 423.875 248.123 422.96 248.427C422.046 248.73 421.192 249.223 420.399 249.904C419.642 250.575 418.976 251.407 418.403 252.4C417.976 253.139 417.669 253.885 417.48 254.639C417.315 255.405 417.295 256.133 417.421 256.822C417.53 257.593 417.809 258.308 418.26 258.969C418.746 259.619 419.428 260.198 420.306 260.704C421.16 261.198 422.055 261.514 422.991 261.654C423.94 261.771 424.889 261.672 425.84 261.359C426.718 261.065 427.547 260.589 428.327 259.931C429.121 259.25 429.811 258.402 430.397 257.385C430.811 256.669 431.1 255.928 431.266 255.162C431.431 254.395 431.469 253.662 431.38 252.964C431.234 252.203 430.925 251.485 430.451 250.812C430.001 250.151 429.349 249.575 428.494 249.081ZM448.914 273.526L453.902 276.406C451.82 278.252 449.545 279.233 447.077 279.347C444.622 279.439 442.206 278.798 439.827 277.425C438.339 276.535 437.166 275.581 436.307 274.561C435.435 273.565 434.83 272.4 434.492 271.065C434.127 269.777 434.034 268.445 434.212 267.07C434.427 265.685 434.965 264.272 435.828 262.83C436.739 261.2 437.884 259.83 439.265 258.718C440.669 257.619 442.202 256.857 443.865 256.431C445.468 256.002 447.037 255.923 448.574 256.194C450.147 256.456 451.789 257.08 453.498 258.067C456.107 259.573 457.794 261.425 458.558 263.621C459.336 265.794 459.316 268.015 458.499 270.284L453.441 267.364C453.674 266.267 453.557 265.245 453.088 264.296C452.619 263.348 451.865 262.574 450.826 261.974C449.902 261.441 448.936 261.114 447.928 260.994C446.956 260.864 446.013 260.951 445.098 261.254C444.198 261.535 443.357 262.004 442.577 262.662C441.82 263.333 441.173 264.161 440.636 265.144C440.129 266.022 439.785 266.885 439.602 267.734C439.456 268.574 439.476 269.339 439.661 270.032C439.81 270.733 440.107 271.367 440.551 271.931C440.995 272.495 441.621 273.011 442.429 273.477C443.561 274.131 444.687 274.473 445.809 274.504C446.93 274.536 447.965 274.21 448.914 273.526ZM466.912 266.643L471.52 269.303L462.184 280.033L480.076 274.243L484.683 276.903L469.862 293.934L465.255 291.274L474.59 280.545L456.698 286.334L452.091 283.674L466.912 266.643ZM488.394 279.046L504.779 288.506L489.958 305.537L485.351 302.877L497.015 289.473L489.844 285.333L478.18 298.737L473.573 296.077L488.394 279.046ZM518.985 312.226L503.778 303.446C503.504 304.027 503.342 304.627 503.293 305.245C503.258 305.841 503.341 306.443 503.543 307.052C503.729 307.745 504.062 308.368 504.542 308.922C505.023 309.477 505.644 309.974 506.406 310.414C506.891 310.694 507.391 310.921 507.906 311.096C508.435 311.247 508.974 311.327 509.523 311.336C509.939 311.361 510.341 311.331 510.729 311.247C511.152 311.153 511.555 311.016 511.936 310.836L517.132 313.836C516.197 314.496 515.222 315.011 514.208 315.381C513.217 315.763 512.265 315.999 511.352 316.087C510.101 316.227 508.805 316.126 507.464 315.782C506.132 315.475 504.75 314.908 503.318 314.082C501.91 313.268 500.794 312.347 499.972 311.318C499.159 310.326 498.586 309.132 498.251 307.738C497.871 306.318 497.792 304.933 498.017 303.585C498.278 302.226 498.768 300.924 499.488 299.677C500.461 297.991 501.668 296.594 503.109 295.485C504.549 294.377 506.064 293.62 507.653 293.213C509.206 292.817 510.77 292.749 512.343 293.011C513.916 293.273 515.534 293.884 517.197 294.844C518.652 295.684 519.814 296.631 520.682 297.687C521.564 298.72 522.179 299.921 522.527 301.292C522.818 302.6 522.821 303.956 522.533 305.361C522.269 306.779 521.75 308.157 520.977 309.497C520.683 310.005 520.362 310.481 520.013 310.926C519.687 311.385 519.344 311.818 518.985 312.226ZM506.553 299.599L517.05 305.659C517.314 305.041 517.454 304.399 517.47 303.731C517.523 303.053 517.476 302.441 517.329 301.894C517.104 301.272 516.756 300.701 516.285 300.183C515.851 299.655 515.322 299.211 514.698 298.851C513.936 298.411 513.142 298.107 512.316 297.938C511.526 297.759 510.776 297.726 510.064 297.838C509.425 297.931 508.797 298.139 508.181 298.46C507.577 298.758 507.035 299.138 506.553 299.599ZM542.667 310.38L538 327.824L540.286 329.144L533.394 337.081L528.891 334.481L532.626 330.171L518.839 322.211L515.104 326.521L510.6 323.921L517.492 315.984L519.779 317.304L537.471 307.38L542.667 310.38ZM524.975 320.304L533.15 325.024L536.227 313.775L524.975 320.304Z" fill="#FFE500"/>
</svg>
