<svg width="247" height="81" viewBox="0 0 247 81" fill="none" xmlns="http://www.w3.org/2000/svg">
<path d="M58.1012 0.559451L71.3399 55.5101L77.6396 55.4473L73.2004 79.6128L60.871 79.7358L63.1752 67.1122L15.1176 67.5915L12.8134 80.2151L0.484029 80.3381L4.92323 56.1726L11.2229 56.1098L43.7019 0.703075L58.1012 0.559451ZM25.6222 55.9661L58.3806 55.6394L49.0581 14.3303L25.6222 55.9661ZM140.012 16.4833L130.79 66.4377L119.811 66.5473L120.321 63.572L120.141 63.5738C118.657 65.1487 116.718 66.3081 114.325 67.052C111.933 67.8559 109.387 68.2713 106.687 68.2982C103.867 68.3264 101.073 67.9042 98.3043 67.0318C95.5955 66.1587 93.1815 64.7728 91.0625 62.8738C88.5211 60.739 86.5451 58.1486 85.1347 55.1025C83.7836 51.9959 83.1177 48.4023 83.137 44.3219C83.0946 40.0621 83.7747 36.0652 85.1775 32.331C86.6398 28.5362 88.7973 25.2745 91.6503 22.5459C94.1462 20.1209 97.0081 18.2923 100.236 17.06C103.464 15.8278 106.938 15.1931 110.658 15.156C114.617 15.1165 118.014 15.7426 120.847 17.0345C123.68 18.3263 125.979 20.2234 127.744 22.7259L127.924 22.7241L129.033 16.5928L140.012 16.4833ZM110.763 25.7755C106.204 25.8809 102.411 27.5689 99.3834 30.8392C96.4152 34.049 94.9881 38.3534 95.102 43.7526C95.1444 48.0123 96.3185 51.4208 98.6241 53.9779C100.989 56.4745 104.152 57.703 108.111 57.6635C112.731 57.6174 116.525 55.9895 119.493 52.7797C122.521 49.5094 124.008 45.2643 123.956 40.0446C123.913 35.6648 122.678 32.1969 120.252 29.641C117.886 27.0245 114.723 25.736 110.763 25.7755ZM186.734 16.0173L177.512 65.9717L165.542 66.0911L168.702 48.9587L161.592 49.0297C159.012 49.0554 156.791 48.9275 154.928 48.6461C153.064 48.3047 151.469 47.7506 150.141 46.9838C148.391 46.0412 146.998 44.735 145.962 43.0653C144.984 41.3349 144.484 39.3298 144.462 37.0499C144.455 36.3899 144.478 35.6697 144.53 34.8891C144.642 34.108 144.898 32.6653 145.297 30.5613L147.946 16.4041L159.915 16.2848L157.266 30.4419C157.038 31.5842 156.895 32.3357 156.839 32.6963C156.842 33.0562 156.845 33.3562 156.848 33.5962C156.797 34.4968 156.895 35.2758 157.141 35.9334C157.448 36.5904 157.873 37.0962 158.416 37.4508C158.84 37.8065 159.383 38.0711 160.044 38.2446C160.706 38.418 161.877 38.4663 163.556 38.3895L170.666 38.3186L174.765 16.1366L186.734 16.0173ZM246.179 15.4243L236.957 65.3788L225.977 65.4883L226.487 62.5131L226.307 62.5149C224.823 64.0897 222.885 65.2491 220.492 65.993C218.1 66.7969 215.554 67.2124 212.854 67.2393C210.034 67.2674 207.24 66.8453 204.471 65.9728C201.762 65.0998 199.348 63.7138 197.229 61.8149C194.688 59.6801 192.712 57.0897 191.301 54.0436C189.95 50.9369 189.284 47.3434 189.304 43.263C189.261 39.0032 189.941 35.0062 191.344 31.272C192.806 27.4773 194.964 24.2156 197.817 21.487C200.313 19.062 203.175 17.2333 206.403 16.0011C209.63 14.7688 213.104 14.1341 216.824 14.097C220.784 14.0575 224.18 14.6837 227.013 15.9755C229.846 17.2673 232.145 19.1645 233.91 21.667L234.09 21.6652L235.199 15.5338L246.179 15.4243ZM216.93 24.7165C212.371 24.822 208.577 26.5099 205.55 29.7803C202.582 32.99 201.155 37.2945 201.269 42.6936C201.311 46.9534 202.485 50.3619 204.791 52.919C207.156 55.4155 210.318 56.644 214.278 56.6045C218.898 56.5585 222.692 54.9305 225.66 51.7208C228.687 48.4504 230.175 44.2054 230.123 38.9856C230.079 34.6059 228.845 31.138 226.419 28.5821C224.053 25.9655 220.89 24.677 216.93 24.7165Z" fill="#FFE500"/>
</svg>
