<svg width="235" height="93" viewBox="0 0 235 93" fill="none" xmlns="http://www.w3.org/2000/svg">
<path d="M5.62781 9.90277C5.82519 8.81328 6.19702 7.81461 6.74329 6.90675C7.28956 5.99889 7.91843 5.25218 8.62989 4.66661C9.4332 4.01072 10.377 3.51539 11.4611 3.18063C12.5684 2.84565 13.7005 2.67239 14.8573 2.66085C15.991 2.64954 17.0108 2.81291 17.9165 3.15095C18.8221 3.46586 19.6018 3.92086 20.2556 4.51595C20.793 5.04278 21.2157 5.66331 21.5237 6.37753C21.8316 7.09176 21.9899 7.88847 21.9987 8.76765C21.9843 9.64707 21.8306 10.47 21.5374 11.2365C21.2672 11.9797 20.8919 12.6313 20.4115 13.1914C20.0226 13.6349 19.5638 14.0329 19.0351 14.3852C18.5064 14.7376 17.9423 15.0093 17.3426 15.2004C17.8303 15.3806 18.2723 15.6192 18.6686 15.916C19.0878 16.1895 19.438 16.4984 19.7191 16.8427C20.0242 17.2793 20.2727 17.8321 20.4645 18.5012C20.6792 19.147 20.7901 19.8284 20.7973 20.5457C20.8109 21.9107 20.5456 23.1513 20.0014 24.2674C19.4803 25.3832 18.7838 26.3042 17.9118 27.0302C17.0858 27.7326 16.0961 28.263 14.9427 28.6216C13.8125 28.98 12.4609 29.1786 10.8878 29.2174C9.75415 29.2287 8.78116 29.1112 7.96884 28.8647C7.17967 28.6181 6.4584 28.2203 5.80504 27.6715C5.03531 27.0545 4.43794 26.32 4.01295 25.4681C3.61086 24.5928 3.40405 23.5768 3.39251 22.42C3.38928 22.0961 3.38662 21.83 3.38455 21.6218C3.40538 21.3902 3.42644 21.1817 3.44773 20.9964L8.20226 20.949C8.18028 21.0649 8.15829 21.1808 8.13631 21.2967C8.13723 21.3892 8.13816 21.4818 8.13908 21.5743C8.14277 21.9445 8.19274 22.3142 8.28898 22.6835C8.40812 23.0294 8.57308 23.3286 8.78384 23.581C9.06517 23.9484 9.43835 24.2455 9.90339 24.4722C10.3913 24.6756 10.9476 24.7742 11.5723 24.7679C12.1739 24.7619 12.763 24.6751 13.3398 24.5074C13.9164 24.3165 14.3996 24.0456 14.7895 23.6946C15.1796 23.3668 15.4879 22.9588 15.7144 22.4706C15.9409 21.9824 16.051 21.426 16.0448 20.8013C16.04 20.3155 15.9663 19.8881 15.8238 19.5193C15.7042 19.1272 15.5273 18.7934 15.2932 18.5181C15.0128 18.2432 14.6868 18.0382 14.3152 17.9031C13.9436 17.768 13.4454 17.692 12.8205 17.6751L10.5647 17.6976L11.3533 13.2471L13.5744 13.2249C14.1993 13.2418 14.7077 13.1789 15.0997 13.0361C15.5145 12.87 15.8939 12.6349 16.238 12.3306C16.582 12.0264 16.8332 11.6884 16.9914 11.3166C17.1726 10.9214 17.2609 10.4925 17.2563 10.0297C17.2514 9.54387 17.1779 9.12811 17.0356 8.78245C16.8933 8.43679 16.682 8.12652 16.4016 7.85165C16.1214 7.59992 15.7841 7.41818 15.3896 7.30642C15.018 7.17129 14.5546 7.1065 13.9993 7.11204C13.5366 7.11665 13.0977 7.19045 12.6826 7.33342C12.2673 7.45326 11.899 7.64204 11.5776 7.89977C11.2562 8.1575 10.9931 8.44936 10.7881 8.77535C10.5831 9.10134 10.4478 9.46133 10.3823 9.85534L5.62781 9.90277Z" fill="#FFE500"/>
<path d="M45.0349 9.26675L41.4786 28.5305L37.2446 28.5727L37.4414 27.4254L37.372 27.4261C36.7996 28.0334 36.0521 28.4805 35.1294 28.7674C34.2069 29.0774 33.2251 29.2376 32.184 29.248C31.0966 29.2588 30.019 29.096 28.9513 28.7596C27.9067 28.4229 26.9758 27.8884 26.1586 27.1561C25.1786 26.3329 24.4166 25.334 23.8727 24.1593C23.3517 22.9613 23.0949 21.5756 23.1024 20.0021C23.086 18.3594 23.3483 16.818 23.8892 15.378C24.4531 13.9147 25.2851 12.6569 26.3853 11.6047C27.3478 10.6695 28.4514 9.96435 29.6962 9.48916C30.9409 9.01397 32.2805 8.76922 33.715 8.75491C35.242 8.73968 36.5517 8.98115 37.6442 9.4793C38.7367 9.97746 39.6233 10.7091 40.3039 11.6741L40.3733 11.6734L40.801 9.30898L45.0349 9.26675ZM33.7558 12.8501C31.9977 12.8907 30.5349 13.5416 29.3674 14.8028C28.2228 16.0405 27.6725 17.7005 27.7164 19.7825C27.7327 21.4252 28.1855 22.7396 29.0746 23.7257C29.9866 24.6884 31.2061 25.1622 32.7331 25.1469C34.5146 25.1292 35.9777 24.5014 37.1223 23.2636C38.2898 22.0025 38.8635 20.3655 38.8434 18.3526C38.8265 16.6636 38.3504 15.3264 37.415 14.3407C36.5026 13.3317 35.2828 12.8348 33.7558 12.8501Z" fill="#FFE500"/>
<path d="M48.719 9.23L65.1343 9.06627L61.578 28.33L56.9623 28.3761L59.7612 13.2154L52.5774 13.2871L49.7784 28.4477L45.1627 28.4938L48.719 9.23Z" fill="#FFE500"/>
<path d="M88.0768 8.83744L84.5205 28.1012L80.2865 28.1434L80.4833 26.9961L80.4139 26.9968C79.8415 27.6041 79.0939 28.0512 78.1712 28.3381C77.2488 28.6481 76.267 28.8083 75.2258 28.8186C74.1384 28.8295 73.0609 28.6667 71.9931 28.3303C70.9485 27.9936 70.0176 27.4591 69.2005 26.7268C68.2205 25.9036 67.4585 24.9047 66.9146 23.73C66.3936 22.532 66.1368 21.1463 66.1442 19.5727C66.1278 17.9301 66.3901 16.3887 66.9311 14.9487C67.495 13.4854 68.327 12.2276 69.4272 11.1754C70.3897 10.2402 71.4933 9.53504 72.738 9.05985C73.9828 8.58466 75.3224 8.33991 76.7568 8.3256C78.2839 8.31037 79.5936 8.55183 80.6861 9.04999C81.7786 9.54814 82.6651 10.2797 83.3458 11.2448L83.4152 11.2441L83.8428 8.87967L88.0768 8.83744ZM76.7977 12.4207C75.0396 12.4614 73.5768 13.1123 72.4093 14.3735C71.2647 15.6112 70.7143 17.2711 70.7582 19.3532C70.7746 20.9959 71.2274 22.3103 72.1165 23.2964C73.0285 24.2591 74.248 24.7328 75.775 24.7176C77.5565 24.6998 79.0195 24.0721 80.1641 22.8343C81.3316 21.5732 81.9053 19.9362 81.8853 17.9233C81.8684 16.2343 81.3923 14.897 80.4569 13.9114C79.5444 12.9024 78.3247 12.4055 76.7977 12.4207Z" fill="#FFE500"/>
<path d="M103.551 21.6639L108.549 21.6141C107.808 23.9122 106.541 25.6487 104.748 26.8235C102.955 27.9752 100.866 28.5629 98.4834 28.5867C96.9793 28.5785 95.6816 28.3832 94.5902 28.0007C93.4991 27.6414 92.5328 27.0379 91.6914 26.1901C90.8504 25.3887 90.193 24.435 89.7192 23.329C89.2683 22.1997 89.0472 20.9062 89.0557 19.4483C89.0165 17.829 89.2673 16.2994 89.8083 14.8594C90.3724 13.4191 91.1814 12.1732 92.2352 11.1214C93.2431 10.0932 94.381 9.34145 95.6489 8.86603C96.9396 8.36725 98.4411 8.10931 100.153 8.09224C102.768 8.06616 104.845 8.70489 106.385 10.0084C107.925 11.2888 108.89 12.9568 109.281 15.0122L104.214 15.0628C103.904 14.1403 103.365 13.4284 102.596 12.927C101.828 12.4256 100.923 12.1801 99.8817 12.1905C98.9562 12.1997 98.0904 12.3819 97.284 12.737C96.5006 13.0688 95.8344 13.5498 95.2854 14.18C94.7361 14.7871 94.3152 15.5086 94.0228 16.3445C93.7534 17.1802 93.6352 18.0838 93.668 19.0553C93.6768 19.9344 93.8004 20.7315 94.0389 21.4464C94.3004 22.138 94.6531 22.7013 95.097 23.1366C95.5181 23.5951 96.019 23.9372 96.5997 24.1628C97.1804 24.3884 97.8757 24.4972 98.6855 24.4891C99.8191 24.4778 100.812 24.2365 101.663 23.7652C102.515 23.294 103.144 22.5935 103.551 21.6639Z" fill="#FFE500"/>
<path d="M118.503 27.7622L122.06 8.49848L126.675 8.45244L125.028 17.2847L133.547 8.3839L139.03 8.32921L129.546 17.8644L135.89 27.5888L130.407 27.6435L124.832 18.4668L123.119 27.7162L118.503 27.7622Z" fill="#FFE500"/>
<path d="M150.34 7.59165C151.867 7.57642 153.188 7.78306 154.303 8.21158C155.418 8.61695 156.396 9.22038 157.237 10.0218C158.055 10.8467 158.689 11.8122 159.14 12.9183C159.591 14.0245 159.823 15.2717 159.837 16.6599C159.853 18.3257 159.58 19.8903 159.016 21.3536C158.452 22.817 157.666 24.0512 156.658 25.0562C155.627 26.0846 154.466 26.8482 153.175 27.347C151.907 27.8224 150.522 28.0676 149.018 28.0826C147.491 28.0978 146.158 27.9029 145.02 27.4977C143.906 27.0924 142.928 26.4774 142.087 25.6528C141.246 24.8513 140.6 23.909 140.149 22.826C139.699 21.7199 139.466 20.4264 139.451 18.9457C139.435 17.3261 139.697 15.7964 140.238 14.3564C140.803 12.9161 141.6 11.6703 142.631 10.6187C143.639 9.61372 144.777 8.86193 146.044 8.36337C147.335 7.86458 148.767 7.60734 150.34 7.59165ZM150.138 11.6892C149.259 11.698 148.439 11.8681 147.679 12.1997C146.919 12.5312 146.264 13.0121 145.715 13.6423C145.166 14.2725 144.745 15.0171 144.453 15.8762C144.184 16.7119 144.054 17.6271 144.064 18.622C144.072 19.3624 144.171 20.0555 144.363 20.7015C144.577 21.3473 144.884 21.8995 145.281 22.3583C145.703 22.8863 146.228 23.2976 146.856 23.5921C147.506 23.8633 148.271 23.9945 149.15 23.9857C150.006 23.9772 150.815 23.8187 151.575 23.5103C152.335 23.1788 153.002 22.6863 153.573 22.0327C154.1 21.4258 154.509 20.7044 154.801 19.8685C155.094 19.0095 155.235 18.0709 155.224 17.0529C155.217 16.3357 155.106 15.6542 154.892 15.0085C154.677 14.3627 154.382 13.7988 154.007 13.3166C153.562 12.812 153.015 12.4125 152.364 12.1182C151.736 11.8237 150.994 11.6807 150.138 11.6892Z" fill="#FFE500"/>
<path d="M159.648 33.7728L164.39 8.07626L168.624 8.03403L168.427 9.18136L168.496 9.18067C169.069 8.59649 169.805 8.16108 170.705 7.87444C171.604 7.56467 172.586 7.39291 173.65 7.35915C174.853 7.34715 175.942 7.50983 176.917 7.84718C177.915 8.18431 178.835 8.7189 179.675 9.45095C180.703 10.3894 181.465 11.4577 181.963 12.656C182.461 13.8542 182.717 15.1706 182.731 16.605C182.748 18.2709 182.474 19.8355 181.91 21.2988C181.346 22.739 180.526 23.9736 179.448 25.0024C178.486 25.9376 177.359 26.643 176.068 27.1186C174.8 27.5941 173.437 27.839 171.98 27.8536C170.615 27.8672 169.421 27.6708 168.399 27.2645C167.377 26.8582 166.537 26.2072 165.881 25.3113L165.811 25.312L164.264 33.7268L159.648 33.7728ZM172.996 11.4612C171.238 11.4788 169.787 12.118 168.642 13.3789C167.521 14.6396 166.971 16.2879 166.991 18.3239C167.008 20.0129 167.461 21.3504 168.35 22.3365C169.262 23.2992 170.493 23.7729 172.043 23.7574C173.825 23.7396 175.288 23.1119 176.432 21.8741C177.577 20.6363 178.139 19.011 178.119 16.9981C178.102 15.286 177.626 13.9372 176.69 12.9515C175.778 11.9425 174.547 11.4458 172.996 11.4612Z" fill="#FFE500"/>
<path d="M187.3 7.84774L193.998 7.78094L196.561 21.0833L203.958 7.68159L210.656 7.61478L207.1 26.8785L202.484 26.9246L205.019 13.1202L197.348 26.9758L193.496 27.0142L190.895 13.2611L188.36 27.0655L183.744 27.1115L187.3 7.84774Z" fill="#FFE500"/>
<path d="M233.606 7.38588L230.049 26.6496L225.815 26.6919L226.012 25.5445L225.943 25.5452C225.37 26.1525 224.623 26.5996 223.7 26.8865C222.778 27.1965 221.796 27.3567 220.755 27.3671C219.667 27.3779 218.59 27.2151 217.522 26.8787C216.477 26.542 215.547 26.0076 214.729 25.2753C213.749 24.4521 212.987 23.4531 212.444 22.2785C211.923 21.0805 211.666 19.6947 211.673 18.1212C211.657 16.4785 211.919 14.9372 212.46 13.4972C213.024 12.0338 213.856 10.776 214.956 9.72379C215.919 8.78865 217.022 8.08348 218.267 7.60829C219.512 7.1331 220.851 6.88835 222.286 6.87404C223.813 6.85881 225.123 7.10027 226.215 7.59843C227.308 8.09658 228.194 8.82818 228.875 9.79321L228.944 9.79252L229.372 7.42811L233.606 7.38588ZM222.327 10.9692C220.569 11.0099 219.106 11.6608 217.938 12.9219C216.794 14.1597 216.243 15.8196 216.287 17.9016C216.304 19.5443 216.756 20.8587 217.645 21.8448C218.557 22.8075 219.777 23.2813 221.304 23.266C223.085 23.2483 224.548 22.6205 225.693 21.3827C226.861 20.1216 227.434 18.4846 227.414 16.4717C227.397 14.7828 226.921 13.4455 225.986 12.4598C225.073 11.4508 223.854 10.954 222.327 10.9692Z" fill="#FFE500"/>
<path d="M18.7429 40.7663L22.9543 55.857L25.2448 55.8341L23.5989 64.8052L19.0873 64.8502L19.9758 59.9822L6.1634 60.12L5.27484 64.988L0.763237 65.033L2.40916 56.0619L4.69967 56.0391L13.5372 40.8182L18.7429 40.7663ZM9.90536 55.9871L18.0956 55.9054L15.4299 46.1444L9.90536 55.9871Z" fill="#FFE500"/>
<path d="M40.596 40.5483L44.8482 59.7342L40.1284 59.7812L37.3177 45.926L30.2029 59.8802L24.9972 59.9322L35.3903 40.6002L40.596 40.5483Z" fill="#FFE500"/>
<path d="M65.4472 40.3004L61.8909 59.5642L57.2752 59.6102L58.6566 51.9606L51.7571 59.6652L45.7879 59.7248L52.8665 52.5737C52.2876 52.5332 51.7542 52.4113 51.2663 52.2079C50.7781 51.9814 50.3703 51.6962 50.0429 51.3524C49.5527 50.9177 49.1771 50.3776 48.9161 49.7324C48.6552 49.0871 48.5323 48.371 48.5476 47.5841C48.5139 46.5201 48.735 45.4882 49.2109 44.4885C49.71 43.4886 50.4419 42.6367 51.4067 41.9329C52.096 41.4401 52.8674 41.0622 53.7209 40.7992C54.5975 40.5359 55.5333 40.3993 56.5281 40.3894L65.4472 40.3004ZM59.1852 49.2829L60.0741 44.4496L56.0831 44.4894C55.69 44.5164 55.3204 44.578 54.9743 44.674C54.6513 44.7697 54.3751 44.9113 54.1455 45.0987C53.8242 45.3565 53.5729 45.6829 53.3917 46.0781C53.2103 46.4501 53.1333 46.8442 53.1606 47.2605C53.1636 47.5612 53.2126 47.8384 53.3077 48.092C53.4028 48.3456 53.5552 48.5523 53.7651 48.7122C53.9756 48.9415 54.2433 49.1008 54.5681 49.1901C54.893 49.2794 55.333 49.3213 55.8883 49.3157L59.1852 49.2829Z" fill="#FFE500"/>
<path d="M77.262 40.1826L93.6773 40.0188L90.1209 59.2826L85.5052 59.3286L88.3042 44.168L81.1203 44.2396L78.3214 59.4003L73.7056 59.4463L77.262 40.1826Z" fill="#FFE500"/>
<path d="M92.6517 65.6783L97.3934 39.9818L101.627 39.9395L101.431 41.0869L101.5 41.0862C102.073 40.502 102.809 40.0666 103.708 39.78C104.608 39.4702 105.589 39.2984 106.653 39.2647C107.856 39.2527 108.946 39.4153 109.921 39.7527C110.919 40.0898 111.838 40.6244 112.679 41.3565C113.706 42.2949 114.469 43.3633 114.967 44.5615C115.464 45.7598 115.721 47.0761 115.735 48.5106C115.751 50.1764 115.478 51.741 114.914 53.2043C114.35 54.6446 113.529 55.8791 112.452 56.9079C111.489 57.8431 110.363 58.5485 109.072 59.0241C107.804 59.4996 106.441 59.7446 104.983 59.7591C103.618 59.7727 102.425 59.5764 101.403 59.1701C100.38 58.7638 99.541 58.1127 98.8842 57.2168L98.8148 57.2175L97.2674 65.6323L92.6517 65.6783ZM106 43.3667C104.242 43.3843 102.79 44.0235 101.646 45.2844C100.525 46.5451 99.9743 48.1934 99.9946 50.2294C100.011 51.9184 100.464 53.2559 101.353 54.242C102.266 55.2047 103.497 55.6784 105.047 55.6629C106.828 55.6451 108.291 55.0174 109.436 53.7796C110.58 52.5418 111.143 50.9165 111.123 48.9036C111.106 47.1915 110.629 45.8427 109.694 44.857C108.781 43.848 107.55 43.3513 106 43.3667Z" fill="#FFE500"/>
<path d="M120.304 39.7533L124.92 39.7072L122.68 51.8427L133.492 39.6217L138.107 39.5757L134.551 58.8394L129.935 58.8855L132.174 46.75L121.363 58.971L116.748 59.017L120.304 39.7533Z" fill="#FFE500"/>
<path d="M145.123 46.5862L147.899 46.5585C148.075 45.6312 148.39 44.7603 148.845 43.9459C149.323 43.1082 149.905 42.3619 150.593 41.7072C151.601 40.7253 152.739 39.9966 154.007 39.5212C155.298 39.0224 156.707 38.7654 158.234 38.7502C159.784 38.7347 161.117 38.9412 162.231 39.3698C163.369 39.7749 164.359 40.3782 165.2 41.1797C166.018 42.0045 166.652 42.97 167.103 44.0762C167.553 45.1823 167.786 46.4295 167.8 47.8177C167.816 49.4835 167.543 51.0481 166.979 52.5115C166.415 53.9748 165.629 55.209 164.621 56.2141C163.59 57.2424 162.429 58.006 161.138 58.5048C159.87 58.9802 158.484 59.2255 156.98 59.2405C155.43 59.2559 154.086 59.0611 152.949 58.6559C151.81 58.2276 150.844 57.6125 150.049 56.8106C149.278 56.0779 148.656 55.1701 148.183 54.0873C147.732 53.0043 147.489 51.8613 147.454 50.6585L144.366 50.6893L142.884 58.7563L138.268 58.8023L141.825 39.5386L146.44 39.4926L145.123 46.5862ZM157.044 55.1443C157.946 55.1353 158.777 54.9766 159.538 54.6682C160.298 54.3367 160.964 53.8441 161.536 53.1905C162.062 52.5837 162.472 51.8623 162.764 51.0264C163.056 50.1673 163.197 49.2288 163.187 48.2108C163.18 47.4936 163.069 46.8121 162.855 46.1663C162.64 45.5206 162.345 44.9566 161.97 44.4745C161.502 43.9238 160.942 43.5245 160.292 43.2764C159.665 43.005 158.981 42.8614 158.24 42.8457C157.291 42.8551 156.425 43.0373 155.642 43.3922C154.882 43.7237 154.227 44.193 153.678 44.8001C153.129 45.4303 152.708 46.175 152.416 47.034C152.147 47.8697 152.017 48.785 152.027 49.7798C152.034 50.5202 152.134 51.2134 152.325 51.8594C152.54 52.5051 152.846 53.0574 153.244 53.5162C153.666 54.0442 154.191 54.4554 154.818 54.75C155.446 55.0214 156.188 55.1528 157.044 55.1443Z" fill="#FFE500"/>
<path d="M170.834 39.2493L184.681 39.1111L183.924 43.2142L179.308 43.2603L176.509 58.4209L171.893 58.467L174.692 43.3063L170.076 43.3524L170.834 39.2493Z" fill="#FFE500"/>
<path d="M195.083 38.3826C196.61 38.3674 197.931 38.574 199.046 39.0026C200.161 39.4079 201.139 40.0114 201.98 40.8128C202.798 41.6377 203.432 42.6032 203.883 43.7093C204.334 44.8155 204.566 46.0627 204.58 47.4508C204.596 49.1167 204.323 50.6813 203.759 52.1446C203.195 53.608 202.409 54.8422 201.401 55.8472C200.37 56.8756 199.209 57.6392 197.918 58.138C196.65 58.6134 195.264 58.8586 193.761 58.8736C192.234 58.8888 190.901 58.6939 189.763 58.2887C188.649 57.8833 187.671 57.2683 186.829 56.4437C185.988 55.6423 185.343 54.7 184.892 53.617C184.442 52.5108 184.209 51.2174 184.194 49.7367C184.178 48.1171 184.44 46.5873 184.981 45.1473C185.545 43.7071 186.343 42.4612 187.374 41.4097C188.382 40.4047 189.52 39.6529 190.787 39.1544C192.078 38.6556 193.51 38.3983 195.083 38.3826ZM194.881 42.4802C194.002 42.489 193.182 42.6591 192.422 42.9906C191.662 43.3222 191.007 43.803 190.458 44.4333C189.909 45.0635 189.488 45.8081 189.196 46.6672C188.927 47.5028 188.797 48.4181 188.807 49.413C188.814 50.1534 188.914 50.8465 189.105 51.4925C189.32 52.1382 189.626 52.6905 190.024 53.1493C190.446 53.6773 190.971 54.0886 191.599 54.3831C192.249 54.6543 193.014 54.7855 193.893 54.7767C194.749 54.7682 195.558 54.6097 196.318 54.3013C197.078 53.9698 197.744 53.4772 198.316 52.8237C198.843 52.2168 199.252 51.4954 199.544 50.6595C199.837 49.8005 199.978 48.8619 199.967 47.8439C199.96 47.1267 199.849 46.4452 199.635 45.7995C199.42 45.1537 199.125 44.5898 198.75 44.1076C198.305 43.603 197.758 43.2035 197.107 42.9092C196.479 42.6147 195.737 42.4717 194.881 42.4802Z" fill="#FFE500"/>
<path d="M209.133 38.8672L216.664 38.7921C217.751 38.7813 218.643 38.8881 219.339 39.1125C220.036 39.337 220.618 39.6667 221.085 40.1016C221.412 40.4455 221.683 40.894 221.896 41.4472C222.133 41.977 222.255 42.5658 222.261 43.2136C222.244 43.8154 222.134 44.3834 221.931 44.9176C221.751 45.4285 221.455 45.9058 221.043 46.3495C220.699 46.7232 220.309 47.051 219.873 47.333C219.436 47.5919 218.975 47.7816 218.49 47.9021C219.395 48.1476 220.094 48.6381 220.587 49.3737C221.103 50.0858 221.366 50.9393 221.376 51.9342C221.363 52.9756 221.153 53.8916 220.744 54.6824C220.336 55.4732 219.752 56.1385 218.994 56.6783C218.351 57.1243 217.625 57.4671 216.818 57.7065C216.033 57.9226 215.097 58.036 214.01 58.0469L205.576 58.131L209.133 38.8672ZM213.024 42.7851L212.432 45.9842L215.555 45.953C215.925 45.9725 216.214 45.9465 216.422 45.875C216.629 45.8035 216.825 45.6859 217.008 45.5221C217.192 45.3583 217.34 45.1601 217.454 44.9276C217.567 44.6719 217.622 44.3937 217.619 44.0929C217.594 43.9081 217.546 43.7466 217.475 43.6085C217.427 43.447 217.345 43.2974 217.228 43.1597C217.065 43.0225 216.878 42.9318 216.67 42.8876C216.484 42.8201 216.241 42.7762 215.94 42.7561L213.024 42.7851ZM211.673 49.9485L210.916 54.121L214.248 54.0878C214.549 54.1079 214.838 54.0819 215.115 54.0097C215.391 53.9144 215.656 53.7845 215.909 53.62C216.231 53.4085 216.471 53.1516 216.63 52.8492C216.812 52.5235 216.901 52.1292 216.896 51.6665C216.893 51.3889 216.845 51.158 216.75 50.9738C216.656 50.7665 216.538 50.5826 216.398 50.422C216.211 50.2619 216.002 50.1483 215.77 50.0812C215.537 49.9909 215.19 49.9366 214.727 49.918L211.673 49.9485Z" fill="#FFE500"/>
<path d="M18.8022 84.9838L23.7996 84.9339C23.059 87.232 21.7921 88.9685 19.999 90.1433C18.2057 91.295 16.1175 91.8827 13.7344 91.9065C12.2303 91.8984 10.9326 91.7031 9.84129 91.3206C8.75019 90.9613 7.78391 90.3577 6.94246 89.51C6.10147 88.7085 5.44408 87.7548 4.97027 86.6489C4.51937 85.5196 4.29822 84.226 4.30682 82.7682C4.26753 81.1489 4.51837 79.6192 5.05933 78.1792C5.62343 76.739 6.43243 75.493 7.48632 74.4412C8.49417 73.4131 9.63204 72.6613 10.8999 72.1859C12.1907 71.6871 13.6922 71.4292 15.4043 71.4121C18.0187 71.386 20.096 72.0247 21.6361 73.3283C23.176 74.6087 24.1414 76.2766 24.5321 78.3321L19.4652 78.3826C19.1552 77.4602 18.6159 76.7482 17.8473 76.2469C17.0788 75.7455 16.1739 75.5 15.1328 75.5103C14.2073 75.5196 13.3414 75.7018 12.5351 76.0569C11.7517 76.3886 11.0855 76.8696 10.5364 77.4999C9.98716 78.1069 9.56629 78.8284 9.27382 79.6643C9.00449 80.5 8.88624 81.4036 8.91907 82.3751C8.92784 83.2543 9.05148 84.0514 9.29 84.7663C9.55143 85.4578 9.90413 86.0212 10.3481 86.4564C10.7692 86.915 11.2701 87.2571 11.8508 87.4827C12.4315 87.7083 13.1268 87.817 13.9365 87.8089C15.0702 87.7976 16.0628 87.5563 16.9142 87.0851C17.7656 86.6138 18.395 85.9134 18.8022 84.9838Z" fill="#FFE500"/>
<path d="M44.3046 90.9768L46.0172 81.7274L37.9884 91.0398L32.3662 91.0959L41.7388 80.7983L36.2696 71.8287L41.4753 71.7768L46.2136 80.5454L47.8609 71.7131L52.4766 71.6671L50.8293 80.4993L58.2723 71.6092L63.7557 71.5546L55.2431 81.0801L60.5464 90.8148L55.2019 90.8681L50.6329 81.6814L48.9203 90.9308L44.3046 90.9768Z" fill="#FFE500"/>
<path d="M66.4572 71.5276L71.0729 71.4816L68.8338 83.617L79.6449 71.3961L84.2607 71.35L80.7043 90.6138L76.0886 90.6598L78.3277 78.5244L67.5166 90.7453L62.9009 90.7914L66.4572 71.5276Z" fill="#FFE500"/>
<path d="M87.9781 71.313L95.509 71.2378C96.5964 71.227 97.4883 71.3338 98.1847 71.5582C98.8811 71.7827 99.4629 72.1124 99.93 72.5474C100.257 72.8912 100.528 73.3397 100.742 73.8929C100.978 74.4227 101.1 75.0115 101.106 75.6593C101.089 76.2611 100.979 76.8291 100.776 77.3633C100.596 77.8742 100.3 78.3515 99.8882 78.7952C99.5449 79.1689 99.1548 79.4967 98.7179 79.7787C98.2809 80.0376 97.82 80.2273 97.3353 80.3479C98.2402 80.5933 98.9392 81.0839 99.4325 81.8194C99.9486 82.5315 100.212 83.385 100.222 84.3799C100.209 85.4213 99.9981 86.3374 99.5895 87.1281C99.1809 87.9189 98.5975 88.5842 97.8393 89.124C97.1959 89.57 96.4704 89.9128 95.663 90.1522C94.8784 90.3683 93.9424 90.4817 92.855 90.4926L84.4218 90.5767L87.9781 71.313ZM91.8698 75.2309L91.277 78.4299L94.4004 78.3988C94.7708 78.4182 95.0598 78.3922 95.2673 78.3207C95.4748 78.2492 95.6703 78.1316 95.8538 77.9678C96.0373 77.804 96.1857 77.6058 96.2991 77.3733C96.4122 77.1176 96.4673 76.8394 96.4643 76.5386C96.4393 76.3538 96.3914 76.1923 96.3206 76.0542C96.2728 75.8927 96.1903 75.7431 96.0732 75.6054C95.9099 75.4682 95.7239 75.3775 95.5152 75.3333C95.3294 75.2658 95.086 75.2219 94.785 75.2018L91.8698 75.2309ZM90.5182 82.3942L89.7615 86.5667L93.0932 86.5335C93.3942 86.5536 93.6832 86.5276 93.9601 86.4554C94.2368 86.3601 94.5016 86.2302 94.7545 86.0657C95.0763 85.8543 95.3167 85.5973 95.4757 85.2949C95.6576 84.9692 95.7462 84.5749 95.7416 84.1122C95.7388 83.8346 95.6902 83.6037 95.5958 83.4195C95.5012 83.2122 95.3837 83.0283 95.2432 82.8677C95.0565 82.7076 94.8471 82.594 94.6151 82.5269C94.3828 82.4366 94.0352 82.3823 93.5722 82.3637L90.5182 82.3942Z" fill="#FFE500"/>
<path d="M113.48 70.4338C115.007 70.4186 116.328 70.6253 117.443 71.0538C118.557 71.4592 119.535 72.0626 120.376 72.864C121.194 73.6889 121.829 74.6544 122.279 75.7605C122.73 76.8667 122.962 78.1139 122.976 79.5021C122.993 81.1679 122.719 82.7325 122.155 84.1958C121.591 85.6592 120.805 86.8934 119.797 87.8984C118.766 88.9268 117.605 89.6904 116.315 90.1892C115.047 90.6646 113.661 90.9098 112.157 90.9248C110.63 90.94 109.298 90.7451 108.16 90.3399C107.045 89.9346 106.067 89.3196 105.226 88.495C104.385 87.6935 103.739 86.7512 103.289 85.6682C102.838 84.5621 102.605 83.2686 102.591 81.7879C102.574 80.1683 102.837 78.6386 103.378 77.1986C103.942 75.7583 104.739 74.5125 105.77 73.4609C106.778 72.4559 107.916 71.7041 109.184 71.2056C110.474 70.7068 111.907 70.4495 113.48 70.4338ZM113.278 74.5314C112.399 74.5402 111.579 74.7103 110.819 75.0419C110.058 75.3734 109.404 75.8543 108.855 76.4845C108.306 77.1147 107.885 77.8593 107.593 78.7184C107.323 79.5541 107.194 80.4693 107.204 81.4642C107.211 82.2046 107.31 82.8977 107.502 83.5437C107.717 84.1894 108.023 84.7417 108.421 85.2005C108.843 85.7285 109.367 86.1398 109.995 86.4343C110.646 86.7055 111.411 86.8367 112.29 86.8279C113.146 86.8194 113.954 86.6609 114.715 86.3525C115.475 86.021 116.141 85.5285 116.713 84.8749C117.239 84.268 117.648 83.5466 117.941 82.7107C118.233 81.8517 118.374 80.9132 118.364 79.8951C118.357 79.1779 118.246 78.4964 118.031 77.8507C117.816 77.2049 117.522 76.641 117.147 76.1588C116.702 75.6542 116.154 75.2547 115.503 74.9604C114.876 74.6659 114.134 74.5229 113.278 74.5314Z" fill="#FFE500"/>
<path d="M125.121 70.9425L138.968 70.8044L138.211 74.9075L133.595 74.9535L130.796 90.1141L126.18 90.1602L128.979 74.9995L124.364 75.0456L125.121 70.9425Z" fill="#FFE500"/>
<path d="M141.221 70.7819L145.837 70.7358L144.519 77.8294L151.703 77.7578L153.021 70.6642L157.637 70.6182L154.08 89.8819L149.464 89.9279L150.946 81.8609L143.762 81.9326L142.281 89.9996L137.665 90.0456L141.221 70.7819Z" fill="#FFE500"/>
<path d="M161.353 70.5811L165.968 70.535L164.717 77.2809L168.153 77.2466C169.101 77.2603 169.959 77.3906 170.725 77.6375C171.514 77.861 172.177 78.2246 172.714 78.7283C173.182 79.2095 173.546 79.7959 173.808 80.4875C174.092 81.1788 174.238 81.9294 174.246 82.7391C174.233 83.7111 174.046 84.6385 173.684 85.5214C173.323 86.3811 172.775 87.1502 172.041 87.8285C171.353 88.4601 170.583 88.9422 169.73 89.2746C168.877 89.5839 167.814 89.7449 166.542 89.7576L157.796 89.8448L161.353 70.5811ZM175.149 89.6718L178.705 70.408L183.321 70.362L179.764 89.6257L175.149 89.6718ZM163.959 81.384L163.169 85.6957L166.675 85.6607C167.045 85.657 167.403 85.6187 167.749 85.5459C168.095 85.4499 168.384 85.3313 168.614 85.1902C168.958 84.9785 169.21 84.7099 169.369 84.3844C169.528 84.0588 169.617 83.6877 169.636 83.271C169.632 82.9009 169.571 82.6122 169.453 82.4052C169.359 82.1747 169.206 81.968 168.996 81.785C168.786 81.6482 168.542 81.5466 168.264 81.4799C168.009 81.3899 167.696 81.3467 167.326 81.3504L163.959 81.384Z" fill="#FFE500"/>
<path d="M187.042 70.3249L193.74 70.258L196.302 83.5604L203.7 70.1587L210.398 70.0919L206.842 89.3556L202.226 89.4017L204.761 75.5973L197.09 89.4529L193.238 89.4913L190.636 75.7382L188.102 89.5426L183.486 89.5886L187.042 70.3249Z" fill="#FFE500"/>
<path d="M214.121 70.0548L218.737 70.0087L216.498 82.1442L227.309 69.9232L231.925 69.8772L228.368 89.1409L223.753 89.187L225.992 77.0515L215.181 89.2725L210.565 89.3185L214.121 70.0548Z" fill="#FFE500"/>
</svg>
