<svg width="302" height="35" viewBox="0 0 302 35" fill="none" xmlns="http://www.w3.org/2000/svg">
<path d="M2.955 9.63301C3.21574 8.25126 3.69375 6.9871 4.38904 5.84054C5.08434 4.69397 5.88103 3.7532 6.77912 3.01823C7.79309 2.19505 8.9809 1.57767 10.3425 1.16609C11.7331 0.754499 13.1527 0.548706 14.6012 0.548706C16.0208 0.548706 17.2955 0.769199 18.4253 1.21018C19.5552 1.62177 20.5257 2.20975 21.3369 2.97413C22.0032 3.65031 22.5247 4.44408 22.9013 5.35545C23.2779 6.26682 23.4662 7.28109 23.4662 8.39825C23.4373 9.51542 23.2344 10.5591 22.8578 11.5293C22.5102 12.47 22.0322 13.2932 21.4238 13.9988C20.9313 14.5574 20.3519 15.0571 19.6856 15.4981C19.0192 15.9391 18.3094 16.2772 17.5562 16.5124C18.1646 16.7476 18.715 17.0563 19.2075 17.4385C19.729 17.7912 20.1636 18.1881 20.5112 18.6291C20.8878 19.1877 21.192 19.8933 21.4238 20.7459C21.6845 21.569 21.8149 22.4363 21.8149 23.3477C21.8149 25.0822 21.4672 26.6551 20.7719 28.0662C20.1056 29.4774 19.222 30.6386 18.1211 31.55C17.0782 32.432 15.8324 33.0935 14.3839 33.5344C12.9644 33.9754 11.2696 34.2106 9.29956 34.24C7.88 34.24 6.66325 34.0783 5.64928 33.7549C4.66427 33.4315 3.76618 32.9171 2.955 32.2115C1.99897 31.4177 1.26023 30.4769 0.738757 29.3892C0.246256 28.272 0 26.9785 0 25.5085C0 25.0969 0 24.7588 0 24.4942C0.0289707 24.2002 0.0579467 23.9356 0.0869173 23.7005H6.04036C6.01139 23.8475 5.98244 23.9944 5.95347 24.1414C5.95347 24.259 5.95347 24.3766 5.95347 24.4942C5.95347 24.9646 6.0114 25.435 6.12728 25.9054C6.27214 26.3464 6.47494 26.7286 6.73568 27.0519C7.08332 27.5223 7.54686 27.9045 8.12627 28.1985C8.73466 28.4631 9.42995 28.5954 10.2122 28.5954C10.9654 28.5954 11.7041 28.4925 12.4284 28.2867C13.1527 28.0515 13.7611 27.7134 14.2536 27.2724C14.7461 26.8609 15.1372 26.3464 15.4269 25.729C15.7166 25.1116 15.8614 24.406 15.8614 23.6123C15.8614 22.9949 15.7745 22.451 15.6007 21.9806C15.4558 21.4808 15.2385 21.0545 14.9488 20.7018C14.6012 20.349 14.1956 20.0844 13.7321 19.908C13.2685 19.7316 12.6457 19.6287 11.8635 19.5993H9.03884L10.0818 13.9547H12.863C13.6452 13.9841 14.2825 13.9106 14.775 13.7342C15.2965 13.5284 15.7745 13.2344 16.2091 12.8522C16.6436 12.47 16.9623 12.0437 17.1651 11.5733C17.3969 11.0736 17.5128 10.5297 17.5128 9.9417C17.5128 9.32432 17.4258 8.79514 17.252 8.35415C17.0782 7.91317 16.8174 7.51628 16.4698 7.16349C16.1222 6.8401 15.7021 6.60491 15.2096 6.45791C14.7461 6.28152 14.1666 6.19332 13.4714 6.19332C12.8919 6.19332 12.3415 6.28152 11.82 6.45791C11.2986 6.60491 10.835 6.8401 10.4294 7.16349C10.0238 7.48688 9.69069 7.85437 9.42995 8.26596C9.16922 8.67754 8.99539 9.13323 8.90847 9.63301H2.955Z" fill="#FFE500"/>
<path d="M38.4399 8.53055C40.3519 8.53055 42.0032 8.80984 43.3938 9.36842C44.7844 9.8976 46.0012 10.6767 47.0441 11.7056C48.0581 12.764 48.8403 13.9988 49.3908 15.4099C49.9412 16.8211 50.2164 18.4086 50.2164 20.1726C50.2164 22.2893 49.8543 24.2737 49.13 26.1259C48.4058 27.978 47.4063 29.5362 46.1316 30.8003C44.8279 32.0939 43.3649 33.0494 41.7425 33.6667C40.1491 34.2547 38.4109 34.5487 36.5278 34.5487C34.6157 34.5487 32.9499 34.2841 31.5304 33.7549C30.1398 33.2257 28.923 32.432 27.8801 31.3736C26.8371 30.3446 26.0404 29.1393 25.49 27.7575C24.9395 26.3464 24.6643 24.7 24.6643 22.8185C24.6643 20.7606 25.012 18.8202 25.7073 16.9975C26.4315 15.1747 27.4455 13.6019 28.7492 12.2789C30.0239 11.0148 31.4579 10.074 33.0513 9.45662C34.6737 8.83924 36.4699 8.53055 38.4399 8.53055ZM38.1357 13.7342C37.0348 13.7342 36.0063 13.94 35.0503 14.3516C34.0943 14.7631 33.2686 15.3658 32.5733 16.1596C31.878 16.9534 31.342 17.8941 30.9654 18.9819C30.6178 20.0403 30.444 21.2015 30.444 22.4657C30.444 23.4065 30.5598 24.2884 30.7916 25.1116C31.0523 25.9348 31.429 26.6404 31.9215 27.2283C32.4429 27.9045 33.0948 28.4337 33.877 28.8159C34.6882 29.1687 35.6442 29.3451 36.7451 29.3451C37.817 29.3451 38.831 29.154 39.787 28.7718C40.743 28.3602 41.5832 27.7428 42.3074 26.9197C42.9738 26.1553 43.4952 25.2439 43.8719 24.1855C44.2485 23.0978 44.4368 21.9071 44.4368 20.6136C44.4368 19.7022 44.3064 18.8349 44.0457 18.0117C43.7849 17.1886 43.4228 16.4683 42.9593 15.8509C42.4088 15.2041 41.728 14.6896 40.9169 14.3075C40.1347 13.9253 39.2076 13.7342 38.1357 13.7342Z" fill="#FFE500"/>
<path d="M68.9307 9.32432L74.015 33.7549H68.105L64.7589 16.1155L55.6766 33.7549H49.1582L62.4123 9.32432H68.9307Z" fill="#FFE500"/>
<path d="M90.5955 8.53055C92.5076 8.53055 94.1589 8.80984 95.5495 9.36842C96.9401 9.8976 98.1569 10.6767 99.1998 11.7056C100.214 12.764 100.996 13.9988 101.546 15.4099C102.097 16.8211 102.372 18.4086 102.372 20.1726C102.372 22.2893 102.01 24.2737 101.286 26.1259C100.561 27.978 99.5619 29.5362 98.2872 30.8003C96.9836 32.0939 95.5205 33.0494 93.8982 33.6667C92.3048 34.2547 90.5665 34.5487 88.6834 34.5487C86.7714 34.5487 85.1056 34.2841 83.686 33.7549C82.2954 33.2257 81.0787 32.432 80.0357 31.3736C78.9928 30.3446 78.1961 29.1393 77.6456 27.7575C77.0952 26.3464 76.82 24.7 76.82 22.8185C76.82 20.7606 77.1676 18.8202 77.8629 16.9975C78.5872 15.1747 79.6012 13.6019 80.9048 12.2789C82.1796 11.0148 83.6136 10.074 85.207 9.45662C86.8293 8.83924 88.6255 8.53055 90.5955 8.53055ZM90.2913 13.7342C89.1904 13.7342 88.162 13.94 87.206 14.3516C86.2499 14.7631 85.4243 15.3658 84.729 16.1596C84.0337 16.9534 83.4977 17.8941 83.1211 18.9819C82.7734 20.0403 82.5996 21.2015 82.5996 22.4657C82.5996 23.4065 82.7155 24.2884 82.9473 25.1116C83.208 25.9348 83.5846 26.6404 84.0771 27.2283C84.5986 27.9045 85.2504 28.4337 86.0326 28.8159C86.8438 29.1687 87.7998 29.3451 88.9007 29.3451C89.9726 29.3451 90.9866 29.154 91.9426 28.7718C92.8987 28.3602 93.7388 27.7428 94.4631 26.9197C95.1294 26.1553 95.6509 25.2439 96.0275 24.1855C96.4041 23.0978 96.5924 21.9071 96.5924 20.6136C96.5924 19.7022 96.4621 18.8349 96.2013 18.0117C95.9406 17.1886 95.5785 16.4683 95.1149 15.8509C94.5645 15.2041 93.8837 14.6896 93.0725 14.3075C92.2903 13.9253 91.3632 13.7342 90.2913 13.7342Z" fill="#FFE500"/>
<path d="M105.164 9.32432L122.503 9.32432L121.504 14.528H115.724L112.031 33.7549H106.251L109.945 14.528H104.165L105.164 9.32432Z" fill="#FFE500"/>
<path d="M125.325 9.32432H131.104L129.453 17.8794H133.755C134.943 17.9088 136.015 18.0852 136.971 18.4086C137.956 18.7026 138.781 19.173 139.448 19.8198C140.027 20.4372 140.476 21.1868 140.795 22.0688C141.143 22.9508 141.316 23.9063 141.316 24.9352C141.287 26.17 141.041 27.3459 140.578 28.4631C140.114 29.5509 139.419 30.521 138.492 31.3736C137.623 32.1674 136.652 32.7701 135.58 33.1816C134.508 33.5638 133.176 33.7549 131.582 33.7549H120.631L125.325 9.32432ZM142.359 33.7549L147.053 9.32432H152.832L148.139 33.7549H142.359ZM128.453 23.0831L127.411 28.5513H131.8C132.263 28.5513 132.712 28.5072 133.147 28.419C133.581 28.3014 133.943 28.1544 134.233 27.978C134.668 27.7134 134.986 27.3753 135.189 26.9638C135.392 26.5522 135.508 26.0818 135.537 25.5526C135.537 25.0822 135.464 24.7147 135.32 24.4501C135.204 24.1561 135.015 23.8916 134.755 23.6564C134.494 23.48 134.19 23.3477 133.842 23.2595C133.523 23.1419 133.132 23.0831 132.669 23.0831H128.453Z" fill="#FFE500"/>
<path d="M179.09 24.1414H160.013C160.071 24.847 160.244 25.5085 160.534 26.1259C160.824 26.7139 161.229 27.243 161.751 27.7134C162.301 28.272 162.953 28.6836 163.706 28.9482C164.46 29.2128 165.314 29.3451 166.27 29.3451C166.879 29.3451 167.473 29.2863 168.052 29.1687C168.631 29.0217 169.182 28.8012 169.703 28.5072C170.109 28.3014 170.471 28.0515 170.79 27.7575C171.137 27.4341 171.442 27.0813 171.702 26.6992H178.221C177.699 27.8457 177.062 28.8747 176.309 29.7861C175.584 30.6974 174.817 31.4471 174.005 32.0351C172.905 32.8583 171.63 33.4756 170.181 33.8872C168.762 34.3282 167.154 34.5487 165.358 34.5487C163.591 34.5487 162.041 34.2841 160.708 33.7549C159.404 33.2551 158.217 32.432 157.145 31.2854C156.015 30.1388 155.189 28.86 154.668 27.4488C154.175 26.0083 153.929 24.4942 153.929 22.9067C153.929 20.7606 154.305 18.7614 155.059 16.9093C155.812 15.0571 156.826 13.499 158.101 12.2348C159.346 11.0001 160.78 10.074 162.403 9.45662C164.025 8.83924 165.879 8.53055 167.965 8.53055C169.79 8.53055 171.398 8.79514 172.789 9.32432C174.179 9.82411 175.411 10.6326 176.483 11.7497C177.468 12.8375 178.206 14.1311 178.699 15.6304C179.22 17.1298 179.481 18.732 179.481 20.4372C179.481 21.0839 179.438 21.716 179.351 22.3334C179.293 22.9508 179.206 23.5535 179.09 24.1414ZM160.534 18.9378H173.701C173.614 18.2028 173.397 17.512 173.049 16.8652C172.731 16.189 172.354 15.6304 171.92 15.1894C171.369 14.719 170.732 14.3663 170.008 14.1311C169.312 13.8665 168.574 13.7342 167.791 13.7342C166.835 13.7342 165.923 13.8812 165.054 14.1752C164.213 14.4398 163.489 14.8219 162.881 15.3217C162.33 15.7627 161.852 16.3066 161.447 16.9534C161.041 17.5708 160.737 18.2322 160.534 18.9378Z" fill="#FFE500"/>
<path d="M213.379 9.32432L208.685 33.7549H202.906L204.514 25.3762H201.081C199.835 25.3762 198.763 25.3027 197.865 25.1557C196.967 24.9793 196.199 24.7 195.562 24.3178C194.722 23.8475 194.055 23.2007 193.563 22.3775C193.099 21.5249 192.867 20.5401 192.867 19.4229C192.867 19.0995 192.882 18.7467 192.911 18.3645C192.969 17.9823 193.099 17.2768 193.302 16.2478L194.649 9.32432H200.429L199.082 16.2478C198.966 16.8064 198.893 17.1739 198.864 17.3503C198.864 17.5267 198.864 17.6737 198.864 17.7912C198.835 18.2322 198.879 18.6144 198.995 18.9378C199.14 19.2612 199.342 19.5111 199.603 19.6875C199.806 19.8639 200.067 19.9962 200.385 20.0844C200.704 20.1726 201.269 20.202 202.08 20.1726H205.513L207.599 9.32432L213.379 9.32432Z" fill="#FFE500"/>
<path d="M242.083 9.32432L237.389 33.7549H232.088L232.349 32.2997H232.262C231.537 33.0641 230.596 33.6226 229.437 33.9754C228.278 34.3576 227.047 34.5487 225.743 34.5487C224.382 34.5487 223.034 34.3282 221.702 33.8872C220.398 33.4462 219.239 32.7554 218.225 31.8146C217.009 30.7562 216.067 29.4774 215.401 27.978C214.763 26.4493 214.459 24.6853 214.488 22.6862C214.488 20.5989 214.836 18.6438 215.531 16.8211C216.255 14.9689 217.313 13.3814 218.703 12.0584C219.92 10.8825 221.311 10.0005 222.875 9.41252C224.44 8.82454 226.12 8.53055 227.916 8.53055C229.828 8.53055 231.465 8.85394 232.827 9.50072C234.188 10.1475 235.289 11.0883 236.129 12.323H236.216L236.781 9.32432L242.083 9.32432ZM227.916 13.7342C225.714 13.7636 223.875 14.5721 222.397 16.1596C220.949 17.7178 220.239 19.8198 220.268 22.4657C220.268 24.553 220.818 26.2288 221.919 27.4929C223.049 28.7277 224.57 29.3451 226.482 29.3451C228.713 29.3451 230.552 28.566 232.001 27.0078C233.478 25.4203 234.217 23.3477 234.217 20.79C234.217 18.6438 233.638 16.9387 232.479 15.6745C231.349 14.381 229.828 13.7342 227.916 13.7342Z" fill="#FFE500"/>
<path d="M261.297 25.8172H267.555C266.599 28.7277 264.991 30.9179 262.731 32.3879C260.471 33.8284 257.85 34.5487 254.866 34.5487C252.982 34.5193 251.36 34.2547 249.998 33.7549C248.637 33.2845 247.435 32.5055 246.392 31.4177C245.349 30.3887 244.538 29.1687 243.958 27.7575C243.408 26.317 243.147 24.6706 243.176 22.8185C243.147 20.7606 243.48 18.8202 244.175 16.9975C244.9 15.1747 245.928 13.6019 247.261 12.2789C248.535 10.9854 249.97 10.0446 251.563 9.45662C253.185 8.83924 255.068 8.53055 257.212 8.53055C260.486 8.53055 263.079 9.36842 264.991 11.0442C266.903 12.6905 268.091 14.8219 268.554 17.4385H262.21C261.833 16.2625 261.167 15.3511 260.211 14.7043C259.255 14.0576 258.125 13.7342 256.821 13.7342C255.662 13.7342 254.576 13.9547 253.562 14.3957C252.577 14.8072 251.737 15.4099 251.041 16.2037C250.346 16.9681 249.81 17.8794 249.434 18.9378C249.086 19.9962 248.927 21.1427 248.956 22.3775C248.956 23.4947 249.1 24.5089 249.39 25.4203C249.709 26.3023 250.143 27.0225 250.694 27.5811C251.215 28.1691 251.838 28.6101 252.562 28.9041C253.287 29.1981 254.156 29.3451 255.17 29.3451C256.589 29.3451 257.835 29.0511 258.907 28.4631C259.979 27.8751 260.776 26.9932 261.297 25.8172Z" fill="#FFE500"/>
<path d="M274.492 9.32432H280.272L278.621 17.8794H282.923C284.111 17.9088 285.183 18.0852 286.139 18.4086C287.124 18.7026 287.949 19.173 288.616 19.8198C289.195 20.4372 289.644 21.1868 289.963 22.0688C290.31 22.9508 290.484 23.9063 290.484 24.9352C290.455 26.17 290.209 27.3459 289.745 28.4631C289.282 29.5509 288.587 30.521 287.66 31.3736C286.79 32.1674 285.82 32.7701 284.748 33.1816C283.676 33.5638 282.343 33.7549 280.75 33.7549H269.799L274.492 9.32432ZM291.527 33.7549L296.22 9.32432H302L297.307 33.7549H291.527ZM277.621 23.0831L276.578 28.5513H280.967C281.431 28.5513 281.88 28.5072 282.314 28.419C282.749 28.3014 283.111 28.1544 283.401 27.978C283.835 27.7134 284.154 27.3753 284.357 26.9638C284.56 26.5522 284.676 26.0818 284.704 25.5526C284.704 25.0822 284.632 24.7147 284.487 24.4501C284.371 24.1561 284.183 23.8916 283.922 23.6564C283.662 23.48 283.357 23.3477 283.01 23.2595C282.691 23.1419 282.3 23.0831 281.836 23.0831H277.621Z" fill="#FFE500"/>
</svg>
