<svg width="260" height="36" viewBox="0 0 260 36" fill="none" xmlns="http://www.w3.org/2000/svg">
<path d="M20.2215 3.30096L25.2322 28.935L20.2348 28.9848L16.7343 8.61137L6.28351 29.124L0.730765 29.1793L14.6688 3.35635L20.2215 3.30096Z" fill="#FFE500"/>
<path d="M48.2606 21.1389L33.0252 21.2909C33.077 21.8457 33.221 22.3649 33.4573 22.8484C33.6932 23.3088 34.0213 23.7221 34.4415 24.0881C34.8854 24.5233 35.4092 24.842 36.0129 25.0442C36.6165 25.2465 37.3 25.3438 38.0635 25.3362C38.5494 25.3313 39.0232 25.2803 39.485 25.1832C39.9466 25.0629 40.3845 24.885 40.7986 24.6494C41.1209 24.4842 41.4082 24.2847 41.6604 24.0508C41.9355 23.7935 42.1756 23.5135 42.3808 23.2106L47.5865 23.1587C47.1791 24.0652 46.6782 24.88 46.0838 25.6033C45.5125 26.3263 44.9053 26.9223 44.2621 27.3915C43.3894 28.0481 42.3762 28.5441 41.2226 28.8796C40.0924 29.2379 38.81 29.4243 37.3756 29.4386C35.9643 29.4527 34.7244 29.2568 33.656 28.8509C32.6109 28.468 31.6559 27.8296 30.7908 26.9359C29.8795 26.0425 29.2101 25.0427 28.7825 23.9363C28.3779 22.8065 28.1693 21.617 28.1569 20.3676C28.14 18.6786 28.4251 17.1024 29.0121 15.6388C29.5991 14.1752 30.3967 12.9409 31.4048 11.9359C32.3899 10.9542 33.5279 10.214 34.8187 9.71519C36.1095 9.2164 37.5878 8.9587 39.2536 8.94208C40.7112 8.92755 41.9974 9.12297 43.1121 9.52834C44.2265 9.91059 45.2162 10.537 46.081 11.4077C46.8762 12.2559 47.4763 13.268 47.8814 14.444C48.3096 15.6198 48.5304 16.8787 48.5438 18.2206C48.5489 18.7296 48.5192 19.2274 48.4546 19.7139C48.4132 20.2003 48.3485 20.6753 48.2606 21.1389ZM33.4008 17.1916L43.9163 17.0867C43.8412 16.509 43.6622 15.967 43.3795 15.4608C43.1197 14.9312 42.8145 14.4946 42.464 14.151C42.0207 13.7852 41.509 13.5126 40.9287 13.3333C40.3714 13.1306 39.7803 13.0324 39.1557 13.0386C38.3922 13.0462 37.6645 13.1692 36.9727 13.4075C36.3039 13.6224 35.7284 13.9289 35.2465 14.3271C34.8104 14.6785 34.4329 15.1104 34.1141 15.6226C33.795 16.1117 33.5573 16.6347 33.4008 17.1916Z" fill="#FFE500"/>
<path d="M67.4278 9.28581L63.8715 28.5496L59.2558 28.5956L60.4741 21.9889L57.7324 22.0163C56.7375 22.0262 55.8809 21.9769 55.1625 21.8683C54.4439 21.7367 53.8286 21.523 53.3166 21.2273C52.642 20.8638 52.1048 20.3601 51.705 19.7162C51.3281 19.049 51.1353 18.2757 51.1265 17.3966C51.124 17.1421 51.1328 16.8643 51.1529 16.5633C51.1962 16.2621 51.2947 15.7058 51.4486 14.8944L52.4701 9.435L57.0858 9.38897L56.0643 14.8483C55.9762 15.2888 55.9212 15.5786 55.8995 15.7177C55.9009 15.8565 55.902 15.9722 55.9029 16.0647C55.8833 16.412 55.921 16.7124 56.016 16.966C56.1343 17.2193 56.2982 17.4144 56.5078 17.5511C56.6711 17.6883 56.8804 17.7904 57.1356 17.8572C57.3908 17.9241 57.8422 17.9427 58.4898 17.9131L61.2314 17.8858L62.8121 9.33185L67.4278 9.28581Z" fill="#FFE500"/>
<path d="M88.4894 20.7376L73.2541 20.8896C73.3059 21.4444 73.4499 21.9636 73.6862 22.4472C73.9221 22.9076 74.2502 23.3208 74.6703 23.6868C75.1143 24.122 75.6381 24.4408 76.2417 24.643C76.8454 24.8452 77.5289 24.9425 78.2924 24.9349C78.7783 24.9301 79.2521 24.8791 79.7139 24.7819C80.1755 24.6616 80.6134 24.4837 81.0275 24.2482C81.3498 24.083 81.6371 23.8834 81.8892 23.6495C82.1644 23.3923 82.4045 23.1122 82.6097 22.8094L87.8154 22.7574C87.408 23.6639 86.9071 24.4788 86.3127 25.202C85.7414 25.925 85.1342 26.5211 84.491 26.9903C83.6183 27.6469 82.6051 28.1429 81.4515 28.4783C80.3213 28.8367 79.0389 29.023 77.6045 29.0373C76.1932 29.0514 74.9533 28.8555 73.8849 28.4497C72.8398 28.0667 71.8847 27.4284 71.0197 26.5346C70.1084 25.6413 69.439 24.6414 69.0114 23.535C68.6068 22.4053 68.3982 21.2157 68.3858 19.9663C68.3689 18.2774 68.654 16.7011 69.241 15.2375C69.828 13.7739 70.6256 12.5396 71.6337 11.5346C72.6188 10.5529 73.7568 9.81272 75.0476 9.31393C76.3384 8.81514 77.8167 8.55744 79.4825 8.54083C80.9401 8.52629 82.2263 8.72171 83.341 9.12709C84.4554 9.50933 85.4451 10.1358 86.3099 11.0064C87.1051 11.8546 87.7052 12.8667 88.1103 14.0428C88.5385 15.2186 88.7593 16.4774 88.7727 17.8193C88.7778 18.3283 88.7481 18.8261 88.6835 19.3127C88.6421 19.799 88.5774 20.274 88.4894 20.7376ZM73.6297 16.7903L84.1452 16.6854C84.07 16.1077 83.8911 15.5657 83.6084 15.0595C83.3486 14.5299 83.0434 14.0933 82.6929 13.7497C82.2496 13.3839 81.7379 13.1114 81.1576 12.932C80.6003 12.7294 80.0092 12.6311 79.3846 12.6374C78.6211 12.645 77.8934 12.7679 77.2016 13.0062C76.5328 13.2211 75.9573 13.5277 75.4754 13.9258C75.0393 14.2773 74.6618 14.7091 74.3429 15.2213C74.0239 15.7104 73.7861 16.2334 73.6297 16.7903Z" fill="#FFE500"/>
<path d="M93.3237 9.02752L97.9394 8.98148L96.6218 16.0751L103.806 16.0034L105.123 8.90982L109.739 8.86378L106.183 28.1275L101.567 28.1736L103.048 20.1065L95.8645 20.1782L94.3831 28.2452L89.7674 28.2913L93.3237 9.02752Z" fill="#FFE500"/>
<path d="M113.455 8.82672L118.071 8.78068L115.832 20.9161L126.643 8.69518L131.259 8.64914L127.702 27.9129L123.087 27.9589L125.326 15.8235L114.514 28.0444L109.899 28.0905L113.455 8.82672Z" fill="#FFE500"/>
<path d="M152.341 20.1008L137.105 20.2527C137.157 20.8075 137.301 21.3267 137.537 21.8103C137.773 22.2707 138.101 22.6839 138.521 23.05C138.965 23.4852 139.489 23.8039 140.093 24.0061C140.696 24.2083 141.38 24.3057 142.144 24.298C142.629 24.2932 143.103 24.2422 143.565 24.145C144.027 24.0247 144.464 23.8468 144.879 23.6113C145.201 23.4461 145.488 23.2466 145.74 23.0127C146.015 22.7554 146.256 22.4753 146.461 22.1725L151.667 22.1206C151.259 23.027 150.758 23.8419 150.164 24.5651C149.592 25.2881 148.985 25.8842 148.342 26.3534C147.469 27.01 146.456 27.506 145.303 27.8415C144.172 28.1998 142.89 28.3861 141.456 28.4005C140.044 28.4145 138.804 28.2186 137.736 27.8128C136.691 27.4299 135.736 26.7915 134.871 25.8977C133.959 25.0044 133.29 24.0046 132.863 22.8982C132.458 21.7684 132.249 20.5788 132.237 19.3295C132.22 17.6405 132.505 16.0642 133.092 14.6006C133.679 13.137 134.477 11.9027 135.485 10.8977C136.47 9.91607 137.608 9.17585 138.899 8.67706C140.189 8.17827 141.668 7.92057 143.334 7.90395C144.791 7.88941 146.077 8.08483 147.192 8.49021C148.307 8.87245 149.296 9.4989 150.161 10.3695C150.956 11.2177 151.556 12.2299 151.961 13.4059C152.39 14.5817 152.61 15.8406 152.624 17.1825C152.629 17.6915 152.599 18.1893 152.535 18.6758C152.493 19.1621 152.428 19.6371 152.341 20.1008ZM137.481 16.1534L147.996 16.0486C147.921 15.4708 147.742 14.9289 147.459 14.4226C147.2 13.893 146.895 13.4564 146.544 13.1128C146.101 12.7471 145.589 12.4745 145.009 12.2952C144.451 12.0925 143.86 11.9943 143.236 12.0005C142.472 12.0081 141.744 12.131 141.053 12.3693C140.384 12.5843 139.808 12.8908 139.326 13.289C138.89 13.6404 138.513 14.0722 138.194 14.5845C137.875 15.0736 137.637 15.5965 137.481 16.1534Z" fill="#FFE500"/>
<path d="M167.796 13.9768L163.18 14.0229C163.241 13.1661 163.464 12.3425 163.849 11.5519C164.235 10.7614 164.749 10.0736 165.391 9.48877C166.079 8.8803 166.907 8.4324 167.876 8.14507C168.868 7.83437 169.861 7.66249 170.856 7.62943C171.897 7.61905 172.801 7.76044 173.567 8.05359C174.357 8.32338 175.008 8.68711 175.522 9.14476C175.989 9.60287 176.342 10.1547 176.58 10.8002C176.84 11.4223 176.986 12.0919 177.016 12.8089C177.028 14.012 176.691 15.0335 176.006 15.8733C175.343 16.7129 174.458 17.3002 173.351 17.6352C174.117 17.9052 174.723 18.3735 175.169 19.0401C175.616 19.6835 175.855 20.5025 175.888 21.4972C175.899 22.5615 175.689 23.5238 175.257 24.3842C174.849 25.2213 174.209 25.9566 173.336 26.59C172.624 27.1062 171.864 27.484 171.056 27.7234C170.249 27.986 169.383 28.1219 168.457 28.1311C167.578 28.1399 166.767 28.0439 166.025 27.843C165.282 27.6422 164.632 27.3363 164.072 26.9254C163.35 26.4235 162.788 25.7697 162.387 24.9638C162.008 24.1346 161.814 23.1994 161.803 22.1583C161.801 21.9732 161.8 21.7997 161.798 21.6377C161.796 21.4526 161.818 21.2673 161.862 21.0818L166.478 21.0357C166.455 21.1285 166.445 21.2212 166.446 21.3137C166.447 21.4062 166.448 21.5335 166.45 21.6954C166.457 22.4358 166.671 23.0121 167.092 23.4244C167.535 23.8365 168.104 24.0391 168.798 24.0322C169.169 24.0516 169.504 24.002 169.803 23.8833C170.103 23.7415 170.367 23.5538 170.596 23.3201C170.802 23.0866 170.961 22.819 171.074 22.517C171.21 22.2149 171.276 21.8787 171.272 21.5085C171.269 21.2077 171.209 20.9422 171.091 20.712C170.996 20.4585 170.866 20.2399 170.702 20.0565C170.539 19.9193 170.353 19.817 170.144 19.7497C169.958 19.6821 169.692 19.65 169.345 19.6535L168.165 19.6653L168.89 15.8401L170.139 15.8277C170.487 15.8242 170.799 15.7864 171.075 15.7142C171.376 15.6418 171.629 15.5236 171.836 15.3596C172.065 15.1953 172.248 14.9852 172.385 14.7293C172.521 14.4503 172.587 14.1257 172.583 13.7555C172.58 13.4548 172.531 13.1776 172.436 12.924C172.341 12.6704 172.211 12.4519 172.048 12.2684C171.861 12.1083 171.628 11.9834 171.35 11.8936C171.071 11.7807 170.746 11.7261 170.376 11.7298C169.983 11.7337 169.648 11.7833 169.371 11.8786C169.118 11.9737 168.888 12.1033 168.681 12.2673C168.429 12.4781 168.223 12.7346 168.064 13.037C167.905 13.3394 167.816 13.6527 167.796 13.9768Z" fill="#FFE500"/>
<path d="M193.939 8.02394L199.076 7.9727L183.472 33.7776L178.335 33.8288L183.389 25.5526L179.572 8.16724L184.534 8.11774L187.052 20.414L193.939 8.02394Z" fill="#FFE500"/>
<path d="M221.156 1.29677L220.121 5.40265L211.377 5.6634C210.22 5.69807 209.123 5.89413 208.085 6.25156C207.071 6.60876 206.185 7.10351 205.428 7.73581C204.785 8.27441 204.224 8.89318 203.745 9.59211C203.289 10.2677 202.938 10.9885 202.691 11.7545L202.761 11.7538C203.652 10.6574 204.719 9.79065 205.962 9.15351C207.205 8.49322 208.613 8.15524 210.187 8.13954C211.529 8.12616 212.722 8.31093 213.767 8.69387C214.812 9.0768 215.744 9.65755 216.561 10.4361C217.356 11.238 217.955 12.1692 218.359 13.2295C218.786 14.2897 219.006 15.4675 219.019 16.7632C219.035 18.3596 218.761 19.8663 218.197 21.2834C217.632 22.6774 216.857 23.8536 215.872 24.8121C214.932 25.7239 213.805 26.4409 212.492 26.963C211.201 27.4618 209.746 27.7193 208.126 27.7355C206.692 27.7498 205.406 27.5543 204.268 27.1492C203.153 26.7438 202.186 26.1171 201.368 25.2692C200.504 24.4217 199.834 23.364 199.358 22.0961C198.883 20.8282 198.636 19.3382 198.619 17.6261C198.591 14.734 199.085 12.0797 200.102 9.66317C201.119 7.24659 202.512 5.37004 204.28 4.03349C205.36 3.23601 206.545 2.64571 207.837 2.2626C209.152 1.85613 210.619 1.62168 212.238 1.55926L221.156 1.29677ZM209.395 12.243C208.515 12.2518 207.684 12.4105 206.9 12.7191C206.14 13.0275 205.496 13.4735 204.97 14.0572C204.443 14.6178 204.034 15.3161 203.741 16.152C203.472 16.9645 203.342 17.822 203.351 18.7243C203.358 19.4184 203.456 20.0537 203.647 20.6303C203.861 21.2066 204.167 21.7126 204.565 22.1483C204.986 22.63 205.499 23.0067 206.103 23.2783C206.731 23.5266 207.461 23.6465 208.293 23.6382C209.173 23.6295 209.993 23.4709 210.753 23.1625C211.537 22.8539 212.203 22.4076 212.753 21.8236C213.256 21.2864 213.643 20.6115 213.913 19.799C214.205 18.9862 214.359 18.1286 214.373 17.226C214.343 16.5322 214.221 15.8971 214.007 15.3207C213.816 14.721 213.533 14.1917 213.158 13.7326C212.714 13.2743 212.178 12.9094 211.55 12.638C210.946 12.3664 210.228 12.2347 209.395 12.243Z" fill="#FFE500"/>
<path d="M231.717 7.02238C233.244 7.00715 234.565 7.21379 235.68 7.64231C236.795 8.04769 237.772 8.65111 238.613 9.45258C239.432 10.2774 240.066 11.2429 240.517 12.3491C240.967 13.4552 241.2 14.7024 241.213 16.0906C241.23 17.7564 240.956 19.321 240.393 20.7844C239.829 22.2477 239.043 23.4819 238.035 24.4869C237.004 25.5153 235.843 26.2789 234.552 26.7777C233.284 27.2531 231.898 27.4983 230.394 27.5133C228.867 27.5286 227.535 27.3336 226.397 26.9285C225.282 26.5231 224.304 25.9081 223.463 25.0835C222.622 24.282 221.976 23.3398 221.526 22.2568C221.075 21.1506 220.843 19.8571 220.828 18.3764C220.812 16.7569 221.074 15.2271 221.615 13.7871C222.179 12.3469 222.977 11.101 224.007 10.0495C225.015 9.04445 226.153 8.29266 227.421 7.7941C228.712 7.29532 230.144 7.03808 231.717 7.02238ZM231.515 11.12C230.636 11.1287 229.816 11.2989 229.056 11.6304C228.296 11.9619 227.641 12.4428 227.092 13.073C226.543 13.7032 226.122 14.4479 225.83 15.3069C225.561 16.1426 225.431 17.0579 225.441 18.0527C225.448 18.7931 225.548 19.4863 225.739 20.1322C225.954 20.778 226.26 21.3303 226.658 21.7891C227.08 22.3171 227.605 22.7283 228.232 23.0229C228.883 23.294 229.648 23.4252 230.527 23.4165C231.383 23.4079 232.191 23.2495 232.952 22.9411C233.712 22.6095 234.378 22.117 234.95 21.4634C235.476 20.8565 235.886 20.1352 236.178 19.2993C236.47 18.4402 236.611 17.5017 236.601 16.4837C236.594 15.7665 236.483 15.085 236.268 14.4392C236.054 13.7935 235.759 13.2295 235.384 12.7473C234.939 12.2427 234.391 11.8433 233.741 11.549C233.113 11.2544 232.371 11.1114 231.515 11.12Z" fill="#FFE500"/>
<path d="M245.766 7.50699L253.297 7.43188C254.385 7.42103 255.277 7.52783 255.973 7.75227C256.669 7.97671 257.251 8.30642 257.718 8.7414C258.046 9.08521 258.316 9.53372 258.53 10.0869C258.767 10.6167 258.888 11.2056 258.895 11.8534C258.878 12.4552 258.768 13.0232 258.565 13.5574C258.385 14.0682 258.089 14.5455 257.677 14.9893C257.333 15.3629 256.943 15.6907 256.506 15.9728C256.069 16.2317 255.608 16.4214 255.124 16.5419C256.029 16.7874 256.728 17.2779 257.221 18.0134C257.737 18.7256 258 19.5791 258.01 20.5739C257.997 21.6153 257.786 22.5314 257.378 23.3222C256.969 24.113 256.386 24.7783 255.628 25.318C254.984 25.7641 254.259 26.1068 253.451 26.3462C252.667 26.5623 251.731 26.6758 250.643 26.6866L242.21 26.7707L245.766 7.50699ZM249.658 11.4249L249.065 14.624L252.189 14.5928C252.559 14.6122 252.848 14.5862 253.056 14.5147C253.263 14.4433 253.459 14.3256 253.642 14.1618C253.826 13.998 253.974 13.7998 254.087 13.5673C254.201 13.3117 254.256 13.0335 254.253 12.7327C254.228 12.5478 254.18 12.3863 254.109 12.2482C254.061 12.0867 253.979 11.9371 253.862 11.7995C253.698 11.6623 253.512 11.5716 253.303 11.5274C253.118 11.4598 252.874 11.416 252.573 11.3958L249.658 11.4249ZM248.307 18.5882L247.55 22.7608L250.882 22.7275C251.183 22.7477 251.472 22.7216 251.748 22.6495C252.025 22.5542 252.29 22.4242 252.543 22.2598C252.865 22.0483 253.105 21.7914 253.264 21.489C253.446 21.1632 253.535 20.769 253.53 20.3063C253.527 20.0286 253.479 19.7977 253.384 19.6135C253.29 19.4062 253.172 19.2223 253.032 19.0617C252.845 18.9016 252.635 18.788 252.403 18.7209C252.171 18.6307 251.824 18.5763 251.361 18.5578L248.307 18.5882Z" fill="#FFE500"/>
</svg>
