<svg width="258" height="89" viewBox="0 0 258 89" fill="none" xmlns="http://www.w3.org/2000/svg">
<path d="M1.32369 41.1916L8.43565 2.59466L18.6388 2.49289L23.3055 31.9135L38.6807 2.29299L48.8839 2.19122L41.7719 40.7881L34.6401 40.8593L39.9746 11.9636L24.9055 40.9564L18.1901 41.0233L13.79 12.2248L8.45549 41.1204L1.32369 41.1916Z" fill="#FFE500"/>
<path d="M65.8856 10.7681C68.1761 10.7452 70.1575 11.0552 71.8299 11.698C73.502 12.306 74.9687 13.2112 76.2302 14.4134C77.4573 15.6506 78.4089 17.0989 79.0849 18.7581C79.7609 20.4174 80.1093 22.2881 80.1301 24.3704C80.155 26.8691 79.7445 29.216 78.8987 31.4111C78.0529 33.6061 76.874 35.4574 75.3618 36.9649C73.8154 38.5075 72.074 39.6529 70.1378 40.4011C68.236 41.1142 66.1572 41.482 63.9014 41.5045C61.6109 41.5274 59.6123 41.2349 57.9055 40.6272C56.2335 40.0191 54.7665 39.0966 53.5047 37.8597C52.2432 36.6575 51.2746 35.2442 50.599 33.6196C49.923 31.9604 49.5739 30.0202 49.5517 27.7991C49.5275 25.3698 49.9211 23.0751 50.7326 20.9151C51.5787 18.7548 52.7749 16.886 54.321 15.3087C55.8331 13.8012 57.5399 12.6735 59.4414 11.9257C61.3776 11.1775 63.5256 10.7916 65.8856 10.7681ZM65.5824 16.9144C64.2637 16.9276 63.0341 17.1828 61.8937 17.6801C60.7532 18.1774 59.7713 18.8987 58.9477 19.844C58.1241 20.7894 57.4932 21.9063 57.0548 23.1949C56.6508 24.4484 56.4563 25.8213 56.4712 27.3136C56.4822 28.4242 56.6314 29.4639 56.9188 30.4329C57.2408 31.4015 57.7003 32.2299 58.2972 32.9181C58.9298 33.7101 59.7169 34.327 60.6584 34.7688C61.6343 35.1755 62.7816 35.3724 64.1004 35.3592C65.3845 35.3464 66.5969 35.1087 67.7376 34.6461C68.8781 34.1488 69.8772 33.41 70.7351 32.4296C71.5244 31.5193 72.1383 30.4372 72.577 29.1834C73.0153 27.8948 73.2269 26.487 73.2117 24.96C73.2009 23.8842 73.0346 22.8619 72.7125 21.8933C72.3905 20.9247 71.9482 20.0788 71.3857 19.3555C70.7187 18.5986 69.897 17.9994 68.9208 17.5579C67.9793 17.1161 66.8665 16.9016 65.5824 16.9144Z" fill="#FFE500"/>
<path d="M83.3474 11.531L104.118 11.3238L102.982 17.4785L96.0585 17.5476L91.86 40.2885L84.9365 40.3576L89.1349 17.6166L82.2114 17.6857L83.3474 11.531Z" fill="#FFE500"/>
<path d="M119.722 10.2311C122.012 10.2082 123.994 10.5182 125.666 11.161C127.338 11.769 128.805 12.6742 130.066 13.8764C131.294 15.1136 132.245 16.5619 132.921 18.2211C133.597 19.8804 133.946 21.7511 133.966 23.8334C133.991 26.3321 133.581 28.679 132.735 30.8741C131.889 33.0691 130.71 34.9204 129.198 36.4279C127.652 37.9705 125.91 39.1159 123.974 39.8641C122.072 40.5772 119.993 40.945 117.738 40.9675C115.447 40.9904 113.448 40.6979 111.742 40.0902C110.07 39.4821 108.603 38.5597 107.341 37.3228C106.079 36.1206 105.111 34.7072 104.435 33.0826C103.759 31.4234 103.41 29.4832 103.388 27.2621C103.364 24.8328 103.757 22.5382 104.569 20.3782C105.415 18.2178 106.611 16.349 108.157 14.7717C109.669 13.2642 111.376 12.1365 113.278 11.3887C115.214 10.6405 117.362 10.2546 119.722 10.2311ZM119.419 16.3774C118.1 16.3906 116.87 16.6458 115.73 17.1431C114.589 17.6404 113.607 18.3617 112.784 19.307C111.96 20.2524 111.329 21.3693 110.891 22.6579C110.487 23.9114 110.292 25.2843 110.307 26.7766C110.318 27.8872 110.468 28.9269 110.755 29.8959C111.077 30.8645 111.536 31.6929 112.133 32.3811C112.766 33.1731 113.553 33.79 114.495 34.2318C115.471 34.6386 116.618 34.8354 117.937 34.8222C119.221 34.8094 120.433 34.5717 121.574 34.1091C122.714 33.6118 123.713 32.873 124.571 31.8926C125.361 30.9823 125.975 29.9003 126.413 28.6464C126.852 27.3578 127.063 25.95 127.048 24.423C127.037 23.3472 126.871 22.325 126.549 21.3563C126.227 20.3877 125.784 19.5418 125.222 18.8185C124.555 18.0616 123.733 17.4624 122.757 17.021C121.816 16.5791 120.703 16.3646 119.419 16.3774Z" fill="#FFE500"/>
<path d="M140.796 10.958L147.719 10.8889L143.521 33.6299L154.349 33.5219L158.547 10.7809L165.471 10.7119L161.272 33.4528L165.645 33.4092L163.176 46.8659L156.409 46.9334L157.742 39.6314L135.461 39.8536L140.796 10.958Z" fill="#FFE500"/>
<path d="M173.077 10.636L180.001 10.567L176.642 28.7701L192.859 10.4387L199.782 10.3697L194.448 39.2653L187.524 39.3343L190.883 21.1312L174.666 39.4626L167.743 39.5316L173.077 10.636Z" fill="#FFE500"/>
<path d="M200.024 39.2097L205.359 10.314L212.282 10.245L209.811 23.4934L222.59 10.1422L230.815 10.0601L216.588 24.3629L226.105 38.9495L217.88 39.0316L209.517 25.2665L206.948 39.1406L200.024 39.2097Z" fill="#FFE500"/>
<path d="M251.017 9.85862L257.395 38.6374L250.315 38.708L246.099 17.9252L235.427 38.8565L227.618 38.9344L243.208 9.93651L251.017 9.85862Z" fill="#FFE500"/>
<path d="M1.791 88.0428L8.90296 49.4459L16.0348 49.3748L12.8719 66.3265L27.7476 49.2579L36.2849 49.1728L18.7256 68.6109L29.4332 87.7671L21.1041 87.8502L12.0342 71.0725L8.9228 87.9717L1.791 88.0428Z" fill="#FFE500"/>
<path d="M67.3615 58.5464L62.027 87.442L55.676 87.5053L55.9712 85.7843L55.8671 85.7854C55.0085 86.6964 53.8872 87.367 52.5031 87.7973C51.1195 88.2623 49.6468 88.5026 48.0851 88.5182C46.4539 88.5344 44.8376 88.2903 43.236 87.7856C41.6691 87.2806 40.2728 86.4789 39.047 85.3805C37.577 84.1456 36.434 82.6472 35.6181 80.8853C34.8366 79.0882 34.4515 77.0096 34.4626 74.6493C34.4381 72.1853 34.8315 69.8733 35.6429 67.7133C36.4888 65.5183 37.7368 63.6316 39.387 62.0532C40.8308 60.6505 42.4862 59.5928 44.3533 58.88C46.2205 58.1672 48.2299 57.8001 50.3816 57.7786C52.6721 57.7558 54.6367 58.118 56.2754 58.8652C57.9141 59.6124 59.244 60.7098 60.265 62.1574L60.3691 62.1563L61.0105 58.6097L67.3615 58.5464ZM50.4428 63.9213C47.8056 63.9824 45.6114 64.9587 43.8602 66.8504C42.1433 68.7071 41.3178 71.1969 41.3836 74.32C41.4082 76.784 42.0873 78.7556 43.421 80.2348C44.789 81.6789 46.6183 82.3895 48.9088 82.3666C51.581 82.34 53.7756 81.3983 55.4925 79.5417C57.2437 77.65 58.1043 75.1945 58.0742 72.1752C58.0489 69.6417 57.3347 67.6358 55.9317 66.1573C54.5629 64.6438 52.7333 63.8985 50.4428 63.9213Z" fill="#FFE500"/>
<path d="M74.4767 87.3178L70.5971 58.5141L77.9372 58.4409L79.9222 74.7686L87.7759 58.3428L93.5022 58.2856L95.9557 74.6087L103.497 58.1859L110.941 58.1117L97.3818 87.0894L91.3952 87.1491L88.8688 68.7443L80.4633 87.2581L74.4767 87.3178Z" fill="#FFE500"/>
<path d="M142.651 57.7954L137.316 86.691L130.965 86.7544L131.261 85.0334L131.157 85.0344C130.298 85.9454 129.177 86.616 127.793 87.0463C126.409 87.5113 124.936 87.7516 123.374 87.7672C121.743 87.7835 120.127 87.5393 118.525 87.0346C116.958 86.5296 115.562 85.7279 114.336 84.6295C112.866 83.3947 111.723 81.8963 110.908 80.1343C110.126 78.3373 109.741 76.2586 109.752 73.8984C109.727 71.4343 110.121 69.1223 110.932 66.9623C111.778 64.7673 113.026 62.8806 114.676 61.3023C116.12 59.8996 117.776 58.8418 119.643 58.129C121.51 57.4162 123.519 57.0491 125.671 57.0277C127.961 57.0048 129.926 57.367 131.565 58.1142C133.204 58.8615 134.533 59.9589 135.554 61.4064L135.658 61.4054L136.3 57.8588L142.651 57.7954ZM125.732 63.1704C123.095 63.2314 120.901 64.2077 119.15 66.0994C117.433 67.9561 116.607 70.446 116.673 73.569C116.698 76.0331 117.377 78.0047 118.71 79.4838C120.078 80.9279 121.908 81.6385 124.198 81.6157C126.87 81.589 129.065 80.6474 130.782 78.7907C132.533 76.899 133.394 74.4435 133.364 71.4242C133.338 68.8908 132.624 66.8848 131.221 65.4064C129.852 63.8929 128.023 63.1475 125.732 63.1704Z" fill="#FFE500"/>
<path d="M142.96 77.5759L149.884 77.5069C149.851 77.646 149.835 77.7677 149.836 77.8718C149.837 77.9759 149.837 78.0627 149.838 78.1321C149.849 79.1732 150.134 79.9687 150.695 80.5184C151.29 81.0678 152.074 81.3376 153.046 81.3279C154.018 81.3182 154.778 81.0156 155.327 80.4201C155.911 79.7895 156.199 79.0405 156.19 78.1728C156.184 77.5829 156.04 77.081 155.759 76.6673C155.511 76.2186 155.038 75.7374 154.339 75.2238C154.094 75.0874 153.85 74.951 153.606 74.8146C153.361 74.6435 152.837 74.319 152.034 73.8411C149.975 72.6815 148.557 71.4982 147.782 70.2912C147.04 69.0491 146.661 67.5951 146.645 65.9293C146.598 64.7497 146.778 63.6026 147.183 62.4879C147.623 61.3381 148.238 60.3601 149.028 59.554C149.852 58.6781 150.887 57.9909 152.131 57.4926C153.41 56.9939 154.866 56.7365 156.497 56.7202C157.85 56.7067 159.049 56.8856 160.094 57.257C161.139 57.6284 162.012 58.1403 162.713 58.7927C163.379 59.4802 163.891 60.3255 164.248 61.3285C164.64 62.3311 164.842 63.4571 164.854 64.7065C164.855 64.8106 164.839 64.9322 164.806 65.0714C164.807 65.1755 164.808 65.3143 164.81 65.4878L157.886 65.5569C157.886 65.4875 157.885 65.4007 157.884 65.2966C157.918 65.1921 157.934 65.0531 157.932 64.8796C157.926 64.3244 157.731 63.8577 157.345 63.4798C156.994 63.0668 156.506 62.8634 155.881 62.8697C155.152 62.8769 154.582 63.1082 154.17 63.5635C153.758 63.9841 153.555 64.5415 153.562 65.2356C153.535 66.0341 153.733 66.7263 154.155 67.3122C154.612 67.8629 155.591 68.5126 157.09 69.2612C159.359 70.4881 160.916 71.7568 161.762 73.0672C162.608 74.3777 163.057 75.9177 163.11 77.6873C163.124 79.1796 162.878 80.5531 162.37 81.8076C161.861 83.0275 161.125 84.0587 160.162 84.9013C159.233 85.7435 158.129 86.3793 156.849 86.8086C155.569 87.2378 154.131 87.4604 152.534 87.4764C151.007 87.4916 149.635 87.3144 148.416 86.9448C147.198 86.5751 146.186 86.0125 145.38 85.257C144.539 84.5018 143.906 83.6057 143.479 82.5687C143.086 81.4967 142.901 80.3011 142.922 78.982C142.92 78.7043 142.917 78.4614 142.915 78.2532C142.913 78.0103 142.928 77.7845 142.96 77.5759Z" fill="#FFE500"/>
<path d="M199.944 57.224L194.609 86.1196L188.259 86.1829L188.554 84.4619L188.45 84.463C187.591 85.3739 186.47 86.0446 185.086 86.4749C183.702 86.9399 182.229 87.1802 180.668 87.1957C179.036 87.212 177.42 86.9678 175.818 86.4632C174.252 85.9582 172.855 85.1565 171.63 84.058C170.159 82.8232 169.017 81.3248 168.201 79.5628C167.419 77.7658 167.034 75.6872 167.045 73.3269C167.021 70.8629 167.414 68.5509 168.225 66.3909C169.071 64.1958 170.319 62.3091 171.97 60.7308C173.413 59.3281 175.069 58.2703 176.936 57.5576C178.803 56.8448 180.812 56.4777 182.964 56.4562C185.255 56.4333 187.219 56.7955 188.858 57.5428C190.497 58.29 191.827 59.3874 192.847 60.835L192.952 60.8339L193.593 57.2873L199.944 57.224ZM183.025 62.5989C180.388 62.6599 178.194 63.6363 176.443 65.528C174.726 67.3846 173.9 69.8745 173.966 72.9976C173.991 75.4616 174.67 77.4332 176.003 78.9123C177.371 80.3564 179.201 81.0671 181.491 81.0442C184.164 81.0176 186.358 80.0759 188.075 78.2192C189.826 76.3275 190.687 73.872 190.657 70.8527C190.631 68.3193 189.917 66.3134 188.514 64.8349C187.145 63.3214 185.316 62.5761 183.025 62.5989Z" fill="#FFE500"/>
<path d="M200.136 86.0644L207.248 47.4675L214.171 47.3985L209.874 70.7131L221.608 57.0079L229.833 56.9258L216.807 71.5811L226.216 85.8043L217.991 85.8863L209.528 72.4867L207.059 85.9954L200.136 86.0644Z" fill="#FFE500"/>
<path d="M230.333 85.7632L235.667 56.8676L242.591 56.7986L237.256 85.6942L230.333 85.7632ZM236.259 53.5298L237.445 47.1663L244.368 47.0973L243.182 53.4607L236.259 53.5298Z" fill="#FFE500"/>
</svg>
