<svg width="244" height="169" viewBox="0 0 244 169" fill="none" xmlns="http://www.w3.org/2000/svg">
<path d="M28.8007 47.3886L37.098 2.35885L45.4184 2.27586L42.0758 20.3487L58.0486 20.1894L61.3912 2.11654L69.7116 2.03355L61.4144 47.0633L53.0939 47.1463L56.6078 27.9784L40.635 28.1377L37.1211 47.3056L28.8007 47.3886Z" fill="#FFE500"/>
<path d="M108.917 12.94L102.694 46.6515L95.2844 46.7254L95.6288 44.7176L95.5074 44.7188C94.5057 45.7816 93.1975 46.564 91.5827 47.066C89.9684 47.6086 88.2503 47.8889 86.4283 47.9071C84.5253 47.926 82.6396 47.6412 80.771 47.0524C78.943 46.4633 77.314 45.5279 75.8839 44.2464C74.1689 42.8058 72.8354 41.0576 71.8836 39.002C70.9718 36.9055 70.5225 34.4804 70.5355 31.7268C70.5068 28.8521 70.9658 26.1547 71.9125 23.6347C72.8993 21.0738 74.3553 18.8727 76.2806 17.0313C77.965 15.3948 79.8963 14.1608 82.0746 13.3292C84.2529 12.4976 86.5973 12.0693 89.1076 12.0443C91.7798 12.0176 94.0719 12.4402 95.9837 13.3119C97.8956 14.1837 99.4471 15.464 100.638 17.1528L100.76 17.1516L101.508 13.0139L108.917 12.94ZM89.179 19.2108C86.1023 19.2819 83.5424 20.421 81.4993 22.628C79.4962 24.7941 78.5331 27.6989 78.61 31.3425C78.6386 34.2172 79.4309 36.5174 80.9869 38.2431C82.5829 39.9279 84.717 40.7569 87.3893 40.7303C90.5069 40.6992 93.0673 39.6006 95.0703 37.4345C97.1134 35.2275 98.1174 32.3627 98.0823 28.8402C98.0528 25.8845 97.2196 23.5443 95.5827 21.8194C93.9858 20.0537 91.8513 19.1841 89.179 19.2108Z" fill="#FFE500"/>
<path d="M149.991 1.23281L148.18 8.41809L132.878 8.87441C130.854 8.93509 128.934 9.27818 127.118 9.90369C125.343 10.5288 123.793 11.3946 122.467 12.5011C121.343 13.4437 120.362 14.5265 119.524 15.7497C118.726 16.9319 118.11 18.1933 117.678 19.5339L117.8 19.5327C119.36 17.614 121.228 16.0971 123.403 14.9821C125.578 13.8266 128.042 13.2351 130.796 13.2077C133.144 13.1842 135.233 13.5076 137.062 14.1777C138.89 14.8479 140.52 15.8642 141.951 17.2267C143.342 18.63 144.391 20.2595 145.098 22.1151C145.845 23.9704 146.23 26.0316 146.253 28.299C146.28 31.0927 145.8 33.7295 144.813 36.2095C143.825 38.6489 142.469 40.7073 140.744 42.3847C139.1 43.9803 137.128 45.235 134.829 46.1488C132.57 47.0217 130.024 47.4722 127.19 47.5005C124.679 47.5255 122.429 47.1836 120.437 46.4745C118.487 45.7651 116.795 44.6685 115.363 43.1845C113.85 41.7014 112.678 39.8504 111.846 37.6316C111.014 35.4128 110.583 32.8053 110.553 29.8091C110.502 24.748 111.367 20.103 113.147 15.874C114.927 11.645 117.364 8.36102 120.459 6.02207C122.348 4.62647 124.423 3.59345 126.684 2.92302C128.985 2.21169 131.553 1.8014 134.386 1.69216L149.991 1.23281ZM129.41 20.3887C127.871 20.404 126.416 20.6818 125.045 21.2219C123.714 21.7615 122.588 22.5421 121.667 23.5636C120.745 24.5447 120.028 25.7666 119.517 27.2294C119.045 28.6514 118.817 30.1519 118.833 31.7309C118.845 32.9456 119.018 34.0574 119.352 35.0664C119.726 36.075 120.262 36.9605 120.958 37.7229C121.695 38.5659 122.592 39.2251 123.65 39.7005C124.747 40.1349 126.025 40.3449 127.483 40.3304C129.021 40.315 130.456 40.0375 131.787 39.4978C133.158 38.9577 134.325 38.1767 135.286 37.1548C136.168 36.2147 136.844 35.0337 137.316 33.6117C137.828 32.1894 138.097 30.6884 138.122 29.109C138.069 27.8947 137.855 26.7833 137.481 25.7747C137.146 24.7252 136.651 23.7988 135.995 22.9955C135.218 22.1934 134.28 21.5549 133.182 21.0799C132.125 20.6046 130.867 20.3742 129.41 20.3887Z" fill="#FFE500"/>
<path d="M168.474 11.2526C171.146 11.226 173.458 11.5876 175.409 12.3375C177.36 13.0469 179.071 14.1029 180.543 15.5055C181.974 16.9489 183.084 18.6386 183.873 20.5743C184.662 22.5101 185.068 24.6927 185.092 27.122C185.122 30.0372 184.643 32.7752 183.656 35.3361C182.669 37.897 181.294 40.0568 179.53 41.8156C177.725 43.6153 175.694 44.9516 173.435 45.8244C171.216 46.6564 168.791 47.0856 166.159 47.1118C163.487 47.1385 161.155 46.7973 159.164 46.0883C157.213 45.3789 155.502 44.3026 154.029 42.8596C152.558 41.457 151.428 39.8081 150.64 37.9128C149.851 35.977 149.444 33.7135 149.418 31.1222C149.389 28.288 149.849 25.6109 150.795 23.0909C151.783 20.5705 153.178 18.3902 154.982 16.55C156.746 14.7912 158.737 13.4756 160.956 12.6031C163.215 11.7303 165.721 11.2801 168.474 11.2526ZM168.12 18.4234C166.582 18.4387 165.147 18.7365 163.817 19.3166C162.486 19.8968 161.341 20.7383 160.38 21.8412C159.419 22.9441 158.683 24.2472 158.171 25.7506C157.7 27.213 157.473 28.8147 157.49 30.5557C157.503 31.8514 157.677 33.0644 158.013 34.1949C158.388 35.3249 158.924 36.2914 159.621 37.0943C160.359 38.0183 161.277 38.738 162.376 39.2535C163.514 39.728 164.853 39.9576 166.391 39.9423C167.889 39.9273 169.304 39.65 170.635 39.1103C171.965 38.5302 173.131 37.6682 174.132 36.5244C175.052 35.4624 175.769 34.2 176.281 32.7372C176.792 31.2338 177.039 29.5914 177.021 27.8099C177.008 26.5547 176.814 25.3621 176.439 24.2321C176.063 23.102 175.547 22.1151 174.891 21.2713C174.112 20.3882 173.154 19.6892 172.015 19.1741C170.917 18.6587 169.618 18.4084 168.12 18.4234Z" fill="#FFE500"/>
<path d="M184.762 57.0697L193.06 12.1007L200.47 12.0268L200.125 14.0346L200.247 14.0334C201.249 13.0111 202.537 12.2491 204.111 11.7475C205.685 11.2054 207.403 10.9048 209.265 10.8458C211.371 10.8248 213.277 11.1094 214.983 11.6998C216.73 12.2898 218.339 13.2253 219.81 14.5064C221.608 16.1487 222.942 18.0183 223.813 20.1152C224.685 22.2121 225.133 24.5158 225.158 27.0261C225.187 29.9413 224.708 32.6793 223.721 35.2402C222.734 37.7606 221.298 39.921 219.413 41.7215C217.728 43.358 215.757 44.5925 213.497 45.4249C211.279 46.2568 208.894 46.6856 206.343 46.711C203.954 46.7348 201.865 46.3912 200.077 45.6802C198.288 44.9692 196.819 43.8298 195.669 42.262L195.548 42.2632L192.84 56.9891L184.762 57.0697ZM208.122 18.0244C205.045 18.0551 202.505 19.1737 200.502 21.3803C198.54 23.5865 197.577 26.4711 197.612 30.0341C197.642 32.9898 198.435 35.3304 199.991 37.0561C201.587 38.7409 203.741 39.5697 206.454 39.5427C209.571 39.5116 212.132 38.413 214.135 36.2469C216.138 34.0808 217.122 31.2365 217.087 27.714C217.057 24.7178 216.223 22.3573 214.586 20.6324C212.989 18.8667 210.835 17.9973 208.122 18.0244Z" fill="#FFE500"/>
<path d="M2.29887 68.6686L26.5314 68.4269L25.206 75.6074L17.1285 75.6879L12.2303 102.219L4.1528 102.3L9.05099 75.7685L0.973493 75.8491L2.29887 68.6686Z" fill="#FFE500"/>
<path d="M60.8622 88.4929L34.2003 88.7588C34.291 89.7297 34.543 90.6383 34.9564 91.4845C35.3694 92.2902 35.9435 93.0134 36.6787 93.6539C37.4557 94.4156 38.3723 94.9733 39.4287 95.3272C40.485 95.6811 41.6813 95.8514 43.0174 95.8381C43.8676 95.8296 44.6969 95.7403 45.505 95.5703C46.3128 95.3598 47.079 95.0484 47.8038 94.6363C48.3678 94.3472 48.8705 93.998 49.3118 93.5887C49.7932 93.1384 50.2135 92.6483 50.5727 92.1184L59.6826 92.0275C58.9696 93.6138 58.093 95.0398 57.0528 96.3055C56.0531 97.5707 54.9904 98.6139 53.8648 99.435C52.3376 100.584 50.5645 101.452 48.5458 102.039C46.5679 102.666 44.3238 102.992 41.8135 103.017C39.3437 103.042 37.1739 102.699 35.3041 101.989C33.4753 101.319 31.8039 100.202 30.2901 98.6375C28.6953 97.0742 27.5238 95.3245 26.7756 93.3883C26.0675 91.4112 25.7026 89.3295 25.6807 87.1431C25.6513 84.1874 26.1502 81.4289 27.1774 78.8676C28.2047 76.3063 29.6004 74.1463 31.3645 72.3875C33.0886 70.6696 35.0801 69.3742 37.3389 68.5014C39.5978 67.6285 42.1849 67.1775 45.1001 67.1484C47.6508 67.123 49.9016 67.465 51.8523 68.1744C53.8027 68.8433 55.5345 69.9396 57.048 71.4632C58.4395 72.9476 59.4897 74.7188 60.1987 76.7768C60.948 78.8345 61.3345 81.0375 61.3579 83.3858C61.3668 84.2766 61.3147 85.1477 61.2017 85.9992C61.1292 86.8502 61.016 87.6815 60.8622 88.4929ZM34.8577 81.585L53.2598 81.4015C53.1282 80.3905 52.8151 79.442 52.3203 78.5561C51.8657 77.6293 51.3316 76.8653 50.7182 76.264C49.9425 75.6239 49.0469 75.1469 48.0314 74.8331C47.0561 74.4784 46.0218 74.3065 44.9286 74.3174C43.5925 74.3307 42.3191 74.5458 41.1085 74.9628C39.9379 75.339 38.931 75.8754 38.0876 76.5722C37.3243 77.1872 36.6637 77.9429 36.1058 78.8393C35.5474 79.6952 35.1314 80.6105 34.8577 81.585Z" fill="#FFE500"/>
<path d="M60.0619 101.742L75.3701 83.6712L67.1964 68.0213L76.3064 67.9305L81.0852 78.1477L89.2426 67.8014L98.7776 67.7063L84.672 84.5503L93.5865 101.408L84.1729 101.501L78.8961 90.0744L69.7184 101.646L60.0619 101.742Z" fill="#FFE500"/>
<path d="M103.307 67.6612L111.384 67.5806L109.078 79.9944L121.65 79.869L123.956 67.4552L132.033 67.3746L125.81 101.086L117.732 101.167L120.325 87.0494L107.753 87.1748L105.16 101.292L97.083 101.373L103.307 67.6612Z" fill="#FFE500"/>
<path d="M138.536 67.3098L146.614 67.2292L142.696 88.4662L161.615 67.0796L169.693 66.999L163.469 100.711L155.391 100.791L159.31 79.5541L140.39 100.941L132.313 101.021L138.536 67.3098Z" fill="#FFE500"/>
<path d="M169.975 100.646L176.198 66.9341L184.276 66.8535L181.393 82.31L196.301 66.7336L205.897 66.6379L189.299 83.3245L200.402 100.342L190.806 100.438L181.049 84.3786L178.052 100.565L169.975 100.646Z" fill="#FFE500"/>
<path d="M211.428 66.5827L219.506 66.5021L215.587 87.7392L234.507 66.3525L242.584 66.2719L236.361 99.9835L228.283 100.064L232.202 78.827L213.282 100.214L205.204 100.294L211.428 66.5827Z" fill="#FFE500"/>
<path d="M36.2944 156.644L62.0828 111.44L71.0106 111.351L80.3866 156.204L71.4588 156.294L69.1537 144.412L52.1485 144.581L45.7687 156.55L36.2944 156.644ZM56.14 136.767L67.9223 136.649L64.8471 120.645L56.14 136.767Z" fill="#FFE500"/>
<path d="M82.0312 167.425L90.3291 122.456L97.7386 122.382L97.3942 124.39L97.5156 124.389C98.5178 123.366 99.8059 122.604 101.38 122.103C102.954 121.561 104.672 121.26 106.534 121.201C108.639 121.18 110.545 121.465 112.252 122.055C113.999 122.645 115.608 123.58 117.078 124.862C118.876 126.504 120.211 128.373 121.082 130.47C121.954 132.567 122.402 134.871 122.427 137.381C122.456 140.296 121.977 143.034 120.99 145.595C120.003 148.116 118.567 150.276 116.682 152.077C114.997 153.713 113.025 154.948 110.766 155.78C108.547 156.612 106.163 157.041 103.612 157.066C101.223 157.09 99.1342 156.746 97.3454 156.035C95.5566 155.324 94.0875 154.185 92.9381 152.617L92.8166 152.618L90.1087 167.344L82.0312 167.425ZM105.391 128.38C102.314 128.41 99.7738 129.529 97.7711 131.735C95.809 133.942 94.8457 136.826 94.8812 140.389C94.9107 143.345 95.7034 145.686 97.2594 147.411C98.8554 149.096 101.01 149.925 103.723 149.898C106.84 149.867 109.4 148.768 111.404 146.602C113.407 144.436 114.39 141.592 114.355 138.069C114.325 135.073 113.492 132.712 111.855 130.988C110.258 129.222 108.104 128.352 105.391 128.38Z" fill="#FFE500"/>
<path d="M122.125 167.025L130.422 122.056L137.832 121.982L137.487 123.99L137.609 123.989C138.611 122.966 139.899 122.204 141.473 121.703C143.047 121.161 144.765 120.86 146.627 120.801C148.733 120.78 150.639 121.065 152.345 121.655C154.092 122.245 155.701 123.181 157.172 124.462C158.97 126.104 160.304 127.973 161.176 130.07C162.047 132.167 162.495 134.471 162.52 136.981C162.549 139.896 162.07 142.635 161.084 145.195C160.096 147.716 158.66 149.876 156.775 151.677C155.091 153.313 153.119 154.548 150.86 155.38C148.641 156.212 146.256 156.641 143.705 156.666C141.316 156.69 139.227 156.346 137.439 155.635C135.65 154.924 134.181 153.785 133.031 152.217L132.91 152.218L130.202 166.944L122.125 167.025ZM145.484 127.98C142.407 128.01 139.867 129.129 137.864 131.336C135.902 133.542 134.939 136.426 134.975 139.989C135.004 142.945 135.797 145.286 137.353 147.011C138.949 148.696 141.103 149.525 143.816 149.498C146.933 149.467 149.494 148.368 151.497 146.202C153.5 144.036 154.484 141.192 154.449 137.669C154.419 134.673 153.585 132.312 151.948 130.588C150.352 128.822 148.197 127.953 145.484 127.98Z" fill="#FFE500"/>
<path d="M164.292 155.368L172.59 110.338L180.667 110.257L172.37 155.287L164.292 155.368Z" fill="#FFE500"/>
<path d="M215.494 141.616L188.832 141.882C188.923 142.853 189.175 143.761 189.588 144.607C190.001 145.413 190.575 146.136 191.31 146.777C192.087 147.538 193.004 148.096 194.06 148.45C195.117 148.804 196.313 148.974 197.649 148.961C198.499 148.952 199.329 148.863 200.137 148.693C200.944 148.483 201.711 148.171 202.435 147.759C202.999 147.47 203.502 147.121 203.944 146.712C204.425 146.261 204.845 145.771 205.204 145.241L214.314 145.15C213.601 146.737 212.725 148.163 211.684 149.428C210.685 150.694 209.622 151.737 208.497 152.558C206.969 153.707 205.196 154.575 203.177 155.162C201.2 155.789 198.955 156.115 196.445 156.14C193.975 156.165 191.806 155.822 189.936 155.112C188.107 154.442 186.436 153.325 184.922 151.76C183.327 150.197 182.155 148.447 181.407 146.511C180.699 144.534 180.334 142.452 180.312 140.266C180.283 137.31 180.782 134.552 181.809 131.99C182.836 129.429 184.232 127.269 185.996 125.51C187.72 123.792 189.712 122.497 191.971 121.624C194.23 120.751 196.817 120.3 199.732 120.271C202.283 120.246 204.533 120.588 206.484 121.297C208.434 121.966 210.166 123.062 211.68 124.586C213.071 126.07 214.121 127.842 214.83 129.9C215.58 131.957 215.966 134.16 215.99 136.509C215.998 137.399 215.946 138.271 215.833 139.122C215.761 139.973 215.648 140.804 215.494 141.616ZM189.489 134.708L207.891 134.524C207.76 133.513 207.447 132.565 206.952 131.679C206.497 130.752 205.963 129.988 205.35 129.387C204.574 128.747 203.679 128.27 202.663 127.956C201.688 127.601 200.653 127.429 199.56 127.44C198.224 127.454 196.951 127.669 195.74 128.086C194.57 128.462 193.563 128.998 192.719 129.695C191.956 130.31 191.295 131.066 190.737 131.962C190.179 132.818 189.763 133.733 189.489 134.708Z" fill="#FFE500"/>
</svg>
