<svg width="326" height="133" viewBox="0 0 326 133" fill="none" xmlns="http://www.w3.org/2000/svg">
<path d="M90.0777 60.3757L100.746 2.48032L111.443 2.37362L107.146 25.6102L127.682 25.4053L131.98 2.16878L142.677 2.06208L132.01 59.9574L121.312 60.0641L125.83 35.4197L105.293 35.6246L100.775 60.269L90.0777 60.3757Z" fill="#FFE500"/>
<path d="M168.162 14.9275C171.597 14.8933 174.57 15.3582 177.078 16.3224C179.586 17.2345 181.786 18.5922 183.679 20.3955C185.519 22.2513 186.947 24.4237 187.961 26.9126C188.975 29.4015 189.497 32.2076 189.528 35.331C189.566 39.0791 188.95 42.5994 187.681 45.892C186.413 49.1846 184.644 51.9615 182.376 54.2228C180.056 56.5367 177.444 58.2547 174.54 59.377C171.687 60.4467 168.569 60.9984 165.185 61.0322C161.75 61.0665 158.752 60.6278 156.192 59.7162C153.684 58.8041 151.483 57.4204 149.59 55.565C147.698 53.7617 146.245 51.6417 145.232 49.2049C144.218 46.716 143.694 43.8057 143.661 40.4741C143.625 36.8301 144.215 33.3881 145.432 30.1481C146.701 26.9076 148.496 24.1044 150.815 21.7385C153.083 19.4772 155.643 17.7857 158.495 16.6639C161.4 15.5416 164.622 14.9628 168.162 14.9275ZM167.707 24.1471C165.729 24.1668 163.884 24.5496 162.174 25.2956C160.463 26.0415 158.99 27.1235 157.755 28.5415C156.52 29.9595 155.573 31.6349 154.916 33.5677C154.31 35.448 154.018 37.5074 154.04 39.7458C154.057 41.4116 154.281 42.9713 154.712 44.4247C155.195 45.8776 155.884 47.1203 156.779 48.1526C157.728 49.3405 158.909 50.2659 160.321 50.9286C161.785 51.5387 163.506 51.8339 165.484 51.8142C167.41 51.795 169.229 51.4385 170.94 50.7446C172.65 49.9987 174.149 48.8904 175.436 47.4198C176.62 46.0544 177.541 44.4313 178.199 42.5505C178.856 40.6176 179.174 38.506 179.151 36.2155C179.135 34.6017 178.885 33.0683 178.402 31.6154C177.919 30.1625 177.256 28.8936 176.412 27.8087C175.411 26.6733 174.179 25.7745 172.715 25.1123C171.302 24.4496 169.633 24.1279 167.707 24.1471Z" fill="#FFE500"/>
<path d="M199.773 16.0179L216.717 15.8489C219.164 15.8245 221.171 16.0648 222.738 16.5698C224.305 17.0748 225.614 17.8166 226.665 18.7953C227.401 19.5689 228.01 20.578 228.491 21.8227C229.023 23.0149 229.297 24.3397 229.312 25.7973C229.273 27.1513 229.025 28.4293 228.569 29.6313C228.164 30.7807 227.498 31.8546 226.571 32.853C225.798 33.6937 224.92 34.4314 223.937 35.0659C222.954 35.6484 221.917 36.0752 220.826 36.3464C222.862 36.8988 224.435 38.0024 225.545 39.6574C226.706 41.2597 227.298 43.1801 227.321 45.4185C227.292 47.7616 226.818 49.8228 225.898 51.6021C224.979 53.3814 223.666 54.8782 221.961 56.0927C220.513 57.0963 218.881 57.8675 217.064 58.4062C215.298 58.8924 213.193 59.1477 210.746 59.1721L191.771 59.3613L199.773 16.0179ZM208.529 24.8332L207.195 32.0311L214.223 31.961C215.056 32.0047 215.707 31.9462 216.173 31.7853C216.64 31.6245 217.08 31.3598 217.493 30.9912C217.906 30.6227 218.24 30.1768 218.495 29.6537C218.75 29.0784 218.874 28.4525 218.867 27.7757C218.811 27.3598 218.703 26.9964 218.544 26.6856C218.436 26.3223 218.25 25.9857 217.987 25.676C217.619 25.3673 217.201 25.1632 216.731 25.0638C216.313 24.9117 215.766 24.8131 215.088 24.7678L208.529 24.8332ZM205.488 40.9507L203.786 50.3389L211.282 50.2641C211.959 50.3094 212.609 50.2509 213.232 50.0885C213.855 49.874 214.451 49.5817 215.02 49.2116C215.744 48.7358 216.285 48.1578 216.642 47.4774C217.052 46.7444 217.251 45.8574 217.241 44.8162C217.234 44.1916 217.125 43.672 216.913 43.2577C216.7 42.7912 216.435 42.3774 216.119 42.0161C215.699 41.6558 215.228 41.4002 214.706 41.2492C214.183 41.0462 213.401 40.9239 212.36 40.8822L205.488 40.9507Z" fill="#FFE500"/>
<path d="M282.075 15.197L274.073 58.5404L264.547 58.6354L264.989 56.054L264.833 56.0555C263.545 57.422 261.863 58.4279 259.787 59.0734C257.712 59.7709 255.503 60.1313 253.16 60.1547C250.714 60.1791 248.289 59.8128 245.887 59.0558C243.536 58.2984 241.442 57.0958 239.603 55.4481C237.398 53.5959 235.684 51.3483 234.46 48.7053C233.288 46.0098 232.71 42.8918 232.727 39.3515C232.69 35.6554 233.28 32.1874 234.497 28.9474C235.766 25.6548 237.638 22.8248 240.113 20.4573C242.279 18.3532 244.762 16.7666 247.563 15.6974C250.363 14.6282 253.377 14.0776 256.605 14.0454C260.041 14.0111 262.988 14.5544 265.446 15.6752C267.904 16.7961 269.899 18.4422 271.43 20.6135L271.586 20.612L272.548 15.292L282.075 15.197ZM256.697 23.2594C252.741 23.351 249.45 24.8155 246.823 27.6531C244.248 30.438 243.009 34.1728 243.108 38.8574C243.145 42.5535 244.164 45.5109 246.164 47.7296C248.216 49.8957 250.96 50.9616 254.396 50.9274C258.404 50.8874 261.696 49.4749 264.271 46.6899C266.898 43.8524 268.189 40.1691 268.144 35.6402C268.106 31.84 267.035 28.8311 264.93 26.6134C262.877 24.3432 260.133 23.2252 256.697 23.2594Z" fill="#FFE500"/>
<path d="M324.175 14.7771L316.173 58.1205L305.788 58.2241L308.896 41.0126L293.372 58.3479L279.942 58.4819L295.868 42.392C294.566 42.3009 293.366 42.0265 292.268 41.5689C291.17 41.0592 290.252 40.4176 289.515 39.644C288.412 38.6659 287.567 37.4508 286.98 35.9989C286.393 34.5471 286.117 32.9359 286.151 31.1654C286.075 28.7713 286.573 26.4496 287.643 24.2003C288.766 21.9504 290.413 20.0337 292.584 18.4502C294.135 17.3414 295.87 16.4911 297.791 15.8993C299.763 15.3069 301.869 14.9996 304.107 14.9772L324.175 14.7771ZM310.086 34.9876L312.086 24.1127L303.106 24.2022C302.221 24.2631 301.39 24.4016 300.611 24.6176C299.884 24.8331 299.263 25.1516 298.746 25.5733C298.023 26.1532 297.458 26.8877 297.05 27.7768C296.642 28.6139 296.469 29.5007 296.53 30.4372C296.537 31.1139 296.647 31.7376 296.861 32.3081C297.075 32.8787 297.418 33.3438 297.89 33.7035C298.364 34.2194 298.966 34.5778 299.697 34.7788C300.428 34.9798 301.418 35.074 302.668 35.0615L310.086 34.9876Z" fill="#FFE500"/>
<path d="M9.91187 88.1955L24.9823 88.0452L30.7474 117.975L47.3929 87.8217L62.4633 87.6713L54.4616 131.015L44.0763 131.118L49.7796 100.058L32.5196 131.234L23.8521 131.32L17.9989 100.375L12.2955 131.435L1.91013 131.539L9.91187 88.1955Z" fill="#FFE500"/>
<path d="M114.099 87.1563L106.097 130.5L96.571 130.595L97.0138 128.013L96.8576 128.015C95.5697 129.381 93.8877 130.387 91.8117 131.033C89.7361 131.73 87.5271 132.091 85.1845 132.114C82.7379 132.138 80.3133 131.772 77.9109 131.015C75.5606 130.258 73.4661 129.055 71.6275 127.407C69.4224 125.555 67.7079 123.308 66.4842 120.665C65.3119 117.969 64.7342 114.851 64.7509 111.311C64.714 107.615 65.3042 104.147 66.5214 100.907C67.7901 97.6141 69.6621 94.7841 72.1375 92.4166C74.3031 90.3125 76.7863 88.7259 79.587 87.6567C82.3877 86.5875 85.4018 86.0369 88.6293 86.0047C92.065 85.9704 95.012 86.5137 97.4701 87.6345C99.9282 88.7554 101.923 90.4015 103.454 92.5728L103.611 92.5712L104.573 87.2513L114.099 87.1563ZM88.7212 95.2187C84.7654 95.3103 81.4741 96.7748 78.8472 99.6124C76.2719 102.397 75.0336 106.132 75.1324 110.817C75.1692 114.513 76.1879 117.47 78.1884 119.689C80.2404 121.855 82.9843 122.921 86.4201 122.887C90.4285 122.847 93.7203 121.434 96.2956 118.649C98.9225 115.812 100.213 112.128 100.168 107.599C100.13 103.799 99.059 100.79 96.9544 98.5727C94.9013 96.3025 92.1569 95.1845 88.7212 95.2187Z" fill="#FFE500"/>
<path d="M122.388 87.0736L132.774 86.97L126.476 121.081L139.516 120.951L145.814 86.84L156.199 86.7364L149.902 120.848L162.942 120.718L169.24 86.6063L179.625 86.5027L171.623 129.846L114.387 130.417L122.388 87.0736Z" fill="#FFE500"/>
<path d="M187.968 86.4195L198.353 86.3159L193.315 113.621L217.64 86.1235L228.026 86.02L220.024 129.363L209.639 129.467L214.677 102.162L190.352 129.659L179.966 129.763L187.968 86.4195Z" fill="#FFE500"/>
<path d="M236.39 85.9365L246.775 85.8329L243.811 101.794L259.975 101.632L262.939 85.6717L273.324 85.5681L265.323 128.912L254.937 129.015L258.271 110.864L242.107 111.025L238.774 129.176L228.388 129.28L236.39 85.9365Z" fill="#FFE500"/>
<path d="M324.945 85.0532L316.943 128.397L307.417 128.492L307.86 125.91L307.703 125.912C306.416 127.278 304.734 128.284 302.658 128.93C300.582 129.627 298.373 129.988 296.03 130.011C293.584 130.035 291.159 129.669 288.757 128.912C286.406 128.155 284.312 126.952 282.473 125.304C280.268 123.452 278.554 121.205 277.33 118.562C276.158 115.866 275.58 112.748 275.597 109.208C275.56 105.512 276.15 102.044 277.367 98.8036C278.636 95.5111 280.508 92.681 282.983 90.3136C285.149 88.2095 287.632 86.6228 290.433 85.5537C293.233 84.4845 296.248 83.9338 299.475 83.9016C302.911 83.8673 305.858 84.4106 308.316 85.5315C310.774 86.6523 312.769 88.2984 314.3 90.4697L314.456 90.4682L315.419 85.1483L324.945 85.0532ZM299.567 93.1157C295.611 93.2072 292.32 94.6717 289.693 97.5093C287.118 100.294 285.879 104.029 285.978 108.714C286.015 112.41 287.034 115.367 289.034 117.586C291.086 119.752 293.83 120.818 297.266 120.784C301.274 120.744 304.566 119.331 307.141 116.546C309.768 113.709 311.059 110.025 311.014 105.496C310.976 101.696 309.905 98.6873 307.8 96.4697C305.747 94.1994 303.003 93.0814 299.567 93.1157Z" fill="#FFE500"/>
</svg>
