<svg width="486" height="313" viewBox="0 0 486 313" fill="none" xmlns="http://www.w3.org/2000/svg">
<path d="M50.8925 12.9367C53.8381 14.6373 56.1172 16.5609 57.7298 18.7076C59.3775 20.8745 60.5294 23.2929 61.1855 25.9627C61.7863 28.6472 61.8448 31.2993 61.361 33.9188C60.8773 36.5383 59.9167 39.0929 58.4793 41.5825C56.6572 44.7385 54.3476 47.4026 51.5506 49.5748C48.8088 51.7323 45.8062 53.2482 42.5429 54.1226C39.3699 55.0024 36.2099 55.2119 33.063 54.7509C29.9714 54.2751 26.6722 53.0249 23.1656 51.0003C20.185 49.2795 17.8608 47.3531 16.1928 45.2213C14.5801 43.0746 13.4734 40.6589 12.8727 37.9743C12.2166 35.3046 12.1304 32.6599 12.6142 30.0405C13.133 27.4412 14.1213 24.8792 15.5789 22.3545C17.3808 19.2336 19.6526 16.5944 22.3943 14.437C25.1563 12.2445 28.1966 10.7036 31.5153 9.81441C34.633 8.94938 37.7478 8.73725 40.8596 9.178C44.0066 9.639 47.3509 10.8919 50.8925 12.9367ZM27.6313 44.6017C30.0509 45.9986 32.4052 46.8202 34.6943 47.0665C37.0387 47.2979 39.305 47.0167 41.4932 46.2229C43.4049 45.5031 45.1953 44.3861 46.8644 42.8718C48.5889 41.3426 50.018 39.5962 51.1517 37.6325C52.083 36.0195 52.7007 34.3423 53.0048 32.6009C53.3641 30.8447 53.3667 29.1396 53.0125 27.4857C52.6177 25.9019 51.8985 24.4347 50.8549 23.0841C49.8666 21.7186 48.3905 20.469 46.4268 19.3353C43.9722 17.9181 41.5727 17.0938 39.2283 16.8624C36.919 16.6512 34.6979 16.9351 32.5649 17.7141C30.598 18.4487 28.7698 19.5907 27.0804 21.14C25.4113 22.6544 24.02 24.3759 22.9065 26.3045C21.9549 27.9526 21.2995 29.6547 20.9401 31.411C20.601 33.1321 20.6362 34.8122 21.0457 36.4513C21.3851 38.0499 22.049 39.5319 23.0374 40.8974C24.081 42.248 25.6123 43.4828 27.6313 44.6017Z" fill="#FFE500"/>
<path d="M69.5626 37.6721L94.4419 52.0362L71.9373 77.8963L64.9417 73.8574L82.6531 53.5055L71.7651 47.2193L54.0537 67.5712L47.058 63.5322L69.5626 37.6721Z" fill="#FFE500"/>
<path d="M115.696 64.3073L105.026 97.0002L97.8728 92.8701L105.97 69.4922L82.8295 84.1849L74.9396 79.6297L107.806 59.7521L115.696 64.3073Z" fill="#FFE500"/>
<path d="M159.726 89.7277L137.221 115.588L130.804 111.883L132.122 110.329L132.016 110.269C130.613 110.674 129.089 110.682 127.443 110.293C125.778 109.939 124.156 109.307 122.578 108.396C120.93 107.444 119.451 106.24 118.142 104.783C116.867 103.346 115.94 101.712 115.361 99.8812C114.617 97.7685 114.358 95.5851 114.584 93.3311C114.865 91.0623 115.712 88.7458 117.124 86.3815C118.561 83.8918 120.328 81.8029 122.425 80.1147C124.577 78.4116 126.95 77.257 129.544 76.6508C131.827 76.0985 134.118 76.0183 136.416 76.4102C138.715 76.8022 140.951 77.6257 143.125 78.8809C145.439 80.2171 147.198 81.7467 148.4 83.4697C149.603 85.1927 150.288 87.0841 150.454 89.144L150.56 89.2048L153.308 86.0228L159.726 89.7277ZM139.541 85.0876C136.856 83.584 134.073 83.2628 131.191 84.1238C128.365 84.9701 126.058 86.9813 124.271 90.1575C122.834 92.6471 122.346 95.0306 122.808 97.3077C123.325 99.5701 124.741 101.369 127.055 102.706C129.755 104.264 132.519 104.621 135.345 103.775C138.227 102.913 140.548 100.958 142.309 97.9068C143.787 95.347 144.26 92.9083 143.728 90.5906C143.251 88.2582 141.856 86.4238 139.541 85.0876Z" fill="#FFE500"/>
<path d="M162.995 91.6153L183.982 103.732L179.189 109.24L172.193 105.201L154.482 125.553L147.486 121.514L165.197 101.162L158.202 97.1235L162.995 91.6153Z" fill="#FFE500"/>
<path d="M216.537 122.528L194.032 148.388L187.615 144.683L188.933 143.129L188.827 143.068C187.424 143.474 185.9 143.482 184.255 143.093C182.589 142.739 180.967 142.107 179.389 141.196C177.741 140.244 176.262 139.04 174.953 137.583C173.678 136.146 172.751 134.512 172.172 132.681C171.428 130.568 171.169 128.385 171.395 126.131C171.676 123.862 172.523 121.546 173.935 119.181C175.372 116.692 177.139 114.603 179.236 112.915C181.388 111.212 183.761 110.057 186.355 109.451C188.638 108.898 190.929 108.818 193.227 109.21C195.526 109.602 197.762 110.426 199.936 111.681C202.25 113.017 204.009 114.547 205.212 116.27C206.414 117.993 207.099 119.884 207.266 121.944L207.371 122.005L210.12 118.823L216.537 122.528ZM196.353 117.887C193.667 116.384 190.884 116.063 188.002 116.924C185.176 117.77 182.869 119.781 181.082 122.957C179.645 125.447 179.157 127.83 179.619 130.108C180.136 132.37 181.552 134.169 183.866 135.505C186.567 137.064 189.33 137.421 192.156 136.574C195.038 135.713 197.359 133.757 199.12 130.707C200.598 128.147 201.071 125.708 200.539 123.391C200.062 121.058 198.667 119.224 196.353 117.887Z" fill="#FFE500"/>
<path d="M247.304 139.029C249.619 140.365 251.425 141.852 252.724 143.49C254.042 145.093 254.979 146.873 255.532 148.829C256.031 150.8 256.127 152.819 255.822 154.887C255.516 156.955 254.756 159.041 253.541 161.145C252.084 163.67 250.279 165.783 248.127 167.486C245.975 169.19 243.692 170.35 241.278 170.967C238.81 171.598 236.381 171.716 233.992 171.318C231.658 170.906 229.352 170.042 227.073 168.726C224.758 167.39 222.924 165.91 221.57 164.287C220.252 162.684 219.326 160.887 218.792 158.896C218.238 156.94 218.104 154.945 218.389 152.912C218.695 150.845 219.495 148.689 220.791 146.444C222.208 143.99 223.965 141.918 226.062 140.23C228.194 138.562 230.504 137.395 232.993 136.728C235.407 136.111 237.79 135.991 240.144 136.368C242.533 136.765 244.92 137.652 247.304 139.029ZM243.353 145.023C242.02 144.254 240.634 143.78 239.193 143.603C237.752 143.426 236.338 143.568 234.95 144.029C233.561 144.49 232.265 145.237 231.06 146.272C229.91 147.291 228.9 148.555 228.03 150.062C227.382 151.185 226.915 152.318 226.628 153.461C226.377 154.625 226.347 155.73 226.538 156.776C226.704 157.947 227.128 159.033 227.812 160.036C228.551 161.023 229.587 161.902 230.919 162.671C232.217 163.42 233.575 163.901 234.996 164.113C236.436 164.29 237.879 164.141 239.322 163.665C240.655 163.219 241.914 162.497 243.098 161.498C244.303 160.463 245.351 159.175 246.242 157.632C246.87 156.545 247.309 155.419 247.56 154.255C247.812 153.091 247.869 151.979 247.733 150.919C247.513 149.763 247.043 148.673 246.324 147.65C245.641 146.648 244.65 145.772 243.353 145.023Z" fill="#FFE500"/>
<path d="M303.777 159.851L298.563 165.116L285.156 157.727C283.382 156.75 281.555 156.068 279.673 155.683C277.827 155.319 276.051 155.275 274.348 155.554C272.9 155.794 271.505 156.227 270.161 156.854C268.872 157.466 267.701 158.239 266.647 159.174L266.753 159.234C269.072 158.376 271.451 158.02 273.892 158.166C276.352 158.278 278.774 159.022 281.159 160.398C283.193 161.573 284.827 162.913 286.06 164.42C287.294 165.928 288.181 167.632 288.72 169.532C289.203 171.448 289.277 173.385 288.942 175.342C288.642 177.319 287.925 179.29 286.792 181.253C285.395 183.673 283.64 185.699 281.529 187.332C279.437 188.93 277.223 190.012 274.885 190.58C272.657 191.117 270.322 191.195 267.878 190.812C265.489 190.415 263.067 189.507 260.612 188.09C258.438 186.835 256.674 185.396 255.321 183.773C254.002 182.17 253.103 180.365 252.625 178.359C252.077 176.313 252.009 174.123 252.421 171.789C252.833 169.456 253.788 166.991 255.286 164.396C257.817 160.013 260.924 156.454 264.608 153.718C268.291 150.982 272.06 149.394 275.914 148.954C278.25 148.714 280.562 148.88 282.85 149.452C285.193 150.01 287.612 150.963 290.107 152.31L303.777 159.851ZM276.313 165.876C274.981 165.107 273.587 164.606 272.131 164.373C270.711 164.161 269.344 164.261 268.032 164.672C266.739 165.048 265.501 165.735 264.316 166.734C263.187 167.719 262.227 168.895 261.438 170.262C260.83 171.314 260.414 172.36 260.188 173.398C259.998 174.457 260.008 175.492 260.22 176.502C260.426 177.603 260.863 178.627 261.532 179.574C262.256 180.506 263.249 181.337 264.511 182.066C265.844 182.835 267.22 183.326 268.641 183.538C270.096 183.771 271.498 183.691 272.845 183.301C274.083 182.94 275.266 182.267 276.395 181.283C277.56 180.318 278.554 179.163 279.379 177.815C279.951 176.743 280.333 175.678 280.523 174.619C280.769 173.545 280.814 172.496 280.658 171.47C280.396 170.384 279.914 169.358 279.21 168.39C278.541 167.443 277.576 166.605 276.313 165.876Z" fill="#FFE500"/>
<path d="M320.938 182.804L328.723 187.298L282.243 212.291L274.458 207.796L289.44 199.825L299.162 170.231L306.684 174.574L299.532 195.342L320.938 182.804Z" fill="#FFE500"/>
<path d="M353.922 201.847L331.417 227.707L324.421 223.668L332.137 214.798L327.982 212.399C326.474 211.528 325.227 210.691 324.242 209.888C323.276 209.05 322.539 208.181 322.031 207.28C321.338 206.131 320.977 204.894 320.947 203.568C320.974 202.227 321.371 200.891 322.141 199.558C322.363 199.173 322.624 198.762 322.922 198.326C323.255 197.911 323.899 197.16 324.853 196.075L331.251 188.758L338.247 192.797L331.849 200.114C331.324 200.699 330.983 201.087 330.826 201.277C330.705 201.487 330.604 201.663 330.523 201.803C330.184 202.309 329.973 202.795 329.891 203.262C329.844 203.749 329.917 204.188 330.111 204.581C330.235 204.933 330.46 205.273 330.785 205.601C331.11 205.929 331.773 206.359 332.775 206.89L336.931 209.29L346.926 197.808L353.922 201.847Z" fill="#FFE500"/>
<path d="M375.463 237.848L352.372 224.517C351.956 225.399 351.711 226.309 351.637 227.248C351.582 228.152 351.709 229.066 352.016 229.992C352.298 231.043 352.803 231.989 353.533 232.831C354.262 233.673 355.206 234.428 356.363 235.096C357.099 235.521 357.859 235.866 358.641 236.131C359.443 236.361 360.262 236.482 361.095 236.496C361.728 236.534 362.338 236.489 362.926 236.361C363.57 236.218 364.181 236.01 364.76 235.736L372.65 240.292C371.229 241.295 369.749 242.077 368.21 242.637C366.705 243.218 365.26 243.576 363.873 243.71C361.974 243.923 360.006 243.768 357.969 243.247C355.947 242.781 353.849 241.92 351.675 240.665C349.536 239.43 347.842 238.032 346.593 236.469C345.36 234.962 344.489 233.15 343.981 231.033C343.403 228.876 343.284 226.774 343.625 224.726C344.021 222.664 344.765 220.686 345.858 218.792C347.336 216.232 349.169 214.111 351.356 212.428C353.543 210.746 355.844 209.596 358.257 208.979C360.615 208.376 362.989 208.274 365.378 208.671C367.766 209.069 370.223 209.996 372.748 211.454C374.957 212.729 376.721 214.169 378.04 215.772C379.379 217.339 380.312 219.164 380.84 221.246C381.284 223.232 381.287 225.291 380.851 227.423C380.449 229.576 379.662 231.669 378.487 233.703C378.042 234.475 377.554 235.198 377.024 235.874C376.528 236.57 376.008 237.228 375.463 237.848ZM356.587 218.674L372.524 227.876C372.925 226.938 373.138 225.963 373.163 224.948C373.242 223.919 373.171 222.99 372.949 222.16C372.607 221.214 372.078 220.348 371.363 219.561C370.704 218.76 369.901 218.086 368.954 217.539C367.797 216.871 366.591 216.409 365.337 216.152C364.138 215.88 362.998 215.83 361.917 216.001C360.947 216.142 359.994 216.457 359.058 216.945C358.142 217.398 357.318 217.974 356.587 218.674Z" fill="#FFE500"/>
<path d="M393.17 224.507L400.166 228.546L391.866 238.061L402.755 244.347L411.054 234.832L418.049 238.871L395.545 264.731L388.549 260.692L397.961 249.856L387.073 243.569L377.661 254.406L370.665 250.367L393.17 224.507Z" fill="#FFE500"/>
<path d="M423.681 242.123L430.677 246.162L416.502 262.454L443.669 253.663L450.665 257.702L428.16 283.562L421.164 279.523L435.34 263.231L408.172 272.022L401.177 267.983L423.681 242.123Z" fill="#FFE500"/>
<path d="M479.074 274.104L456.57 299.964L449.574 295.925L458.464 285.629L441.211 291.096L432.164 285.873L449.194 281.399C448.358 280.823 447.663 280.164 447.109 279.423C446.575 278.647 446.214 277.855 446.027 277.045C445.675 275.954 445.59 274.806 445.771 273.601C445.952 272.397 446.405 271.209 447.128 270.037C448.024 268.403 449.276 267.045 450.883 265.963C452.525 264.9 454.386 264.268 456.466 264.067C457.943 263.937 459.442 264.055 460.962 264.418C462.517 264.802 464.049 265.429 465.556 266.299L479.074 274.104ZM461.644 282.064L467.285 275.573L461.237 272.081C460.62 271.772 460.009 271.535 459.402 271.372C458.83 271.229 458.287 271.196 457.775 271.274C457.061 271.377 456.392 271.645 455.767 272.079C455.163 272.478 454.696 273.003 454.367 273.655C454.103 274.111 453.931 274.572 453.848 275.039C453.766 275.505 453.811 275.953 453.985 276.38C454.098 276.913 454.36 277.391 454.77 277.815C455.18 278.239 455.806 278.694 456.647 279.179L461.644 282.064Z" fill="#FFE500"/>
</svg>
