<svg width="463" height="124" viewBox="0 0 463 124" fill="none" xmlns="http://www.w3.org/2000/svg">
<path d="M30.2034 0.589271C34.1232 0.550174 37.5124 1.12306 40.371 2.30794C43.2763 3.49236 45.837 5.21691 48.053 7.48158C50.2229 9.79339 51.8355 12.3908 52.891 15.2737C53.9465 18.1567 54.4907 21.2547 54.5238 24.5679C54.5657 28.7677 53.8355 32.7652 52.3333 36.5603C50.8772 40.3084 48.7864 43.5727 46.0606 46.3534C43.4278 49.0865 40.4148 51.1466 37.0218 52.5338C33.675 53.874 29.6684 54.5673 25.002 54.6138C21.0355 54.6534 17.5999 54.1043 14.695 52.9666C11.8364 51.7817 9.32217 50.0333 7.15234 47.7215C4.93631 45.4568 3.30055 42.883 2.24508 40.0001C1.23627 37.1167 0.715111 33.995 0.681599 30.6352C0.640174 26.4821 1.34747 22.5315 2.8035 18.7835C4.25905 14.9888 6.3728 11.6775 9.14473 8.84972C11.7314 6.16378 14.6979 4.12743 18.0442 2.74065C21.4372 1.35341 25.4903 0.636281 30.2034 0.589271ZM25.6826 45.6466C28.9024 45.6145 31.7202 45.0497 34.1361 43.9522C36.5981 42.8076 38.6822 41.2001 40.3883 39.1296C41.8634 37.2948 42.9853 35.1368 43.7539 32.6557C44.5687 30.1275 44.9631 27.5567 44.937 24.9435C44.9156 22.797 44.5454 20.7706 43.8263 18.8643C43.1535 16.9109 42.1566 15.2174 40.8355 13.7839C39.5154 12.4437 37.9417 11.4093 36.1143 10.6808C34.3332 9.90521 32.136 9.53044 29.5228 9.55651C26.2563 9.58909 23.392 10.1777 20.93 11.3223C18.5146 12.4664 16.477 14.0502 14.8171 16.0735C13.2958 17.9554 12.151 20.1603 11.3829 22.6881C10.6142 25.1692 10.2427 27.693 10.2683 30.2596C10.2902 32.4528 10.6376 34.5261 11.3104 36.4795C11.9828 38.3862 13.0026 40.0328 14.3698 41.4192C15.6437 42.8066 17.1713 43.8881 18.9524 44.6637C20.7798 45.3922 23.0232 45.7198 25.6826 45.6466ZM53.6662 66.0185L63.2298 14.1905L71.7693 14.1054L71.3724 16.4194L71.5124 16.418C72.6674 15.2398 74.152 14.3616 75.9663 13.7835C77.7802 13.1587 79.7602 12.8123 81.9063 12.7442C84.3328 12.72 86.5295 13.0481 88.4964 13.7285C90.51 14.4085 92.3641 15.4867 94.0589 16.9632C96.1313 18.856 97.6695 21.0107 98.6736 23.4275C99.6778 25.8443 100.194 28.4992 100.223 31.3924C100.257 34.7523 99.7048 37.9079 98.5675 40.8594C97.4298 43.7642 95.7745 46.2542 93.6018 48.3293C91.6605 50.2154 89.3879 51.6382 86.784 52.5975C84.2268 53.5564 81.4782 54.0505 78.5384 54.0798C75.7852 54.1073 73.3778 53.7113 71.3162 52.8918C69.2545 52.0723 67.5614 50.7592 66.2366 48.9523L66.0966 48.9537L62.9757 65.9257L53.6662 66.0185ZM80.5887 21.0177C77.0422 21.0531 74.1149 22.3424 71.8069 24.8855C69.5454 27.4282 68.4352 30.7528 68.4762 34.8592C68.5101 38.2657 69.4238 40.9634 71.217 42.9523C73.0565 44.8941 75.5395 45.8493 78.666 45.8182C82.2591 45.7823 85.21 44.5162 87.5185 42.0197C89.8271 39.5232 90.9611 36.2451 90.9206 32.1853C90.8862 28.7321 89.9256 26.0115 88.0391 24.0236C86.1987 21.9885 83.7152 20.9866 80.5887 21.0177ZM109.438 13.7296L131.417 13.5104L129.89 21.7861L117.22 21.9124L111.575 52.4903L102.266 52.5831L109.438 13.7296ZM174.807 13.0776L167.634 51.9311L159.095 52.0163L159.491 49.7022L159.351 49.7036C158.197 50.9285 156.689 51.8303 154.828 52.4089C152.968 53.0341 150.987 53.3572 148.888 53.3782C146.694 53.4 144.521 53.0717 142.367 52.3931C140.261 51.7141 138.383 50.6361 136.735 49.1592C134.758 47.4988 133.221 45.484 132.124 43.1148C131.074 40.6985 130.556 37.9036 130.571 34.7299C130.538 31.4167 131.067 28.308 132.158 25.4036C133.295 22.4521 134.973 19.9153 137.192 17.793C139.133 15.9069 141.359 14.4846 143.87 13.5262C146.38 12.5678 149.082 12.0742 151.976 12.0453C155.055 12.0146 157.697 12.5016 159.9 13.5063C162.104 14.5111 163.892 15.9866 165.265 17.933L165.405 17.9316L166.267 13.1628L174.807 13.0776ZM152.058 20.3049C148.512 20.3869 145.561 21.6998 143.207 24.2434C140.898 26.7398 139.788 30.0878 139.877 34.2871C139.91 37.6002 140.823 40.2513 142.616 42.2402C144.456 44.1819 146.915 45.1374 149.995 45.1067C153.588 45.0709 156.539 43.8047 158.848 41.3082C161.202 38.7646 162.36 35.4629 162.319 31.4031C162.285 27.9966 161.325 25.2994 159.438 23.3114C157.598 21.2763 155.138 20.2742 152.058 20.3049ZM182.238 13.0035L191.547 12.9107L188.89 27.2179L203.379 27.0734L206.036 12.7661L215.346 12.6733L208.173 51.5268L198.863 51.6196L201.851 35.349L187.362 35.4935L184.374 51.7641L175.065 51.857L182.238 13.0035ZM222.841 12.5985L232.15 12.5057L227.634 36.9819L249.44 12.3332L258.749 12.2404L251.576 51.0938L242.267 51.1867L246.783 26.7104L224.978 51.3591L215.668 51.452L222.841 12.5985ZM271.331 23.5954L262.022 23.6883C262.144 21.9603 262.595 20.2991 263.372 18.7046C264.15 17.1101 265.186 15.723 266.481 14.5434C267.869 13.3161 269.54 12.4127 271.494 11.8332C273.494 11.2066 275.498 10.8599 277.504 10.7932C279.604 10.7723 281.427 11.0575 282.973 11.6487C284.565 12.1929 285.879 12.9265 286.915 13.8495C287.857 14.7735 288.569 15.8865 289.048 17.1884C289.574 18.4432 289.868 19.7937 289.929 21.2398C289.953 23.6664 289.273 25.7266 287.89 27.4205C286.554 29.1139 284.769 30.2984 282.535 30.9741C284.081 31.5187 285.304 32.4632 286.204 33.8076C287.103 35.1054 287.587 36.7573 287.653 38.7634C287.675 40.91 287.251 42.8509 286.381 44.5864C285.558 46.2747 284.266 47.7576 282.506 49.0353C281.069 50.0763 279.537 50.8383 277.908 51.3212C276.28 51.8508 274.533 52.1249 272.666 52.1435C270.893 52.1612 269.257 51.9675 267.76 51.5624C266.263 51.1574 264.95 50.5404 263.821 49.7116C262.365 48.6995 261.231 47.3807 260.422 45.7553C259.658 44.0829 259.266 42.1967 259.245 40.0968C259.242 39.7235 259.238 39.3735 259.235 39.0469C259.231 38.6735 259.274 38.2998 259.364 37.9255L268.673 37.8327C268.628 38.0198 268.607 38.2067 268.609 38.3933C268.611 38.58 268.613 38.8366 268.616 39.1633C268.631 40.6565 269.063 41.819 269.911 42.6505C270.806 43.4817 271.954 43.8902 273.354 43.8763C274.101 43.9155 274.776 43.8154 275.381 43.576C275.985 43.29 276.517 42.9113 276.979 42.44C277.395 41.9692 277.716 41.4293 277.943 40.8203C278.217 40.2109 278.351 39.5329 278.343 38.7863C278.337 38.1796 278.215 37.6441 277.977 37.1798C277.785 36.6684 277.524 36.2276 277.194 35.8576C276.864 35.5808 276.489 35.3746 276.068 35.2388C275.693 35.1025 275.156 35.0379 274.456 35.0448L272.076 35.0686L273.539 27.3536L276.059 27.3285C276.759 27.3215 277.388 27.2452 277.947 27.0996C278.552 26.9536 279.063 26.7151 279.479 26.3843C279.943 26.053 280.312 25.6293 280.587 25.1132C280.861 24.5504 280.995 23.8957 280.987 23.1491C280.981 22.5425 280.882 21.9834 280.691 21.472C280.499 20.9605 280.238 20.5198 279.907 20.1497C279.531 19.8268 279.062 19.5748 278.5 19.3937C277.937 19.166 277.283 19.0558 276.536 19.0633C275.743 19.0712 275.067 19.1713 274.509 19.3635C273.998 19.5553 273.534 19.8166 273.117 20.1475C272.608 20.5726 272.193 21.09 271.872 21.6999C271.552 22.3098 271.371 22.9417 271.331 23.5954ZM337.221 11.4577L330.048 50.3111L321.508 50.3963L321.905 48.0822L321.765 48.0836C320.611 49.3085 319.103 50.2103 317.242 50.7889C315.381 51.4141 313.401 51.7372 311.301 51.7582C309.108 51.7801 306.935 51.4517 304.781 50.7732C302.674 50.0941 300.797 49.0161 299.149 47.5392C297.172 45.8788 295.635 43.864 294.538 41.4949C293.487 39.0786 292.969 36.2836 292.984 33.1099C292.951 29.7968 293.48 26.688 294.572 23.7836C295.709 20.8322 297.387 18.2953 299.606 16.1731C301.547 14.2869 303.773 12.8647 306.284 11.9062C308.794 10.9478 311.496 10.4542 314.389 10.4253C317.469 10.3946 320.111 10.8816 322.314 11.8864C324.518 12.8911 326.306 14.3667 327.679 16.3131L327.819 16.3117L328.681 11.5428L337.221 11.4577ZM314.472 18.6849C310.926 18.767 307.975 20.0798 305.621 22.6234C303.312 25.1199 302.202 28.4678 302.291 32.6671C302.324 35.9803 303.237 38.6313 305.03 40.6202C306.869 42.5619 309.329 43.5174 312.409 43.4867C316.002 43.4509 318.953 42.1847 321.262 39.6882C323.616 37.1446 324.773 33.8429 324.733 29.7831C324.699 26.3766 323.739 23.6794 321.852 21.6915C320.012 19.6564 317.552 18.6542 314.472 18.6849ZM344.651 11.3835L353.961 11.2907L348.316 41.8685L362.875 41.7233L368.52 11.1455L377.83 11.0526L372.184 41.6304L378.064 41.5718L374.744 59.6658L365.645 59.7566L367.437 49.9382L337.478 50.237L344.651 11.3835ZM388.057 10.9506L397.367 10.8577L392.851 35.334L414.656 10.6853L423.966 10.5924L416.793 49.4459L407.483 49.5388L411.999 25.0625L390.194 49.7112L380.884 49.8041L388.057 10.9506ZM461.772 10.2153L454.599 49.0688L445.289 49.1617L448.076 33.7331L434.16 49.2727L422.121 49.3928L436.398 34.9697C435.23 34.888 434.154 34.642 433.17 34.2318C432.185 33.7749 431.363 33.1998 430.703 32.5063C429.714 31.6295 428.956 30.5403 428.43 29.2388C427.904 27.9374 427.656 26.4931 427.687 24.906C427.619 22.7599 428.065 20.6787 429.024 18.6624C430.031 16.6456 431.507 14.9274 433.453 13.5079C434.843 12.514 436.399 11.7518 438.121 11.2213C439.889 10.6903 441.776 10.4148 443.783 10.3948L461.772 10.2153ZM449.142 28.3322L450.935 18.5838L442.885 18.6641C442.092 18.7187 441.347 18.8428 440.649 19.0365C439.997 19.2296 439.44 19.5152 438.977 19.8932C438.329 20.413 437.822 21.0714 437.457 21.8684C437.091 22.6188 436.936 23.4137 436.991 24.2532C436.997 24.8598 437.096 25.4189 437.287 25.9303C437.479 26.4418 437.787 26.8587 438.21 27.1812C438.635 27.6436 439.174 27.9649 439.83 28.1451C440.485 28.3252 441.372 28.4097 442.492 28.3985L449.142 28.3322ZM187.164 102.139L197.244 102.038C195.75 106.673 193.195 110.176 189.578 112.545C185.961 114.868 181.75 116.054 176.943 116.101C173.909 116.085 171.292 115.691 169.091 114.92C166.89 114.195 164.941 112.978 163.244 111.268C161.548 109.651 160.222 107.728 159.266 105.497C158.357 103.22 157.911 100.611 157.928 97.6702C157.849 94.4041 158.355 91.3189 159.446 88.4146C160.584 85.5098 162.216 82.9967 164.341 80.8754C166.374 78.8017 168.669 77.2854 171.226 76.3265C173.83 75.3205 176.858 74.8002 180.311 74.7658C185.584 74.7132 189.774 76.0015 192.88 78.6306C195.986 81.2131 197.933 84.5772 198.721 88.7229L188.502 88.8248C187.876 86.9643 186.789 85.5284 185.238 84.5171C183.688 83.5059 181.863 83.0107 179.763 83.0317C177.897 83.0503 176.15 83.4177 174.524 84.134C172.944 84.8031 171.6 85.7732 170.493 87.0443C169.385 88.2688 168.536 89.724 167.946 91.41C167.403 93.0955 167.165 94.9179 167.231 96.8774C167.249 98.6506 167.498 100.258 167.979 101.7C168.506 103.095 169.218 104.231 170.113 105.109C170.962 106.034 171.973 106.724 173.144 107.179C174.315 107.634 175.717 107.853 177.351 107.837C179.637 107.814 181.639 107.328 183.356 106.377C185.074 105.426 186.343 104.014 187.164 102.139ZM208.158 75.7481L223.347 75.5966C225.54 75.5747 227.339 75.7901 228.744 76.2428C230.148 76.6955 231.321 77.3605 232.264 78.2378C232.924 78.9313 233.47 79.8359 233.901 80.9516C234.378 82.0202 234.623 83.2079 234.636 84.5145C234.602 85.7282 234.38 86.8738 233.971 87.9513C233.607 88.9816 233.01 89.9443 232.179 90.8393C231.487 91.5929 230.7 92.2541 229.819 92.8229C228.937 93.3451 228.008 93.7277 227.03 93.9708C228.855 94.4659 230.265 95.4553 231.26 96.9387C232.301 98.3751 232.832 100.097 232.852 102.103C232.826 104.203 232.401 106.051 231.577 107.646C230.753 109.241 229.576 110.583 228.047 111.672C226.749 112.571 225.286 113.262 223.657 113.745C222.075 114.181 220.187 114.41 217.994 114.432L200.985 114.602L208.158 75.7481ZM216.007 83.6502L214.811 90.1025L221.111 90.0396C221.858 90.0788 222.441 90.0264 222.859 89.8822C223.278 89.738 223.672 89.5007 224.042 89.1704C224.412 88.84 224.712 88.4403 224.94 87.9713C225.169 87.4557 225.28 86.8946 225.274 86.2879C225.223 85.9151 225.127 85.5894 224.984 85.3108C224.887 84.985 224.721 84.6834 224.485 84.4057C224.155 84.129 223.78 83.946 223.359 83.8569C222.984 83.7206 222.494 83.6322 221.886 83.5916L216.007 83.6502ZM213.281 98.0981L211.755 106.514L218.474 106.447C219.081 106.487 219.664 106.435 220.223 106.289C220.781 106.097 221.315 105.835 221.825 105.503C222.474 105.077 222.959 104.559 223.28 103.949C223.646 103.292 223.825 102.497 223.816 101.563C223.81 101.003 223.712 100.538 223.522 100.166C223.331 99.748 223.094 99.377 222.811 99.0531C222.434 98.7302 222.012 98.5011 221.544 98.3657C221.075 98.1837 220.374 98.074 219.44 98.0367L213.281 98.0981ZM281.934 75.0122L274.761 113.866L266.221 113.951L266.618 111.637L266.478 111.638C265.324 112.863 263.816 113.765 261.955 114.343C260.095 114.969 258.114 115.292 256.015 115.313C253.821 115.335 251.648 115.006 249.494 114.328C247.388 113.649 245.51 112.571 243.862 111.094C241.885 109.433 240.348 107.419 239.251 105.049C238.201 102.633 237.683 99.8382 237.698 96.6645C237.665 93.3514 238.194 90.2426 239.285 87.3382C240.422 84.3867 242.1 81.8499 244.319 79.7276C246.26 77.8415 248.486 76.4192 250.997 75.4608C253.507 74.5024 256.209 74.0088 259.102 73.9799C262.182 73.9492 264.824 74.4362 267.027 75.4409C269.231 76.4457 271.019 77.9213 272.392 79.8677L272.532 79.8663L273.394 75.0974L281.934 75.0122ZM259.185 82.2395C255.639 82.3215 252.688 83.6344 250.334 86.178C248.025 88.6745 246.915 92.0224 247.004 96.2217C247.037 99.5349 247.95 102.186 249.743 104.175C251.583 106.117 254.042 107.072 257.122 107.041C260.715 107.005 263.666 105.739 265.975 103.243C268.329 100.699 269.487 97.3975 269.446 93.3377C269.412 89.9312 268.452 87.234 266.565 85.246C264.725 83.211 262.265 82.2088 259.185 82.2395ZM313.653 74.6959L322.147 105.133L326.767 105.087L323.447 123.181L314.348 123.271L316.14 113.453L288.281 113.731L286.489 123.549L277.39 123.64L280.709 105.546L285.329 105.5L303.154 74.8006L313.653 74.6959ZM295.829 105.395L312.348 105.23L306.971 85.543L295.829 105.395ZM336.94 74.4636L346.25 74.3707L343.725 87.9766L350.655 87.9075C352.569 87.935 354.298 88.1978 355.843 88.6958C357.434 89.1466 358.772 89.8799 359.855 90.8959C360.798 91.8665 361.533 93.0492 362.061 94.444C362.635 95.8384 362.93 97.3522 362.946 98.9854C362.919 100.946 362.541 102.816 361.812 104.597C361.083 106.331 359.978 107.882 358.498 109.25C357.111 110.524 355.557 111.496 353.837 112.167C352.117 112.791 349.973 113.116 347.407 113.141L329.767 113.317L336.94 74.4636ZM342.198 96.2522L340.604 104.949L347.674 104.878C348.421 104.871 349.143 104.793 349.842 104.646C350.54 104.453 351.121 104.214 351.585 103.929C352.281 103.502 352.789 102.96 353.109 102.304C353.429 101.647 353.608 100.899 353.646 100.058C353.639 99.3116 353.516 98.7295 353.279 98.3118C353.088 97.847 352.78 97.4301 352.356 97.061C351.934 96.7852 351.442 96.5801 350.88 96.4456C350.365 96.2641 349.734 96.1771 348.987 96.1845L342.198 96.2522ZM413.214 60.6822L411.126 68.9634L393.491 69.4893C391.158 69.5592 388.945 69.9547 386.852 70.6756C384.806 71.396 383.019 72.3939 381.492 73.6692C380.196 74.7555 379.065 76.0035 378.099 77.4132C377.179 78.7758 376.47 80.2296 375.972 81.7746L376.112 81.7733C377.91 79.5619 380.063 77.8137 382.57 76.5286C385.077 75.1968 387.917 74.5152 391.09 74.4835C393.797 74.4565 396.204 74.8292 398.312 75.6015C400.42 76.3739 402.298 77.5452 403.947 79.1155C405.55 80.7329 406.759 82.611 407.574 84.7496C408.435 86.8878 408.879 89.2635 408.905 91.8767C408.937 95.0965 408.384 98.1355 407.246 100.994C406.107 103.805 404.544 106.178 402.556 108.111C400.661 109.95 398.389 111.396 395.739 112.449C393.136 113.455 390.201 113.974 386.934 114.007C384.041 114.036 381.447 113.642 379.152 112.824C376.904 112.007 374.954 110.743 373.304 109.033C371.56 107.323 370.209 105.19 369.25 102.633C368.291 100.076 367.794 97.0703 367.76 93.6171C367.702 87.7841 368.698 82.4306 370.75 77.5565C372.801 72.6825 375.61 68.8976 379.177 66.2019C381.355 64.5934 383.746 63.4029 386.352 62.6302C389.004 61.8103 391.963 61.3375 395.228 61.2116L413.214 60.6822ZM389.493 82.7598C387.72 82.7775 386.043 83.0976 384.462 83.7201C382.928 84.3421 381.63 85.2417 380.569 86.419C379.507 87.5497 378.681 88.958 378.091 90.644C377.547 92.2828 377.284 94.0122 377.303 95.8321C377.317 97.232 377.516 98.5134 377.901 99.6763C378.333 100.839 378.949 101.859 379.752 102.738C380.601 103.71 381.636 104.469 382.854 105.017C384.119 105.518 385.592 105.76 387.272 105.743C389.045 105.725 390.699 105.406 392.233 104.784C393.813 104.161 395.158 103.261 396.266 102.083C397.282 101 398.062 99.6386 398.605 97.9997C399.196 96.3604 399.505 94.6306 399.534 92.8102C399.473 91.4107 399.227 90.1298 398.795 88.9674C398.41 87.7578 397.839 86.6901 397.083 85.7643C396.187 84.8398 395.106 84.1039 393.841 83.5565C392.622 83.0086 391.173 82.7431 389.493 82.7598ZM418.079 73.6543L427.388 73.5614L424.864 87.1673L431.794 87.0982C433.707 87.1257 435.437 87.3885 436.982 87.8865C438.573 88.3373 439.91 89.0706 440.994 90.0865C441.937 91.0572 442.672 92.2399 443.199 93.6347C443.773 95.0291 444.068 96.5429 444.085 98.1761C444.058 100.136 443.679 102.007 442.951 103.788C442.221 105.522 441.117 107.073 439.637 108.441C438.249 109.715 436.696 110.687 434.976 111.358C433.255 111.981 431.112 112.306 428.545 112.332L410.906 112.508L418.079 73.6543ZM445.904 112.159L453.077 73.3052L462.387 73.2123L455.214 112.066L445.904 112.159ZM423.336 95.4429L421.743 104.139L428.813 104.069C429.559 104.061 430.282 103.984 430.98 103.837C431.679 103.643 432.26 103.404 432.723 103.12C433.419 102.693 433.927 102.151 434.247 101.494C434.567 100.838 434.747 100.089 434.785 99.2489C434.777 98.5023 434.655 97.9202 434.417 97.5025C434.226 97.0377 433.919 96.6208 433.495 96.2516C433.072 95.9758 432.58 95.7707 432.019 95.6363C431.504 95.4548 430.873 95.3678 430.126 95.3752L423.336 95.4429Z" fill="#FFE500"/>
</svg>
