<svg width="655" height="182" viewBox="0 0 655 182" fill="none" xmlns="http://www.w3.org/2000/svg">
<path d="M2.98312 77.4543L16.0217 6.6933L67.2718 6.18211L54.2332 76.9431L41.1582 77.0735L51.9327 18.5523L26.8326 18.8027L16.0581 77.3239L2.98312 77.4543Z" fill="#FFE500"/>
<path d="M98.4191 21.9066C102.618 21.8647 106.251 22.4329 109.317 23.6114C112.383 24.7261 115.072 26.3856 117.384 28.5896C119.634 30.8579 121.379 33.513 122.618 36.555C123.857 39.5969 124.496 43.0266 124.534 46.8441C124.58 51.4252 123.827 55.7278 122.277 59.752C120.726 63.7763 118.565 67.1703 115.792 69.9341C112.957 72.7622 109.765 74.862 106.215 76.2337C102.728 77.5411 98.9171 78.2155 94.7815 78.2567C90.5822 78.2986 86.9181 77.7625 83.789 76.6483C80.7236 75.5335 78.0342 73.8423 75.7209 71.5746C73.4081 69.3706 71.6324 66.7794 70.3937 63.8011C69.1544 60.7591 68.5144 57.2022 68.4738 53.1301C68.4294 48.6764 69.151 44.4695 70.6386 40.5095C72.1899 36.5489 74.3829 33.1227 77.2174 30.231C79.9896 27.4672 83.1188 25.3998 86.6048 24.0288C90.1545 22.6571 94.0926 21.9497 98.4191 21.9066ZM97.8634 33.1749C95.4456 33.199 93.1914 33.6669 91.1006 34.5786C89.0099 35.4903 87.2096 36.8127 85.6997 38.5458C84.1898 40.2789 83.0331 42.3267 82.2294 44.689C81.4888 46.9872 81.1321 49.5042 81.1594 52.24C81.1797 54.276 81.4532 56.1823 81.98 57.9587C82.5704 59.7345 83.4128 61.2532 84.5071 62.5149C85.6669 63.9669 87.1099 65.0979 88.8361 65.9079C90.6252 66.6536 92.7286 67.0144 95.1464 66.9903C97.5005 66.9668 99.7232 66.531 101.815 65.683C103.905 64.7713 105.737 63.4167 107.31 61.6194C108.757 59.9505 109.882 57.9667 110.687 55.668C111.49 53.3056 111.878 50.7246 111.85 47.9251C111.831 45.9528 111.526 44.0787 110.935 42.3029C110.345 40.5271 109.534 38.9762 108.503 37.6502C107.28 36.2625 105.774 35.164 103.984 34.3546C102.258 33.5447 100.218 33.1514 97.8634 33.1749Z" fill="#FFE500"/>
<path d="M184.807 54.8332L142.91 55.2511C143.053 56.7768 143.449 58.2046 144.098 59.5344C144.747 60.8005 145.649 61.9369 146.805 62.9435C148.026 64.1403 149.466 65.0168 151.126 65.5729C152.786 66.129 154.666 66.3966 156.766 66.3757C158.102 66.3624 159.405 66.2221 160.675 65.9549C161.944 65.6241 163.148 65.1348 164.287 64.4872C165.173 64.0329 165.963 63.4842 166.657 62.8409C167.413 62.1334 168.074 61.3633 168.638 60.5304L182.954 60.3876C181.833 62.8804 180.456 65.1213 178.821 67.1102C177.25 69.0984 175.58 70.7377 173.812 72.0279C171.412 73.8336 168.625 75.1976 165.453 76.1201C162.345 77.1056 158.818 77.618 154.874 77.6573C150.993 77.696 147.583 77.1574 144.645 76.0413C141.771 74.9882 139.144 73.2327 136.766 70.7748C134.259 68.3182 132.418 65.5686 131.243 62.526C130.13 59.4192 129.557 56.1479 129.522 52.7121C129.476 48.0675 130.26 43.7327 131.874 39.7078C133.488 35.683 135.682 32.2886 138.454 29.5248C141.163 26.8253 144.293 24.7897 147.842 23.418C151.392 22.0463 155.457 21.3376 160.038 21.292C164.047 21.252 167.584 21.7894 170.649 22.9042C173.714 23.9553 176.435 25.6781 178.814 28.0723C181 30.4049 182.651 33.1882 183.765 36.4223C184.942 39.6558 185.55 43.1176 185.586 46.8079C185.6 48.2076 185.519 49.5765 185.341 50.9145C185.227 52.2519 185.049 53.5582 184.807 54.8332ZM143.943 43.978L172.861 43.6896C172.654 42.1009 172.162 40.6104 171.384 39.2183C170.67 37.7619 169.831 36.5613 168.867 35.6164C167.648 34.6105 166.24 33.8609 164.645 33.3678C163.112 32.8104 161.487 32.5403 159.769 32.5574C157.669 32.5784 155.668 32.9165 153.766 33.5718C151.926 34.1628 150.344 35.0058 149.019 36.1007C147.819 37.0672 146.781 38.2547 145.904 39.6633C145.027 41.0084 144.373 42.4466 143.943 43.978Z" fill="#FFE500"/>
<path d="M205.034 38.2145L192.341 38.3411C192.508 35.9851 193.122 33.7201 194.182 31.546C195.242 29.372 196.655 27.4808 198.42 25.8724C200.312 24.1991 202.591 22.9674 205.256 22.1772C207.983 21.3228 210.715 20.8501 213.45 20.7592C216.313 20.7306 218.799 21.1195 220.906 21.9256C223.077 22.6676 224.869 23.6678 226.281 24.9263C227.567 26.1862 228.536 27.7036 229.19 29.4788C229.907 31.1897 230.307 33.031 230.391 35.0028C230.424 38.3113 229.497 41.1203 227.611 43.4298C225.789 45.7387 223.355 47.3538 220.31 48.275C222.417 49.0176 224.085 50.3054 225.312 52.1385C226.539 53.9079 227.197 56.1603 227.288 58.8955C227.318 61.8223 226.739 64.4687 225.554 66.8349C224.432 69.1368 222.67 71.1588 220.269 72.9008C218.311 74.3202 216.222 75.3592 214.001 76.0176C211.781 76.7397 209.399 77.1135 206.854 77.1389C204.436 77.163 202.206 76.8989 200.164 76.3465C198.123 75.7942 196.333 74.9531 194.794 73.823C192.808 72.443 191.263 70.6449 190.159 68.4288C189.118 66.1484 188.583 63.5767 188.555 60.7136C188.55 60.2046 188.545 59.7274 188.541 59.282C188.536 58.773 188.594 58.2634 188.716 57.7531L201.409 57.6265C201.348 57.8816 201.319 58.1364 201.322 58.3909C201.324 58.6454 201.328 58.9954 201.332 59.4407C201.352 61.4767 201.941 63.0617 203.098 64.1955C204.318 65.3287 205.882 65.8858 207.791 65.8667C208.81 65.9202 209.731 65.7837 210.555 65.4574C211.378 65.0674 212.105 64.5511 212.735 63.9085C213.301 63.2665 213.739 62.5304 214.049 61.7001C214.423 60.8691 214.604 59.9447 214.594 58.9267C214.586 58.0995 214.42 57.3694 214.095 56.7364C213.834 56.039 213.478 55.4381 213.027 54.9335C212.578 54.5562 212.066 54.275 211.492 54.0898C210.981 53.904 210.248 53.8159 209.294 53.8254L206.049 53.8578L208.044 43.3387L211.479 43.3044C212.434 43.2949 213.292 43.1909 214.053 42.9924C214.879 42.7933 215.575 42.4682 216.144 42.0171C216.775 41.5653 217.279 40.9876 217.653 40.284C218.028 39.5166 218.21 38.624 218.199 37.606C218.191 36.7789 218.056 36.0166 217.795 35.3193C217.533 34.622 217.177 34.021 216.727 33.5164C216.213 33.0761 215.574 32.7326 214.808 32.4857C214.041 32.1752 213.149 32.025 212.131 32.0351C211.049 32.0459 210.128 32.1824 209.367 32.4445C208.669 32.706 208.037 33.0623 207.468 33.5133C206.774 34.093 206.209 34.7985 205.772 35.6301C205.334 36.4617 205.088 37.3232 205.034 38.2145Z" fill="#FFE500"/>
<path d="M275.116 21.8622L286.697 63.3616L292.996 63.2988L288.47 87.9693L276.063 88.0931L278.507 74.7061L240.522 75.085L238.079 88.472L225.672 88.5957L230.198 63.9252L236.497 63.8624L260.8 22.005L275.116 21.8622ZM250.813 63.7196L273.336 63.4949L266.005 36.6519L250.813 63.7196Z" fill="#FFE500"/>
<path d="M297.087 74.5208L306.867 21.5455L319.56 21.4189L315.03 45.7076L338.457 21.2304L353.536 21.08L327.454 47.3018L344.901 74.0439L329.822 74.1943L314.49 48.9582L309.78 74.3942L297.087 74.5208Z" fill="#FFE500"/>
<path d="M415.101 20.4659L405.321 73.4412L393.677 73.5573L394.219 70.4022L394.028 70.4041C392.454 72.0742 390.398 73.3037 387.861 74.0926C385.324 74.9451 382.624 75.3857 379.761 75.4142C376.77 75.444 373.807 74.9964 370.871 74.0712C367.998 73.1454 365.438 71.6755 363.191 69.6618C360.496 67.3979 358.4 64.6508 356.905 61.4206C355.472 58.126 354.766 54.3152 354.786 49.988C354.741 45.4706 355.463 41.2319 356.95 37.272C358.501 33.2477 360.789 29.7888 363.814 26.8952C366.461 24.3235 369.496 22.3843 372.919 21.0775C376.342 19.7708 380.026 19.0977 383.971 19.0584C388.17 19.0165 391.772 19.6805 394.776 21.0504C397.781 22.4204 400.219 24.4322 402.091 27.0861L402.281 27.0842L403.457 20.582L415.101 20.4659ZM384.083 30.32C379.248 30.4319 375.226 32.2219 372.015 35.69C368.867 39.0938 367.354 43.6586 367.475 49.3842C367.52 53.9016 368.765 57.5162 371.21 60.2279C373.718 62.8755 377.072 64.1783 381.271 64.1364C386.17 64.0875 390.193 62.3611 393.341 58.9573C396.552 55.4892 398.129 50.9874 398.074 45.452C398.028 40.8074 396.718 37.1298 394.146 34.4193C391.637 31.6446 388.283 30.2781 384.083 30.32Z" fill="#FFE500"/>
<path d="M11.9973 110.389L24.6905 110.262L21.0672 129.77L40.8228 129.573L44.4461 110.065L57.1394 109.939L47.3595 162.914L34.6662 163.041L38.7401 140.856L18.9845 141.053L14.9106 163.238L2.21742 163.364L11.9973 110.389Z" fill="#FFE500"/>
<path d="M120.231 109.31L110.451 162.285L98.8078 162.401L99.349 159.246L99.1582 159.248C97.584 160.918 95.5283 162.147 92.9909 162.936C90.4541 163.789 87.7542 164.229 84.8911 164.258C81.9007 164.288 78.9373 163.84 76.0011 162.915C73.1284 161.989 70.5685 160.519 68.3213 158.505C65.6262 156.242 63.5308 153.494 62.035 150.264C60.6023 146.97 59.8962 143.159 59.9166 138.832C59.8716 134.314 60.5929 130.076 62.0805 126.116C63.6312 122.091 65.9192 118.632 68.9447 115.739C71.5915 113.167 74.6265 111.228 78.0496 109.921C81.4726 108.614 85.1566 107.941 89.1013 107.902C93.3006 107.86 96.9024 108.524 99.9067 109.894C102.911 111.264 105.349 113.276 107.221 115.93L107.412 115.928L108.588 109.426L120.231 109.31ZM89.2136 119.164C84.3788 119.275 80.356 121.065 77.1454 124.534C73.9978 127.937 72.4843 132.502 72.6051 138.228C72.6501 142.745 73.8952 146.36 76.3402 149.072C78.8483 151.719 82.2019 153.022 86.4012 152.98C91.3003 152.931 95.3237 151.205 98.4713 147.801C101.682 144.333 103.26 139.831 103.204 134.296C103.158 129.651 101.849 125.973 99.2765 123.263C96.7672 120.488 93.4129 119.122 89.2136 119.164Z" fill="#FFE500"/>
<path d="M171.238 165.21L173.048 155.266C169.61 155.173 166.263 154.474 163.005 153.17C159.746 151.803 156.959 149.89 154.644 147.432C152.265 145.037 150.487 142.16 149.308 138.799C148.129 135.438 147.519 131.658 147.477 127.459C147.412 120.969 148.692 115.325 151.317 110.527C154.004 105.664 157.879 101.807 162.941 98.957C165.662 97.4027 168.927 96.2248 172.737 95.4232C176.546 94.558 180.391 94.1061 184.273 94.0673L185.997 85.1736L199.072 85.0431L197.348 93.9369C200.722 94.0942 204.038 94.8565 207.297 96.2239C210.555 97.5276 213.373 99.3766 215.752 101.771C218.067 104.229 219.814 107.139 220.993 110.5C222.235 113.86 222.877 117.608 222.918 121.743C222.984 128.297 221.673 134.005 218.985 138.868C216.297 143.667 212.453 147.459 207.454 150.245C204.67 151.864 201.374 153.106 197.565 153.971C193.755 154.773 189.941 155.161 186.122 155.135L184.313 165.08L171.238 165.21ZM175.312 143.026L182.008 106.307C179.526 106.268 177.048 106.548 174.572 107.145C172.16 107.742 170.101 108.621 168.394 109.784C165.993 111.462 164.075 113.772 162.641 116.713C161.207 119.655 160.51 123.161 160.551 127.233C160.575 129.651 160.915 131.875 161.572 133.904C162.291 135.87 163.358 137.545 164.772 138.931C166.122 140.381 167.724 141.447 169.576 142.128C171.428 142.81 173.34 143.109 175.312 143.026ZM195.083 106.177L188.387 142.895C190.806 142.998 193.221 142.752 195.633 142.155C198.109 141.557 200.231 140.645 202.001 139.419C204.339 137.805 206.225 135.527 207.66 132.586C209.094 129.644 209.822 126.105 209.844 121.969C209.757 119.616 209.354 117.456 208.634 115.491C207.978 113.461 206.974 111.721 205.623 110.271C204.21 108.886 202.577 107.852 200.725 107.17C198.873 106.489 196.992 106.158 195.083 106.177Z" fill="#FFE500"/>
<path d="M257.158 106.226C261.357 106.184 264.99 106.752 268.056 107.931C271.122 109.045 273.811 110.705 276.123 112.909C278.373 115.177 280.118 117.832 281.357 120.874C282.596 123.916 283.235 127.346 283.273 131.163C283.319 135.744 282.566 140.047 281.016 144.071C279.465 148.095 277.304 151.489 274.531 154.253C271.696 157.081 268.504 159.181 264.954 160.553C261.467 161.86 257.656 162.535 253.521 162.576C249.321 162.618 245.657 162.082 242.528 160.967C239.463 159.853 236.773 158.161 234.46 155.894C232.147 153.69 230.371 151.099 229.133 148.12C227.893 145.078 227.253 141.521 227.213 137.449C227.168 132.996 227.89 128.789 229.378 124.829C230.929 120.868 233.122 117.442 235.956 114.55C238.729 111.786 241.858 109.719 245.344 108.348C248.894 106.976 252.832 106.269 257.158 106.226ZM256.602 117.494C254.185 117.518 251.93 117.986 249.84 118.898C247.749 119.809 245.949 121.132 244.439 122.865C242.929 124.598 241.772 126.646 240.968 129.008C240.228 131.306 239.871 133.823 239.898 136.559C239.919 138.595 240.192 140.501 240.719 142.278C241.309 144.054 242.152 145.572 243.246 146.834C244.406 148.286 245.849 149.417 247.575 150.227C249.364 150.973 251.468 151.334 253.885 151.309C256.24 151.286 258.462 150.85 260.554 150.002C262.644 149.09 264.476 147.736 266.049 145.939C267.496 144.27 268.622 142.286 269.426 139.987C270.229 137.625 270.617 135.044 270.589 132.244C270.57 130.272 270.265 128.398 269.674 126.622C269.084 124.846 268.273 123.295 267.242 121.969C266.019 120.582 264.513 119.483 262.723 118.674C260.997 117.864 258.957 117.471 256.602 117.494Z" fill="#FFE500"/>
<path d="M282.754 178.224L295.794 107.558L307.437 107.442L306.896 110.597L307.087 110.596C308.662 108.989 310.686 107.792 313.16 107.003C315.633 106.152 318.333 105.679 321.259 105.586C324.567 105.553 327.562 106.001 330.244 106.928C332.99 107.856 335.518 109.326 337.828 111.339C340.654 113.92 342.751 116.857 344.12 120.153C345.49 123.448 346.194 127.068 346.233 131.013C346.279 135.594 345.526 139.896 343.976 143.92C342.424 147.881 340.168 151.276 337.205 154.105C334.558 156.677 331.46 158.617 327.909 159.925C324.423 161.232 320.675 161.906 316.667 161.946C312.913 161.983 309.63 161.444 306.82 160.326C304.009 159.209 301.7 157.418 299.894 154.955L299.703 154.957L295.448 178.097L282.754 178.224ZM319.462 116.867C314.627 116.915 310.636 118.673 307.489 122.141C304.405 125.607 302.891 130.14 302.947 135.739C302.994 140.384 304.239 144.062 306.684 146.774C309.192 149.422 312.578 150.724 316.841 150.682C321.74 150.633 325.763 148.906 328.911 145.502C332.058 142.099 333.605 137.629 333.549 132.094C333.503 127.385 332.193 123.676 329.621 120.965C327.111 118.191 323.725 116.825 319.462 116.867Z" fill="#FFE500"/>
<path d="M358.798 106.93L377.217 106.746L384.263 143.328L404.608 106.473L423.027 106.289L413.247 159.265L400.554 159.391L407.525 121.429L386.429 159.532L375.836 159.638L368.682 121.817L361.711 159.779L349.018 159.905L358.798 106.93Z" fill="#FFE500"/>
<path d="M468.196 105.839L482.32 105.698L439.409 176.661L425.284 176.802L439.183 154.043L428.684 106.233L442.332 106.097L449.255 139.911L468.196 105.839Z" fill="#FFE500"/>
<path d="M508.77 105.434L520.464 158.195L507.484 158.325L499.755 120.223L480.189 158.597L465.873 158.74L494.454 105.577L508.77 105.434Z" fill="#FFE500"/>
<path d="M570.716 104.816L584.841 104.675L541.93 175.639L527.805 175.78L541.704 153.02L531.205 105.21L544.853 105.074L551.776 138.889L570.716 104.816Z" fill="#FFE500"/>
<path d="M628.361 157.119L638.141 104.144L619.723 123.608L611.245 115.77L639.491 86.3771L654.093 86.2314L641.054 156.992L628.361 157.119Z" fill="#FFE500"/>
</svg>
