<svg width="307" height="112" viewBox="0 0 307 112" fill="none" xmlns="http://www.w3.org/2000/svg">
<path d="M56.1636 32.6597L62.3979 0.548706L85.6465 0.548706L79.4122 32.6597H73.481L78.6329 6.10304L67.2467 6.10304L62.0948 32.6597H56.1636Z" fill="#FFE500"/>
<path d="M99.7034 7.83878C101.608 7.83878 103.253 8.1136 104.639 8.66325C106.024 9.18397 107.236 9.95058 108.275 10.9631C109.286 12.0045 110.065 13.2195 110.613 14.6081C111.162 15.9967 111.436 17.5589 111.436 19.2946C111.436 21.3775 111.075 23.3302 110.354 25.1527C109.632 26.9752 108.636 28.5084 107.366 29.7524C106.068 31.0253 104.61 31.9654 102.994 32.5729C101.406 33.1515 99.6745 33.4408 97.7985 33.4408C95.8935 33.4408 94.2339 33.1805 92.8197 32.6597C91.4343 32.139 90.2221 31.3579 89.1831 30.3165C88.144 29.304 87.3503 28.1179 86.8019 26.7582C86.2535 25.3697 85.9793 23.7496 85.9793 21.8982C85.9793 19.8732 86.3257 17.9639 87.0184 16.1703C87.7399 14.3767 88.7501 12.829 90.0489 11.5272C91.3189 10.2833 92.7475 9.35754 94.335 8.75004C95.9513 8.14253 97.7407 7.83878 99.7034 7.83878ZM99.4003 12.9592C98.3036 12.9592 97.2789 13.1617 96.3265 13.5667C95.374 13.9717 94.5514 14.5647 93.8587 15.3458C93.1661 16.1269 92.6321 17.0526 92.2569 18.123C91.9105 19.1644 91.7374 20.3071 91.7374 21.5511C91.7374 22.4768 91.8528 23.3446 92.0837 24.1546C92.3435 24.9647 92.7187 25.6589 93.2093 26.2375C93.7289 26.9029 94.3783 27.4236 95.1576 27.7997C95.9657 28.1468 96.9181 28.3204 98.0149 28.3204C99.0828 28.3204 100.093 28.1324 101.045 27.7563C101.998 27.3513 102.835 26.7438 103.556 25.9338C104.22 25.1816 104.74 24.2848 105.115 23.2434C105.49 22.173 105.678 21.0014 105.678 19.7285C105.678 18.8317 105.548 17.9783 105.288 17.1683C105.028 16.3583 104.668 15.6496 104.206 15.0421C103.658 14.4056 102.979 13.8994 102.171 13.5233C101.392 13.1472 100.468 12.9592 99.4003 12.9592Z" fill="#FFE500"/>
<path d="M138.739 23.2H119.733C119.791 23.8943 119.964 24.5452 120.253 25.1527C120.541 25.7313 120.945 26.252 121.465 26.7149C122.013 27.2645 122.663 27.6695 123.413 27.9299C124.163 28.1902 125.015 28.3204 125.967 28.3204C126.573 28.3204 127.165 28.2625 127.742 28.1468C128.32 28.0022 128.868 27.7852 129.388 27.4959C129.792 27.2934 130.152 27.0475 130.47 26.7582C130.816 26.44 131.119 26.0929 131.379 25.7168H137.873C137.354 26.845 136.719 27.8575 135.968 28.7543C135.247 29.6511 134.482 30.3888 133.674 30.9674C132.577 31.7774 131.307 32.3849 129.864 32.7899C128.45 33.2238 126.848 33.4408 125.058 33.4408C123.298 33.4408 121.753 33.1805 120.426 32.6597C119.127 32.1679 117.944 31.3579 116.876 30.2297C115.75 29.1015 114.927 27.8431 114.408 26.4545C113.917 25.037 113.672 23.5471 113.672 21.985C113.672 19.8732 114.047 17.906 114.798 16.0835C115.548 14.261 116.558 12.7278 117.828 11.4838C119.069 10.2688 120.498 9.35754 122.114 8.75004C123.731 8.14253 125.578 7.83878 127.656 7.83878C129.474 7.83878 131.076 8.09914 132.461 8.61985C133.847 9.11165 135.073 9.90719 136.141 11.0065C137.123 12.0769 137.859 13.3497 138.349 14.8251C138.869 16.3005 139.129 17.8771 139.129 19.555C139.129 20.1914 139.085 20.8134 138.999 21.4209C138.941 22.0284 138.854 22.6214 138.739 23.2ZM120.253 18.0796H133.371C133.284 17.3564 133.067 16.6765 132.721 16.0401C132.404 15.3747 132.028 14.8251 131.596 14.3912C131.047 13.9283 130.412 13.5812 129.691 13.3497C128.998 13.0894 128.262 12.9592 127.483 12.9592C126.53 12.9592 125.621 13.1038 124.755 13.3931C123.918 13.6535 123.197 14.0295 122.59 14.5213C122.042 14.9553 121.566 15.4905 121.162 16.1269C120.758 16.7344 120.455 17.3853 120.253 18.0796Z" fill="#FFE500"/>
<path d="M147.989 15.7364L142.23 15.7364C142.317 14.666 142.606 13.639 143.096 12.6554C143.587 11.6718 144.236 10.8184 145.045 10.0952C145.91 9.34308 146.949 8.79343 148.162 8.44628C149.403 8.07021 150.644 7.8677 151.885 7.83878C153.184 7.83878 154.309 8.02681 155.262 8.40289C156.243 8.75003 157.051 9.2129 157.686 9.79147C158.264 10.3701 158.696 11.0643 158.985 11.8744C159.303 12.6554 159.476 13.4944 159.505 14.3912C159.505 15.8955 159.072 17.1683 158.206 18.2098C157.369 19.2512 156.258 19.9744 154.872 20.3794C155.825 20.7266 156.575 21.3196 157.123 22.1586C157.672 22.9686 157.96 23.9955 157.989 25.2395C157.989 26.5702 157.715 27.7708 157.167 28.8411C156.647 29.8826 155.839 30.7938 154.742 31.5749C153.848 32.2113 152.895 32.6742 151.885 32.9635C150.875 33.2817 149.792 33.4408 148.638 33.4408C147.541 33.4408 146.531 33.3106 145.607 33.0503C144.684 32.7899 143.876 32.3994 143.183 31.8787C142.288 31.2422 141.596 30.4177 141.105 29.4052C140.643 28.3638 140.412 27.1922 140.412 25.8904C140.412 25.659 140.412 25.442 140.412 25.2395C140.412 25.0081 140.441 24.7766 140.499 24.5452H146.257C146.228 24.6609 146.214 24.7766 146.214 24.8923C146.214 25.008 146.214 25.1672 146.214 25.3697C146.214 26.2954 146.473 27.0186 146.993 27.5393C147.541 28.06 148.248 28.3204 149.114 28.3204C149.576 28.3493 149.994 28.2915 150.37 28.1468C150.745 27.9733 151.077 27.7418 151.365 27.4525C151.625 27.1632 151.827 26.8306 151.972 26.4545C152.145 26.0784 152.231 25.659 152.231 25.1961C152.231 24.82 152.159 24.4873 152.015 24.198C151.899 23.8798 151.741 23.605 151.539 23.3736C151.337 23.2 151.106 23.0698 150.846 22.983C150.615 22.8962 150.283 22.8528 149.85 22.8528H148.378L149.331 18.0796H150.889C151.322 18.0796 151.712 18.0362 152.058 17.9494C152.433 17.8626 152.751 17.718 153.011 17.5155C153.299 17.313 153.53 17.0526 153.703 16.7344C153.876 16.3873 153.963 15.9822 153.963 15.5194C153.963 15.1433 153.905 14.7962 153.79 14.4779C153.674 14.1597 153.516 13.8849 153.314 13.6535C153.083 13.451 152.794 13.2919 152.448 13.1761C152.101 13.0315 151.697 12.9592 151.236 12.9592C150.745 12.9592 150.326 13.017 149.98 13.1328C149.663 13.2485 149.374 13.4076 149.114 13.6101C148.797 13.8704 148.537 14.1887 148.335 14.5647C148.133 14.9408 148.017 15.3313 147.989 15.7364Z" fill="#FFE500"/>
<path d="M179.851 8.61985L184.916 27.5393H187.774L185.609 38.7348H179.981L181.15 32.6597H163.919L162.75 38.7348H157.122L159.286 27.5393L162.144 27.5393L173.357 8.61985L179.851 8.61985ZM168.638 27.5393H178.855L175.651 15.3024L168.638 27.5393Z" fill="#FFE500"/>
<path d="M189.578 32.6597L194.254 8.61985H200.012L197.848 19.6417L208.584 8.61985H215.425L203.476 20.4228L211.268 32.6597H204.428L197.588 21.1171L195.336 32.6597L189.578 32.6597Z" fill="#FFE500"/>
<path d="M243.352 8.61985L238.677 32.6597H233.395L233.655 31.2278H233.568C232.846 31.9799 231.908 32.5296 230.754 32.8767C229.599 33.2528 228.373 33.4408 227.074 33.4408C225.717 33.4408 224.375 33.2238 223.048 32.7899C221.749 32.356 220.594 31.6761 219.584 30.7504C218.372 29.709 217.434 28.4506 216.77 26.9752C216.135 25.4709 215.832 23.7352 215.861 21.768C215.861 19.7141 216.207 17.7903 216.9 15.9967C217.622 14.1742 218.675 12.612 220.06 11.3102C221.273 10.1531 222.658 9.28522 224.217 8.70664C225.775 8.12806 227.449 7.83878 229.239 7.83878C231.144 7.83878 232.774 8.15699 234.131 8.79343C235.487 9.42986 236.584 10.3556 237.421 11.5706H237.508L238.071 8.61985L243.352 8.61985ZM229.239 12.9592C227.045 12.9881 225.212 13.7837 223.74 15.3458C222.297 16.879 221.59 18.9475 221.619 21.5511C221.619 23.605 222.167 25.2539 223.264 26.4979C224.39 27.7129 225.905 28.3204 227.81 28.3204C230.032 28.3204 231.865 27.5538 233.308 26.0206C234.78 24.4584 235.516 22.4189 235.516 19.9021C235.516 17.7903 234.939 16.1124 233.785 14.8685C232.659 13.5956 231.144 12.9592 229.239 12.9592Z" fill="#FFE500"/>
<path d="M4.67571 47.6738H14.0704C15.427 47.6738 16.5381 47.8185 17.404 48.1077C18.2699 48.397 18.9914 48.8165 19.5687 49.3661C19.9728 49.8001 20.3047 50.3642 20.5645 51.0585C20.8531 51.7238 20.9974 52.4615 20.9974 53.2715C20.9685 54.0237 20.8242 54.7324 20.5645 55.3978C20.3336 56.0342 19.9583 56.6273 19.4388 57.1769C19.0059 57.6398 18.5152 58.0448 17.9668 58.3919C17.4185 58.7102 16.8412 58.9416 16.2351 59.0862C17.3607 59.4045 18.2266 60.0264 18.8327 60.9521C19.4677 61.8489 19.7851 62.9193 19.7851 64.1633C19.7563 65.465 19.4821 66.6077 18.9626 67.5913C18.4431 68.5749 17.7071 69.3994 16.7546 70.0647C15.9465 70.6144 15.0373 71.0339 14.0271 71.3231C13.0458 71.5835 11.8769 71.7137 10.5203 71.7137H0L4.67571 47.6738ZM9.48129 52.6206L8.70201 56.6128H12.5984C13.0602 56.6418 13.421 56.6128 13.6808 56.526C13.9405 56.4392 14.1859 56.2946 14.4168 56.0921C14.6477 55.8896 14.8353 55.6437 14.9796 55.3544C15.1239 55.0362 15.196 54.689 15.196 54.313C15.1672 54.0815 15.1094 53.879 15.0229 53.7055C14.9651 53.503 14.8641 53.3149 14.7198 53.1414C14.5178 52.9678 14.2869 52.8521 14.0271 52.7942C13.7962 52.7074 13.4932 52.6496 13.118 52.6206H9.48129ZM7.70626 61.5597L6.7105 66.7669H10.8667C11.2419 66.7958 11.6027 66.7668 11.949 66.6801C12.2954 66.5643 12.6273 66.4052 12.9448 66.2027C13.3488 65.9424 13.6519 65.6242 13.854 65.2481C14.0849 64.8431 14.2003 64.3513 14.2003 63.7727C14.2003 63.4256 14.1426 63.1363 14.0271 62.9048C13.9117 62.6445 13.7673 62.4131 13.5942 62.2106C13.3633 62.0081 13.1035 61.8634 12.8149 61.7766C12.5263 61.6609 12.0933 61.5886 11.5161 61.5597H7.70626Z" fill="#FFE500"/>
<path d="M56.6019 39.6027L62.7063 66.1593H65.7369L63.4856 77.7887H57.5544L58.7233 71.7137H35.6045L34.4356 77.7887H28.5044L30.7557 66.1593H33.7862L49.675 39.6027H56.6019ZM40.7132 66.1593H56.472L52.186 46.1984L40.7132 66.1593Z" fill="#FFE500"/>
<path d="M71.9414 47.6738H77.6994L74.7555 62.8181L88.3929 47.6738H94.151L89.4753 71.7137H83.7172L86.6612 56.5694L73.0237 71.7137H67.2657L71.9414 47.6738Z" fill="#FFE500"/>
<path d="M113.335 63.9029H119.569C118.617 66.7668 117.015 68.922 114.764 70.3685C112.513 71.786 109.9 72.4948 106.928 72.4948C105.052 72.4658 103.435 72.2055 102.079 71.7137C100.722 71.2508 99.5244 70.4842 98.4854 69.4138C97.4464 68.4013 96.6382 67.2008 96.061 65.8122C95.5126 64.3947 95.2528 62.7747 95.2817 60.9521C95.2528 58.9271 95.5847 57.0178 96.2774 55.2242C96.999 53.4306 98.0236 51.8829 99.3513 50.5812C100.621 49.3083 102.05 48.3826 103.637 47.804C105.254 47.1965 107.13 46.8927 109.266 46.8927C112.527 46.8927 115.11 47.7172 117.015 49.3661C118.92 50.9862 120.103 53.0835 120.565 55.6582H114.244C113.869 54.501 113.205 53.6042 112.253 52.9678C111.3 52.3314 110.175 52.0131 108.876 52.0131C107.721 52.0131 106.639 52.2301 105.629 52.664C104.648 53.069 103.811 53.6621 103.118 54.4432C102.425 55.1953 101.891 56.0921 101.516 57.1335C101.17 58.175 101.011 59.3032 101.04 60.5182C101.04 61.6175 101.184 62.6156 101.473 63.5124C101.79 64.3802 102.223 65.089 102.771 65.6386C103.291 66.2172 103.912 66.6511 104.633 66.9404C105.355 67.2297 106.221 67.3744 107.231 67.3744C108.645 67.3744 109.886 67.0851 110.954 66.5065C112.022 65.9279 112.816 65.06 113.335 63.9029Z" fill="#FFE500"/>
<path d="M126.481 47.6738H132.239L130.507 56.526H139.469L141.201 47.6738H146.959L142.283 71.7137H136.525L138.473 61.6464H129.512L127.563 71.7137H121.805L126.481 47.6738Z" fill="#FFE500"/>
<path d="M173.112 62.2539H154.106C154.164 62.9482 154.337 63.5991 154.625 64.2066C154.914 64.7852 155.318 65.3059 155.838 65.7688C156.386 66.3185 157.035 66.7235 157.786 66.9838C158.536 67.2442 159.388 67.3744 160.34 67.3744C160.946 67.3744 161.538 67.3165 162.115 67.2008C162.692 67.0561 163.241 66.8392 163.76 66.5499C164.164 66.3474 164.525 66.1015 164.843 65.8122C165.189 65.494 165.492 65.1468 165.752 64.7708H172.246C171.726 65.899 171.091 66.9115 170.341 67.8083C169.619 68.7051 168.854 69.4428 168.046 70.0213C166.95 70.8314 165.68 71.4389 164.236 71.8439C162.822 72.2778 161.22 72.4948 159.431 72.4948C157.67 72.4948 156.126 72.2344 154.798 71.7137C153.5 71.2219 152.316 70.4119 151.248 69.2837C150.123 68.1554 149.3 66.897 148.781 65.5084C148.29 64.0909 148.045 62.6011 148.045 61.0389C148.045 58.9271 148.42 56.96 149.17 55.1375C149.921 53.3149 150.931 51.7817 152.201 50.5378C153.442 49.3228 154.871 48.4115 156.487 47.804C158.103 47.1965 159.95 46.8927 162.029 46.8927C163.847 46.8927 165.449 47.1531 166.834 47.6738C168.219 48.1656 169.446 48.9611 170.514 50.0604C171.495 51.1308 172.231 52.4037 172.722 53.879C173.242 55.3544 173.501 56.931 173.501 58.6089C173.501 59.2453 173.458 59.8673 173.371 60.4748C173.314 61.0823 173.227 61.6754 173.112 62.2539ZM154.625 57.1335H167.743C167.657 56.4103 167.44 55.7305 167.094 55.0941C166.776 54.4287 166.401 53.879 165.968 53.4451C165.42 52.9823 164.785 52.6351 164.063 52.4037C163.371 52.1433 162.635 52.0131 161.855 52.0131C160.903 52.0131 159.994 52.1578 159.128 52.4471C158.291 52.7074 157.569 53.0835 156.963 53.5753C156.415 54.0092 155.939 54.5444 155.534 55.1808C155.13 55.7883 154.827 56.4392 154.625 57.1335Z" fill="#FFE500"/>
<path d="M179.287 47.6738H185.045L182.102 62.8181L195.739 47.6738H201.497L196.821 71.7137H191.063L194.007 56.5694L180.37 71.7137H174.612L179.287 47.6738ZM184.872 38.9084H189.202C189.23 39.5737 189.476 40.08 189.938 40.4271C190.399 40.7453 191.02 40.9045 191.799 40.9045C192.521 40.9045 193.141 40.7453 193.661 40.4271C194.209 40.08 194.599 39.5737 194.83 38.9084H199.159C198.726 40.7309 197.831 42.1773 196.475 43.2477C195.118 44.2891 193.488 44.8098 191.583 44.8098C189.447 44.8098 187.744 44.2602 186.474 43.1609C185.233 42.0327 184.699 40.6152 184.872 38.9084Z" fill="#FFE500"/>
<path d="M218.993 47.6738L224.058 71.7137H218.17L214.836 54.3564L205.788 71.7137H199.294L212.499 47.6738H218.993Z" fill="#FFE500"/>
<path d="M252.765 62.2539H233.759C233.817 62.9482 233.99 63.5991 234.279 64.2066C234.567 64.7852 234.971 65.3059 235.491 65.7688C236.039 66.3185 236.689 66.7235 237.439 66.9838C238.19 67.2442 239.041 67.3744 239.993 67.3744C240.6 67.3744 241.191 67.3165 241.768 67.2008C242.346 67.0561 242.894 66.8392 243.414 66.5499C243.818 66.3474 244.178 66.1015 244.496 65.8122C244.842 65.494 245.145 65.1468 245.405 64.7708H251.899C251.38 65.899 250.745 66.9115 249.994 67.8083C249.273 68.7051 248.508 69.4428 247.7 70.0213C246.603 70.8314 245.333 71.4389 243.89 71.8439C242.476 72.2778 240.874 72.4948 239.084 72.4948C237.324 72.4948 235.78 72.2344 234.452 71.7137C233.153 71.2219 231.97 70.4119 230.902 69.2837C229.776 68.1554 228.954 66.897 228.434 65.5084C227.943 64.0909 227.698 62.6011 227.698 61.0389C227.698 58.9271 228.073 56.96 228.824 55.1375C229.574 53.3149 230.584 51.7817 231.854 50.5378C233.095 49.3228 234.524 48.4115 236.14 47.804C237.757 47.1965 239.604 46.8927 241.682 46.8927C243.5 46.8927 245.102 47.1531 246.487 47.6738C247.873 48.1656 249.1 48.9611 250.167 50.0604C251.149 51.1308 251.885 52.4037 252.375 53.879C252.895 55.3544 253.155 56.931 253.155 58.6089C253.155 59.2453 253.111 59.8673 253.025 60.4748C252.967 61.0823 252.88 61.6754 252.765 62.2539ZM234.279 57.1335H247.397C247.31 56.4103 247.094 55.7305 246.747 55.0941C246.43 54.4287 246.055 53.879 245.622 53.4451C245.073 52.9823 244.438 52.6351 243.717 52.4037C243.024 52.1433 242.288 52.0131 241.509 52.0131C240.556 52.0131 239.647 52.1578 238.781 52.4471C237.944 52.7074 237.223 53.0835 236.617 53.5753C236.068 54.0092 235.592 54.5444 235.188 55.1808C234.784 55.7883 234.481 56.4392 234.279 57.1335Z" fill="#FFE500"/>
<path d="M258.941 47.6738H264.699L262.967 56.526H271.929L273.661 47.6738H279.419L274.743 71.7137H268.985L270.933 61.6464H261.971L260.023 71.7137H254.265L258.941 47.6738Z" fill="#FFE500"/>
<path d="M299.077 47.6738L304.143 66.5933H307L304.835 77.7887H299.207L300.376 71.7137H283.145L281.976 77.7887H276.348L278.513 66.5933H281.37L292.583 47.6738H299.077ZM287.864 66.5933H298.082L294.878 54.3564L287.864 66.5933Z" fill="#FFE500"/>
<path d="M71.627 102.957H77.8613C76.9088 105.821 75.3069 107.976 73.0557 109.422C70.8044 110.84 68.1924 111.549 65.2195 111.549C63.3435 111.52 61.7272 111.259 60.3707 110.768C59.0141 110.305 57.8163 109.538 56.7773 108.468C55.7383 107.455 54.9301 106.255 54.3529 104.866C53.8045 103.449 53.5447 101.829 53.5736 100.006C53.5447 97.9811 53.8766 96.0718 54.5693 94.2782C55.2909 92.4846 56.3155 90.9369 57.6432 89.6351C58.9131 88.3622 60.3418 87.4365 61.9292 86.8579C63.5455 86.2504 65.4216 85.9467 67.5574 85.9467C70.8189 85.9467 73.402 86.7711 75.3069 88.4201C77.2119 90.0401 78.3952 92.1375 78.857 94.7121H72.5362C72.161 93.555 71.4971 92.6582 70.5446 92.0217C69.5922 91.3853 68.4666 91.0671 67.1678 91.0671C66.0133 91.0671 64.9309 91.284 63.9207 91.718C62.9394 92.123 62.1024 92.716 61.4097 93.4971C60.717 94.2493 60.1831 95.146 59.8079 96.1875C59.4615 97.2289 59.3028 98.3572 59.3316 99.5722C59.3316 100.671 59.4759 101.67 59.7646 102.566C60.0821 103.434 60.515 104.143 61.0634 104.693C61.5829 105.271 62.2034 105.705 62.925 105.994C63.6466 106.284 64.5124 106.428 65.5226 106.428C66.9369 106.428 68.1779 106.139 69.2458 105.56C70.3138 104.982 71.1075 104.114 71.627 102.957Z" fill="#FFE500"/>
<path d="M109.424 102.957H115.659C114.706 105.821 113.104 107.976 110.853 109.422C108.602 110.84 105.99 111.549 103.017 111.549C101.141 111.52 99.5245 111.259 98.168 110.768C96.8114 110.305 95.6137 109.538 94.5746 108.468C93.5356 107.455 92.7274 106.255 92.1502 104.866C91.6018 103.449 91.342 101.829 91.3709 100.006C91.342 97.9811 91.674 96.0718 92.3666 94.2782C93.0882 92.4846 94.1128 90.9369 95.4405 89.6351C96.7104 88.3622 98.1391 87.4365 99.7266 86.8579C101.343 86.2504 103.219 85.9467 105.355 85.9467C108.616 85.9467 111.199 86.7711 113.104 88.4201C115.009 90.0401 116.193 92.1375 116.654 94.7121H110.333C109.958 93.555 109.294 92.6582 108.342 92.0217C107.389 91.3853 106.264 91.0671 104.965 91.0671C103.811 91.0671 102.728 91.284 101.718 91.718C100.737 92.123 99.8997 92.716 99.207 93.4971C98.5143 94.2493 97.9804 95.146 97.6052 96.1875C97.2588 97.2289 97.1001 98.3572 97.1289 99.5722C97.1289 100.671 97.2732 101.67 97.5619 102.566C97.8794 103.434 98.3123 104.143 98.8607 104.693C99.3802 105.271 100.001 105.705 100.722 105.994C101.444 106.284 102.31 106.428 103.32 106.428C104.734 106.428 105.975 106.139 107.043 105.56C108.111 104.982 108.905 104.114 109.424 102.957Z" fill="#FFE500"/>
<path d="M144.087 101.308L125.081 101.308C125.139 102.002 125.312 102.653 125.601 103.261C125.889 103.839 126.294 104.36 126.813 104.823C127.361 105.372 128.011 105.777 128.761 106.038C129.512 106.298 130.363 106.428 131.316 106.428C131.922 106.428 132.513 106.37 133.091 106.255C133.668 106.11 134.216 105.893 134.736 105.604C135.14 105.401 135.501 105.155 135.818 104.866C136.164 104.548 136.468 104.201 136.727 103.825H143.221C142.702 104.953 142.067 105.965 141.316 106.862C140.595 107.759 139.83 108.497 139.022 109.075C137.925 109.885 136.655 110.493 135.212 110.898C133.798 111.332 132.196 111.549 130.406 111.549C128.646 111.549 127.102 111.288 125.774 110.768C124.475 110.276 123.292 109.466 122.224 108.338C121.098 107.209 120.276 105.951 119.756 104.562C119.266 103.145 119.02 101.655 119.02 100.093C119.02 97.9811 119.395 96.0139 120.146 94.1914C120.896 92.3689 121.906 90.8357 123.176 89.5917C124.418 88.3767 125.846 87.4654 127.462 86.8579C129.079 86.2504 130.926 85.9467 133.004 85.9467C134.822 85.9467 136.424 86.207 137.81 86.7278C139.195 87.2195 140.422 88.0151 141.49 89.1144C142.471 90.1848 143.207 91.4576 143.698 92.933C144.217 94.4084 144.477 95.985 144.477 97.6629C144.477 98.2993 144.434 98.9213 144.347 99.5288C144.289 100.136 144.203 100.729 144.087 101.308ZM125.601 96.1875L138.719 96.1875C138.632 95.4643 138.416 94.7844 138.069 94.148C137.752 93.4826 137.377 92.933 136.944 92.4991C136.395 92.0362 135.76 91.6891 135.039 91.4576C134.346 91.1973 133.61 91.0671 132.831 91.0671C131.878 91.0671 130.969 91.2117 130.103 91.501C129.266 91.7614 128.545 92.1375 127.939 92.6292C127.39 93.0632 126.914 93.5984 126.51 94.2348C126.106 94.8423 125.803 95.4932 125.601 96.1875Z" fill="#FFE500"/>
<path d="M150.263 86.7278H158.619L161.649 103.391L171.044 86.7278H179.4L174.724 110.768H168.966L172.299 93.5405L162.558 110.768H157.753L154.679 93.5405L151.345 110.768H145.587L150.263 86.7278Z" fill="#FFE500"/>
<path d="M184.044 86.7278H189.802L188.157 95.146H192.443C193.626 95.175 194.694 95.3486 195.646 95.6668C196.628 95.9561 197.45 96.4189 198.114 97.0554C198.691 97.6629 199.139 98.4006 199.456 99.2684C199.803 100.136 199.976 101.076 199.976 102.089C199.947 103.304 199.702 104.461 199.24 105.56C198.778 106.631 198.085 107.585 197.162 108.424C196.296 109.205 195.329 109.799 194.261 110.204C193.193 110.58 191.865 110.768 190.278 110.768H179.368L184.044 86.7278ZM187.161 100.266L186.122 105.647H190.495C190.956 105.647 191.404 105.604 191.837 105.517C192.27 105.401 192.63 105.257 192.919 105.083C193.352 104.823 193.669 104.49 193.871 104.085C194.073 103.68 194.189 103.217 194.218 102.696C194.218 102.234 194.146 101.872 194.001 101.612C193.886 101.322 193.698 101.062 193.438 100.831C193.179 100.657 192.876 100.527 192.529 100.44C192.212 100.324 191.822 100.266 191.36 100.266H187.161Z" fill="#FFE500"/>
<path d="M228.053 101.308H209.047C209.105 102.002 209.278 102.653 209.567 103.261C209.855 103.839 210.259 104.36 210.779 104.823C211.327 105.372 211.977 105.777 212.727 106.038C213.478 106.298 214.329 106.428 215.281 106.428C215.888 106.428 216.479 106.37 217.056 106.255C217.634 106.11 218.182 105.893 218.702 105.604C219.106 105.401 219.466 105.155 219.784 104.866C220.13 104.548 220.433 104.201 220.693 103.825H227.187C226.668 104.953 226.033 105.965 225.282 106.862C224.561 107.759 223.796 108.497 222.988 109.075C221.891 109.885 220.621 110.493 219.178 110.898C217.764 111.332 216.162 111.549 214.372 111.549C212.612 111.549 211.068 111.288 209.74 110.768C208.441 110.276 207.258 109.466 206.19 108.338C205.064 107.209 204.242 105.951 203.722 104.562C203.231 103.145 202.986 101.655 202.986 100.093C202.986 97.9811 203.361 96.0139 204.112 94.1914C204.862 92.3689 205.872 90.8357 207.142 89.5917C208.383 88.3767 209.812 87.4654 211.428 86.8579C213.045 86.2504 214.892 85.9467 216.97 85.9467C218.788 85.9467 220.39 86.207 221.775 86.7278C223.161 87.2195 224.388 88.0151 225.455 89.1144C226.437 90.1848 227.173 91.4576 227.663 92.933C228.183 94.4084 228.443 95.985 228.443 97.6629C228.443 98.2993 228.399 98.9213 228.313 99.5288C228.255 100.136 228.168 100.729 228.053 101.308ZM209.567 96.1875H222.685C222.598 95.4643 222.382 94.7844 222.035 94.148C221.718 93.4826 221.343 92.933 220.91 92.4991C220.361 92.0362 219.726 91.6891 219.005 91.4576C218.312 91.1973 217.576 91.0671 216.797 91.0671C215.844 91.0671 214.935 91.2117 214.069 91.501C213.232 91.7614 212.511 92.1375 211.905 92.6292C211.356 93.0632 210.88 93.5984 210.476 94.2348C210.072 94.8423 209.769 95.4932 209.567 96.1875Z" fill="#FFE500"/>
<path d="M234.229 86.7278H239.987L237.043 101.872L250.68 86.7278H256.438L251.763 110.768H246.005L248.949 95.6234L235.311 110.768H229.553L234.229 86.7278ZM239.814 77.9623H244.143C244.172 78.6277 244.417 79.1339 244.879 79.4811C245.341 79.7993 245.961 79.9584 246.741 79.9584C247.462 79.9584 248.083 79.7993 248.602 79.4811C249.151 79.1339 249.54 78.6277 249.771 77.9623H254.101C253.668 79.7848 252.773 81.2313 251.416 82.3016C250.06 83.3431 248.429 83.8638 246.524 83.8638C244.388 83.8638 242.685 83.3142 241.416 82.2149C240.174 81.0866 239.64 79.6691 239.814 77.9623Z" fill="#FFE500"/>
</svg>
