<svg width="680" height="467" viewBox="0 0 680 467" fill="none" xmlns="http://www.w3.org/2000/svg">
<path d="M26.3161 400.931L9.28973 351.45L41.5705 332.813L58.5969 382.294L50.3614 387.049L36.2746 346.129L20.4648 355.257L34.5516 396.176L26.3161 400.931Z" fill="#FFE500"/>
<path d="M70.409 390.302L53.4173 340.881L60.7511 336.647L61.5357 338.839L61.6559 338.769C62.0794 337.189 62.9337 335.707 64.219 334.324C65.4812 332.9 67.0224 331.637 68.8428 330.532C70.9267 329.329 72.9838 328.542 75.014 328.171C77.0843 327.778 79.211 327.806 81.3941 328.255C84.1061 328.88 86.4845 329.992 88.5292 331.59C90.5739 333.188 92.3136 335.229 93.7481 337.714C95.414 340.599 96.4748 343.593 96.9306 346.697C97.3633 349.76 97.1468 352.717 96.2813 355.567C95.5237 358.142 94.2541 360.478 92.4726 362.575C90.7312 364.65 88.5982 366.415 86.0734 367.873C83.709 369.238 81.4368 370.069 79.257 370.366C77.0773 370.663 74.9751 370.353 72.9506 369.438L72.8304 369.508L78.404 385.686L70.409 390.302ZM71.7359 338.32C68.6901 340.078 66.7901 342.618 66.0358 345.939C65.3215 349.237 65.9824 352.649 68.0185 356.175C69.7075 359.101 71.811 360.986 74.3287 361.83C76.8635 362.611 79.4733 362.226 82.1584 360.676C85.2442 358.894 87.1759 356.363 87.9533 353.082C88.7308 349.801 88.1131 346.417 86.1001 342.931C84.3879 339.965 82.2329 338.084 79.6349 337.286C77.0539 336.425 74.4209 336.769 71.7359 338.32Z" fill="#FFE500"/>
<path d="M106.603 308.731C109.248 307.204 111.752 306.266 114.116 305.917C116.456 305.528 118.752 305.618 121.004 306.187C123.24 306.82 125.294 307.879 127.166 309.363C129.038 310.847 130.668 312.791 132.056 315.196C133.722 318.081 134.783 321.075 135.239 324.179C135.695 327.282 135.538 330.204 134.77 332.945C133.985 335.75 132.713 338.221 130.954 340.358C129.213 342.432 127.04 344.221 124.435 345.725C121.79 347.252 119.277 348.222 116.897 348.634C114.557 349.023 112.249 348.913 109.974 348.303C107.721 347.734 105.67 346.727 103.821 345.283C101.949 343.799 100.273 341.775 98.7922 339.21C97.1726 336.404 96.1264 333.482 95.6537 330.442C95.2211 327.379 95.3858 324.425 96.148 321.58C96.9165 318.839 98.1598 316.411 99.878 314.297C101.636 312.16 103.878 310.305 106.603 308.731ZM110.278 316.067C108.755 316.947 107.494 318.049 106.496 319.373C105.497 320.698 104.829 322.179 104.492 323.816C104.155 325.453 104.154 327.164 104.489 328.947C104.841 330.668 105.515 332.39 106.51 334.113C107.25 335.395 108.104 336.505 109.073 337.442C110.081 338.356 111.158 339.017 112.302 339.425C113.555 339.93 114.873 340.131 116.256 340.027C117.656 339.86 119.117 339.337 120.64 338.458C122.123 337.602 123.375 336.532 124.397 335.247C125.396 333.923 126.072 332.41 126.426 330.71C126.746 329.135 126.75 327.477 126.438 325.733C126.103 323.949 125.426 322.176 124.408 320.413C123.691 319.17 122.828 318.092 121.82 317.178C120.811 316.265 119.743 315.572 118.616 315.1C117.346 314.658 115.999 314.501 114.576 314.628C113.193 314.731 111.761 315.211 110.278 316.067Z" fill="#FFE500"/>
<path d="M144.754 273.239L152.749 268.623L156.596 279.868C158.532 278.964 160.619 278.32 162.855 277.937C165.069 277.514 167.138 277.442 169.062 277.72C171.515 278.174 173.87 279.246 176.128 280.934C178.425 282.6 180.338 284.756 181.865 287.401C183.699 290.67 184.636 294.19 184.675 297.961C184.715 301.732 183.718 305.326 181.684 308.745C180.442 310.851 178.778 312.827 176.691 314.673C174.604 316.519 172.447 318.059 170.22 319.291L174.032 330.475L166.037 335.091L162.225 323.907C160.249 324.834 158.154 325.509 155.94 325.932C153.727 326.355 151.666 326.396 149.759 326.055C147.249 325.687 144.877 324.679 142.643 323.03C140.448 321.358 138.599 319.219 137.095 316.615C135.135 313.311 134.143 309.743 134.12 305.909C134.098 302.075 135.103 298.448 137.137 295.03C138.362 292.987 140.018 291.042 142.105 289.196C144.168 287.31 146.334 285.739 148.601 284.484L144.754 273.239ZM159.452 316.05L151.374 292.341C149.908 293.133 148.558 294.127 147.324 295.32C146.106 296.451 145.136 297.732 144.413 299.165C143.452 301.109 143.008 303.209 143.081 305.464C143.171 307.656 143.853 309.855 145.125 312.059C145.935 313.461 146.884 314.596 147.973 315.464C149.038 316.292 150.223 316.863 151.528 317.179C152.689 317.524 153.949 317.624 155.309 317.48C156.708 317.314 158.09 316.837 159.452 316.05ZM159.369 287.725L167.447 311.434C168.896 310.704 170.229 309.774 171.447 308.644C172.681 307.45 173.668 306.106 174.408 304.61C175.352 302.729 175.8 300.681 175.749 298.465C175.699 296.25 175.038 294.04 173.766 291.836C172.956 290.434 171.986 289.31 170.858 288.466C169.769 287.598 168.581 286.975 167.294 286.596C166.116 286.314 164.827 286.257 163.427 286.424C162.067 286.567 160.715 287.001 159.369 287.725Z" fill="#FFE500"/>
<path d="M222.402 270.248L196.012 285.484C196.648 286.4 197.409 287.163 198.295 287.773C199.159 288.343 200.136 288.741 201.228 288.965C202.429 289.287 203.655 289.328 204.905 289.087C206.155 288.846 207.441 288.344 208.764 287.58C209.605 287.094 210.381 286.54 211.09 285.917C211.775 285.253 212.363 284.513 212.853 283.696C213.252 283.092 213.557 282.462 213.766 281.806C213.992 281.088 214.136 280.364 214.196 279.635L223.212 274.429C223.393 276.408 223.322 278.32 222.997 280.164C222.712 281.985 222.24 283.62 221.581 285.069C220.706 287.07 219.429 288.93 217.749 290.648C216.132 292.383 214.081 293.968 211.597 295.402C209.152 296.814 206.8 297.691 204.54 298.034C202.343 298.394 200.052 298.22 197.667 297.513C195.202 296.853 193.053 295.769 191.221 294.262C189.406 292.691 187.874 290.824 186.624 288.66C184.935 285.735 183.883 282.709 183.467 279.582C183.052 276.456 183.228 273.522 183.996 270.781C184.748 268.103 186.003 265.695 187.761 263.558C189.519 261.421 191.841 259.519 194.727 257.853C197.252 256.395 199.684 255.472 202.024 255.083C204.341 254.653 206.681 254.772 209.043 255.439C211.261 256.135 213.301 257.308 215.162 258.959C217.064 260.586 218.685 262.562 220.027 264.886C220.537 265.768 220.974 266.664 221.34 267.575C221.745 268.463 222.099 269.354 222.402 270.248ZM192.638 277.975L210.852 267.459C210.154 266.526 209.309 265.758 208.32 265.154C207.347 264.487 206.386 264.026 205.438 263.772C204.306 263.57 203.147 263.598 201.96 263.856C200.79 264.051 199.664 264.46 198.582 265.085C197.259 265.849 196.112 266.778 195.142 267.873C194.188 268.905 193.487 270.004 193.038 271.171C192.624 272.212 192.391 273.335 192.339 274.541C192.264 275.706 192.363 276.851 192.638 277.975Z" fill="#FFE500"/>
<path d="M252.494 255.92L261.15 250.923C262.118 255.654 261.618 259.923 259.649 263.732C257.657 267.5 254.597 270.576 250.469 272.959C247.841 274.423 245.388 275.358 243.111 275.764C240.858 276.211 238.581 276.109 236.283 275.459C234.03 274.889 231.948 273.874 230.036 272.413C228.14 270.889 226.484 268.853 225.066 266.305C223.407 263.523 222.341 260.612 221.868 257.572C221.435 254.509 221.62 251.544 222.422 248.676C223.168 245.894 224.411 243.467 226.152 241.393C227.911 239.255 230.273 237.331 233.238 235.618C237.767 233.004 242.013 232.075 245.977 232.832C249.917 233.55 253.238 235.506 255.938 238.703L247.162 243.77C245.715 242.468 244.076 241.758 242.245 241.64C240.413 241.521 238.596 241.983 236.792 243.024C235.189 243.95 233.86 245.118 232.805 246.529C231.766 247.877 231.078 249.369 230.741 251.006C230.381 252.604 230.357 254.274 230.669 256.018C231.021 257.738 231.703 259.428 232.714 261.088C233.594 262.611 234.592 263.878 235.71 264.889C236.845 265.837 238.013 266.471 239.214 266.793C240.398 267.178 241.607 267.282 242.84 267.104C244.074 266.927 245.392 266.433 246.794 265.623C248.758 264.489 250.25 263.094 251.27 261.436C252.29 259.778 252.698 257.94 252.494 255.92Z" fill="#FFE500"/>
<path d="M290.945 233.721L299.601 228.723C300.569 233.454 300.069 237.724 298.1 241.532C296.108 245.301 293.048 248.376 288.92 250.76C286.292 252.223 283.84 253.158 281.563 253.565C279.309 254.011 277.033 253.909 274.734 253.259C272.481 252.69 270.399 251.674 268.487 250.213C266.592 248.689 264.935 246.653 263.518 244.105C261.858 241.323 260.792 238.412 260.319 235.372C259.886 232.309 260.071 229.344 260.874 226.476C261.619 223.695 262.862 221.267 264.604 219.193C266.362 217.056 268.724 215.131 271.689 213.419C276.218 210.804 280.464 209.875 284.428 210.633C288.369 211.35 291.689 213.307 294.39 216.503L285.613 221.57C284.167 220.268 282.528 219.558 280.696 219.44C278.865 219.322 277.047 219.783 275.244 220.824C273.641 221.75 272.311 222.918 271.256 224.329C270.217 225.677 269.529 227.169 269.192 228.807C268.832 230.404 268.808 232.074 269.12 233.818C269.472 235.538 270.154 237.228 271.166 238.888C272.045 240.411 273.044 241.678 274.162 242.689C275.297 243.637 276.465 244.272 277.666 244.593C278.85 244.978 280.058 245.082 281.292 244.904C282.525 244.727 283.843 244.233 285.246 243.423C287.209 242.289 288.701 240.894 289.721 239.236C290.741 237.579 291.149 235.74 290.945 233.721Z" fill="#FFE500"/>
<path d="M296.218 200.7L304.213 196.084L312.238 219.423L319.061 187.511L327.056 182.895L339.791 219.946L331.796 224.562L323.771 201.223L316.948 233.135L308.953 237.751L296.218 200.7Z" fill="#FFE500"/>
<path d="M346.997 169.94C349.642 168.413 352.146 167.474 354.509 167.125C356.85 166.736 359.146 166.826 361.398 167.396C363.634 168.029 365.688 169.087 367.56 170.571C369.432 172.055 371.062 174 372.45 176.404C374.116 179.29 375.177 182.284 375.633 185.387C376.089 188.49 375.932 191.413 375.164 194.154C374.379 196.958 373.107 199.429 371.348 201.566C369.607 203.641 367.434 205.43 364.829 206.934C362.184 208.461 359.671 209.43 357.291 209.843C354.951 210.232 352.643 210.122 350.368 209.512C348.115 208.942 346.064 207.935 344.215 206.492C342.343 205.008 340.667 202.983 339.186 200.418C337.567 197.613 336.52 194.69 336.048 191.65C335.615 188.587 335.78 185.633 336.542 182.789C337.31 180.048 338.554 177.62 340.272 175.506C342.03 173.368 344.272 171.513 346.997 169.94ZM350.672 177.276C349.149 178.155 347.888 179.257 346.89 180.582C345.891 181.906 345.223 183.387 344.886 185.025C344.549 186.662 344.548 188.372 344.883 190.156C345.235 191.876 345.909 193.598 346.904 195.321C347.644 196.604 348.498 197.714 349.467 198.651C350.475 199.564 351.552 200.225 352.696 200.634C353.949 201.139 355.267 201.34 356.65 201.236C358.05 201.069 359.511 200.546 361.034 199.667C362.517 198.811 363.769 197.74 364.791 196.456C365.789 195.131 366.466 193.619 366.82 191.918C367.14 190.344 367.144 188.685 366.832 186.942C366.497 185.158 365.82 183.385 364.802 181.621C364.085 180.379 363.222 179.301 362.214 178.387C361.205 177.473 360.137 176.78 359.01 176.309C357.74 175.867 356.393 175.709 354.97 175.836C353.587 175.94 352.155 176.42 350.672 177.276Z" fill="#FFE500"/>
<path d="M371.947 156.978L379.942 152.362L384.617 166.013L397.061 158.829L392.385 145.178L400.38 140.562L413.115 177.613L405.12 182.229L399.773 166.721L387.33 173.905L392.677 189.413L384.682 194.029L371.947 156.978Z" fill="#FFE500"/>
<path d="M440.12 117.618L452.855 154.669L445.521 158.903L444.736 156.711L444.616 156.781C444.216 158.401 443.353 159.915 442.028 161.321C440.725 162.767 439.172 164.011 437.369 165.052C435.486 166.14 433.449 166.915 431.258 167.378C429.108 167.818 426.961 167.802 424.818 167.33C422.302 166.859 419.993 165.867 417.891 164.356C415.806 162.781 413.997 160.619 412.464 157.871C410.821 155.026 409.763 152.083 409.291 149.043C408.835 145.94 409.048 142.931 409.931 140.017C410.688 137.442 411.918 135.13 413.619 133.079C415.32 131.028 417.413 129.285 419.898 127.85C422.543 126.323 425.062 125.457 427.454 125.251C429.847 125.045 432.11 125.448 434.244 126.461L434.364 126.391L432.786 121.852L440.12 117.618ZM423.993 134.944C420.971 136.742 419.062 139.314 418.268 142.658C417.49 145.939 418.163 149.371 420.285 152.954C421.928 155.8 424.008 157.644 426.526 158.489C429.061 159.269 431.651 158.896 434.296 157.369C437.381 155.587 439.313 153.056 440.091 149.775C440.885 146.431 440.276 143.016 438.263 139.529C436.574 136.604 434.43 134.742 431.832 133.945C429.251 133.084 426.638 133.417 423.993 134.944Z" fill="#FFE500"/>
<path d="M464.355 103.626L490.615 132.868L482.44 137.588L463.929 116.215L465.247 147.514L456.23 152.72L455.338 108.832L464.355 103.626Z" fill="#FFE500"/>
<path d="M481.371 93.8014L489.366 89.1855L493.815 102.166L499.766 98.7304C501.432 97.8218 503.054 97.2062 504.631 96.8834C506.225 96.4975 507.737 96.4793 509.168 96.8288C510.456 97.2076 511.667 97.8709 512.802 98.8187C513.977 99.7433 514.969 100.907 515.779 102.31C516.711 104.016 517.296 105.816 517.534 107.709C517.748 109.562 517.55 111.439 516.939 113.342C516.361 115.118 515.493 116.715 514.334 118.132C513.152 119.509 511.459 120.834 509.255 122.106L494.106 130.852L481.371 93.8014ZM496.528 110.058L499.389 118.345L505.46 114.84C506.101 114.469 506.688 114.051 507.22 113.583C507.728 113.076 508.113 112.586 508.375 112.115C508.768 111.407 508.943 110.691 508.9 109.968C508.856 109.245 508.646 108.512 508.27 107.767C507.9 107.126 507.51 106.683 507.102 106.438C506.71 106.13 506.241 105.919 505.695 105.807C505.196 105.775 504.671 105.837 504.121 105.995C503.587 106.089 503 106.321 502.359 106.691L496.528 110.058Z" fill="#FFE500"/>
<path d="M512.602 75.7704L520.597 71.1545L525.273 84.8058L537.716 77.6216L533.04 63.9703L541.035 59.3543L553.771 96.4053L545.776 101.021L540.429 85.5132L527.985 92.6974L533.332 108.205L525.337 112.821L512.602 75.7704Z" fill="#FFE500"/>
<path d="M547.472 55.638L555.467 51.0221L559.916 64.0029L565.867 60.567C567.533 59.6584 569.155 59.0427 570.732 58.72C572.326 58.3341 573.838 58.3159 575.269 58.6654C576.557 59.0442 577.768 59.7075 578.903 60.6553C580.078 61.5799 581.07 62.7435 581.88 64.1461C582.812 65.8524 583.397 67.6521 583.635 69.5452C583.849 71.3982 583.651 73.276 583.04 75.1786C582.462 76.9547 581.594 78.5514 580.435 79.9685C579.253 81.3456 577.56 82.6704 575.356 83.943L560.207 92.689L547.472 55.638ZM590.264 75.3358L577.529 38.2848L585.524 33.6689L598.259 70.7199L590.264 75.3358ZM562.629 71.8945L565.49 80.1814L571.561 76.6761C572.202 76.3059 572.789 75.8872 573.321 75.4199C573.829 74.9125 574.214 74.4229 574.476 73.9511C574.869 73.2433 575.044 72.528 575.001 71.8049C574.957 71.0819 574.747 70.3482 574.371 69.6037C574.001 68.9625 573.611 68.5194 573.203 68.2744C572.811 67.9662 572.342 67.7559 571.796 67.6435C571.297 67.6113 570.772 67.6739 570.222 67.8313C569.688 67.9255 569.101 68.1577 568.46 68.528L562.629 71.8945Z" fill="#FFE500"/>
<path d="M591.97 29.9472L599.965 25.3312L607.99 48.6708L614.813 16.7588L622.808 12.1428L635.543 49.1938L627.548 53.8097L619.523 30.4702L612.7 62.3822L604.705 66.9982L591.97 29.9472ZM592.714 13.3272L598.725 9.85657C599.298 10.7551 600.043 11.2598 600.962 11.3705C601.858 11.4412 602.847 11.1641 603.929 10.5394C604.931 9.96095 605.665 9.24306 606.132 8.38576C606.616 7.46525 606.752 6.45155 606.54 5.34473L612.551 1.87408C613.408 4.74591 613.322 7.46697 612.295 10.0372C611.244 12.5674 609.397 14.596 606.752 16.1231C603.786 17.8353 600.982 18.439 598.339 17.9341C595.714 17.3661 593.839 15.8305 592.714 13.3272Z" fill="#FFE500"/>
<path d="M236.811 351.538L224.076 314.487L232.071 309.871L237.88 326.875L243.973 302.999L253.471 297.516L246.32 323.445L266.927 334.15L257.43 339.634L238.7 329.127L244.806 346.922L236.811 351.538Z" fill="#FFE500"/>
<path d="M258.946 294.355L271.99 286.823C273.874 285.736 275.533 285.045 276.966 284.752C278.4 284.459 279.737 284.461 280.978 284.76C281.887 285.037 282.799 285.553 283.715 286.306C284.647 286.997 285.438 287.903 286.086 289.025C286.647 290.09 287.014 291.188 287.185 292.317C287.374 293.384 287.327 294.507 287.045 295.685C286.814 296.673 286.457 297.627 285.973 298.548C285.466 299.428 284.85 300.211 284.124 300.898C285.941 300.436 287.641 300.604 289.223 301.4C290.822 302.134 292.119 303.362 293.114 305.085C294.115 306.912 294.648 308.714 294.713 310.493C294.779 312.272 294.416 314.005 293.626 315.69C292.943 317.099 292.017 318.409 290.845 319.62C289.691 320.767 288.172 321.884 286.289 322.972L271.681 331.406L258.946 294.355ZM269.575 297.355L271.686 303.51L277.096 300.387C277.76 300.057 278.238 299.727 278.53 299.399C278.821 299.07 279.046 298.673 279.204 298.208C279.363 297.742 279.427 297.251 279.396 296.735C279.342 296.178 279.164 295.639 278.864 295.118C278.638 294.821 278.396 294.587 278.137 294.415C277.895 294.181 277.604 294.002 277.265 293.877C276.846 293.798 276.433 293.823 276.026 293.951C275.636 294.016 275.169 294.179 274.625 294.44L269.575 297.355ZM274.26 311.161L277.042 319.173L282.813 315.841C283.357 315.581 283.835 315.251 284.246 314.853C284.635 314.416 284.968 313.929 285.247 313.394C285.6 312.709 285.766 312.026 285.746 311.343C285.743 310.597 285.51 309.823 285.047 309.021C284.769 308.54 284.458 308.186 284.112 307.958C283.744 307.69 283.358 307.485 282.956 307.343C282.473 307.248 281.997 307.255 281.527 307.367C281.033 307.438 280.374 307.685 279.55 308.107L274.26 311.161Z" fill="#FFE500"/>
<path d="M322.305 257.774L335.04 294.825L327.706 299.059L326.922 296.867L326.802 296.937C326.401 298.557 325.538 300.071 324.213 301.477C322.911 302.923 321.358 304.167 319.555 305.208C317.671 306.296 315.634 307.071 313.444 307.534C311.293 307.974 309.146 307.958 307.003 307.486C304.487 307.015 302.178 306.023 300.076 304.512C297.992 302.937 296.183 300.775 294.649 298.027C293.007 295.182 291.949 292.239 291.476 289.199C291.02 286.096 291.234 283.087 292.116 280.173C292.874 277.598 294.103 275.285 295.805 273.235C297.506 271.184 299.599 269.441 302.084 268.006C304.729 266.479 307.247 265.613 309.64 265.407C312.032 265.201 314.296 265.604 316.43 266.617L316.55 266.547L314.971 262.008L322.305 257.774ZM306.179 275.1C303.156 276.898 301.248 279.47 300.453 282.814C299.676 286.095 300.348 289.527 302.471 293.11C304.114 295.956 306.194 297.8 308.712 298.644C311.246 299.425 313.836 299.052 316.481 297.525C319.567 295.743 321.499 293.212 322.276 289.931C323.071 286.587 322.461 283.172 320.448 279.685C318.759 276.76 316.616 274.898 314.018 274.101C311.437 273.24 308.824 273.573 306.179 275.1Z" fill="#FFE500"/>
<path d="M349.546 242.047L371.711 264.195L375.679 261.905L381.627 279.149L373.812 283.661L370.577 274.308L346.652 288.121L349.887 297.474L342.073 301.986L336.124 284.742L340.092 282.451L340.529 247.253L349.546 242.047ZM349.109 277.245L363.295 269.054L349.06 254.671L349.109 277.245Z" fill="#FFE500"/>
<path d="M386.536 279.922L369.545 230.5L376.879 226.266L377.663 228.458L377.783 228.389C378.207 226.808 379.061 225.327 380.347 223.943C381.609 222.52 383.15 221.256 384.97 220.152C387.054 218.949 389.111 218.162 391.141 217.791C393.212 217.397 395.339 217.425 397.522 217.874C400.234 218.5 402.612 219.611 404.657 221.209C406.701 222.807 408.441 224.849 409.876 227.333C411.541 230.219 412.602 233.213 413.058 236.316C413.491 239.379 413.274 242.336 412.409 245.187C411.651 247.762 410.382 250.098 408.6 252.195C406.859 254.269 404.726 256.035 402.201 257.493C399.836 258.858 397.564 259.689 395.385 259.985C393.205 260.282 391.103 259.973 389.078 259.058L388.958 259.127L394.532 275.306L386.536 279.922ZM387.863 227.939C384.818 229.698 382.918 232.237 382.163 235.558C381.449 238.856 382.11 242.268 384.146 245.795C385.835 248.72 387.938 250.605 390.456 251.449C392.991 252.23 395.601 251.845 398.286 250.295C401.372 248.514 403.303 245.982 404.081 242.701C404.858 239.421 404.241 236.037 402.228 232.55C400.515 229.585 398.36 227.703 395.762 226.905C393.181 226.044 390.548 226.389 387.863 227.939Z" fill="#FFE500"/>
<path d="M442.532 188.361L455.267 225.412L447.933 229.647L447.148 227.455L447.028 227.524C446.628 229.144 445.765 230.658 444.439 232.064C443.137 233.511 441.584 234.755 439.781 235.796C437.897 236.883 435.86 237.658 433.67 238.122C431.519 238.562 429.373 238.545 427.23 238.073C424.713 237.602 422.405 236.611 420.303 235.099C418.218 233.524 416.409 231.362 414.876 228.614C413.233 225.769 412.175 222.826 411.702 219.786C411.247 216.683 411.46 213.674 412.342 210.76C413.1 208.186 414.33 205.873 416.031 203.822C417.732 201.771 419.825 200.028 422.31 198.594C424.955 197.067 427.474 196.2 429.866 195.994C432.259 195.789 434.522 196.192 436.656 197.204L436.776 197.134L435.198 192.596L442.532 188.361ZM426.405 205.687C423.383 207.486 421.474 210.057 420.68 213.401C419.902 216.682 420.575 220.114 422.697 223.698C424.34 226.543 426.42 228.388 428.938 229.232C431.473 230.013 434.063 229.639 436.708 228.112C439.793 226.331 441.725 223.8 442.502 220.519C443.297 217.175 442.688 213.759 440.675 210.273C438.986 207.347 436.842 205.486 434.244 204.688C431.663 203.827 429.05 204.16 426.405 205.687Z" fill="#FFE500"/>
<path d="M461.648 221.728L448.913 184.677L456.908 180.061L462.718 197.065L468.81 173.189L478.308 167.706L471.157 193.635L491.765 204.34L482.267 209.824L463.537 199.317L469.643 217.112L461.648 221.728Z" fill="#FFE500"/>
<path d="M497.285 155.307C499.93 153.78 502.434 152.841 504.797 152.492C507.138 152.103 509.434 152.193 511.686 152.763C513.922 153.396 515.976 154.454 517.848 155.938C519.72 157.422 521.35 159.367 522.738 161.771C524.404 164.657 525.465 167.651 525.921 170.754C526.377 173.857 526.22 176.78 525.452 179.521C524.667 182.325 523.395 184.796 521.636 186.933C519.895 189.008 517.722 190.797 515.117 192.301C512.472 193.828 509.959 194.797 507.579 195.21C505.239 195.599 502.931 195.489 500.655 194.879C498.403 194.309 496.352 193.302 494.503 191.859C492.631 190.375 490.955 188.35 489.474 185.785C487.854 182.98 486.808 180.057 486.336 177.017C485.903 173.954 486.068 171 486.83 168.156C487.598 165.415 488.842 162.987 490.56 160.873C492.318 158.735 494.56 156.88 497.285 155.307ZM500.96 162.643C499.437 163.522 498.176 164.624 497.178 165.949C496.179 167.273 495.511 168.754 495.174 170.392C494.837 172.029 494.836 173.739 495.171 175.523C495.523 177.243 496.197 178.965 497.191 180.688C497.932 181.971 498.786 183.081 499.755 184.018C500.763 184.931 501.84 185.592 502.984 186.001C504.237 186.506 505.555 186.707 506.938 186.603C508.338 186.436 509.799 185.913 511.322 185.034C512.805 184.178 514.057 183.107 515.079 181.823C516.077 180.498 516.754 178.986 517.108 177.285C517.428 175.711 517.432 174.052 517.12 172.309C516.785 170.525 516.108 168.752 515.09 166.988C514.373 165.746 513.51 164.668 512.502 163.754C511.493 162.84 510.425 162.147 509.298 161.676C508.028 161.234 506.681 161.076 505.258 161.203C503.875 161.307 502.442 161.787 500.96 162.643Z" fill="#FFE500"/>
<path d="M522.235 142.345L550.668 125.929L563.403 162.98L555.408 167.596L545.386 138.436L532.942 145.62L542.965 174.78L534.97 179.396L522.235 142.345Z" fill="#FFE500"/>
<path d="M554.46 123.74L578.445 109.892L581.158 117.783L573.163 122.399L583.185 151.559L575.19 156.175L565.168 127.015L557.173 131.631L554.46 123.74Z" fill="#FFE500"/>
<path d="M623.885 110.587L597.496 125.824C598.131 126.739 598.892 127.502 599.779 128.112C600.642 128.682 601.62 129.08 602.711 129.304C603.912 129.626 605.138 129.667 606.388 129.426C607.638 129.185 608.925 128.683 610.247 127.919C611.089 127.433 611.864 126.879 612.573 126.256C613.259 125.593 613.847 124.852 614.337 124.035C614.736 123.431 615.04 122.801 615.25 122.146C615.476 121.427 615.619 120.703 615.679 119.974L624.696 114.768C624.877 116.748 624.805 118.659 624.48 120.503C624.196 122.324 623.724 123.959 623.064 125.408C622.189 127.41 620.912 129.269 619.232 130.987C617.616 132.722 615.565 134.307 613.08 135.741C610.636 137.153 608.283 138.03 606.023 138.373C603.827 138.733 601.536 138.559 599.151 137.853C596.685 137.192 594.537 136.108 592.705 134.601C590.89 133.031 589.357 131.163 588.108 128.999C586.419 126.074 585.367 123.048 584.951 119.922C584.535 116.795 584.711 113.861 585.48 111.12C586.231 108.442 587.486 106.034 589.245 103.897C591.003 101.76 593.325 99.8581 596.21 98.1922C598.735 96.7346 601.167 95.8111 603.508 95.4219C605.824 94.9925 608.164 95.1113 610.526 95.7781C612.745 96.4742 614.785 97.6475 616.646 99.298C618.547 100.925 620.169 102.901 621.511 105.226C622.02 106.107 622.457 107.004 622.823 107.915C623.229 108.802 623.583 109.693 623.885 110.587ZM594.122 118.314L612.336 107.798C611.637 106.865 610.793 106.097 609.803 105.493C608.83 104.826 607.869 104.365 606.921 104.111C605.79 103.909 604.63 103.938 603.443 104.195C602.273 104.39 601.147 104.8 600.065 105.424C598.743 106.188 597.596 107.117 596.625 108.212C595.671 109.244 594.97 110.343 594.522 111.51C594.107 112.551 593.874 113.674 593.822 114.88C593.747 116.045 593.847 117.19 594.122 118.314Z" fill="#FFE500"/>
<path d="M637.791 134.86L620.799 85.4386L628.133 81.2045L628.917 83.3964L629.038 83.327C629.461 81.7467 630.315 80.2649 631.601 78.8816C632.863 77.4583 634.404 76.1944 636.224 75.09C638.308 73.8869 640.365 73.1 642.396 72.7293C644.466 72.3355 646.593 72.3633 648.776 72.8128C651.488 73.4378 653.866 74.5494 655.911 76.1474C657.956 77.7455 659.695 79.7868 661.13 82.2715C662.796 85.1569 663.857 88.1512 664.312 91.2544C664.745 94.3175 664.529 97.2745 663.663 100.125C662.905 102.7 661.636 105.036 659.854 107.133C658.113 109.207 655.98 110.973 653.455 112.431C651.091 113.796 648.819 114.627 646.639 114.924C644.459 115.22 642.357 114.911 640.332 113.996L640.212 114.065L645.786 130.244L637.791 134.86ZM639.118 82.8775C636.072 84.6359 634.172 87.1756 633.417 90.4966C632.703 93.7944 633.364 97.2067 635.4 100.733C637.089 103.659 639.193 105.544 641.71 106.388C644.245 107.168 646.855 106.784 649.54 105.233C652.626 103.452 654.558 100.921 655.335 97.6397C656.113 94.3588 655.495 90.9751 653.482 87.4886C651.77 84.523 649.615 82.6414 647.017 81.8436C644.436 80.9826 641.803 81.3272 639.118 82.8775Z" fill="#FFE500"/>
</svg>
