<svg width="462" height="128" viewBox="0 0 462 128" fill="none" xmlns="http://www.w3.org/2000/svg">
<path d="M1.04841 52.872L10.6113 0.974019L48.1994 0.599101L38.6365 52.4971L29.047 52.5927L36.9493 9.67176L18.5402 9.85538L10.6379 52.7763L1.04841 52.872ZM80.2258 13.3003L90.5853 13.197L59.1128 65.2435L48.7533 65.3468L58.9473 48.6543L51.2472 13.5893L61.2567 13.4895L66.3343 38.2901L80.2258 13.3003ZM92.1307 13.1816L120.059 12.903L118.532 21.1786L109.222 21.2715L103.577 51.8493L94.2674 51.9422L99.9127 21.3644L90.6031 21.4572L92.1307 13.1816ZM159.626 36.0295L128.898 36.336C129.002 37.455 129.293 38.5022 129.769 39.4775C130.245 40.4061 130.907 41.2395 131.754 41.9778C132.65 42.8556 133.706 43.4984 134.924 43.9063C136.141 44.3142 137.52 44.5104 139.06 44.4951C140.04 44.4853 140.995 44.3824 141.927 44.1864C142.858 43.9438 143.741 43.585 144.576 43.11C145.226 42.7768 145.806 42.3743 146.314 41.9026C146.869 41.3837 147.354 40.8188 147.768 40.208L158.267 40.1033C157.445 41.9316 156.435 43.575 155.236 45.0337C154.084 46.492 152.859 47.6942 151.562 48.6406C149.802 49.9649 147.758 50.9653 145.431 51.6419C143.152 52.3646 140.565 52.7404 137.672 52.7693C134.826 52.7977 132.325 52.4026 130.17 51.5841C128.062 50.8117 126.136 49.5242 124.391 47.7215C122.553 45.9198 121.203 43.9031 120.341 41.6716C119.525 39.393 119.104 36.9937 119.079 34.4738C119.045 31.0673 119.62 27.8881 120.804 24.9362C121.988 21.9842 123.596 19.4947 125.63 17.4677C127.617 15.4877 129.912 13.9948 132.515 12.9888C135.119 11.9827 138.1 11.463 141.46 11.4295C144.4 11.4001 146.994 11.7943 149.242 12.6119C151.49 13.3829 153.486 14.6463 155.23 16.4024C156.834 18.1131 158.045 20.1545 158.862 22.5265C159.725 24.898 160.171 27.437 160.198 30.1435C160.208 31.1701 160.148 32.1741 160.018 33.1555C159.934 34.1363 159.804 35.0944 159.626 36.0295ZM129.656 28.068L150.864 27.8565C150.713 26.6913 150.352 25.5982 149.782 24.5771C149.258 23.509 148.642 22.6284 147.935 21.9354C147.041 21.1976 146.009 20.6479 144.839 20.2862C143.715 19.8774 142.523 19.6793 141.263 19.6918C139.723 19.7072 138.255 19.9552 136.86 20.4358C135.511 20.8693 134.35 21.4875 133.378 22.2906C132.498 22.9994 131.737 23.8704 131.094 24.9035C130.451 25.89 129.971 26.9448 129.656 28.068ZM169.377 12.4111L178.686 12.3182L173.041 42.896L184.73 42.7795L190.376 12.2016L199.685 12.1088L194.04 42.6866L205.729 42.57L211.375 11.9922L220.684 11.8993L213.511 50.7528L162.204 51.2646L169.377 12.4111ZM263.186 34.9966L232.457 35.3031C232.562 36.4221 232.852 37.4692 233.329 38.4445C233.805 39.3732 234.466 40.2066 235.314 40.9449C236.209 41.8226 237.266 42.4655 238.483 42.8733C239.701 43.2812 241.079 43.4775 242.619 43.4621C243.599 43.4523 244.555 43.3495 245.486 43.1535C246.417 42.9109 247.3 42.552 248.136 42.077C248.786 41.7439 249.365 41.3414 249.874 40.8696C250.429 40.3507 250.913 39.7859 251.327 39.1751L261.826 39.0703C261.004 40.8986 259.994 42.5421 258.795 44.0008C257.643 45.459 256.418 46.6613 255.121 47.6076C253.361 48.9319 251.317 49.9323 248.991 50.6089C246.711 51.3317 244.125 51.7075 241.232 51.7364C238.385 51.7648 235.884 51.3697 233.729 50.5511C231.622 49.7788 229.695 48.4913 227.951 46.6886C226.113 44.8868 224.762 42.8702 223.9 40.6387C223.084 38.36 222.663 35.9608 222.638 33.4409C222.604 30.0344 223.179 26.8552 224.363 23.9032C225.547 20.9513 227.156 18.4618 229.189 16.4347C231.176 14.4548 233.471 12.9618 236.075 11.9558C238.678 10.9498 241.66 10.43 245.019 10.3965C247.959 10.3672 250.553 10.7614 252.802 11.579C255.049 12.3499 257.045 13.6134 258.79 15.3694C260.394 17.0802 261.604 19.1216 262.421 21.4935C263.285 23.865 263.73 26.404 263.757 29.1106C263.767 30.1372 263.707 31.1412 263.577 32.1225C263.494 33.1034 263.363 34.0614 263.186 34.9966ZM233.215 27.0351L254.424 26.8235C254.272 25.6583 253.911 24.5652 253.341 23.5442C252.817 22.476 252.202 21.5955 251.495 20.9025C250.601 20.1647 249.568 19.615 248.398 19.2533C247.274 18.8445 246.082 18.6463 244.822 18.6589C243.282 18.6743 241.814 18.9223 240.419 19.4029C239.07 19.8363 237.909 20.4546 236.937 21.2577C236.058 21.9665 235.296 22.8375 234.653 23.8706C234.01 24.8571 233.53 25.9119 233.215 27.0351ZM296.716 37.3223L306.795 37.2217C305.302 41.8568 302.746 45.3592 299.13 47.7287C295.513 50.0516 291.301 51.237 286.495 51.2849C283.461 51.2685 280.844 50.8746 278.643 50.1032C276.442 49.3784 274.493 48.1611 272.796 46.4513C271.1 44.8348 269.774 42.9112 268.818 40.6807C267.909 38.403 267.463 35.7939 267.48 32.8536C267.401 29.5876 267.907 26.5024 268.998 23.598C270.135 20.6932 271.767 18.1801 273.893 16.0588C275.926 13.9851 278.221 12.4688 280.778 11.5099C283.381 10.5039 286.409 9.98369 289.863 9.94924C295.136 9.89665 299.325 11.1849 302.432 13.8141C305.538 16.3966 307.485 19.7606 308.273 23.9063L298.053 24.0083C297.428 22.1477 296.34 20.7118 294.79 19.7006C293.24 18.6893 291.415 18.1942 289.315 18.2151C287.448 18.2337 285.702 18.6012 284.076 19.3174C282.496 19.9866 281.152 20.9567 280.045 22.2278C278.937 23.4522 278.088 24.9074 277.498 26.5934C276.955 28.2789 276.716 30.1014 276.783 32.0608C276.8 33.834 277.05 35.4416 277.531 36.8836C278.058 38.2784 278.769 39.4147 279.665 40.2925C280.514 41.2174 281.524 41.9073 282.696 42.3623C283.867 42.8173 285.269 43.0367 286.902 43.0204C289.189 42.9976 291.191 42.511 292.908 41.5604C294.625 40.6099 295.895 39.1972 296.716 37.3223ZM314.629 10.9623L342.558 10.6837L341.03 18.9594L331.721 19.0522L326.076 49.63L316.766 49.7229L322.411 19.1451L313.102 19.2379L314.629 10.9623ZM347.102 10.6384L362.292 10.4869C364.485 10.465 366.284 10.6804 367.688 11.1331C369.093 11.5858 370.266 12.2508 371.208 13.1281C371.869 13.8215 372.414 14.7261 372.845 15.8419C373.323 16.9105 373.568 18.0981 373.581 19.4047C373.546 20.6185 373.325 21.7641 372.915 22.8415C372.552 23.8719 371.955 24.8345 371.124 25.7295C370.431 26.4832 369.645 27.1444 368.764 27.7132C367.882 28.2353 366.953 28.618 365.975 28.8611C367.8 29.3562 369.21 30.3455 370.205 31.829C371.246 33.2654 371.776 34.9868 371.796 36.9934C371.771 39.0938 371.346 40.9414 370.522 42.5364C369.697 44.1313 368.521 45.4732 366.992 46.5618C365.694 47.4614 364.231 48.1527 362.602 48.6357C361.02 49.0715 359.132 49.3003 356.939 49.3222L339.929 49.4919L347.102 10.6384ZM354.951 18.5405L353.756 24.9927L360.055 24.9299C360.803 24.9691 361.385 24.9166 361.804 24.7724C362.223 24.6283 362.617 24.391 362.987 24.0606C363.357 23.7302 363.656 23.3306 363.885 22.8616C364.113 22.346 364.224 21.7848 364.218 21.1782C364.168 20.8053 364.071 20.4796 363.928 20.201C363.832 19.8753 363.666 19.5736 363.429 19.296C363.1 19.0192 362.725 18.8363 362.304 18.7472C361.929 18.6109 361.438 18.5225 360.831 18.4818L354.951 18.5405ZM352.225 32.9884L350.699 41.404L357.419 41.337C358.026 41.3776 358.609 41.3251 359.167 41.1796C359.726 40.9873 360.26 40.7253 360.77 40.3935C361.419 39.967 361.904 39.4489 362.224 38.839C362.591 38.1819 362.77 37.3868 362.761 36.4535C362.755 35.8935 362.657 35.4278 362.467 35.0564C362.276 34.6382 362.039 34.2672 361.755 33.9434C361.379 33.6205 360.957 33.3913 360.489 33.256C360.02 33.074 359.319 32.9643 358.385 32.927L352.225 32.9884ZM382.101 10.2893L391.41 10.1964L386.894 34.6727L408.699 10.024L418.009 9.93113L410.836 48.7846L401.526 48.8775L406.042 24.4012L384.237 49.0499L374.928 49.1428L382.101 10.2893ZM460.529 33.0282L429.801 33.3347C429.905 34.4537 430.196 35.5008 430.672 36.4761C431.148 37.4048 431.81 38.2382 432.657 38.9765C433.553 39.8543 434.609 40.4971 435.827 40.905C437.044 41.3128 438.423 41.5091 439.963 41.4937C440.943 41.484 441.898 41.3811 442.83 41.1851C443.761 40.9425 444.644 40.5837 445.479 40.1086C446.129 39.7755 446.709 39.373 447.217 38.9012C447.772 38.3824 448.257 37.8175 448.671 37.2067L459.17 37.1019C458.348 38.9302 457.338 40.5737 456.139 42.0324C454.987 43.4907 453.762 44.6929 452.465 45.6392C450.705 46.9635 448.661 47.964 446.334 48.6405C444.055 49.3633 441.468 49.7391 438.575 49.768C435.729 49.7964 433.228 49.4013 431.073 48.5828C428.965 47.8104 427.039 46.5229 425.294 44.7202C423.456 42.9184 422.106 40.9018 421.244 38.6703C420.428 36.3917 420.007 33.9924 419.982 31.4725C419.948 28.066 420.523 24.8868 421.707 21.9348C422.891 18.9829 424.499 16.4934 426.533 14.4663C428.52 12.4864 430.815 10.9935 433.418 9.98744C436.022 8.98142 439.003 8.46166 442.363 8.42815C445.303 8.39882 447.897 8.79297 450.145 9.61059C452.393 10.3815 454.389 11.645 456.133 13.4011C457.737 15.1118 458.948 17.1532 459.765 19.5251C460.628 21.8966 461.074 24.4357 461.101 27.1422C461.111 28.1688 461.051 29.1728 460.921 30.1541C460.837 31.135 460.707 32.093 460.529 33.0282ZM430.559 25.0667L451.767 24.8552C451.616 23.69 451.255 22.5968 450.685 21.5758C450.161 20.5076 449.545 19.6271 448.838 18.9341C447.944 18.1963 446.912 17.6466 445.742 17.2849C444.618 16.8761 443.426 16.678 442.166 16.6905C440.626 16.7059 439.158 16.9539 437.763 17.4345C436.414 17.868 435.253 18.4862 434.281 19.2893C433.401 19.9981 432.64 20.8691 431.997 21.9022C431.354 22.8887 430.874 23.9435 430.559 25.0667ZM7.65966 77.0272L22.8489 76.8757C25.0421 76.8539 26.841 77.0693 28.2456 77.5219C29.6502 77.9746 30.8236 78.6396 31.7657 79.5169C32.426 80.2104 32.9717 81.115 33.4028 82.2307C33.8802 83.2994 34.1254 84.487 34.1384 85.7936C34.1039 87.0073 33.8819 88.1529 33.4727 89.2304C33.1096 90.2607 32.5125 91.2234 31.6814 92.1184C30.9889 92.872 30.2021 93.5332 29.321 94.102C28.4395 94.6242 27.51 95.0068 26.5324 95.2499C28.3574 95.7451 29.7673 96.7344 30.7622 98.2179C31.8032 99.6542 32.3337 101.376 32.3538 103.382C32.328 105.483 31.9031 107.33 31.079 108.925C30.2548 110.52 29.0782 111.862 27.5489 112.951C26.2512 113.85 24.788 114.542 23.1594 115.025C21.577 115.46 19.6892 115.689 17.496 115.711L0.486825 115.881L7.65966 77.0272ZM15.5089 84.9293L14.3132 91.3816L20.6128 91.3188C21.3599 91.358 21.9428 91.3055 22.3614 91.1613C22.7799 91.0171 23.1743 90.7798 23.5443 90.4495C23.9144 90.1191 24.2137 89.7194 24.4424 89.2505C24.6706 88.7348 24.7817 88.1737 24.7756 87.567C24.7252 87.1942 24.6287 86.8685 24.4859 86.5899C24.3893 86.2642 24.2229 85.9625 23.9868 85.6848C23.6574 85.4081 23.2822 85.2252 22.8613 85.136C22.4866 84.9998 21.9957 84.9113 21.3886 84.8707L15.5089 84.9293ZM12.7828 99.3773L11.2567 107.793L17.9764 107.726C18.5835 107.766 19.1663 107.714 19.7249 107.568C20.283 107.376 20.8171 107.114 21.3271 106.782C21.9762 106.356 22.4611 105.838 22.7817 105.228C23.1485 104.571 23.3272 103.776 23.3179 102.842C23.3123 102.282 23.2143 101.817 23.024 101.445C22.8331 101.027 22.5961 100.656 22.3128 100.332C21.9363 100.009 21.514 99.7802 21.0459 99.6448C20.5774 99.4628 19.8763 99.3532 18.9425 99.3158L12.7828 99.3773ZM91.4835 63.1705L101.78 105.91L106.68 105.861L103.227 124.656L93.6378 124.752L95.43 114.934L58.0519 115.307L56.2597 125.125L46.6702 125.221L50.1229 106.425L55.0226 106.376L80.2841 63.2822L91.4835 63.1705ZM66.2221 106.265L91.7008 106.01L84.45 73.8812L66.2221 106.265ZM142.033 75.687L152.392 75.5836L120.92 127.63L110.56 127.733L120.754 111.041L113.054 75.976L123.064 75.8762L128.141 100.677L142.033 75.687ZM196.926 62.1188L194.838 70.4L177.202 70.9259C174.87 70.9959 172.657 71.3913 170.564 72.1122C168.518 72.8327 166.731 73.8305 165.204 75.1058C163.908 76.1921 162.777 77.4401 161.811 78.8498C160.891 80.2124 160.182 81.6662 159.684 83.2113L159.824 83.2099C161.622 80.9985 163.775 79.2503 166.282 77.9652C168.789 76.6335 171.629 75.9518 174.802 75.9201C177.509 75.8931 179.916 76.2658 182.024 77.0382C184.131 77.8105 186.01 78.9818 187.659 80.5521C189.262 82.1695 190.471 84.0476 191.285 86.1862C192.147 88.3244 192.59 90.7001 192.617 93.3133C192.649 96.5332 192.096 99.5722 190.957 102.43C189.819 105.242 188.256 107.614 186.268 109.547C184.373 111.386 182.101 112.832 179.451 113.886C176.848 114.892 173.913 115.411 170.646 115.444C167.753 115.472 165.159 115.078 162.864 114.261C160.616 113.443 158.666 112.18 157.016 110.469C155.272 108.76 153.921 106.627 152.962 104.069C152.003 101.512 151.506 98.5069 151.472 95.0538C151.414 89.2207 152.41 83.8672 154.462 78.9932C156.513 74.1191 159.322 70.3342 162.889 67.6385C165.066 66.0301 167.458 64.8395 170.064 64.0668C172.716 63.247 175.674 62.7741 178.94 62.6482L196.926 62.1188ZM173.205 84.1965C171.431 84.2142 169.754 84.5342 168.174 85.1567C166.64 85.7787 165.342 86.6783 164.281 87.8557C163.219 88.9863 162.393 90.3946 161.803 92.0806C161.259 93.7194 160.996 95.4488 161.014 97.2687C161.028 98.6686 161.228 99.95 161.613 101.113C162.044 102.275 162.661 103.296 163.463 104.175C164.313 105.146 165.347 105.906 166.566 106.454C167.831 106.955 169.304 107.197 170.984 107.18C172.757 107.162 174.411 106.842 175.944 106.22C177.525 105.598 178.869 104.698 179.978 103.52C180.994 102.436 181.773 101.075 182.317 99.4363C182.907 97.797 183.217 96.0672 183.245 94.2468C183.185 92.8474 182.939 91.5664 182.507 90.404C182.122 89.1944 181.551 88.1268 180.795 87.2009C179.899 86.2765 178.818 85.5405 177.553 84.9931C176.334 84.4453 174.885 84.1797 173.205 84.1965ZM240.569 74.7041L233.396 113.558L224.856 113.643L225.253 111.329L225.113 111.33C223.959 112.555 222.451 113.457 220.59 114.035C218.729 114.661 216.749 114.984 214.649 115.005C212.456 115.027 210.283 114.698 208.129 114.02C206.022 113.341 204.145 112.263 202.497 110.786C200.52 109.125 198.983 107.11 197.886 104.741C196.835 102.325 196.317 99.53 196.332 96.3564C196.299 93.0432 196.828 89.9345 197.92 87.0301C199.057 84.0786 200.735 81.5418 202.954 79.4195C204.895 77.5334 207.121 76.1111 209.632 75.1527C212.142 74.1943 214.844 73.7006 217.737 73.6718C220.817 73.6411 223.459 74.1281 225.662 75.1328C227.866 76.1376 229.654 77.6131 231.027 79.5595L231.167 79.5581L232.029 74.7893L240.569 74.7041ZM217.82 81.9314C214.274 82.0134 211.323 83.3262 208.968 85.8698C206.66 88.3663 205.55 91.7142 205.638 95.9136C205.672 99.2267 206.585 101.878 208.378 103.867C210.217 105.808 212.677 106.764 215.757 106.733C219.35 106.697 222.301 105.431 224.609 102.935C226.964 100.391 228.121 97.0894 228.081 93.0296C228.047 89.6231 227.087 86.9259 225.2 84.9379C223.36 82.9028 220.899 81.9007 217.82 81.9314ZM247.999 74.63L257.309 74.5371L252.793 99.0134L274.598 74.3647L283.907 74.2718L276.735 113.125L267.425 113.218L271.941 88.7419L250.136 113.391L240.826 113.483L247.999 74.63Z" fill="#FFE500"/>
</svg>
