<svg width="573" height="107" viewBox="0 0 573 107" fill="none" xmlns="http://www.w3.org/2000/svg">
<path d="M2.12076 44.7272L9.23273 6.13027L37.1873 5.85144L30.0753 44.4483L22.9435 44.5195L28.8205 12.5988L15.1296 12.7354L9.25256 44.656L2.12076 44.7272Z" fill="#FFE500"/>
<path d="M61.0056 15.2974L68.71 15.2206L45.3037 53.9279L37.5993 54.0048L45.1806 41.5904L39.454 15.5124L46.8981 15.4381L50.6744 33.8825L61.0056 15.2974Z" fill="#FFE500"/>
<path d="M69.8593 15.2091L90.63 15.0019L89.494 21.1566L82.5704 21.2257L78.372 43.9666L71.4484 44.0357L75.6469 21.2947L68.7233 21.3638L69.8593 15.2091Z" fill="#FFE500"/>
<path d="M120.056 32.2013L97.2034 32.4292C97.2811 33.2615 97.4972 34.0402 97.8515 34.7656C98.2054 35.4562 98.6975 36.076 99.3278 36.6251C99.9937 37.2779 100.779 37.756 101.685 38.0593C102.59 38.3627 103.616 38.5086 104.761 38.4972C105.49 38.4899 106.2 38.4134 106.893 38.2677C107.586 38.0872 108.242 37.8204 108.864 37.4671C109.347 37.2193 109.778 36.92 110.156 36.5691C110.569 36.1832 110.929 35.7631 111.237 35.3089L119.045 35.231C118.434 36.5907 117.683 37.813 116.791 38.8978C115.934 39.9823 115.024 40.8765 114.059 41.5802C112.75 42.5651 111.23 43.3092 109.5 43.8123C107.804 44.3499 105.881 44.6294 103.729 44.6508C101.612 44.6719 99.7522 44.3781 98.1495 43.7693C96.5819 43.1949 95.1494 42.2374 93.8518 40.8967C92.4848 39.5568 91.4807 38.057 90.8394 36.3974C90.2324 34.7027 89.9196 32.9184 89.9009 31.0443C89.8757 28.5109 90.3033 26.1465 91.1838 23.9511C92.0643 21.7557 93.2606 19.9042 94.7727 18.3967C96.2505 16.9242 97.9575 15.8139 99.8937 15.0657C101.83 14.3175 104.047 13.931 106.546 13.9061C108.732 13.8843 110.662 14.1774 112.334 14.7855C114.005 15.3588 115.49 16.2985 116.787 17.6045C117.98 18.8768 118.88 20.3949 119.488 22.159C120.13 23.9227 120.461 25.811 120.481 27.8238C120.489 28.5873 120.444 29.334 120.347 30.0638C120.285 30.7933 120.188 31.5058 120.056 32.2013ZM97.7668 26.2803L113.54 26.123C113.427 25.2564 113.159 24.4434 112.735 23.6841C112.345 22.8897 111.887 22.2348 111.362 21.7194C110.697 21.1707 109.929 20.7619 109.059 20.4929C108.223 20.1889 107.336 20.0415 106.399 20.0509C105.254 20.0623 104.162 20.2467 103.125 20.6041C102.121 20.9265 101.258 21.3863 100.535 21.9836C99.8812 22.5107 99.3149 23.1585 98.8367 23.9268C98.3581 24.6605 98.0015 25.445 97.7668 26.2803Z" fill="#FFE500"/>
<path d="M127.308 14.6361L134.231 14.567L130.033 37.308L138.726 37.2213L142.925 14.4803L149.848 14.4113L145.65 37.1522L154.344 37.0655L158.542 14.3246L165.466 14.2555L160.131 43.1511L121.973 43.5317L127.308 14.6361Z" fill="#FFE500"/>
<path d="M197.074 31.4331L174.221 31.661C174.299 32.4933 174.515 33.272 174.869 33.9974C175.223 34.688 175.715 35.3078 176.346 35.8569C177.012 36.5097 177.797 36.9878 178.703 37.2911C179.608 37.5944 180.633 37.7404 181.779 37.729C182.508 37.7217 183.218 37.6452 183.911 37.4995C184.603 37.319 185.26 37.0522 185.881 36.6989C186.365 36.4511 186.796 36.1518 187.174 35.8009C187.587 35.415 187.947 34.9949 188.255 34.5407L196.063 34.4628C195.452 35.8225 194.701 37.0448 193.809 38.1296C192.952 39.2141 192.041 40.1082 191.077 40.812C189.767 41.7969 188.248 42.5409 186.517 43.0441C184.822 43.5817 182.898 43.8611 180.747 43.8826C178.63 43.9037 176.77 43.6099 175.167 43.0011C173.6 42.4267 172.167 41.4692 170.87 40.1285C169.503 38.7886 168.498 37.2888 167.857 35.6292C167.25 33.9345 166.937 32.1502 166.919 30.2761C166.893 27.7427 167.321 25.3783 168.202 23.1829C169.082 20.9875 170.278 19.136 171.791 17.6285C173.268 16.156 174.975 15.0457 176.911 14.2975C178.848 13.5493 181.065 13.1628 183.564 13.1379C185.75 13.1161 187.679 13.4092 189.352 14.0172C191.023 14.5906 192.508 15.5303 193.805 16.8362C194.998 18.1085 195.898 19.6267 196.506 21.3908C197.148 23.1545 197.479 25.0428 197.499 27.0556C197.507 27.8191 197.462 28.5658 197.365 29.2956C197.303 30.0251 197.206 30.7376 197.074 31.4331ZM174.785 25.5121L190.558 25.3548C190.445 24.4882 190.177 23.6752 189.753 22.9159C189.363 22.1215 188.905 21.4666 188.379 20.9512C187.715 20.4025 186.947 19.9937 186.076 19.7247C185.24 19.4207 184.354 19.2733 183.417 19.2827C182.272 19.2941 181.18 19.4785 180.143 19.8359C179.139 20.1583 178.276 20.6181 177.553 21.2154C176.899 21.7425 176.333 22.3903 175.855 23.1586C175.376 23.8923 175.019 24.6768 174.785 25.5121Z" fill="#FFE500"/>
<path d="M222.011 33.1627L229.507 33.088C228.396 36.5351 226.496 39.1398 223.806 40.9021C221.116 42.6296 217.984 43.5112 214.409 43.5468C212.153 43.5346 210.207 43.2417 208.57 42.668C206.933 42.129 205.484 41.2237 204.221 39.9521C202.96 38.7499 201.974 37.3193 201.263 35.6604C200.587 33.9665 200.255 32.0261 200.268 29.8394C200.209 27.4104 200.585 25.1159 201.397 22.9559C202.243 20.7956 203.456 18.9266 205.037 17.349C206.549 15.8067 208.256 14.679 210.158 13.9659C212.094 13.2177 214.346 12.8308 216.914 12.8052C220.836 12.7661 223.952 13.7242 226.262 15.6795C228.572 17.6001 230.02 20.102 230.606 23.1852L223.006 23.261C222.54 21.8773 221.732 20.8094 220.579 20.0574C219.426 19.3053 218.069 18.937 216.507 18.9526C215.119 18.9665 213.82 19.2397 212.61 19.7724C211.435 20.27 210.436 20.9915 209.612 21.9369C208.788 22.8475 208.157 23.9297 207.718 25.1836C207.314 26.4371 207.137 27.7925 207.186 29.2497C207.199 30.5685 207.385 31.7641 207.743 32.8365C208.135 33.8738 208.664 34.7189 209.33 35.3717C209.961 36.0596 210.713 36.5727 211.584 36.9111C212.455 37.2495 213.498 37.4126 214.712 37.4005C216.413 37.3835 217.902 37.0216 219.179 36.3147C220.456 35.6078 221.4 34.5571 222.011 33.1627Z" fill="#FFE500"/>
<path d="M235.333 13.5586L256.104 13.3514L254.968 19.5061L248.044 19.5752L243.846 42.3161L236.922 42.3852L241.121 19.6442L234.197 19.7133L235.333 13.5586Z" fill="#FFE500"/>
<path d="M259.484 13.3177L270.78 13.2051C272.411 13.1888 273.749 13.349 274.794 13.6856C275.838 14.0223 276.711 14.5169 277.411 15.1693C277.903 15.6851 278.308 16.3578 278.629 17.1876C278.984 17.9824 279.166 18.8656 279.176 19.8373C279.15 20.74 278.985 21.592 278.681 22.3933C278.411 23.1596 277.967 23.8755 277.349 24.5411C276.834 25.1016 276.249 25.5934 275.593 26.0164C274.938 26.4047 274.246 26.6893 273.519 26.8701C274.877 27.2383 275.925 27.9741 276.665 29.0774C277.439 30.1456 277.834 31.4258 277.849 32.9181C277.83 34.4802 277.514 35.8543 276.901 37.0405C276.288 38.2267 275.413 39.2246 274.275 40.0342C273.31 40.7033 272.222 41.2174 271.011 41.5766C269.834 41.9007 268.43 42.0709 266.799 42.0872L254.149 42.2133L259.484 13.3177ZM265.321 19.1946L264.432 23.9932L269.117 23.9464C269.673 23.9756 270.106 23.9366 270.417 23.8293C270.729 23.7221 271.022 23.5456 271.297 23.2999C271.572 23.0542 271.795 22.757 271.965 22.4082C272.135 22.0247 272.217 21.6074 272.213 21.1563C272.175 20.879 272.104 20.6367 271.997 20.4295C271.926 20.1873 271.802 19.9629 271.626 19.7564C271.381 19.5506 271.102 19.4146 270.789 19.3483C270.51 19.2469 270.145 19.1812 269.694 19.151L265.321 19.1946ZM263.294 29.9396L262.159 36.1984L267.156 36.1485C267.608 36.1787 268.041 36.1397 268.457 36.0314C268.872 35.8885 269.269 35.6936 269.648 35.4469C270.131 35.1297 270.492 34.7443 270.73 34.2907C271.003 33.8021 271.136 33.2107 271.129 32.5166C271.125 32.1002 271.052 31.7538 270.91 31.4776C270.768 31.1666 270.592 30.8907 270.381 30.6498C270.101 30.4097 269.787 30.2393 269.439 30.1386C269.091 30.0033 268.569 29.9217 267.875 29.8939L263.294 29.9396Z" fill="#FFE500"/>
<path d="M285.512 13.0581L292.436 12.989L289.077 31.1922L305.294 12.8608L312.217 12.7917L306.883 41.6874L299.959 41.7564L303.318 23.5532L287.101 41.8847L280.178 41.9537L285.512 13.0581Z" fill="#FFE500"/>
<path d="M343.84 29.9692L320.987 30.1971C321.065 31.0294 321.281 31.8081 321.635 32.5335C321.989 33.2241 322.481 33.8439 323.112 34.393C323.778 35.0458 324.563 35.5239 325.469 35.8272C326.374 36.1306 327.399 36.2765 328.545 36.2651C329.274 36.2578 329.984 36.1813 330.677 36.0356C331.369 35.8551 332.026 35.5883 332.647 35.235C333.131 34.9872 333.562 34.6879 333.94 34.337C334.353 33.9511 334.713 33.531 335.021 33.0768L342.829 32.9989C342.218 34.3586 341.467 35.5809 340.575 36.6657C339.718 37.7502 338.807 38.6443 337.843 39.3481C336.533 40.333 335.014 41.077 333.283 41.5802C331.588 42.1178 329.664 42.3972 327.513 42.4187C325.396 42.4398 323.536 42.146 321.933 41.5372C320.366 40.9628 318.933 40.0053 317.636 38.6646C316.269 37.3247 315.264 35.8249 314.623 34.1653C314.016 32.4706 313.703 30.6863 313.685 28.8122C313.659 26.2788 314.087 23.9144 314.968 21.719C315.848 19.5236 317.044 17.6721 318.557 16.1646C320.034 14.6921 321.741 13.5818 323.677 12.8336C325.614 12.0854 327.831 11.6989 330.33 11.674C332.516 11.6522 334.445 11.9453 336.118 12.5534C337.789 13.1267 339.274 14.0664 340.571 15.3723C341.764 16.6447 342.664 18.1628 343.272 19.9269C343.914 21.6906 344.245 23.5789 344.265 25.5917C344.273 26.3552 344.228 27.1019 344.131 27.8317C344.069 28.5612 343.972 29.2737 343.84 29.9692ZM321.551 24.0482L337.324 23.8909C337.211 23.0243 336.943 22.2113 336.519 21.452C336.129 20.6576 335.671 20.0027 335.145 19.4873C334.481 18.9386 333.713 18.5298 332.842 18.2608C332.006 17.9568 331.12 17.8094 330.183 17.8188C329.038 17.8302 327.946 18.0146 326.908 18.372C325.905 18.6944 325.042 19.1542 324.319 19.7515C323.665 20.2786 323.099 20.9264 322.62 21.6947C322.142 22.4284 321.785 23.2129 321.551 24.0482Z" fill="#FFE500"/>
<path d="M7.08952 67.8973L14.0131 67.8283L12.0367 78.4686L22.8125 78.3612L24.7889 67.7208L31.7125 67.6517L26.378 96.5473L19.4544 96.6164L21.6765 84.5158L10.9007 84.6233L8.6786 96.7239L1.75503 96.7929L7.08952 67.8973Z" fill="#FFE500"/>
<path d="M66.1262 67.3085L60.7917 96.2041L54.4407 96.2674L54.7359 94.5464L54.6318 94.5475C53.7732 95.4584 52.6519 96.1291 51.2678 96.5594C49.8842 97.0244 48.4115 97.2647 46.8498 97.2803C45.2186 97.2965 43.6023 97.0523 42.0007 96.5477C40.4338 96.0427 39.0374 95.241 37.8117 94.1426C36.3417 92.9077 35.1987 91.4093 34.3828 89.6474C33.6013 87.8503 33.2162 85.7717 33.2273 83.4114C33.2028 80.9474 33.5962 78.6354 34.4076 76.4754C35.2534 74.2803 36.5015 72.3937 38.1517 70.8153C39.5955 69.4126 41.2509 68.3549 43.118 67.6421C44.9852 66.9293 46.9946 66.5622 49.1462 66.5407C51.4368 66.5179 53.4014 66.8801 55.0401 67.6273C56.6788 68.3745 58.0087 69.4719 59.0297 70.9195L59.1338 70.9184L59.7752 67.3718L66.1262 67.3085ZM49.2075 72.6834C46.5703 72.7444 44.3761 73.7208 42.6248 75.6125C40.908 77.4692 40.0824 79.959 40.1483 83.0821C40.1729 85.5461 40.852 87.5177 42.1857 88.9968C43.5537 90.4409 45.3829 91.1516 47.6734 91.1287C50.3457 91.1021 52.5403 90.1604 54.2572 88.3038C56.0084 86.4121 56.869 83.9565 56.8389 80.9372C56.8136 78.4038 56.0994 76.3979 54.6963 74.9194C53.3276 73.4059 51.498 72.6606 49.2075 72.6834Z" fill="#FFE500"/>
<path d="M78.4678 96.0278L83.8023 67.1322L90.7259 67.0631L88.2549 80.3115L101.033 66.9603L109.258 66.8782L95.0317 81.181L104.548 95.7676L96.3234 95.8497L87.9603 82.0846L85.3914 95.9587L78.4678 96.0278Z" fill="#FFE500"/>
<path d="M106.887 105.376L113.999 66.831L120.35 66.7676L120.055 68.4886L120.159 68.4876C121.018 67.6113 122.122 66.9582 123.472 66.5282C124.821 66.0636 126.293 65.8059 127.889 65.7553C129.694 65.7373 131.328 65.9813 132.79 66.4873C134.288 66.993 135.667 67.7949 136.927 68.893C138.468 70.3006 139.612 71.9032 140.359 73.7005C141.106 75.4979 141.49 77.4724 141.512 79.6241C141.537 82.1229 141.126 84.4697 140.28 86.6648C139.434 88.8251 138.203 90.6769 136.587 92.2202C135.144 93.6229 133.453 94.681 131.517 95.3945C129.615 96.1076 127.571 96.4751 125.385 96.4969C123.337 96.5173 121.547 96.2228 120.013 95.6134C118.48 95.0039 117.221 94.0273 116.236 92.6835L116.132 92.6846L113.81 105.307L106.887 105.376ZM126.909 71.9084C124.272 71.9347 122.095 72.8935 120.378 74.7849C118.696 76.6759 117.871 79.1484 117.901 82.2024C117.926 84.7359 118.606 86.7422 119.94 88.2213C121.308 89.6654 123.154 90.3758 125.479 90.3527C128.152 90.326 130.346 89.3843 132.063 87.5277C133.78 85.671 134.623 83.2331 134.593 80.2138C134.568 77.6456 133.853 75.6223 132.45 74.1439C131.082 72.6304 129.235 71.8852 126.909 71.9084Z" fill="#FFE500"/>
<path d="M167.418 66.2981L175.122 66.2213L151.716 104.929L144.012 105.006L151.593 92.5912L145.866 66.5131L153.311 66.4389L157.087 84.8832L167.418 66.2981Z" fill="#FFE500"/>
<path d="M178.562 66.187L185.486 66.1179L182.127 84.3211L198.344 65.9897L205.267 65.9206L199.933 94.8162L193.009 94.8853L196.368 76.6821L180.151 95.0135L173.228 95.0826L178.562 66.187Z" fill="#FFE500"/>
<path d="M214.625 74.3655L207.701 74.4345C207.793 73.1494 208.127 71.9139 208.706 70.7281C209.284 69.5423 210.054 68.5107 211.017 67.6334C212.05 66.7207 213.292 66.0488 214.746 65.6178C216.234 65.1518 217.723 64.894 219.215 64.8444C220.777 64.8288 222.133 65.0409 223.283 65.4806C224.467 65.8853 225.444 66.4309 226.214 67.1174C226.915 67.8045 227.444 68.6322 227.801 69.6005C228.192 70.5337 228.41 71.5381 228.456 72.6136C228.474 74.4182 227.969 75.9504 226.94 77.2102C225.946 78.4696 224.618 79.3505 222.957 79.853C224.107 80.258 225.016 80.9605 225.686 81.9603C226.355 82.9255 226.714 84.154 226.764 85.646C226.78 87.2424 226.464 88.6859 225.818 89.9766C225.205 91.2322 224.245 92.3351 222.935 93.2852C221.867 94.0595 220.727 94.6262 219.516 94.9853C218.305 95.3792 217.006 95.5831 215.618 95.5969C214.299 95.6101 213.083 95.466 211.969 95.1647C210.855 94.8635 209.879 94.4047 209.04 93.7883C207.956 93.0355 207.113 92.0547 206.511 90.846C205.944 89.6021 205.652 88.1994 205.636 86.6377C205.634 86.36 205.631 86.0997 205.629 85.8568C205.626 85.5792 205.658 85.3012 205.724 85.0229L212.648 84.9538C212.615 85.093 212.599 85.2319 212.6 85.3708C212.601 85.5096 212.603 85.7005 212.606 85.9434C212.617 87.0539 212.938 87.9184 213.569 88.5369C214.234 89.155 215.088 89.4589 216.129 89.4485C216.684 89.4776 217.187 89.4032 217.636 89.2252C218.086 89.0125 218.482 88.7308 218.825 88.3803C219.134 88.0302 219.373 87.6286 219.542 87.1758C219.746 86.7225 219.845 86.2183 219.84 85.663C219.835 85.2118 219.744 84.8136 219.567 84.4683C219.425 84.0879 219.231 83.7601 218.985 83.4849C218.74 83.2791 218.461 83.1257 218.147 83.0247C217.869 82.9234 217.469 82.8753 216.948 82.8805L215.178 82.8981L216.267 77.1604L218.141 77.1417C218.661 77.1366 219.129 77.0798 219.545 76.9716C219.995 76.8629 220.375 76.6856 220.685 76.4396C221.029 76.1932 221.304 75.8781 221.508 75.4942C221.712 75.0757 221.812 74.5888 221.806 74.0335C221.802 73.5824 221.728 73.1666 221.585 72.7862C221.443 72.4059 221.249 72.0781 221.003 71.8029C220.723 71.5627 220.374 71.3753 219.956 71.2406C219.538 71.0713 219.051 70.9893 218.496 70.9949C217.906 71.0008 217.403 71.0752 216.988 71.2182C216.608 71.3608 216.263 71.5551 215.953 71.8012C215.574 72.1173 215.266 72.5022 215.027 72.9558C214.789 73.4094 214.655 73.8793 214.625 74.3655Z" fill="#FFE500"/>
<path d="M234.788 65.6262L241.711 65.5571L239.735 76.1975L250.511 76.09L252.487 65.4496L259.411 65.3806L254.076 94.2762L247.153 94.3452L249.375 82.2447L238.599 82.3522L236.377 94.4527L229.453 94.5218L234.788 65.6262Z" fill="#FFE500"/>
<path d="M277.209 64.2659C279.499 64.2431 281.481 64.553 283.153 65.1958C284.825 65.8039 286.292 66.709 287.554 67.9112C288.781 69.1485 289.732 70.5967 290.408 72.256C291.084 73.9152 291.433 75.786 291.453 77.8682C291.478 80.367 291.068 82.7139 290.222 84.9089C289.376 87.104 288.197 88.9552 286.685 90.4628C285.139 92.0054 283.397 93.1507 281.461 93.8989C279.559 94.612 277.481 94.9799 275.225 95.0024C272.934 95.0252 270.936 94.7328 269.229 94.125C267.557 93.517 266.09 92.5945 264.828 91.3576C263.567 90.1554 262.598 88.742 261.922 87.1175C261.246 85.4582 260.897 83.5181 260.875 81.297C260.851 78.8676 261.244 76.573 262.056 74.413C262.902 72.2526 264.098 70.3838 265.644 68.8066C267.156 67.299 268.863 66.1713 270.765 65.4235C272.701 64.6753 274.849 64.2895 277.209 64.2659ZM276.906 70.4123C275.587 70.4254 274.357 70.6806 273.217 71.1779C272.077 71.6752 271.095 72.3965 270.271 73.3419C269.447 74.2872 268.817 75.4042 268.378 76.6927C267.974 77.9462 267.78 79.3192 267.794 80.8115C267.806 81.922 267.955 82.9618 268.242 83.9307C268.564 84.8993 269.024 85.7277 269.621 86.416C270.253 87.2079 271.04 87.8248 271.982 88.2666C272.958 88.6734 274.105 88.8702 275.424 88.8571C276.708 88.8442 277.92 88.6065 279.061 88.144C280.201 87.6467 281.201 86.9078 282.058 85.9274C282.848 85.0172 283.462 83.9351 283.9 82.6812C284.339 81.3927 284.55 79.9849 284.535 78.4579C284.524 77.382 284.358 76.3598 284.036 75.3912C283.714 74.4226 283.272 73.5766 282.709 72.8534C282.042 72.0965 281.22 71.4973 280.244 71.0558C279.303 70.614 278.19 70.3995 276.906 70.4123Z" fill="#FFE500"/>
<path d="M298.283 64.9928L308.33 64.8926L312.173 84.8461L323.27 64.7436L333.317 64.6434L327.983 93.539L321.059 93.6081L324.862 72.9015L313.355 93.6849L307.577 93.7426L303.674 73.1128L299.872 93.8194L292.949 93.8885L298.283 64.9928Z" fill="#FFE500"/>
<path d="M366.513 64.3123L372.891 93.0911L365.811 93.1617L361.595 72.3789L350.923 93.3102L343.114 93.3881L358.704 64.3902L366.513 64.3123Z" fill="#FFE500"/>
<path d="M410.088 63.8777L404.754 92.7733L398.403 92.8366L398.698 91.1156L398.594 91.1167C397.735 92.0276 396.614 92.6983 395.23 93.1286C393.846 93.5936 392.374 93.8339 390.812 93.8495C389.181 93.8657 387.564 93.6215 385.963 93.1169C384.396 92.6119 383 91.8102 381.774 90.7117C380.304 89.4769 379.161 87.9785 378.345 86.2165C377.563 84.4195 377.178 82.3409 377.189 79.9806C377.165 77.5166 377.558 75.2046 378.37 73.0446C379.216 70.8495 380.464 68.9628 382.114 67.3845C383.558 65.9818 385.213 64.9241 387.08 64.2113C388.947 63.4985 390.957 63.1314 393.108 63.1099C395.399 63.0871 397.363 63.4492 399.002 64.1965C400.641 64.9437 401.971 66.0411 402.992 67.4887L403.096 67.4876L403.737 63.941L410.088 63.8777ZM393.17 69.2526C390.532 69.3136 388.338 70.29 386.587 72.1817C384.87 74.0383 384.045 76.5282 384.11 79.6513C384.135 82.1153 384.814 84.0869 386.148 85.566C387.516 87.0101 389.345 87.7208 391.636 87.6979C394.308 87.6713 396.502 86.7296 398.219 84.8729C399.971 82.9812 400.831 80.5257 400.801 77.5064C400.776 74.973 400.062 72.9671 398.658 71.4886C397.29 69.9751 395.46 69.2298 393.17 69.2526Z" fill="#FFE500"/>
<path d="M415.614 63.8225L422.538 63.7535L419.179 81.9567L435.396 63.6252L442.32 63.5562L436.985 92.4518L430.062 92.5208L433.42 74.3177L417.204 92.6491L410.28 92.7182L415.614 63.8225ZM422.225 53.2401L427.431 53.1881C427.473 53.986 427.774 54.5904 428.334 55.0013C428.893 55.3775 429.641 55.5609 430.578 55.5516C431.446 55.5429 432.19 55.3446 432.811 54.9566C433.466 54.5336 433.928 53.9216 434.198 53.1206L439.404 53.0687C438.905 55.2603 437.846 57.0063 436.228 58.3066C434.609 59.5722 432.655 60.2165 430.364 60.2393C427.796 60.2649 425.742 59.626 424.202 58.3224C422.696 56.9838 422.037 55.2897 422.225 53.2401Z" fill="#FFE500"/>
<path d="M447.896 63.5005L454.819 63.4315L452.843 74.0719L463.619 73.9644L465.595 63.324L472.519 63.255L467.184 92.1506L460.261 92.2196L462.483 80.1191L451.707 80.2265L449.485 92.3271L442.561 92.3962L447.896 63.5005Z" fill="#FFE500"/>
<path d="M504.14 80.4324L481.287 80.6604C481.364 81.4926 481.58 82.2714 481.935 82.9967C482.289 83.6873 482.781 84.3072 483.411 84.8562C484.077 85.509 484.863 85.9871 485.768 86.2904C486.674 86.5938 487.699 86.7397 488.844 86.7283C489.573 86.721 490.284 86.6445 490.976 86.4988C491.669 86.3183 492.326 86.0515 492.947 85.6982C493.43 85.4504 493.861 85.1511 494.239 84.8003C494.652 84.4144 495.012 83.9943 495.32 83.54L503.129 83.4621C502.518 84.8218 501.766 86.0441 500.875 87.1289C500.018 88.2134 499.107 89.1076 498.142 89.8114C496.833 90.7962 495.313 91.5403 493.583 92.0434C491.887 92.581 489.964 92.8605 487.812 92.8819C485.695 92.903 483.835 92.6092 482.233 92.0005C480.665 91.4261 479.233 90.4685 477.935 89.1279C476.568 87.7879 475.564 86.2881 474.923 84.6285C474.316 82.9339 474.003 81.1495 473.984 79.2755C473.959 76.742 474.387 74.3776 475.267 72.1822C476.148 69.9868 477.344 68.1354 478.856 66.6278C480.334 65.1554 482.041 64.045 483.977 63.2968C485.913 62.5487 488.131 62.1621 490.629 62.1372C492.816 62.1154 494.745 62.4085 496.417 63.0166C498.089 63.5899 499.573 64.5296 500.87 65.8356C502.063 67.1079 502.963 68.6261 503.571 70.3901C504.213 72.1538 504.545 74.0421 504.565 76.055C504.572 76.8185 504.528 77.5651 504.431 78.295C504.369 79.0245 504.272 79.7369 504.14 80.4324ZM481.85 74.5114L497.623 74.3541C497.511 73.4875 497.242 72.6745 496.818 71.9152C496.428 71.1208 495.971 70.4659 495.445 69.9505C494.78 69.4018 494.012 68.993 493.142 68.724C492.306 68.42 491.419 68.2726 490.482 68.282C489.337 68.2934 488.246 68.4778 487.208 68.8353C486.205 69.1576 485.341 69.6175 484.619 70.2147C483.964 70.7419 483.398 71.3896 482.92 72.1579C482.441 72.8916 482.085 73.6761 481.85 74.5114Z" fill="#FFE500"/>
<path d="M504.279 101.412L511.391 62.8672L517.742 62.8039L517.447 64.5249L517.551 64.5238C518.41 63.6476 519.514 62.9944 520.863 62.5645C522.212 62.0998 523.685 61.8422 525.281 61.7916C527.086 61.7736 528.719 62.0176 530.182 62.5236C531.68 63.0293 533.059 63.8312 534.319 64.9293C535.86 66.3369 537.004 67.9394 537.751 69.7368C538.498 71.5342 538.882 73.5087 538.903 75.6604C538.928 78.1591 538.518 80.506 537.672 82.7011C536.826 84.8614 535.595 86.7132 533.979 88.2565C532.535 89.6592 530.845 90.7173 528.909 91.4308C527.007 92.1439 524.963 92.5114 522.776 92.5332C520.729 92.5536 518.938 92.2591 517.405 91.6496C515.872 91.0402 514.613 90.0636 513.627 88.7198L513.523 88.7208L511.202 101.343L504.279 101.412ZM524.301 67.9447C521.664 67.971 519.486 68.9298 517.77 70.8212C516.088 72.7122 515.262 75.1847 515.293 78.2387C515.318 80.7721 515.998 82.7784 517.331 84.2576C518.699 85.7017 520.546 86.4121 522.871 86.3889C525.543 86.3623 527.738 85.4206 529.455 83.564C531.172 81.7073 532.015 79.2693 531.985 76.25C531.959 73.6819 531.245 71.6586 529.842 70.1801C528.473 68.6666 526.626 67.9215 524.301 67.9447Z" fill="#FFE500"/>
<path d="M571.804 79.7575L548.951 79.9855C549.028 80.8177 549.244 81.5965 549.599 82.3218C549.953 83.0124 550.445 83.6323 551.075 84.1813C551.741 84.8341 552.527 85.3122 553.432 85.6155C554.337 85.9189 555.363 86.0648 556.508 86.0534C557.237 86.0461 557.948 85.9696 558.64 85.8239C559.333 85.6434 559.989 85.3766 560.611 85.0233C561.094 84.7755 561.525 84.4762 561.903 84.1254C562.316 83.7394 562.676 83.3194 562.984 82.8651L570.793 82.7872C570.181 84.1469 569.43 85.3692 568.538 86.454C567.681 87.5385 566.771 88.4327 565.806 89.1365C564.497 90.1213 562.977 90.8654 561.247 91.3685C559.551 91.9061 557.628 92.1856 555.476 92.207C553.359 92.2281 551.499 91.9343 549.897 91.3256C548.329 90.7512 546.896 89.7936 545.599 88.4529C544.232 87.113 543.228 85.6132 542.586 83.9536C541.98 82.2589 541.667 80.4746 541.648 78.6006C541.623 76.0671 542.05 73.7027 542.931 71.5073C543.811 69.3119 545.008 67.4605 546.52 65.9529C547.998 64.4805 549.705 63.3701 551.641 62.6219C553.577 61.8738 555.794 61.4872 558.293 61.4623C560.48 61.4405 562.409 61.7336 564.081 62.3417C565.753 62.915 567.237 63.8547 568.534 65.1607C569.727 66.433 570.627 67.9511 571.235 69.7152C571.877 71.4789 572.208 73.3672 572.228 75.3801C572.236 76.1436 572.191 76.8902 572.095 77.6201C572.032 78.3496 571.935 79.062 571.804 79.7575ZM549.514 73.8365L565.287 73.6792C565.174 72.8126 564.906 71.9996 564.482 71.2403C564.092 70.4459 563.634 69.791 563.109 69.2756C562.444 68.7269 561.676 68.3181 560.806 68.0491C559.97 67.7451 559.083 67.5977 558.146 67.6071C557.001 67.6185 555.909 67.8029 554.872 68.1604C553.868 68.4827 553.005 68.9426 552.282 69.5398C551.628 70.0669 551.062 70.7147 550.584 71.483C550.105 72.2167 549.749 73.0012 549.514 73.8365Z" fill="#FFE500"/>
</svg>
