<svg width="340" height="96" viewBox="0 0 340 96" fill="none" xmlns="http://www.w3.org/2000/svg">
<path d="M42.9357 12.7396H34.468C33.7443 10.9697 32.5501 9.65131 30.8855 8.7844C29.2209 7.9175 27.2849 7.48405 25.0775 7.48405C22.5806 7.48405 20.3913 7.9175 18.5096 8.7844C16.6279 9.65131 15.0537 10.8614 13.7872 12.4146C12.593 13.8594 11.6884 15.539 11.0732 17.4534C10.4942 19.3678 10.2228 21.3364 10.259 23.3592C10.259 25.2014 10.5304 26.8629 11.0732 28.3439C11.616 29.7887 12.3759 31.0168 13.353 32.0282C14.3662 33.148 15.5604 33.9968 16.9355 34.5748C18.3467 35.1166 19.9209 35.3875 21.6578 35.3875C23.9376 35.4236 26.0003 34.9902 27.8458 34.0871C29.6913 33.1841 31.1931 31.9741 32.3511 30.457H40.9816C39.1361 34.2136 36.5306 37.1393 33.1653 39.2344C29.7999 41.2933 25.8374 42.3227 21.2779 42.3227C18.2744 42.3227 15.687 41.8712 13.5158 40.9682C11.3446 40.0651 9.40859 38.6925 7.7078 36.8504C6.04321 35.0805 4.81285 33.0938 4.01674 30.8904C3.22063 28.687 2.82258 26.2669 2.82258 23.6301C2.82258 20.3792 3.38347 17.3089 4.50527 14.4193C5.66325 11.4935 7.30975 8.94695 9.44477 6.77969C11.4712 4.7208 13.8053 3.1676 16.4469 2.12009C19.1248 1.07258 22.2187 0.548828 25.7289 0.548828C29.9989 0.548828 33.6538 1.57827 36.6935 3.63717C39.7332 5.69606 41.8139 8.73022 42.9357 12.7396Z" fill="#FFE500"/>
<path d="M75.1931 29.5359H51.364C51.4364 30.4028 51.6535 31.2155 52.0154 31.9741C52.3772 32.6965 52.8839 33.3466 53.5352 33.9246C54.2228 34.6109 55.037 35.1166 55.9778 35.4417C56.9187 35.7668 57.9862 35.9293 59.1804 35.9293C59.9403 35.9293 60.6821 35.8571 61.4059 35.7126C62.1296 35.532 62.8172 35.2611 63.4685 34.8998C63.9751 34.647 64.4275 34.34 64.8255 33.9788C65.2598 33.5814 65.6397 33.148 65.9654 32.6784H74.1075C73.4561 34.0871 72.66 35.3514 71.7191 36.4711C70.8145 37.5909 69.8555 38.5119 68.8423 39.2344C67.4672 40.2457 65.875 41.0043 64.0656 41.51C62.2924 42.0518 60.2841 42.3227 58.0405 42.3227C55.8331 42.3227 53.8971 41.9976 52.2325 41.3474C50.6041 40.7334 49.1204 39.722 47.7815 38.3133C46.3702 36.9046 45.3389 35.3333 44.6875 33.5995C44.0724 31.8296 43.7648 29.9693 43.7648 28.0188C43.7648 25.382 44.2352 22.9258 45.1761 20.6501C46.1169 18.3745 47.3835 16.4601 48.9757 14.9069C50.5317 13.3898 52.323 12.252 54.3494 11.4935C56.3759 10.7349 58.6919 10.3557 61.2973 10.3557C63.5771 10.3557 65.5855 10.6808 67.3224 11.3309C69.0594 11.945 70.5973 12.9383 71.9363 14.3109C73.1666 15.6474 74.0894 17.2367 74.7046 19.0789C75.3559 20.921 75.6816 22.8896 75.6816 24.9846C75.6816 25.7793 75.6273 26.5559 75.5188 27.3145C75.4464 28.073 75.3378 28.8135 75.1931 29.5359ZM52.0154 23.1425H68.4623C68.3538 22.2395 68.0824 21.3906 67.6481 20.596C67.2501 19.7652 66.7796 19.0789 66.2368 18.5371C65.5493 17.9591 64.7532 17.5257 63.8485 17.2367C62.98 16.9116 62.0572 16.7491 61.0802 16.7491C59.886 16.7491 58.7461 16.9297 57.6605 17.2909C56.6111 17.616 55.7064 18.0855 54.9465 18.6996C54.259 19.2414 53.6619 19.9097 53.1553 20.7043C52.6486 21.4629 52.2687 22.2756 52.0154 23.1425Z" fill="#FFE500"/>
<path d="M75.1197 51.371L82.9361 11.3309H89.5583L89.2326 13.1189H89.3412C90.2458 12.2159 91.4038 11.5477 92.8151 11.1142C94.2264 10.6446 95.7643 10.3918 97.4289 10.3557C99.3106 10.3557 101.011 10.6266 102.531 11.1684C104.087 11.7102 105.517 12.559 106.819 13.7149C108.412 15.1959 109.588 16.8755 110.348 18.7538C111.108 20.6321 111.488 22.691 111.488 24.9305C111.488 27.5312 111.035 29.9693 110.131 32.245C109.226 34.4845 107.923 36.3989 106.222 37.9882C104.702 39.433 102.929 40.5167 100.903 41.2391C98.9126 41.9615 96.7775 42.3227 94.4978 42.3227C92.3628 42.3227 90.4991 41.9976 88.9069 41.3474C87.3147 40.6973 86.012 39.6678 84.9987 38.2591H84.8902L82.339 51.371H75.1197ZM96.3433 16.7491C93.5931 16.7491 91.3133 17.7243 89.504 19.6749C87.7308 21.6254 86.8443 24.19 86.8443 27.3686C86.8443 30.0055 87.5318 32.1005 88.9069 33.6537C90.3182 35.1708 92.2361 35.9293 94.6606 35.9293C97.447 35.9293 99.7449 34.9721 101.554 33.0577C103.364 31.1433 104.268 28.6148 104.268 25.4723C104.268 22.7993 103.545 20.6863 102.097 19.1331C100.686 17.5437 98.7678 16.7491 96.3433 16.7491Z" fill="#FFE500"/>
<path d="M116.381 11.3309H138.039L136.791 17.7243H129.571L124.958 41.3474H117.738L122.352 17.7243H115.133L116.381 11.3309Z" fill="#FFE500"/>
<path d="M141.563 11.3309L148.782 11.3309L145.091 30.2402L162.19 11.3309H169.409L163.547 41.3474H156.327L160.018 22.4381L142.92 41.3474H135.701L141.563 11.3309Z" fill="#FFE500"/>
<path d="M192.973 1.25319L200.192 1.25319L198.401 10.3557C200.065 10.5001 201.73 10.8794 203.395 11.4935C205.059 12.0714 206.489 12.83 207.683 13.7691C209.166 15.0333 210.343 16.6768 211.211 18.6996C212.116 20.7224 212.568 22.9258 212.568 25.3097C212.532 28.2355 211.79 30.9807 210.343 33.5453C208.895 36.1099 206.814 38.1507 204.1 39.6678C202.436 40.607 200.536 41.2933 198.401 41.7267C196.266 42.1602 194.203 42.3588 192.213 42.3227L190.422 51.371H183.202L184.994 42.3227C183.293 42.1782 181.61 41.817 179.946 41.2391C178.281 40.6611 176.87 39.8845 175.712 38.9093C174.156 37.6812 172.943 36.0738 172.075 34.0871C171.243 32.1005 170.826 29.9332 170.826 27.5854C170.79 24.5873 171.514 21.7879 172.998 19.1872C174.481 16.5865 176.58 14.5276 179.294 13.0106C180.923 12.1075 182.804 11.4393 184.939 11.0058C187.074 10.5363 189.155 10.3195 191.182 10.3557L192.973 1.25319ZM186.188 35.9293L189.987 16.7491C188.685 16.713 187.382 16.8574 186.079 17.1825C184.813 17.4715 183.655 17.9591 182.605 18.6454C181.194 19.5846 180.072 20.8307 179.24 22.3839C178.444 23.901 178.046 25.6529 178.046 27.6395C178.046 28.9038 178.245 30.0416 178.643 31.053C179.041 32.0282 179.62 32.8771 180.38 33.5995C181.031 34.2858 181.845 34.8457 182.822 35.2791C183.836 35.7126 184.957 35.9293 186.188 35.9293ZM197.207 16.7491L193.407 35.9293C194.674 36.0015 195.94 35.8932 197.207 35.6042C198.509 35.2791 199.704 34.7554 200.789 34.0329C202.164 33.1299 203.268 31.9199 204.1 30.4028C204.933 28.8857 205.349 27.1338 205.349 25.1472C205.349 23.883 205.132 22.7451 204.697 21.7338C204.299 20.7224 203.738 19.8374 203.015 19.0789C202.327 18.4287 201.477 17.8869 200.464 17.4534C199.486 17.02 198.401 16.7852 197.207 16.7491Z" fill="#FFE500"/>
<path d="M219.75 11.3309H226.969L223.278 30.2402L240.377 11.3309H247.596L241.734 41.3474H234.514L238.205 22.4381L221.107 41.3474H213.888L219.75 11.3309Z" fill="#FFE500"/>
<path d="M247.548 41.3474L253.41 11.3309H260.629L257.915 25.093L271.377 11.3309L279.953 11.3309L264.972 26.0683L274.742 41.3474H266.166L257.59 26.9352L254.767 41.3474H247.548Z" fill="#FFE500"/>
<path d="M314.968 11.3309L309.106 41.3474H302.484L302.81 39.5594H302.701C301.796 40.4986 300.62 41.1849 299.173 41.6183C297.725 42.0879 296.187 42.3227 294.559 42.3227C292.858 42.3227 291.175 42.0518 289.511 41.51C287.882 40.9682 286.435 40.1193 285.168 38.9635C283.649 37.6631 282.472 36.0918 281.64 34.2497C280.844 32.3714 280.464 30.2041 280.5 27.7479C280.5 25.1833 280.935 22.7813 281.803 20.5418C282.708 18.2662 284.029 16.3156 285.765 14.6902C287.285 13.2453 289.022 12.1617 290.976 11.4393C292.93 10.7169 295.029 10.3557 297.273 10.3557C299.661 10.3557 301.706 10.753 303.407 11.5477C305.107 12.3423 306.482 13.4982 307.532 15.0153H307.64L308.346 11.3309H314.968ZM297.273 16.7491C294.523 16.7852 292.225 17.7785 290.379 19.729C288.57 21.6435 287.683 24.2261 287.72 27.477C287.72 30.0416 288.407 32.1005 289.782 33.6537C291.194 35.1708 293.093 35.9293 295.482 35.9293C298.268 35.9293 300.566 34.9721 302.375 33.0577C304.221 31.1071 305.144 28.5606 305.144 25.4181C305.144 22.7813 304.42 20.6863 302.972 19.1331C301.561 17.5437 299.661 16.7491 297.273 16.7491Z" fill="#FFE500"/>
<path d="M318.342 11.3309L340 11.3309L338.752 17.7243H331.532L326.918 41.3474L319.699 41.3474L324.313 17.7243H317.094L318.342 11.3309Z" fill="#FFE500"/>
<path d="M5.86227 55.5088H13.0816L10.9103 66.5618H22.1464L24.3176 55.5088H31.5369L25.6746 85.5253H18.4553L20.8979 72.9552H9.66189L7.21928 85.5253H0L5.86227 55.5088Z" fill="#FFE500"/>
<path d="M67.4204 55.5088L61.5581 85.5253H54.9359L55.2616 83.7373H55.153C54.2484 84.6764 53.0723 85.3627 51.6248 85.7962C50.1773 86.2658 48.6394 86.5005 47.011 86.5005C45.3102 86.5005 43.6275 86.2296 41.9629 85.6878C40.3345 85.146 38.887 84.2972 37.6205 83.1413C36.1006 81.8409 34.9246 80.2697 34.0923 78.4275C33.2962 76.5492 32.9162 74.382 32.9524 71.9257C32.9524 69.3611 33.3866 66.9591 34.2551 64.7196C35.1598 62.444 36.4806 60.4935 38.2176 58.868C39.7374 57.4232 41.4744 56.3396 43.4285 55.6171C45.3826 54.8947 47.4814 54.5335 49.725 54.5335C52.1133 54.5335 54.1579 54.9308 55.8587 55.7255C57.5595 56.5202 58.9346 57.676 59.984 59.1931H60.0925L60.7982 55.5088L67.4204 55.5088ZM49.725 60.9269C46.9748 60.963 44.6769 61.9564 42.8314 63.9069C41.0221 65.8213 40.1355 68.4039 40.1717 71.6548C40.1717 74.2194 40.8592 76.2783 42.2343 77.8315C43.6456 79.3486 45.5454 80.1071 47.9338 80.1071C50.7201 80.1071 53.018 79.1499 54.8274 77.2355C56.6729 75.285 57.5956 72.7385 57.5956 69.5959C57.5956 66.9591 56.8719 64.8641 55.4244 63.3109C54.0131 61.7216 52.1133 60.9269 49.725 60.9269Z" fill="#FFE500"/>
<path d="M79.9892 85.5253L85.8515 55.5088H93.0708L90.3568 69.2708L103.818 55.5088H112.395L97.4132 70.2461L107.184 85.5253H98.6074L90.0311 71.113L87.2085 85.5253H79.9892Z" fill="#FFE500"/>
<path d="M137.205 55.5088H145.238L120.432 95.5488H112.399L120.432 82.7078L114.733 55.5088H122.495L126.24 74.7432L137.205 55.5088Z" fill="#FFE500"/>
<path d="M140.249 85.5253L154.09 69.5418L146.925 55.5088H155.067L159.247 64.6654L166.629 55.5088H175.151L162.395 70.4087L170.212 85.5253H161.798L157.184 75.285L148.879 85.5253H140.249Z" fill="#FFE500"/>
<path d="M179.199 55.5088H186.418L184.247 66.5618H195.483L197.654 55.5088H204.873L199.011 85.5253H191.792L194.234 72.9552H182.998L180.556 85.5253H173.337L179.199 55.5088Z" fill="#FFE500"/>
<path d="M215.734 66.5618H220.076C220.366 65.1169 220.872 63.7624 221.596 62.4982C222.356 61.1978 223.279 60.0419 224.364 59.0306C225.956 57.5135 227.748 56.3937 229.738 55.6713C231.764 54.9128 233.972 54.5335 236.36 54.5335C238.785 54.5335 240.865 54.8766 242.602 55.5629C244.376 56.2131 245.914 57.1703 247.216 58.4346C248.483 59.7349 249.46 61.252 250.147 62.9858C250.835 64.7196 251.179 66.6701 251.179 68.8374C251.179 71.4381 250.726 73.8763 249.822 76.1519C248.917 78.4275 247.669 80.3419 246.076 81.8951C244.448 83.4844 242.621 84.6584 240.594 85.4169C238.604 86.1393 236.433 86.5005 234.08 86.5005C231.656 86.5005 229.557 86.1754 227.784 85.5253C226.011 84.839 224.509 83.8637 223.279 82.5995C222.084 81.4436 221.126 80.0168 220.402 78.3191C219.714 76.6215 219.352 74.8335 219.316 72.9552H214.485L212.043 85.5253H204.823L210.686 55.5088H217.905L215.734 66.5618ZM234.243 80.1071C235.655 80.1071 236.957 79.8723 238.151 79.4028C239.346 78.8971 240.395 78.1385 241.3 77.1272C242.132 76.188 242.783 75.0683 243.254 73.7679C243.724 72.4314 243.959 70.9685 243.959 69.3792C243.959 68.2595 243.797 67.1939 243.471 66.1825C243.145 65.1711 242.693 64.2862 242.114 63.5276C241.39 62.6607 240.522 62.0286 239.508 61.6313C238.531 61.1978 237.464 60.963 236.306 60.9269C234.822 60.9269 233.465 61.1978 232.235 61.7396C231.041 62.2453 230.009 62.9677 229.141 63.9069C228.272 64.8821 227.603 66.038 227.133 67.3745C226.698 68.6749 226.481 70.1016 226.481 71.6548C226.481 72.8107 226.626 73.8943 226.915 74.9057C227.241 75.9171 227.712 76.784 228.327 77.5064C228.978 78.3372 229.792 78.9874 230.769 79.457C231.746 79.8904 232.904 80.1071 234.243 80.1071Z" fill="#FFE500"/>
</svg>
