<svg width="354" height="228" viewBox="0 0 354 228" fill="none" xmlns="http://www.w3.org/2000/svg">
<path d="M43.2309 24.4833L37.3698 21.0994C37.5775 19.5829 37.2787 18.1915 36.4736 16.9251C35.6685 15.6588 34.502 14.5846 32.9742 13.7024C31.2459 12.7046 29.557 12.1303 27.9075 11.9795C26.258 11.8286 24.684 12.0386 23.1855 12.6095C21.7805 13.1342 20.4819 13.9374 19.2897 15.019C18.1225 16.1152 17.1465 17.3718 16.3618 18.7889C15.6243 20.0663 15.1469 21.3269 14.9297 22.5708C14.727 23.7896 14.7613 24.9448 15.0327 26.0366C15.2857 27.218 15.7724 28.2838 16.4928 29.2341C17.2528 30.1738 18.2338 30.9907 19.4361 31.6848C20.9996 32.6209 22.6008 33.1446 24.2398 33.2559C25.8787 33.3673 27.4026 33.1283 28.8115 32.5391L34.7852 35.988C32.0039 37.8554 29.0291 38.843 25.861 38.9509C22.7073 39.0337 19.5525 38.1641 16.3966 36.342C14.3177 35.1417 12.7076 33.7947 11.5663 32.3009C10.425 30.807 9.63447 29.0816 9.19476 27.1245C8.75118 25.232 8.69493 23.3627 9.02601 21.5167C9.35709 19.6707 10.0505 17.8335 11.1061 16.005C12.4076 13.7508 14.025 11.8459 15.9584 10.2904C17.9312 8.72435 20.0903 7.6165 22.4358 6.96687C24.6627 6.349 26.9001 6.2047 29.1479 6.53399C31.4207 6.87773 33.772 7.75096 36.2015 9.15368C39.1571 10.8601 41.2747 13.0345 42.5544 15.6769C43.8341 18.3193 44.0596 21.2548 43.2309 24.4833Z" fill="#FFE500"/>
<path d="M61.2004 33.5555L66.7608 36.7659L33.561 54.6176L28.0005 51.4073L38.7019 45.7134L45.6461 24.5753L51.0187 27.6771L45.9106 42.5115L61.2004 33.5555Z" fill="#FFE500"/>
<path d="M69.2434 38.1992L87.0144 48.4593L70.9397 66.9308L65.9428 64.0458L78.5938 49.5087L70.8166 45.0186L58.1656 59.5557L53.1687 56.6707L69.2434 38.1992Z" fill="#FFE500"/>
<path d="M102.422 74.1864L85.9282 64.6638C85.6312 65.2939 85.4561 65.9442 85.4029 66.6148C85.3641 67.2603 85.4545 67.9136 85.674 68.5747C85.8751 69.3254 86.2362 70.0014 86.7573 70.6028C87.2784 71.2042 87.9522 71.7435 88.7787 72.2207C89.3047 72.5244 89.8471 72.7708 90.4059 72.9598C90.9792 73.1238 91.5635 73.2107 92.159 73.2205C92.6109 73.2476 93.0469 73.2155 93.467 73.1241C93.9266 73.0221 94.3632 72.8734 94.7766 72.6779L100.412 75.9316C99.3974 76.6482 98.3402 77.2067 97.2407 77.6072C96.1662 78.0221 95.1337 78.2776 94.1432 78.3736C92.7865 78.5254 91.3807 78.4151 89.9259 78.0427C88.4817 77.7099 86.9831 77.0951 85.4302 76.1986C83.9023 75.3164 82.6924 74.3173 81.8005 73.2013C80.9193 72.1247 80.2972 70.8305 79.9345 69.3186C79.5216 67.7778 79.4368 66.2761 79.6801 64.8136C79.9629 63.3404 80.4947 61.9276 81.2756 60.575C82.3313 58.7466 83.6402 57.2314 85.2025 56.0294C86.7648 54.8274 88.4078 54.006 90.1317 53.5653C91.8161 53.1351 93.5115 53.062 95.2178 53.3458C96.9241 53.6296 98.679 54.2921 100.482 55.3333C102.06 56.2444 103.32 57.2724 104.262 58.4173C105.219 59.5373 105.886 60.8407 106.263 62.3275C106.579 63.7459 106.582 65.2167 106.27 66.74C105.983 68.2777 105.421 69.7729 104.582 71.2256C104.264 71.7767 103.915 72.2935 103.536 72.7761C103.183 73.2732 102.811 73.7433 102.422 74.1864ZM88.9386 60.4908L100.323 67.0633C100.609 66.3937 100.761 65.6967 100.778 64.9721C100.836 64.2369 100.785 63.573 100.626 62.9804C100.381 62.3049 100.004 61.6862 99.4934 61.1243C99.0224 60.5518 98.4488 60.0703 97.7725 59.6799C96.9459 59.2027 96.0847 58.8724 95.1886 58.689C94.3321 58.4951 93.5179 58.4592 92.7461 58.5813C92.0533 58.6823 91.3725 58.907 90.7037 59.2556C90.0494 59.5791 89.461 59.9909 88.9386 60.4908Z" fill="#FFE500"/>
<path d="M93.6293 89.298L115.069 64.6569L119.653 67.3032L118.712 68.4129L118.787 68.4563C119.775 68.1916 120.844 68.191 121.994 68.4544C123.159 68.6928 124.325 69.132 125.491 69.7722C126.794 70.5242 127.862 71.3917 128.698 72.3748C129.558 73.3723 130.207 74.5321 130.646 75.8542C131.155 77.5174 131.297 79.1521 131.071 80.7582C130.845 82.3644 130.284 83.9439 129.387 85.4968C128.346 87.3002 127.057 88.8101 125.519 90.0266C123.997 91.218 122.329 92.0249 120.515 92.4473C118.885 92.8418 117.224 92.8846 115.532 92.5758C113.865 92.2814 112.242 91.6786 110.664 90.7676C109.187 89.9144 108.027 88.9442 107.185 87.8571C106.343 86.77 105.854 85.5355 105.716 84.1538L105.641 84.1104L98.6262 92.183L93.6293 89.298ZM122.18 73.7717C120.277 72.6727 118.308 72.4379 116.275 73.0674C114.267 73.7114 112.626 75.1354 111.354 77.3396C110.298 79.168 109.935 80.8955 110.265 82.5221C110.635 84.138 111.659 85.4304 113.337 86.3993C115.265 87.5128 117.239 87.7673 119.258 87.1629C121.277 86.5584 122.915 85.1667 124.173 82.9876C125.243 81.1341 125.588 79.3796 125.208 77.7241C124.868 76.0581 123.858 74.7406 122.18 73.7717Z" fill="#FFE500"/>
<path d="M123.797 97.4481L139.872 78.9766L144.869 81.8616L137.481 90.32L152.308 86.1565L158.244 89.5837L141.974 93.8161L142.62 108.316L136.684 104.888L136.518 91.4672L128.794 100.333L123.797 97.4481Z" fill="#FFE500"/>
<path d="M170.886 95.9806C172.539 96.935 173.829 97.9972 174.756 99.1673C175.698 100.312 176.367 101.583 176.763 102.981C177.119 104.388 177.188 105.831 176.969 107.308C176.751 108.785 176.208 110.275 175.341 111.778C174.299 113.581 173.01 115.091 171.473 116.307C169.936 117.524 168.305 118.352 166.581 118.793C164.818 119.245 163.083 119.328 161.377 119.044C159.71 118.75 158.062 118.133 156.434 117.193C154.781 116.238 153.471 115.182 152.504 114.022C151.562 112.877 150.901 111.593 150.52 110.171C150.124 108.774 150.028 107.349 150.232 105.897C150.45 104.42 151.022 102.88 151.948 101.277C152.96 99.524 154.215 98.0444 155.713 96.8386C157.235 95.6472 158.886 94.8133 160.663 94.3369C162.387 93.8961 164.09 93.8105 165.771 94.0798C167.478 94.3636 169.182 94.9972 170.886 95.9806ZM168.063 100.262C167.111 99.7126 166.121 99.3745 165.092 99.248C164.063 99.1214 163.052 99.2228 162.061 99.552C161.069 99.8812 160.143 100.415 159.282 101.154C158.461 101.882 157.74 102.785 157.118 103.862C156.655 104.663 156.322 105.472 156.117 106.289C155.938 107.121 155.916 107.91 156.053 108.657C156.171 109.493 156.474 110.269 156.963 110.986C157.49 111.691 158.23 112.318 159.182 112.868C160.109 113.403 161.079 113.746 162.094 113.898C163.123 114.025 164.153 113.918 165.184 113.578C166.136 113.259 167.035 112.743 167.881 112.03C168.742 111.291 169.491 110.37 170.127 109.268C170.575 108.492 170.889 107.688 171.068 106.856C171.248 106.025 171.289 105.231 171.192 104.473C171.034 103.647 170.699 102.869 170.185 102.139C169.697 101.423 168.99 100.797 168.063 100.262Z" fill="#FFE500"/>
<path d="M185.698 105.434L192.949 109.621L187.25 125.566L203.732 115.846L210.983 120.033L194.908 138.504L189.911 135.619L201.416 122.374L184.351 132.409L180.181 130.001L186.125 113.545L174.62 126.791L169.623 123.906L185.698 105.434Z" fill="#FFE500"/>
<path d="M215.013 122.36L232.784 132.62L216.71 151.091L211.713 148.206L224.364 133.669L216.587 129.179L203.936 143.716L198.939 140.831L215.013 122.36Z" fill="#FFE500"/>
<path d="M236.807 134.942L241.804 137.827L236.168 144.292L239.888 146.439C240.9 147.057 241.74 147.742 242.408 148.495C243.115 149.237 243.597 150.05 243.855 150.934C244.053 151.749 244.072 152.612 243.914 153.522C243.78 154.447 243.461 155.348 242.955 156.225C242.322 157.262 241.531 158.141 240.581 158.862C239.645 159.557 238.566 160.037 237.346 160.3C236.204 160.543 235.068 160.572 233.939 160.387C232.824 160.178 231.578 159.675 230.201 158.88L220.733 153.414L236.807 134.942ZM232.745 148.226L229.153 152.364L232.948 154.555C233.349 154.787 233.759 154.973 234.178 155.115C234.611 155.232 234.997 155.287 235.334 155.281C235.84 155.273 236.282 155.144 236.659 154.895C237.037 154.645 237.369 154.302 237.654 153.866C237.885 153.465 238.004 153.116 238.009 152.818C238.053 152.51 238.02 152.19 237.911 151.86C237.772 151.579 237.574 151.315 237.317 151.066C237.099 150.807 236.79 150.562 236.389 150.33L232.745 148.226Z" fill="#FFE500"/>
<path d="M255.396 155.893L258.401 157.629C259.18 156.743 260.073 156.006 261.08 155.418C262.127 154.82 263.228 154.388 264.384 154.12C266.094 153.704 267.782 153.644 269.449 153.938C271.155 154.222 272.835 154.841 274.488 155.795C276.166 156.764 277.469 157.834 278.396 159.004C279.363 160.163 280.045 161.442 280.44 162.839C280.796 164.247 280.865 165.689 280.647 167.166C280.429 168.643 279.886 170.133 279.018 171.636C277.977 173.439 276.688 174.949 275.151 176.166C273.613 177.382 271.983 178.211 270.259 178.651C268.496 179.103 266.761 179.187 265.054 178.903C263.388 178.608 261.74 177.991 260.112 177.051C258.434 176.082 257.111 175.018 256.144 173.859C255.192 172.674 254.543 171.398 254.197 170.029C253.833 168.751 253.741 167.378 253.92 165.912C254.123 164.46 254.589 163.075 255.316 161.758L251.972 159.828L245.249 167.568L240.252 164.683L256.327 146.212L261.323 149.097L255.396 155.893ZM262.784 172.683C263.761 173.247 264.757 173.605 265.771 173.756C266.8 173.883 267.83 173.776 268.862 173.436C269.814 173.118 270.713 172.602 271.559 171.888C272.42 171.149 273.168 170.229 273.804 169.127C274.253 168.35 274.567 167.546 274.746 166.715C274.926 165.883 274.967 165.089 274.87 164.332C274.716 163.441 274.368 162.656 273.825 161.975C273.323 161.284 272.678 160.695 271.891 160.207C270.864 159.614 269.816 159.26 268.748 159.144C267.719 159.017 266.716 159.106 265.738 159.41C264.747 159.739 263.821 160.273 262.96 161.012C262.139 161.74 261.417 162.643 260.796 163.72C260.333 164.521 259.999 165.331 259.795 166.148C259.615 166.979 259.594 167.768 259.73 168.515C259.849 169.352 260.152 170.128 260.64 170.844C261.143 171.535 261.858 172.148 262.784 172.683Z" fill="#FFE500"/>
<path d="M287.731 164.343L302.722 172.998L299.298 176.933L294.301 174.048L281.65 188.585L276.653 185.7L289.304 171.163L284.308 168.278L287.731 164.343Z" fill="#FFE500"/>
<path d="M316.546 197.811L300.052 188.288C299.755 188.918 299.58 189.569 299.527 190.239C299.488 190.885 299.578 191.538 299.798 192.199C299.999 192.95 300.36 193.626 300.881 194.227C301.402 194.829 302.076 195.368 302.903 195.845C303.429 196.149 303.971 196.395 304.53 196.584C305.103 196.748 305.687 196.835 306.283 196.845C306.735 196.872 307.171 196.84 307.591 196.749C308.05 196.647 308.487 196.498 308.9 196.302L314.536 199.556C313.521 200.273 312.464 200.831 311.364 201.232C310.29 201.647 309.257 201.902 308.267 201.998C306.91 202.15 305.504 202.04 304.05 201.667C302.605 201.334 301.107 200.72 299.554 199.823C298.026 198.941 296.816 197.942 295.924 196.826C295.043 195.749 294.421 194.455 294.058 192.943C293.645 191.402 293.561 189.901 293.804 188.438C294.087 186.965 294.619 185.552 295.399 184.199C296.455 182.371 297.764 180.856 299.326 179.654C300.889 178.452 302.532 177.63 304.256 177.19C305.94 176.76 307.635 176.686 309.342 176.97C311.048 177.254 312.803 177.917 314.606 178.958C316.184 179.869 317.444 180.897 318.386 182.042C319.342 183.162 320.009 184.465 320.387 185.952C320.703 187.37 320.706 188.841 320.394 190.364C320.107 191.902 319.544 193.397 318.706 194.85C318.388 195.401 318.039 195.918 317.66 196.401C317.307 196.898 316.935 197.368 316.546 197.811ZM303.062 184.115L314.446 190.688C314.733 190.018 314.885 189.321 314.902 188.597C314.959 187.861 314.908 187.197 314.75 186.605C314.505 185.929 314.128 185.311 313.617 184.749C313.146 184.176 312.573 183.695 311.896 183.304C311.07 182.827 310.208 182.497 309.312 182.313C308.456 182.12 307.642 182.084 306.87 182.206C306.177 182.307 305.496 182.531 304.827 182.88C304.173 183.204 303.585 183.615 303.062 184.115Z" fill="#FFE500"/>
<path d="M307.753 212.922L329.193 188.281L333.777 190.928L332.836 192.037L332.911 192.081C333.898 191.816 334.968 191.815 336.118 192.079C337.283 192.317 338.448 192.756 339.615 193.397C340.918 194.149 341.986 195.016 342.821 195.999C343.681 196.997 344.331 198.157 344.77 199.479C345.279 201.142 345.421 202.777 345.195 204.383C344.969 205.989 344.407 207.568 343.511 209.121C342.47 210.925 341.18 212.435 339.643 213.651C338.12 214.842 336.452 215.649 334.639 216.072C333.008 216.466 331.347 216.509 329.655 216.2C327.989 215.906 326.366 215.303 324.788 214.392C323.31 213.539 322.151 212.569 321.309 211.482C320.467 210.394 319.978 209.16 319.84 207.778L319.765 207.735L312.75 215.807L307.753 212.922ZM336.304 197.396C334.4 196.297 332.432 196.062 330.399 196.692C328.391 197.336 326.75 198.76 325.478 200.964C324.422 202.792 324.059 204.52 324.389 206.146C324.759 207.762 325.782 209.055 327.461 210.024C329.389 211.137 331.363 211.392 333.382 210.787C335.401 210.183 337.039 208.791 338.297 206.612C339.367 204.758 339.712 203.004 339.332 201.349C338.992 199.683 337.982 198.365 336.304 197.396Z" fill="#FFE500"/>
</svg>
