<svg width="390" height="41" viewBox="0 0 390 41" fill="none" xmlns="http://www.w3.org/2000/svg">
<path d="M7.19209 0.0140381L25.8901 0.0140381L24.8056 5.56705H12.051L10.7061 12.4649H15.1312C16.8954 12.4649 18.327 12.6819 19.4261 13.1157C20.554 13.5495 21.5374 14.1858 22.3761 15.0245C23.1281 15.8633 23.6921 16.8177 24.068 17.8878C24.444 18.929 24.632 20.0714 24.632 21.3151C24.632 23.2528 24.285 24.9158 23.5908 26.3041C22.8967 27.6634 21.9134 28.8203 20.6408 29.7747C19.5996 30.5556 18.4283 31.1485 17.1268 31.5534C15.8542 31.9294 14.437 32.1174 12.8753 32.1174H0.944946L7.19209 0.0140381ZM9.62153 18.018L7.97297 26.5644H13.5694C14.2635 26.5644 14.8853 26.4776 15.4348 26.3041C16.0133 26.1016 16.5339 25.8269 16.9966 25.4798C17.5172 25.0749 17.9221 24.5688 18.2113 23.9614C18.5295 23.3541 18.6886 22.631 18.6886 21.7923C18.6886 21.2138 18.6018 20.7222 18.4283 20.3173C18.2837 19.8834 18.0667 19.5074 17.7775 19.1893C17.4015 18.8133 16.9388 18.5386 16.3893 18.365C15.8687 18.1626 15.2468 18.0469 14.5238 18.018H9.62153Z" fill="#FFE500"/>
<path d="M24.6585 40.1433L30.9056 8.08326H36.1983L35.938 9.5149H36.0248C36.7478 8.79185 37.6733 8.2568 38.8013 7.90973C39.9293 7.53375 41.1584 7.33129 42.4888 7.30237C43.9928 7.30237 45.3521 7.51928 46.5668 7.95311C47.8105 8.38694 48.9529 9.06661 49.9941 9.99211C51.2667 11.1779 52.2066 12.5228 52.814 14.0267C53.4214 15.5307 53.725 17.1792 53.725 18.9724C53.725 21.0548 53.3635 23.007 52.6405 24.8291C51.9174 26.6222 50.8762 28.1551 49.5169 29.4277C48.3022 30.5845 46.885 31.4522 45.2654 32.0306C43.6746 32.6091 41.9683 32.8983 40.1462 32.8983C38.4398 32.8983 36.9503 32.638 35.6777 32.1174C34.4052 31.5968 33.364 30.7725 32.5542 29.6446H32.4674L30.4284 40.1433H24.6585ZM41.6212 12.4216C39.4231 12.4216 37.601 13.2024 36.1549 14.7642C34.7378 16.326 34.0292 18.3795 34.0292 20.9246C34.0292 23.0359 34.5787 24.7134 35.6777 25.957C36.8057 27.1718 38.3385 27.7791 40.2763 27.7791C42.5033 27.7791 44.3399 27.0127 45.786 25.4798C47.2321 23.947 47.9551 21.9224 47.9551 19.4062C47.9551 17.266 47.3767 15.574 46.2198 14.3304C45.0918 13.0578 43.559 12.4216 41.6212 12.4216Z" fill="#FFE500"/>
<path d="M81.1064 22.6599H62.0613C62.1192 23.3541 62.2927 24.0048 62.5819 24.6122C62.8712 25.1906 63.2761 25.7112 63.7966 26.1739C64.3462 26.7235 64.9969 27.1284 65.7489 27.3887C66.5009 27.649 67.354 27.7791 68.3085 27.7791C68.9158 27.7791 69.5087 27.7213 70.0872 27.6056C70.6656 27.461 71.2151 27.2441 71.7357 26.9548C72.1406 26.7524 72.5022 26.5066 72.8203 26.2173C73.1674 25.8992 73.471 25.5521 73.7313 25.1761H80.2388C79.7182 26.3041 79.0819 27.3164 78.3299 28.2129C77.6069 29.1095 76.8405 29.847 76.0306 30.4255C74.9316 31.2353 73.659 31.8427 72.2129 32.2476C70.7958 32.6814 69.1906 32.8983 67.3974 32.8983C65.6332 32.8983 64.0859 32.638 62.7555 32.1174C61.454 31.6257 60.2682 30.8159 59.1981 29.688C58.0701 28.56 57.2458 27.3019 56.7252 25.9137C56.2336 24.4965 55.9877 23.007 55.9877 21.4452C55.9877 19.3339 56.3637 17.3672 57.1157 15.5451C57.8677 13.723 58.8799 12.1902 60.1525 10.9465C61.3961 9.73181 62.8278 8.82077 64.4474 8.21341C66.067 7.60605 67.918 7.30237 70.0004 7.30237C71.8225 7.30237 73.4277 7.56267 74.8159 8.08326C76.2042 8.57494 77.4333 9.37029 78.5035 10.4693C79.4868 11.5394 80.2243 12.812 80.716 14.287C81.2366 15.762 81.4969 17.3383 81.4969 19.0158C81.4969 19.652 81.4535 20.2739 81.3667 20.8812C81.3089 21.4886 81.2221 22.0815 81.1064 22.6599ZM62.5819 17.5407H75.727C75.6402 16.8177 75.4233 16.138 75.0762 15.5017C74.7581 14.8365 74.3821 14.287 73.9483 13.8532C73.3987 13.3904 72.7625 13.0434 72.0394 12.812C71.3453 12.5517 70.6078 12.4216 69.8269 12.4216C68.8725 12.4216 67.9614 12.5662 67.0938 12.8554C66.255 13.1157 65.532 13.4917 64.9246 13.9833C64.3751 14.4172 63.8979 14.9522 63.493 15.5885C63.0881 16.1959 62.7844 16.8466 62.5819 17.5407Z" fill="#FFE500"/>
<path d="M87.295 8.08326H93.0649L91.3296 16.9334L100.31 16.9334L102.045 8.08326H107.815L103.13 32.1174H97.3598L99.312 22.0526L90.3318 22.0526L88.3795 32.1174H82.6096L87.295 8.08326Z" fill="#FFE500"/>
<path d="M127.514 8.08326L132.59 26.9982H135.453L133.284 38.191H127.644L128.816 32.1174H111.549L110.378 38.191H104.738L106.907 26.9982H109.771L121.007 8.08326H127.514ZM116.278 26.9982H126.517L123.306 14.7642L116.278 26.9982Z" fill="#FFE500"/>
<path d="M152.142 7.30237C154.051 7.30237 155.7 7.57713 157.088 8.12665C158.476 8.64724 159.691 9.41367 160.732 10.4259C161.744 11.4671 162.525 12.6819 163.075 14.0701C163.624 15.4584 163.899 17.0201 163.899 18.7555C163.899 20.8378 163.538 22.7901 162.814 24.6122C162.091 26.4342 161.094 27.9671 159.821 29.2108C158.52 30.4833 157.059 31.4233 155.439 32.0306C153.849 32.6091 152.113 32.8983 150.233 32.8983C148.325 32.8983 146.662 32.638 145.244 32.1174C143.856 31.5968 142.641 30.8159 141.6 29.7747C140.559 28.7625 139.764 27.5767 139.214 26.2173C138.665 24.8291 138.39 23.2094 138.39 21.3584C138.39 19.3339 138.737 17.4251 139.431 15.6319C140.154 13.8387 141.166 12.2914 142.468 10.9899C143.74 9.74628 145.172 8.82077 146.763 8.21341C148.382 7.60605 150.176 7.30237 152.142 7.30237ZM151.839 12.4216C150.74 12.4216 149.713 12.624 148.758 13.0289C147.804 13.4338 146.98 14.0267 146.286 14.8076C145.591 15.5885 145.056 16.514 144.68 17.5841C144.333 18.6253 144.16 19.7677 144.16 21.0114C144.16 21.9369 144.275 22.8045 144.507 23.6144C144.767 24.4242 145.143 25.1183 145.635 25.6967C146.155 26.3619 146.806 26.8825 147.587 27.2585C148.397 27.6056 149.351 27.7791 150.45 27.7791C151.52 27.7791 152.533 27.5911 153.487 27.2151C154.442 26.8102 155.28 26.2029 156.003 25.3931C156.669 24.6411 157.189 23.7445 157.565 22.7033C157.941 21.6332 158.129 20.4619 158.129 19.1893C158.129 18.2927 157.999 17.4395 157.739 16.6297C157.478 15.8199 157.117 15.1113 156.654 14.5039C156.105 13.8677 155.425 13.3615 154.615 12.9855C153.834 12.6095 152.909 12.4216 151.839 12.4216Z" fill="#FFE500"/>
<path d="M169.697 8.08326L179.111 8.08326C180.471 8.08326 181.584 8.22787 182.452 8.51709C183.319 8.80631 184.042 9.22568 184.621 9.7752C185.026 10.209 185.358 10.773 185.619 11.4671C185.908 12.1323 186.052 12.8698 186.052 13.6797C186.024 14.4316 185.879 15.1402 185.619 15.8054C185.387 16.4417 185.011 17.0346 184.491 17.5841C184.057 18.0469 183.565 18.4518 183.016 18.7988C182.466 19.117 181.888 19.3484 181.28 19.493C182.408 19.8111 183.276 20.4329 183.883 21.3584C184.52 22.255 184.838 23.3251 184.838 24.5688C184.809 25.8703 184.534 27.0127 184.013 27.996C183.493 28.9794 182.755 29.8037 181.801 30.4689C180.991 31.0184 180.08 31.4377 179.068 31.727C178.084 31.9873 176.913 32.1174 175.554 32.1174H165.012L169.697 8.08326ZM174.513 13.0289L173.732 17.0201H177.636C178.099 17.0491 178.46 17.0201 178.721 16.9334C178.981 16.8466 179.227 16.702 179.458 16.4996C179.69 16.2971 179.878 16.0513 180.022 15.762C180.167 15.4439 180.239 15.0968 180.239 14.7209C180.21 14.4895 180.152 14.287 180.066 14.1135C180.008 13.911 179.907 13.723 179.762 13.5495C179.56 13.376 179.328 13.2603 179.068 13.2024C178.836 13.1157 178.533 13.0578 178.157 13.0289L174.513 13.0289ZM172.734 21.9658L171.736 27.1718H175.901C176.277 27.2007 176.638 27.1718 176.985 27.085C177.333 26.9693 177.665 26.8102 177.983 26.6078C178.388 26.3475 178.692 26.0293 178.894 25.6534C179.126 25.2484 179.241 24.7568 179.241 24.1783C179.241 23.8313 179.184 23.5421 179.068 23.3107C178.952 23.0504 178.808 22.819 178.634 22.6165C178.403 22.4141 178.142 22.2695 177.853 22.1827C177.564 22.067 177.13 21.9947 176.552 21.9658H172.734Z" fill="#FFE500"/>
<path d="M215.423 8.08326L210.737 32.1174H205.445L205.705 30.6858H205.618C204.895 31.4377 203.955 31.9873 202.798 32.3343C201.641 32.7103 200.412 32.8983 199.111 32.8983C197.751 32.8983 196.407 32.6814 195.076 32.2476C193.775 31.8137 192.618 31.1341 191.605 30.2086C190.391 29.1674 189.451 27.9093 188.786 26.4342C188.149 24.9303 187.846 23.195 187.875 21.2283C187.875 19.1748 188.222 17.2515 188.916 15.4584C189.639 13.6363 190.694 12.0745 192.083 10.773C193.297 9.61613 194.686 8.74847 196.247 8.17003C197.809 7.59159 199.487 7.30237 201.28 7.30237C203.189 7.30237 204.823 7.62051 206.182 8.2568C207.541 8.89308 208.641 9.81858 209.479 11.0333H209.566L210.13 8.08326H215.423ZM201.28 12.4216C199.082 12.4505 197.245 13.2458 195.77 14.8076C194.324 16.3405 193.616 18.4084 193.645 21.0114C193.645 23.0648 194.194 24.7134 195.293 25.957C196.421 27.1718 197.939 27.7791 199.848 27.7791C202.075 27.7791 203.912 27.0127 205.358 25.4798C206.833 23.918 207.57 21.879 207.57 19.3628C207.57 17.2515 206.992 15.574 205.835 14.3304C204.707 13.0578 203.189 12.4216 201.28 12.4216Z" fill="#FFE500"/>
<path d="M238.813 8.08326L234.128 32.1174H228.358L230.18 22.5732L221.46 32.1174H213.998L222.935 23.2673C222.212 23.2094 221.546 23.0504 220.939 22.7901C220.332 22.5009 219.826 22.1393 219.421 21.7055C218.813 21.156 218.351 20.4763 218.032 19.6665C217.714 18.8567 217.57 17.9601 217.599 16.9768C217.57 15.6464 217.859 14.3593 218.466 13.1157C219.103 11.872 220.028 10.8164 221.243 9.94873C222.11 9.34137 223.079 8.87862 224.149 8.56048C225.249 8.24233 226.42 8.08326 227.663 8.08326H238.813ZM230.874 19.2327L232.045 13.2024H227.056C226.564 13.2314 226.102 13.3037 225.668 13.4194C225.263 13.5351 224.916 13.7086 224.627 13.94C224.222 14.2581 223.904 14.663 223.672 15.1547C223.441 15.6174 223.34 16.1091 223.369 16.6297C223.369 17.0057 223.426 17.3528 223.542 17.6709C223.658 17.989 223.846 18.2493 224.106 18.4518C224.366 18.741 224.699 18.9435 225.104 19.0591C225.509 19.1748 226.058 19.2327 226.752 19.2327H230.874Z" fill="#FFE500"/>
<path d="M268.159 24.3085H274.406C273.451 27.1718 271.846 29.3264 269.59 30.7725C267.334 32.1897 264.717 32.8983 261.738 32.8983C259.858 32.8694 258.238 32.6091 256.879 32.1174C255.52 31.6547 254.32 30.8882 253.278 29.8181C252.237 28.8058 251.427 27.6056 250.849 26.2173C250.299 24.8002 250.039 23.1805 250.068 21.3584C250.039 19.3339 250.372 17.4251 251.066 15.6319C251.789 13.8387 252.816 12.2914 254.146 10.9899C255.419 9.71735 256.85 8.79185 258.441 8.21341C260.061 7.60605 261.941 7.30237 264.081 7.30237C267.349 7.30237 269.937 8.12665 271.846 9.7752C273.755 11.3948 274.941 13.4917 275.404 16.0657H269.07C268.694 14.9088 268.029 14.0123 267.074 13.376C266.12 12.7397 264.992 12.4216 263.69 12.4216C262.533 12.4216 261.449 12.6385 260.437 13.0723C259.453 13.4772 258.615 14.0701 257.92 14.851C257.226 15.603 256.691 16.4996 256.315 17.5407C255.968 18.5819 255.809 19.7099 255.838 20.9246C255.838 22.0236 255.983 23.0215 256.272 23.918C256.59 24.7857 257.024 25.4943 257.573 26.0438C258.094 26.6222 258.716 27.0561 259.439 27.3453C260.162 27.6345 261.029 27.7791 262.042 27.7791C263.459 27.7791 264.703 27.4899 265.773 26.9115C266.843 26.333 267.638 25.4654 268.159 24.3085Z" fill="#FFE500"/>
<path d="M297.21 8.08326H303.631L283.805 40.1433H277.384L283.805 29.8615L279.25 8.08326H285.453L288.447 23.4842L297.21 8.08326Z" fill="#FFE500"/>
<path d="M306.497 8.08326H314.87L317.907 24.7423L327.321 8.08326H335.694L331.009 32.1174H325.239L328.579 14.8944L318.818 32.1174H314.003L310.922 14.8944L307.582 32.1174H301.812L306.497 8.08326Z" fill="#FFE500"/>
<path d="M335.663 32.1174L340.348 8.08326H346.118L343.949 19.1025L354.708 8.08326H361.562L349.589 19.8834L357.397 32.1174H350.543L343.688 20.5776L341.433 32.1174H335.663Z" fill="#FFE500"/>
<path d="M389.548 8.08326L384.862 32.1174H379.57L379.83 30.6858H379.743C379.02 31.4377 378.08 31.9873 376.923 32.3343C375.766 32.7103 374.537 32.8983 373.236 32.8983C371.876 32.8983 370.531 32.6814 369.201 32.2476C367.9 31.8137 366.743 31.1341 365.73 30.2086C364.516 29.1674 363.576 27.9093 362.91 26.4342C362.274 24.9303 361.971 23.195 361.999 21.2283C361.999 19.1748 362.346 17.2515 363.041 15.4584C363.764 13.6363 364.819 12.0745 366.208 10.773C367.422 9.61613 368.811 8.74847 370.372 8.17003C371.934 7.59159 373.612 7.30237 375.405 7.30237C377.314 7.30237 378.948 7.62051 380.307 8.2568C381.666 8.89308 382.765 9.81858 383.604 11.0333H383.691L384.255 8.08326H389.548ZM375.405 12.4216C373.207 12.4505 371.37 13.2458 369.895 14.8076C368.449 16.3405 367.74 18.4084 367.769 21.0114C367.769 23.0648 368.319 24.7134 369.418 25.957C370.546 27.1718 372.064 27.7791 373.973 27.7791C376.2 27.7791 378.037 27.0127 379.483 25.4798C380.958 23.918 381.695 21.879 381.695 19.3628C381.695 17.2515 381.117 15.574 379.96 14.3304C378.832 13.0578 377.314 12.4216 375.405 12.4216Z" fill="#FFE500"/>
</svg>
