<svg width="307" height="112" viewBox="0 0 307 112" fill="none" xmlns="http://www.w3.org/2000/svg">
<path d="M56.1636 32.6599L62.3979 0.548828L85.6465 0.548828L79.4122 32.6599H73.481L78.6329 6.10317L67.2467 6.10317L62.0948 32.6599H56.1636Z" fill="#FFE500"/>
<path d="M99.7034 7.8389C101.608 7.8389 103.253 8.11372 104.639 8.66337C106.024 9.18409 107.236 9.9507 108.275 10.9632C109.286 12.0047 110.065 13.2197 110.613 14.6082C111.162 15.9968 111.436 17.559 111.436 19.2947C111.436 21.3776 111.075 23.3303 110.354 25.1528C109.632 26.9753 108.636 28.5086 107.366 29.7525C106.068 31.0254 104.61 31.9656 102.994 32.5731C101.406 33.1516 99.6745 33.4409 97.7985 33.4409C95.8935 33.4409 94.2339 33.1806 92.8197 32.6599C91.4343 32.1391 90.2221 31.3581 89.1831 30.3166C88.144 29.3041 87.3503 28.118 86.8019 26.7584C86.2535 25.3698 85.9793 23.7498 85.9793 21.8983C85.9793 19.8733 86.3257 17.964 87.0184 16.1704C87.7399 14.3768 88.7501 12.8291 90.0489 11.5273C91.3189 10.2834 92.7475 9.35766 94.335 8.75016C95.9513 8.14265 97.7407 7.8389 99.7034 7.8389ZM99.4003 12.9593C98.3036 12.9593 97.2789 13.1618 96.3265 13.5668C95.374 13.9718 94.5514 14.5649 93.8587 15.3459C93.1661 16.127 92.6321 17.0527 92.2569 18.1231C91.9105 19.1645 91.7374 20.3072 91.7374 21.5512C91.7374 22.4769 91.8528 23.3448 92.0837 24.1548C92.3435 24.9648 92.7187 25.6591 93.2093 26.2376C93.7289 26.903 94.3783 27.4237 95.1576 27.7998C95.9657 28.147 96.9181 28.3205 98.0149 28.3205C99.0828 28.3205 100.093 28.1325 101.045 27.7564C101.998 27.3514 102.835 26.7439 103.556 25.9339C104.22 25.1817 104.74 24.285 105.115 23.2435C105.49 22.1731 105.678 21.0015 105.678 19.7287C105.678 18.8319 105.548 17.9785 105.288 17.1685C105.028 16.3584 104.668 15.6497 104.206 15.0422C103.658 14.4057 102.979 13.8995 102.171 13.5234C101.392 13.1473 100.468 12.9593 99.4003 12.9593Z" fill="#FFE500"/>
<path d="M138.739 23.2001H119.733C119.791 23.8944 119.964 24.5453 120.253 25.1528C120.541 25.7314 120.945 26.2521 121.465 26.715C122.013 27.2646 122.663 27.6696 123.413 27.93C124.163 28.1903 125.015 28.3205 125.967 28.3205C126.573 28.3205 127.165 28.2627 127.742 28.147C128.32 28.0023 128.868 27.7853 129.388 27.4961C129.792 27.2936 130.152 27.0477 130.47 26.7584C130.816 26.4402 131.119 26.093 131.379 25.7169H137.873C137.354 26.8452 136.719 27.8577 135.968 28.7545C135.247 29.6513 134.482 30.3889 133.674 30.9675C132.577 31.7775 131.307 32.385 129.864 32.79C128.45 33.224 126.848 33.4409 125.058 33.4409C123.298 33.4409 121.753 33.1806 120.426 32.6599C119.127 32.1681 117.944 31.3581 116.876 30.2298C115.75 29.1016 114.927 27.8432 114.408 26.4546C113.917 25.0371 113.672 23.5473 113.672 21.9851C113.672 19.8733 114.047 17.9061 114.798 16.0836C115.548 14.2611 116.558 12.7279 117.828 11.4839C119.069 10.2689 120.498 9.35766 122.114 8.75016C123.731 8.14265 125.578 7.8389 127.656 7.8389C129.474 7.8389 131.076 8.09926 132.461 8.61998C133.847 9.11177 135.073 9.90731 136.141 11.0066C137.123 12.077 137.859 13.3498 138.349 14.8252C138.869 16.3006 139.129 17.8772 139.129 19.5551C139.129 20.1915 139.085 20.8135 138.999 21.421C138.941 22.0285 138.854 22.6215 138.739 23.2001ZM120.253 18.0797H133.371C133.284 17.3565 133.067 16.6767 132.721 16.0402C132.404 15.3749 132.028 14.8252 131.596 14.3913C131.047 13.9284 130.412 13.5813 129.691 13.3498C128.998 13.0895 128.262 12.9593 127.483 12.9593C126.53 12.9593 125.621 13.1039 124.755 13.3932C123.918 13.6536 123.197 14.0297 122.59 14.5215C122.042 14.9554 121.566 15.4906 121.162 16.127C120.758 16.7345 120.455 17.3854 120.253 18.0797Z" fill="#FFE500"/>
<path d="M147.989 15.7365L142.23 15.7365C142.317 14.6661 142.606 13.6391 143.096 12.6556C143.587 11.672 144.236 10.8186 145.045 10.0953C145.91 9.3432 146.949 8.79355 148.162 8.4464C149.403 8.07033 150.644 7.86783 151.885 7.8389C153.184 7.8389 154.309 8.02694 155.262 8.40301C156.243 8.75016 157.051 9.21302 157.686 9.7916C158.264 10.3702 158.696 11.0645 158.985 11.8745C159.303 12.6556 159.476 13.4945 159.505 14.3913C159.505 15.8956 159.072 17.1685 158.206 18.2099C157.369 19.2513 156.258 19.9746 154.872 20.3796C155.825 20.7267 156.575 21.3197 157.123 22.1587C157.672 22.9687 157.96 23.9957 157.989 25.2396C157.989 26.5703 157.715 27.7709 157.167 28.8412C156.647 29.8827 155.839 30.7939 154.742 31.575C153.848 32.2115 152.895 32.6743 151.885 32.9636C150.875 33.2818 149.792 33.4409 148.638 33.4409C147.541 33.4409 146.531 33.3108 145.607 33.0504C144.684 32.79 143.876 32.3995 143.183 31.8788C142.288 31.2423 141.596 30.4179 141.105 29.4054C140.643 28.3639 140.412 27.1923 140.412 25.8905C140.412 25.6591 140.412 25.4421 140.412 25.2396C140.412 25.0082 140.441 24.7767 140.499 24.5453H146.257C146.228 24.661 146.214 24.7767 146.214 24.8925C146.214 25.0082 146.214 25.1673 146.214 25.3698C146.214 26.2955 146.473 27.0187 146.993 27.5394C147.541 28.0602 148.248 28.3205 149.114 28.3205C149.576 28.3495 149.994 28.2916 150.37 28.147C150.745 27.9734 151.077 27.7419 151.365 27.4527C151.625 27.1634 151.827 26.8307 151.972 26.4546C152.145 26.0785 152.231 25.6591 152.231 25.1962C152.231 24.8201 152.159 24.4875 152.015 24.1982C151.899 23.8799 151.741 23.6051 151.539 23.3737C151.337 23.2001 151.106 23.0699 150.846 22.9832C150.615 22.8964 150.283 22.853 149.85 22.853H148.378L149.331 18.0797H150.889C151.322 18.0797 151.712 18.0363 152.058 17.9495C152.433 17.8627 152.751 17.7181 153.011 17.5156C153.299 17.3131 153.53 17.0527 153.703 16.7345C153.876 16.3874 153.963 15.9824 153.963 15.5195C153.963 15.1434 153.905 14.7963 153.79 14.4781C153.674 14.1599 153.516 13.885 153.314 13.6536C153.083 13.4511 152.794 13.292 152.448 13.1763C152.101 13.0316 151.697 12.9593 151.236 12.9593C150.745 12.9593 150.326 13.0172 149.98 13.1329C149.663 13.2486 149.374 13.4077 149.114 13.6102C148.797 13.8706 148.537 14.1888 148.335 14.5649C148.133 14.9409 148.017 15.3315 147.989 15.7365Z" fill="#FFE500"/>
<path d="M179.851 8.61998L184.916 27.5394H187.774L185.609 38.7349H179.981L181.15 32.6599H163.919L162.75 38.7349H157.122L159.286 27.5394L162.144 27.5394L173.357 8.61998L179.851 8.61998ZM168.638 27.5394H178.855L175.651 15.3025L168.638 27.5394Z" fill="#FFE500"/>
<path d="M189.578 32.6599L194.254 8.61998H200.012L197.848 19.6419L208.584 8.61998H215.425L203.476 20.4229L211.268 32.6599H204.428L197.588 21.1172L195.336 32.6599L189.578 32.6599Z" fill="#FFE500"/>
<path d="M243.352 8.61998L238.677 32.6599H233.395L233.655 31.2279H233.568C232.846 31.98 231.908 32.5297 230.754 32.8768C229.599 33.2529 228.373 33.4409 227.074 33.4409C225.717 33.4409 224.375 33.224 223.048 32.79C221.749 32.3561 220.594 31.6763 219.584 30.7505C218.372 29.7091 217.434 28.4507 216.77 26.9753C216.135 25.471 215.832 23.7353 215.861 21.7681C215.861 19.7142 216.207 17.7904 216.9 15.9968C217.622 14.1743 218.675 12.6122 220.06 11.3104C221.273 10.1532 222.658 9.28534 224.217 8.70676C225.775 8.12819 227.449 7.8389 229.239 7.8389C231.144 7.8389 232.774 8.15712 234.131 8.79355C235.487 9.42999 236.584 10.3557 237.421 11.5707H237.508L238.071 8.61998L243.352 8.61998ZM229.239 12.9593C227.045 12.9882 225.212 13.7838 223.74 15.3459C222.297 16.8792 221.59 18.9476 221.619 21.5512C221.619 23.6051 222.167 25.2541 223.264 26.498C224.39 27.713 225.905 28.3205 227.81 28.3205C230.032 28.3205 231.865 27.5539 233.308 26.0207C234.78 24.4585 235.516 22.419 235.516 19.9022C235.516 17.7904 234.939 16.1125 233.785 14.8686C232.659 13.5957 231.144 12.9593 229.239 12.9593Z" fill="#FFE500"/>
<path d="M4.67571 47.6739H14.0704C15.427 47.6739 16.5381 47.8186 17.404 48.1079C18.2699 48.3971 18.9914 48.8166 19.5687 49.3663C19.9728 49.8002 20.3047 50.3643 20.5645 51.0586C20.8531 51.724 20.9974 52.4617 20.9974 53.2717C20.9685 54.0238 20.8242 54.7326 20.5645 55.3979C20.3336 56.0344 19.9583 56.6274 19.4388 57.1771C19.0059 57.6399 18.5152 58.0449 17.9668 58.3921C17.4185 58.7103 16.8412 58.9417 16.2351 59.0864C17.3607 59.4046 18.2266 60.0265 18.8327 60.9523C19.4677 61.8491 19.7851 62.9194 19.7851 64.1634C19.7563 65.4652 19.4821 66.6079 18.9626 67.5914C18.4431 68.575 17.7071 69.3995 16.7546 70.0649C15.9465 70.6145 15.0373 71.034 14.0271 71.3233C13.0458 71.5836 11.8769 71.7138 10.5203 71.7138H0L4.67571 47.6739ZM9.48129 52.6208L8.70201 56.6129H12.5984C13.0602 56.6419 13.421 56.6129 13.6808 56.5262C13.9405 56.4394 14.1859 56.2947 14.4168 56.0922C14.6477 55.8897 14.8353 55.6438 14.9796 55.3545C15.1239 55.0363 15.196 54.6892 15.196 54.3131C15.1672 54.0817 15.1094 53.8792 15.0229 53.7056C14.9651 53.5031 14.8641 53.3151 14.7198 53.1415C14.5178 52.9679 14.2869 52.8522 14.0271 52.7943C13.7962 52.7075 13.4932 52.6497 13.118 52.6208H9.48129ZM7.70626 61.5598L6.7105 66.767H10.8667C11.2419 66.7959 11.6027 66.767 11.949 66.6802C12.2954 66.5645 12.6273 66.4054 12.9448 66.2029C13.3488 65.9425 13.6519 65.6243 13.854 65.2482C14.0849 64.8432 14.2003 64.3514 14.2003 63.7728C14.2003 63.4257 14.1426 63.1364 14.0271 62.905C13.9117 62.6446 13.7673 62.4132 13.5942 62.2107C13.3633 62.0082 13.1035 61.8635 12.8149 61.7767C12.5263 61.661 12.0933 61.5887 11.5161 61.5598H7.70626Z" fill="#FFE500"/>
<path d="M56.6019 39.6028L62.7063 66.1595H65.7369L63.4856 77.7889H57.5544L58.7233 71.7138H35.6045L34.4356 77.7889H28.5044L30.7557 66.1595H33.7862L49.675 39.6028H56.6019ZM40.7132 66.1595H56.472L52.186 46.1986L40.7132 66.1595Z" fill="#FFE500"/>
<path d="M71.9414 47.6739H77.6994L74.7555 62.8182L88.3929 47.6739H94.151L89.4753 71.7138H83.7172L86.6612 56.5696L73.0237 71.7138H67.2657L71.9414 47.6739Z" fill="#FFE500"/>
<path d="M113.335 63.903H119.569C118.617 66.767 117.015 68.9222 114.764 70.3686C112.513 71.7861 109.9 72.4949 106.928 72.4949C105.052 72.466 103.435 72.2056 102.079 71.7138C100.722 71.2509 99.5244 70.4843 98.4854 69.414C97.4464 68.4015 96.6382 67.2009 96.061 65.8123C95.5126 64.3948 95.2528 62.7748 95.2817 60.9523C95.2528 58.9272 95.5847 57.0179 96.2774 55.2244C96.999 53.4308 98.0236 51.8831 99.3513 50.5813C100.621 49.3084 102.05 48.3827 103.637 47.8041C105.254 47.1966 107.13 46.8928 109.266 46.8928C112.527 46.8928 115.11 47.7173 117.015 49.3663C118.92 50.9863 120.103 53.0836 120.565 55.6583H114.244C113.869 54.5011 113.205 53.6043 112.253 52.9679C111.3 52.3315 110.175 52.0133 108.876 52.0133C107.721 52.0133 106.639 52.2302 105.629 52.6642C104.648 53.0692 103.811 53.6622 103.118 54.4433C102.425 55.1954 101.891 56.0922 101.516 57.1337C101.17 58.1751 101.011 59.3033 101.04 60.5183C101.04 61.6176 101.184 62.6157 101.473 63.5125C101.79 64.3803 102.223 65.0891 102.771 65.6387C103.291 66.2173 103.912 66.6513 104.633 66.9405C105.355 67.2298 106.221 67.3745 107.231 67.3745C108.645 67.3745 109.886 67.0852 110.954 66.5066C112.022 65.928 112.816 65.0602 113.335 63.903Z" fill="#FFE500"/>
<path d="M126.481 47.6739H132.239L130.507 56.5262H139.469L141.201 47.6739H146.959L142.283 71.7138H136.525L138.473 61.6466H129.512L127.563 71.7138H121.805L126.481 47.6739Z" fill="#FFE500"/>
<path d="M173.112 62.2541H154.106C154.164 62.9484 154.337 63.5993 154.625 64.2068C154.914 64.7853 155.318 65.3061 155.838 65.7689C156.386 66.3186 157.035 66.7236 157.786 66.9839C158.536 67.2443 159.388 67.3745 160.34 67.3745C160.946 67.3745 161.538 67.3166 162.115 67.2009C162.692 67.0563 163.241 66.8393 163.76 66.55C164.164 66.3475 164.525 66.1016 164.843 65.8123C165.189 65.4941 165.492 65.147 165.752 64.7709H172.246C171.726 65.8991 171.091 66.9116 170.341 67.8084C169.619 68.7052 168.854 69.4429 168.046 70.0215C166.95 70.8315 165.68 71.439 164.236 71.844C162.822 72.2779 161.22 72.4949 159.431 72.4949C157.67 72.4949 156.126 72.2345 154.798 71.7138C153.5 71.222 152.316 70.412 151.248 69.2838C150.123 68.1556 149.3 66.8971 148.781 65.5086C148.29 64.091 148.045 62.6012 148.045 61.0391C148.045 58.9272 148.42 56.9601 149.17 55.1376C149.921 53.3151 150.931 51.7818 152.201 50.5379C153.442 49.3229 154.871 48.4116 156.487 47.8041C158.103 47.1966 159.95 46.8928 162.029 46.8928C163.847 46.8928 165.449 47.1532 166.834 47.6739C168.219 48.1657 169.446 48.9613 170.514 50.0606C171.495 51.1309 172.231 52.4038 172.722 53.8792C173.242 55.3545 173.501 56.9312 173.501 58.609C173.501 59.2455 173.458 59.8674 173.371 60.4749C173.314 61.0825 173.227 61.6755 173.112 62.2541ZM154.625 57.1337H167.743C167.657 56.4104 167.44 55.7306 167.094 55.0942C166.776 54.4288 166.401 53.8792 165.968 53.4452C165.42 52.9824 164.785 52.6352 164.063 52.4038C163.371 52.1434 162.635 52.0133 161.855 52.0133C160.903 52.0133 159.994 52.1579 159.128 52.4472C158.291 52.7075 157.569 53.0836 156.963 53.5754C156.415 54.0093 155.939 54.5445 155.534 55.181C155.13 55.7885 154.827 56.4394 154.625 57.1337Z" fill="#FFE500"/>
<path d="M179.287 47.6739H185.045L182.102 62.8182L195.739 47.6739H201.497L196.821 71.7138H191.063L194.007 56.5696L180.37 71.7138H174.612L179.287 47.6739ZM184.872 38.9085H189.202C189.23 39.5738 189.476 40.0801 189.938 40.4272C190.399 40.7455 191.02 40.9046 191.799 40.9046C192.521 40.9046 193.141 40.7455 193.661 40.4272C194.209 40.0801 194.599 39.5738 194.83 38.9085H199.159C198.726 40.731 197.831 42.1774 196.475 43.2478C195.118 44.2893 193.488 44.81 191.583 44.81C189.447 44.81 187.744 44.2603 186.474 43.161C185.233 42.0328 184.699 40.6153 184.872 38.9085Z" fill="#FFE500"/>
<path d="M218.993 47.6739L224.058 71.7138H218.17L214.836 54.3565L205.788 71.7138H199.294L212.499 47.6739H218.993Z" fill="#FFE500"/>
<path d="M252.765 62.2541H233.759C233.817 62.9484 233.99 63.5993 234.279 64.2068C234.567 64.7853 234.971 65.3061 235.491 65.7689C236.039 66.3186 236.689 66.7236 237.439 66.9839C238.19 67.2443 239.041 67.3745 239.993 67.3745C240.6 67.3745 241.191 67.3166 241.768 67.2009C242.346 67.0563 242.894 66.8393 243.414 66.55C243.818 66.3475 244.178 66.1016 244.496 65.8123C244.842 65.4941 245.145 65.147 245.405 64.7709H251.899C251.38 65.8991 250.745 66.9116 249.994 67.8084C249.273 68.7052 248.508 69.4429 247.7 70.0215C246.603 70.8315 245.333 71.439 243.89 71.844C242.476 72.2779 240.874 72.4949 239.084 72.4949C237.324 72.4949 235.78 72.2345 234.452 71.7138C233.153 71.222 231.97 70.412 230.902 69.2838C229.776 68.1556 228.954 66.8971 228.434 65.5086C227.943 64.091 227.698 62.6012 227.698 61.0391C227.698 58.9272 228.073 56.9601 228.824 55.1376C229.574 53.3151 230.584 51.7818 231.854 50.5379C233.095 49.3229 234.524 48.4116 236.14 47.8041C237.757 47.1966 239.604 46.8928 241.682 46.8928C243.5 46.8928 245.102 47.1532 246.487 47.6739C247.873 48.1657 249.1 48.9613 250.167 50.0606C251.149 51.1309 251.885 52.4038 252.375 53.8792C252.895 55.3545 253.155 56.9312 253.155 58.609C253.155 59.2455 253.111 59.8674 253.025 60.4749C252.967 61.0825 252.88 61.6755 252.765 62.2541ZM234.279 57.1337H247.397C247.31 56.4104 247.094 55.7306 246.747 55.0942C246.43 54.4288 246.055 53.8792 245.622 53.4452C245.073 52.9824 244.438 52.6352 243.717 52.4038C243.024 52.1434 242.288 52.0133 241.509 52.0133C240.556 52.0133 239.647 52.1579 238.781 52.4472C237.944 52.7075 237.223 53.0836 236.617 53.5754C236.068 54.0093 235.592 54.5445 235.188 55.181C234.784 55.7885 234.481 56.4394 234.279 57.1337Z" fill="#FFE500"/>
<path d="M258.941 47.6739H264.699L262.967 56.5262H271.929L273.661 47.6739H279.419L274.743 71.7138H268.985L270.933 61.6466H261.971L260.023 71.7138H254.265L258.941 47.6739Z" fill="#FFE500"/>
<path d="M299.077 47.6739L304.143 66.5934H307L304.835 77.7889H299.207L300.376 71.7138H283.145L281.976 77.7889H276.348L278.513 66.5934H281.37L292.583 47.6739H299.077ZM287.864 66.5934H298.082L294.878 54.3565L287.864 66.5934Z" fill="#FFE500"/>
<path d="M71.627 102.957H77.8613C76.9088 105.821 75.3069 107.976 73.0557 109.423C70.8044 110.84 68.1924 111.549 65.2195 111.549C63.3435 111.52 61.7272 111.26 60.3707 110.768C59.0141 110.305 57.8163 109.538 56.7773 108.468C55.7383 107.455 54.9301 106.255 54.3529 104.866C53.8045 103.449 53.5447 101.829 53.5736 100.006C53.5447 97.9812 53.8766 96.0719 54.5693 94.2783C55.2909 92.4847 56.3155 90.937 57.6432 89.6352C58.9131 88.3624 60.3418 87.4366 61.9292 86.8581C63.5455 86.2505 65.4216 85.9468 67.5574 85.9468C70.8189 85.9468 73.402 86.7713 75.3069 88.4202C77.2119 90.0402 78.3952 92.1376 78.857 94.7122H72.5362C72.161 93.5551 71.4971 92.6583 70.5446 92.0219C69.5922 91.3854 68.4666 91.0672 67.1678 91.0672C66.0133 91.0672 64.9309 91.2842 63.9207 91.7181C62.9394 92.1231 62.1024 92.7161 61.4097 93.4972C60.717 94.2494 60.1831 95.1462 59.8079 96.1876C59.4615 97.229 59.3028 98.3573 59.3316 99.5723C59.3316 100.672 59.4759 101.67 59.7646 102.566C60.0821 103.434 60.515 104.143 61.0634 104.693C61.5829 105.271 62.2034 105.705 62.925 105.994C63.6466 106.284 64.5124 106.428 65.5226 106.428C66.9369 106.428 68.1779 106.139 69.2458 105.561C70.3138 104.982 71.1075 104.114 71.627 102.957Z" fill="#FFE500"/>
<path d="M109.424 102.957H115.659C114.706 105.821 113.104 107.976 110.853 109.423C108.602 110.84 105.99 111.549 103.017 111.549C101.141 111.52 99.5245 111.26 98.168 110.768C96.8114 110.305 95.6137 109.538 94.5746 108.468C93.5356 107.455 92.7274 106.255 92.1502 104.866C91.6018 103.449 91.342 101.829 91.3709 100.006C91.342 97.9812 91.674 96.0719 92.3666 94.2783C93.0882 92.4847 94.1128 90.937 95.4405 89.6352C96.7104 88.3624 98.1391 87.4366 99.7266 86.8581C101.343 86.2505 103.219 85.9468 105.355 85.9468C108.616 85.9468 111.199 86.7713 113.104 88.4202C115.009 90.0402 116.193 92.1376 116.654 94.7122H110.333C109.958 93.5551 109.294 92.6583 108.342 92.0219C107.389 91.3854 106.264 91.0672 104.965 91.0672C103.811 91.0672 102.728 91.2842 101.718 91.7181C100.737 92.1231 99.8997 92.7161 99.207 93.4972C98.5143 94.2494 97.9804 95.1462 97.6052 96.1876C97.2588 97.229 97.1001 98.3573 97.1289 99.5723C97.1289 100.672 97.2732 101.67 97.5619 102.566C97.8794 103.434 98.3123 104.143 98.8607 104.693C99.3802 105.271 100.001 105.705 100.722 105.994C101.444 106.284 102.31 106.428 103.32 106.428C104.734 106.428 105.975 106.139 107.043 105.561C108.111 104.982 108.905 104.114 109.424 102.957Z" fill="#FFE500"/>
<path d="M144.087 101.308L125.081 101.308C125.139 102.002 125.312 102.653 125.601 103.261C125.889 103.839 126.294 104.36 126.813 104.823C127.361 105.373 128.011 105.778 128.761 106.038C129.512 106.298 130.363 106.428 131.316 106.428C131.922 106.428 132.513 106.371 133.091 106.255C133.668 106.11 134.216 105.893 134.736 105.604C135.14 105.401 135.501 105.156 135.818 104.866C136.164 104.548 136.468 104.201 136.727 103.825H143.221C142.702 104.953 142.067 105.966 141.316 106.862C140.595 107.759 139.83 108.497 139.022 109.075C137.925 109.885 136.655 110.493 135.212 110.898C133.798 111.332 132.196 111.549 130.406 111.549C128.646 111.549 127.102 111.288 125.774 110.768C124.475 110.276 123.292 109.466 122.224 108.338C121.098 107.21 120.276 105.951 119.756 104.563C119.266 103.145 119.02 101.655 119.02 100.093C119.02 97.9812 119.395 96.014 120.146 94.1915C120.896 92.369 121.906 90.8358 123.176 89.5918C124.418 88.3768 125.846 87.4656 127.462 86.8581C129.079 86.2505 130.926 85.9468 133.004 85.9468C134.822 85.9468 136.424 86.2072 137.81 86.7279C139.195 87.2197 140.422 88.0152 141.49 89.1145C142.471 90.1849 143.207 91.4577 143.698 92.9331C144.217 94.4085 144.477 95.9851 144.477 97.663C144.477 98.2994 144.434 98.9214 144.347 99.5289C144.289 100.136 144.203 100.729 144.087 101.308ZM125.601 96.1876L138.719 96.1876C138.632 95.4644 138.416 94.7846 138.069 94.1481C137.752 93.4828 137.377 92.9331 136.944 92.4992C136.395 92.0363 135.76 91.6892 135.039 91.4577C134.346 91.1974 133.61 91.0672 132.831 91.0672C131.878 91.0672 130.969 91.2118 130.103 91.5011C129.266 91.7615 128.545 92.1376 127.939 92.6294C127.39 93.0633 126.914 93.5985 126.51 94.2349C126.106 94.8424 125.803 95.4933 125.601 96.1876Z" fill="#FFE500"/>
<path d="M150.263 86.7279H158.619L161.649 103.391L171.044 86.7279H179.4L174.724 110.768H168.966L172.299 93.5406L162.558 110.768H157.753L154.679 93.5406L151.345 110.768H145.587L150.263 86.7279Z" fill="#FFE500"/>
<path d="M184.044 86.7279H189.802L188.157 95.1462H192.443C193.626 95.1751 194.694 95.3487 195.646 95.6669C196.628 95.9562 197.45 96.419 198.114 97.0555C198.691 97.663 199.139 98.4007 199.456 99.2685C199.803 100.136 199.976 101.077 199.976 102.089C199.947 103.304 199.702 104.461 199.24 105.561C198.778 106.631 198.085 107.586 197.162 108.425C196.296 109.206 195.329 109.799 194.261 110.204C193.193 110.58 191.865 110.768 190.278 110.768H179.368L184.044 86.7279ZM187.161 100.267L186.122 105.647H190.495C190.956 105.647 191.404 105.604 191.837 105.517C192.27 105.401 192.63 105.257 192.919 105.083C193.352 104.823 193.669 104.49 193.871 104.085C194.073 103.68 194.189 103.217 194.218 102.697C194.218 102.234 194.146 101.872 194.001 101.612C193.886 101.322 193.698 101.062 193.438 100.831C193.179 100.657 192.876 100.527 192.529 100.44C192.212 100.324 191.822 100.267 191.36 100.267H187.161Z" fill="#FFE500"/>
<path d="M228.053 101.308H209.047C209.105 102.002 209.278 102.653 209.567 103.261C209.855 103.839 210.259 104.36 210.779 104.823C211.327 105.373 211.977 105.778 212.727 106.038C213.478 106.298 214.329 106.428 215.281 106.428C215.888 106.428 216.479 106.371 217.056 106.255C217.634 106.11 218.182 105.893 218.702 105.604C219.106 105.401 219.466 105.156 219.784 104.866C220.13 104.548 220.433 104.201 220.693 103.825H227.187C226.668 104.953 226.033 105.966 225.282 106.862C224.561 107.759 223.796 108.497 222.988 109.075C221.891 109.885 220.621 110.493 219.178 110.898C217.764 111.332 216.162 111.549 214.372 111.549C212.612 111.549 211.068 111.288 209.74 110.768C208.441 110.276 207.258 109.466 206.19 108.338C205.064 107.21 204.242 105.951 203.722 104.563C203.231 103.145 202.986 101.655 202.986 100.093C202.986 97.9812 203.361 96.014 204.112 94.1915C204.862 92.369 205.872 90.8358 207.142 89.5918C208.383 88.3768 209.812 87.4656 211.428 86.8581C213.045 86.2505 214.892 85.9468 216.97 85.9468C218.788 85.9468 220.39 86.2072 221.775 86.7279C223.161 87.2197 224.388 88.0152 225.455 89.1145C226.437 90.1849 227.173 91.4577 227.663 92.9331C228.183 94.4085 228.443 95.9851 228.443 97.663C228.443 98.2994 228.399 98.9214 228.313 99.5289C228.255 100.136 228.168 100.729 228.053 101.308ZM209.567 96.1876H222.685C222.598 95.4644 222.382 94.7846 222.035 94.1481C221.718 93.4828 221.343 92.9331 220.91 92.4992C220.361 92.0363 219.726 91.6892 219.005 91.4577C218.312 91.1974 217.576 91.0672 216.797 91.0672C215.844 91.0672 214.935 91.2118 214.069 91.5011C213.232 91.7615 212.511 92.1376 211.905 92.6294C211.356 93.0633 210.88 93.5985 210.476 94.2349C210.072 94.8424 209.769 95.4933 209.567 96.1876Z" fill="#FFE500"/>
<path d="M234.229 86.7279H239.987L237.043 101.872L250.68 86.7279H256.438L251.763 110.768H246.005L248.949 95.6235L235.311 110.768H229.553L234.229 86.7279ZM239.814 77.9624H244.143C244.172 78.6278 244.417 79.134 244.879 79.4812C245.341 79.7994 245.961 79.9585 246.741 79.9585C247.462 79.9585 248.083 79.7994 248.602 79.4812C249.151 79.134 249.54 78.6278 249.771 77.9624H254.101C253.668 79.785 252.773 81.2314 251.416 82.3018C250.06 83.3432 248.429 83.8639 246.524 83.8639C244.388 83.8639 242.685 83.3143 241.416 82.215C240.174 81.0868 239.64 79.6692 239.814 77.9624Z" fill="#FFE500"/>
</svg>
