<svg width="325" height="97" viewBox="0 0 325 97" fill="none" xmlns="http://www.w3.org/2000/svg">
<path d="M7.53917 1.84369L29.9757 1.6199L28.7407 8.29616L13.436 8.44882L11.9048 16.742L17.2146 16.689C19.3316 16.6679 21.0521 16.911 22.376 17.4185C23.7347 17.9255 24.9223 18.6773 25.9387 19.6737C26.8511 20.6711 27.5393 21.8096 28.0032 23.0892C28.4669 24.334 28.7061 25.7026 28.721 27.1949C28.7442 29.5201 28.3476 31.5198 27.5313 33.1939C26.7147 34.8333 25.5486 36.2333 24.033 37.3938C22.793 38.3433 21.3946 39.0687 19.8377 39.5702C18.3152 40.0366 16.6169 40.2791 14.7429 40.2978L0.427203 40.4406L7.53917 1.84369ZM10.6698 23.4182L8.79397 33.6932L15.5093 33.6262C16.3422 33.6179 17.0873 33.5063 17.7446 33.2915C18.4363 33.0417 19.0577 32.7058 19.6088 32.2838C20.2287 31.7917 20.7085 31.1795 21.0482 30.4472C21.4227 29.7146 21.6049 28.8451 21.5949 27.8387C21.588 27.1446 21.478 26.5556 21.2649 26.0719C21.0862 25.553 20.8214 25.1044 20.4706 24.7262C20.0149 24.2795 19.4563 23.9553 18.7949 23.7537C18.1678 23.517 17.4202 23.3856 16.5523 23.3596L10.6698 23.4182Z" fill="#FFE500"/>
<path d="M64.9301 10.9548L59.5956 39.8504L53.2447 39.9138L53.5399 38.1928L53.4357 38.1938C52.5771 39.1048 51.4558 39.7754 50.0718 40.2057C48.6881 40.6707 47.2154 40.911 45.6537 40.9266C44.0226 40.9429 42.4062 40.6987 40.8046 40.194C39.2377 39.689 37.8414 38.8873 36.6157 37.7889C35.1456 36.5541 34.0026 35.0557 33.1868 33.2937C32.4053 31.4967 32.0201 29.418 32.0313 27.0578C32.0067 24.5937 32.4001 22.2817 33.2116 20.1217C34.0574 17.9267 35.3054 16.04 36.9557 14.4617C38.3994 13.059 40.0548 12.0012 41.922 11.2884C43.7891 10.5756 45.7985 10.2085 47.9502 10.187C50.2407 10.1642 52.2053 10.5264 53.844 11.2736C55.4828 12.0209 56.8126 13.1183 57.8336 14.5658L57.9377 14.5648L58.5791 11.0181L64.9301 10.9548ZM48.0115 16.3298C45.3743 16.3908 43.18 17.3671 41.4288 19.2588C39.7119 21.1155 38.8864 23.6054 38.9522 26.7284C38.9768 29.1925 39.6559 31.164 40.9896 32.6432C42.3576 34.0873 44.1869 34.7979 46.4774 34.7751C49.1496 34.7484 51.3442 33.8068 53.0611 31.9501C54.8123 30.0584 55.6729 27.6029 55.6428 24.5836C55.6175 22.0502 54.9034 20.0442 53.5003 18.5657C52.1316 17.0522 50.302 16.3069 48.0115 16.3298Z" fill="#FFE500"/>
<path d="M63.3438 49.4445L70.4563 10.8997L76.8072 10.8363L76.512 12.5573L76.6161 12.5563C77.4751 11.68 78.5792 11.0269 79.9285 10.597C81.2775 10.1323 82.75 9.87465 84.3461 9.82402C86.1508 9.80602 87.7845 10.05 89.2473 10.5561C90.7448 11.0617 92.1237 11.8636 93.3842 12.9617C94.9254 14.3694 96.0693 15.9719 96.8161 17.7693C97.5629 19.5666 97.9471 21.5412 97.9685 23.6929C97.9935 26.1916 97.583 28.5385 96.7372 30.7335C95.891 32.8939 94.66 34.7457 93.0441 36.2889C91.6004 37.6917 89.9103 38.7498 87.9737 39.4632C86.0719 40.1764 84.0278 40.5438 81.8414 40.5657C79.7938 40.5861 78.0034 40.2916 76.4702 39.6821C74.9369 39.0727 73.6777 38.096 72.6925 36.7522L72.5884 36.7533L70.2673 49.3755L63.3438 49.4445ZM83.3662 15.9771C80.7287 16.0034 78.5517 16.9623 76.8351 18.8536C75.1533 20.7446 74.3276 23.2171 74.3581 26.2711C74.3833 28.8046 75.0628 30.8109 76.3964 32.29C77.7645 33.7341 79.6111 34.4446 81.9363 34.4214C84.6085 34.3947 86.8031 33.4531 88.52 31.5964C90.2369 29.7398 91.0803 27.3018 91.0502 24.2825C91.0245 21.7143 90.3102 19.691 88.9071 18.2126C87.5384 16.6991 85.6915 15.9539 83.3662 15.9771Z" fill="#FFE500"/>
<path d="M133.662 10.2692L128.327 39.1649L121.976 39.2282L122.271 37.5072L122.167 37.5083C121.309 38.4192 120.187 39.0899 118.803 39.5202C117.42 39.9852 115.947 40.2255 114.385 40.241C112.754 40.2573 111.138 40.0131 109.536 39.5085C107.969 39.0035 106.573 38.2018 105.347 37.1033C103.877 35.8685 102.734 34.3701 101.918 32.6081C101.137 30.8111 100.752 28.7325 100.763 26.3722C100.738 23.9082 101.132 21.5962 101.943 19.4362C102.789 17.2411 104.037 15.3545 105.687 13.7761C107.131 12.3734 108.786 11.3156 110.653 10.6029C112.521 9.89008 114.53 9.52296 116.682 9.50149C118.972 9.47865 120.937 9.84084 122.575 10.5881C124.214 11.3353 125.544 12.4327 126.565 13.8803L126.669 13.8792L127.311 10.3326L133.662 10.2692ZM116.743 15.6442C114.106 15.7052 111.911 16.6816 110.16 18.5733C108.443 20.4299 107.618 22.9198 107.684 26.0429C107.708 28.5069 108.387 30.4785 109.721 31.9576C111.089 33.4017 112.918 34.1123 115.209 34.0895C117.881 34.0628 120.076 33.1212 121.793 31.2645C123.544 29.3728 124.404 26.9173 124.374 23.898C124.349 21.3646 123.635 19.3587 122.232 17.8802C120.863 16.3667 119.033 15.6214 116.743 15.6442Z" fill="#FFE500"/>
<path d="M168.868 0.234536L167.315 6.39335L154.199 6.78448C152.465 6.83649 150.819 7.13057 149.262 7.66672C147.741 8.20252 146.412 8.94464 145.276 9.89309C144.312 10.701 143.471 11.6291 142.752 12.6776C142.068 13.6909 141.541 14.7721 141.171 15.9212L141.275 15.9201C142.612 14.2755 144.213 12.9754 146.078 12.0196C147.942 11.0292 150.054 10.5222 152.414 10.4987C154.427 10.4786 156.217 10.7558 157.785 11.3302C159.353 11.9046 160.75 12.7757 161.976 13.9436C163.168 15.1464 164.067 16.5431 164.673 18.1337C165.314 19.7239 165.644 21.4907 165.663 23.4341C165.687 25.8288 165.276 28.0889 164.429 30.2145C163.582 32.3055 162.42 34.0698 160.942 35.5076C159.532 36.8753 157.842 37.9507 155.872 38.7339C153.936 39.4821 151.753 39.8683 149.323 39.8926C147.172 39.914 145.243 39.6209 143.536 39.0132C141.864 38.4051 140.414 37.4651 139.186 36.1931C137.89 34.9219 136.885 33.3353 136.171 31.4335C135.458 29.5317 135.089 27.2967 135.063 24.7285C135.02 20.3905 135.761 16.409 137.287 12.7841C138.813 9.15927 140.902 6.34443 143.554 4.33962C145.174 3.14339 146.952 2.25795 148.89 1.68329C150.863 1.07358 153.063 0.721904 155.492 0.628264L168.868 0.234536ZM151.226 16.6539C149.907 16.667 148.66 16.9051 147.485 17.368C146.344 17.8306 145.379 18.4997 144.589 19.3752C143.799 20.2161 143.185 21.2635 142.746 22.5174C142.342 23.7362 142.147 25.0223 142.16 26.3758C142.171 27.4169 142.319 28.3699 142.605 29.2348C142.926 30.0993 143.385 30.8583 143.982 31.5118C144.614 32.2343 145.383 32.7994 146.289 33.2068C147.23 33.5792 148.325 33.7592 149.575 33.7467C150.893 33.7336 152.123 33.4957 153.264 33.0331C154.439 32.5702 155.439 31.9008 156.263 31.0248C157.019 30.219 157.599 29.2067 158.003 27.9879C158.442 26.7687 158.672 25.4822 158.694 24.1284C158.648 23.0876 158.465 22.135 158.144 21.2705C157.858 20.3709 157.433 19.5769 156.871 18.8883C156.205 18.2008 155.401 17.6535 154.46 17.2464C153.553 16.8389 152.476 16.6414 151.226 16.6539Z" fill="#FFE500"/>
<path d="M201.325 9.59434L195.991 38.49L189.64 38.5533L189.935 36.8323L189.831 36.8334C188.972 37.7443 187.851 38.415 186.467 38.8453C185.083 39.3103 183.611 39.5506 182.049 39.5661C180.418 39.5824 178.801 39.3382 177.2 38.8336C175.633 38.3286 174.237 37.5269 173.011 36.4284C171.541 35.1936 170.398 33.6952 169.582 31.9332C168.801 30.1362 168.415 28.0576 168.427 25.6973C168.402 23.2333 168.795 20.9213 169.607 18.7613C170.453 16.5662 171.701 14.6795 173.351 13.1012C174.795 11.6985 176.45 10.6407 178.317 9.92796C180.184 9.21517 182.194 8.84805 184.345 8.82659C186.636 8.80374 188.601 9.16594 190.239 9.91317C191.878 10.6604 193.208 11.7578 194.229 13.2053L194.333 13.2043L194.974 9.65769L201.325 9.59434ZM184.407 14.9693C181.77 15.0303 179.575 16.0067 177.824 17.8984C176.107 19.755 175.282 22.2449 175.348 25.368C175.372 27.832 176.051 29.8036 177.385 31.2827C178.753 32.7268 180.582 33.4374 182.873 33.4146C185.545 33.3879 187.739 32.4463 189.456 30.5896C191.208 28.6979 192.068 26.2424 192.038 23.2231C192.013 20.6897 191.299 18.6837 189.896 17.2053C188.527 15.6918 186.697 14.9465 184.407 14.9693Z" fill="#FFE500"/>
<path d="M206.852 9.53922L213.775 9.47016L211.799 20.1105L222.575 20.0031L224.551 9.36268L231.474 9.29362L226.14 38.1892L219.216 38.2583L221.438 26.1577L210.663 26.2652L208.441 38.3658L201.517 38.4348L206.852 9.53922Z" fill="#FFE500"/>
<path d="M237.049 9.23803L243.972 9.16897L241.996 19.8094L252.772 19.7019L254.748 9.06149L261.672 8.99243L256.337 37.888L249.413 37.9571L251.636 25.8565L240.86 25.964L238.638 38.0646L231.714 38.1336L237.049 9.23803Z" fill="#FFE500"/>
<path d="M296.085 8.64917L290.751 37.5448L284.4 37.6081L284.695 35.8871L284.591 35.8882C283.732 36.7992 282.611 37.4698 281.227 37.9001C279.843 38.3651 278.371 38.6054 276.809 38.621C275.178 38.6372 273.561 38.3931 271.96 37.8884C270.393 37.3834 268.997 36.5817 267.771 35.4833C266.301 34.2484 265.158 32.75 264.342 30.9881C263.56 29.191 263.175 27.1124 263.186 24.7521C263.162 22.2881 263.555 19.9761 264.367 17.8161C265.213 15.6211 266.461 13.7344 268.111 12.1561C269.555 10.7533 271.21 9.69557 273.077 8.98279C274.944 8.27 276.954 7.90288 279.105 7.88142C281.396 7.85857 283.36 8.22077 284.999 8.968C286.638 9.71523 287.968 10.8126 288.989 12.2602L289.093 12.2591L289.734 8.71252L296.085 8.64917ZM279.167 14.0241C276.529 14.0852 274.335 15.0615 272.584 16.9532C270.867 18.8099 270.042 21.2997 270.107 24.4228C270.132 26.8868 270.811 28.8584 272.145 30.3376C273.513 31.7817 275.342 32.4923 277.633 32.4694C280.305 32.4428 282.499 31.5011 284.216 29.6445C285.967 27.7528 286.828 25.2973 286.798 22.278C286.773 19.7445 286.059 17.7386 284.655 16.2601C283.287 14.7466 281.457 14.0013 279.167 14.0241Z" fill="#FFE500"/>
<path d="M324.152 8.36922L318.818 37.2648L311.894 37.3339L313.966 25.8596L303.617 37.4165L294.663 37.5058L305.281 26.7792C304.413 26.7184 303.613 26.5355 302.881 26.2304C302.148 25.8907 301.537 25.4629 301.046 24.9472C300.31 24.2951 299.747 23.4851 299.355 22.5171C298.964 21.5492 298.78 20.4751 298.803 19.2948C298.752 17.6987 299.084 16.1509 299.798 14.6513C300.546 13.1514 301.644 11.8736 303.091 10.818C304.125 10.0788 305.282 9.51191 306.563 9.11735C307.878 8.72245 309.281 8.51755 310.773 8.50267L324.152 8.36922ZM314.759 21.8429L316.092 14.5929L310.106 14.6527C309.516 14.6932 308.962 14.7855 308.443 14.9296C307.958 15.0732 307.544 15.2856 307.2 15.5667C306.717 15.9533 306.341 16.443 306.069 17.0357C305.797 17.5938 305.681 18.185 305.722 18.8093C305.727 19.2604 305.8 19.6762 305.943 20.0566C306.085 20.4369 306.314 20.747 306.629 20.9869C306.945 21.3308 307.346 21.5697 307.833 21.7037C308.321 21.8377 308.981 21.9005 309.814 21.8922L314.759 21.8429Z" fill="#FFE500"/>
<path d="M77.4197 57.6861L85.1241 57.6093L61.7178 96.3166L54.0134 96.3935L61.5948 83.9792L55.8681 57.9011L63.3123 57.8268L67.0885 76.2712L77.4197 57.6861Z" fill="#FFE500"/>
<path d="M104.267 76.8896L111.763 76.8148C110.652 80.262 108.752 82.8667 106.062 84.6289C103.372 86.3565 100.24 87.238 96.665 87.2737C94.4089 87.2615 92.4623 86.9685 90.8253 86.3948C89.1887 85.8558 87.7392 84.9505 86.4771 83.6789C85.2156 82.4767 84.2295 81.0461 83.5188 79.3873C82.8424 77.6933 82.5107 75.753 82.5236 73.5662C82.4647 71.1372 82.8409 68.8428 83.6524 66.6828C84.4985 64.5224 85.712 62.6534 87.2929 61.0758C88.8046 59.5336 90.5114 58.4059 92.4133 57.6928C94.3494 56.9446 96.6016 56.5577 99.1698 56.5321C103.091 56.493 106.207 57.4511 108.518 59.4064C110.827 61.327 112.275 63.8289 112.862 66.9121L105.261 66.9879C104.796 65.6042 103.987 64.5363 102.834 63.7842C101.682 63.0321 100.324 62.6639 98.7625 62.6795C97.3743 62.6933 96.0755 62.9666 94.866 63.4993C93.6909 63.9969 92.6916 64.7184 91.868 65.6637C91.0441 66.5743 90.4128 67.6566 89.9741 68.9104C89.5701 70.164 89.3927 71.5193 89.442 72.9766C89.4551 74.2954 89.6406 75.4909 89.9984 76.5633C90.3905 77.6007 90.9196 78.4457 91.5855 79.0985C92.2171 79.7864 92.9685 80.2995 93.8395 80.6379C94.7106 80.9763 95.7535 81.1395 96.9682 81.1273C98.6687 81.1104 100.158 80.7485 101.435 80.0416C102.712 79.3347 103.656 78.284 104.267 76.8896Z" fill="#FFE500"/>
<path d="M117.589 57.2855L138.36 57.0783L137.224 63.2329L130.3 63.302L126.102 86.043L119.178 86.112L123.376 63.3711L116.453 63.4401L117.589 57.2855Z" fill="#FFE500"/>
<path d="M170.579 56.7569L165.244 85.6525L158.893 85.7159L159.189 83.9949L159.085 83.9959C158.226 84.9069 157.105 85.5775 155.721 86.0079C154.337 86.4729 152.864 86.7131 151.302 86.7287C149.671 86.745 148.055 86.5008 146.453 85.9962C144.886 85.4912 143.49 84.6895 142.264 83.591C140.794 82.3562 139.651 80.8578 138.836 79.0958C138.054 77.2988 137.669 75.2202 137.68 72.8599C137.655 70.3959 138.049 68.0839 138.86 65.9239C139.706 63.7288 140.954 61.8421 142.604 60.2638C144.048 58.8611 145.704 57.8033 147.571 57.0905C149.438 56.3778 151.447 56.0106 153.599 55.9892C155.889 55.9663 157.854 56.3285 159.493 57.0757C161.132 57.823 162.461 58.9204 163.482 60.3679L163.586 60.3669L164.228 56.8203L170.579 56.7569ZM153.66 62.1319C151.023 62.1929 148.829 63.1693 147.078 65.061C145.361 66.9176 144.535 69.4075 144.601 72.5305C144.626 74.9946 145.305 76.9662 146.638 78.4453C148.006 79.8894 149.836 80.6 152.126 80.5772C154.798 80.5505 156.993 79.6089 158.71 77.7522C160.461 75.8605 161.322 73.405 161.292 70.3857C161.266 67.8523 160.552 65.8463 159.149 64.3679C157.78 62.8544 155.951 62.109 153.66 62.1319Z" fill="#FFE500"/>
<path d="M176.105 56.7018L183.029 56.6327L181.052 67.2731L191.828 67.1656L193.804 56.5253L200.728 56.4562L195.393 85.3518L188.47 85.4209L190.692 73.3203L179.916 73.4278L177.694 85.5284L170.771 85.5974L176.105 56.7018Z" fill="#FFE500"/>
<path d="M218.526 55.3416C220.817 55.3187 222.798 55.6287 224.47 56.2714C226.143 56.8795 227.609 57.7847 228.871 58.9869C230.098 60.2241 231.049 61.6724 231.725 63.3316C232.401 64.9908 232.75 66.8616 232.771 68.9439C232.796 71.4426 232.385 73.7895 231.539 75.9845C230.694 78.1796 229.515 80.0309 228.002 81.5384C226.456 83.081 224.715 84.2264 222.778 84.9745C220.877 85.6877 218.798 86.0555 216.542 86.078C214.251 86.1008 212.253 85.8084 210.546 85.2007C208.874 84.5926 207.407 83.6701 206.145 82.4332C204.884 81.231 203.915 79.8177 203.24 78.1931C202.564 76.5339 202.214 74.5937 202.192 72.3726C202.168 69.9433 202.562 67.6486 203.373 65.4886C204.219 63.3283 205.415 61.4595 206.962 59.8822C208.474 58.3747 210.181 57.247 212.082 56.4991C214.018 55.751 216.166 55.3651 218.526 55.3416ZM218.223 61.4879C216.904 61.5011 215.675 61.7563 214.534 62.2536C213.394 62.7509 212.412 63.4722 211.588 64.4175C210.765 65.3628 210.134 66.4798 209.695 67.7684C209.291 69.0219 209.097 70.3948 209.112 71.8871C209.123 72.9976 209.272 74.0374 209.559 75.0063C209.881 75.975 210.341 76.8034 210.938 77.4916C211.57 78.2836 212.357 78.9005 213.299 79.3423C214.275 79.749 215.422 79.9458 216.741 79.9327C218.025 79.9199 219.237 79.6822 220.378 79.2196C221.519 78.7223 222.518 77.9835 223.376 77.0031C224.165 76.0928 224.779 75.0107 225.218 73.7569C225.656 72.4683 225.867 71.0605 225.852 69.5335C225.842 68.4577 225.675 67.4354 225.353 66.4668C225.031 65.4982 224.589 64.6523 224.026 63.929C223.359 63.1721 222.538 62.5729 221.561 62.1314C220.62 61.6896 219.507 61.4751 218.223 61.4879Z" fill="#FFE500"/>
<path d="M239.6 56.0685L250.897 55.9558C252.528 55.9395 253.866 56.0997 254.91 56.4364C255.955 56.7731 256.827 57.2676 257.528 57.9201C258.019 58.4358 258.425 59.1086 258.746 59.9384C259.101 60.7331 259.283 61.6163 259.293 62.5881C259.267 63.4907 259.102 64.3427 258.798 65.1441C258.528 65.9103 258.083 66.6263 257.465 67.2919C256.95 67.8524 256.365 68.3441 255.71 68.7671C255.054 69.1555 254.363 69.44 253.636 69.6208C254.993 69.9891 256.042 70.7248 256.782 71.8281C257.556 72.8963 257.951 74.1766 257.965 75.6689C257.946 77.231 257.63 78.6051 257.017 79.7913C256.404 80.9775 255.529 81.9754 254.392 82.785C253.427 83.4541 252.339 83.9682 251.128 84.3273C249.951 84.6515 248.547 84.8217 246.916 84.8379L234.266 84.9641L239.6 56.0685ZM245.438 61.9453L244.548 66.7439L249.234 66.6972C249.789 66.7263 250.223 66.6873 250.534 66.5801C250.845 66.4729 251.139 66.2964 251.414 66.0507C251.689 65.805 251.912 65.5078 252.082 65.159C252.251 64.7755 252.334 64.3582 252.329 63.907C252.292 63.6297 252.22 63.3875 252.114 63.1803C252.042 62.9381 251.918 62.7137 251.743 62.5072C251.498 62.3014 251.219 62.1653 250.906 62.099C250.627 61.9977 250.262 61.9319 249.811 61.9017L245.438 61.9453ZM243.41 72.6904L242.275 78.9491L247.273 78.8993C247.724 78.9295 248.158 78.8904 248.573 78.7822C248.988 78.6392 249.385 78.4444 249.765 78.1976C250.248 77.8804 250.608 77.495 250.847 77.0415C251.119 76.5528 251.252 75.9615 251.245 75.2674C251.241 74.8509 251.168 74.5046 251.027 74.2283C250.885 73.9173 250.709 73.6414 250.498 73.4006C250.218 73.1604 249.904 72.99 249.556 72.8894C249.207 72.754 248.686 72.6724 247.991 72.6447L243.41 72.6904Z" fill="#FFE500"/>
<path d="M260.294 84.7045L265.629 55.8089L272.552 55.7398L270.081 68.9882L282.86 55.637L291.085 55.555L276.858 69.8578L286.375 84.4443L278.15 84.5264L269.787 70.7613L267.218 84.6354L260.294 84.7045Z" fill="#FFE500"/>
<path d="M324.665 55.22L319.331 84.1156L312.98 84.179L313.275 82.458L313.171 82.459C312.312 83.37 311.191 84.0406 309.807 84.4709C308.423 84.9359 306.951 85.1762 305.389 85.1918C303.758 85.2081 302.141 84.9639 300.54 84.4592C298.973 83.9543 297.577 83.1525 296.351 82.0541C294.881 80.8193 293.738 79.3209 292.922 77.5589C292.14 75.7619 291.755 73.6832 291.766 71.323C291.742 68.8589 292.135 66.5469 292.947 64.3869C293.793 62.1919 295.041 60.3052 296.691 58.7269C298.135 57.3242 299.79 56.2664 301.657 55.5536C303.524 54.8408 305.534 54.4737 307.685 54.4523C309.976 54.4294 311.941 54.7916 313.579 55.5388C315.218 56.2861 316.548 57.3835 317.569 58.831L317.673 58.83L318.314 55.2834L324.665 55.22ZM307.747 60.595C305.109 60.656 302.915 61.6323 301.164 63.524C299.447 65.3807 298.622 67.8706 298.687 70.9936C298.712 73.4577 299.391 75.4292 300.725 76.9084C302.093 78.3525 303.922 79.0631 306.213 79.0403C308.885 79.0136 311.079 78.072 312.796 76.2153C314.548 74.3236 315.408 71.8681 315.378 68.8488C315.353 66.3154 314.639 64.3094 313.236 62.831C311.867 61.3175 310.037 60.5721 307.747 60.595Z" fill="#FFE500"/>
</svg>
