<svg width="322" height="92" viewBox="0 0 322 92" fill="none" xmlns="http://www.w3.org/2000/svg">
<path d="M0 39.2129L7.50765 0.548828L17.7264 0.548828L22.1059 30.1216L37.7989 0.548828L48.0177 0.548828L40.51 39.2129H33.3673L38.9981 10.2671L23.6178 39.2129H16.8922L12.7734 10.2671L7.14269 39.2129H0Z" fill="#FFE500"/>
<path d="M81.5895 10.2671L75.9587 39.2129H69.5981L69.9109 37.4887H69.8066C68.9377 38.3944 67.8081 39.0562 66.4178 39.4742C65.0275 39.927 63.5503 40.1534 61.9862 40.1534C60.3526 40.1534 58.7363 39.8922 57.1375 39.3697C55.5734 38.8472 54.1831 38.0286 52.9666 36.914C51.5067 35.66 50.3771 34.1448 49.5777 32.3683C48.813 30.5571 48.4481 28.4671 48.4828 26.0985C48.4828 23.6254 48.8999 21.309 49.7341 19.1494C50.603 16.955 51.8717 15.074 53.5401 13.5065C54.9999 12.1132 56.6682 11.0683 58.5452 10.3716C60.4221 9.67495 62.438 9.32663 64.593 9.32663C66.887 9.32663 68.8508 9.70978 70.4844 10.4761C72.118 11.2424 73.4388 12.3571 74.4468 13.82H74.551L75.2288 10.2671L81.5895 10.2671ZM64.593 15.492C61.9514 15.5268 59.7443 16.4847 57.9717 18.3657C56.2338 20.2118 55.3822 22.7023 55.417 25.8372C55.417 28.3104 56.0774 30.2958 57.3982 31.7936C58.7537 33.2566 60.5785 33.9881 62.8725 33.9881C65.5488 33.9881 67.7559 33.065 69.4938 31.2189C71.2664 29.3379 72.1528 26.8822 72.1528 23.8518C72.1528 21.309 71.4576 19.2887 70.0673 17.7909C68.7118 16.2583 66.887 15.492 64.593 15.492Z" fill="#FFE500"/>
<path d="M104.642 29.8082H112.15C111.003 33.2566 109.074 35.8516 106.362 37.5932C103.651 39.3 100.506 40.1534 96.9257 40.1534C94.6665 40.1186 92.7201 39.8051 91.0864 39.2129C89.4528 38.6556 88.0104 37.7326 86.7591 36.4438C85.5079 35.2246 84.5346 33.7791 83.8395 32.1071C83.1791 30.4003 82.8663 28.4497 82.901 26.2552C82.8663 23.817 83.266 21.518 84.1002 19.3584C84.9691 17.1988 86.203 15.3352 87.8018 13.7678C89.3312 12.2351 91.0517 11.1205 92.9634 10.4239C94.9098 9.69237 97.169 9.32663 99.7411 9.32663C103.669 9.32663 106.78 10.3194 109.074 12.3048C111.368 14.2554 112.793 16.7808 113.349 19.8809H105.737C105.285 18.4876 104.486 17.4078 103.339 16.6415C102.192 15.8751 100.836 15.492 99.2719 15.492C97.8816 15.492 96.5782 15.7532 95.3616 16.2757C94.1799 16.7634 93.1719 17.4774 92.3377 18.4179C91.5035 19.3236 90.8605 20.4034 90.4087 21.6573C89.9916 22.9113 89.8004 24.2698 89.8352 25.7327C89.8352 27.0564 90.009 28.2581 90.3565 29.3379C90.7389 30.3829 91.2602 31.2363 91.9206 31.8981C92.5463 32.5948 93.2936 33.1172 94.1625 33.4656C95.0314 33.8139 96.0742 33.9881 97.2907 33.9881C98.9938 33.9881 100.488 33.6397 101.774 32.9431C103.06 32.2464 104.016 31.2015 104.642 29.8082Z" fill="#FFE500"/>
<path d="M137.991 29.8082H145.499C144.352 33.2566 142.423 35.8516 139.711 37.5932C137 39.3 133.855 40.1534 130.275 40.1534C128.015 40.1186 126.069 39.8051 124.435 39.2129C122.802 38.6556 121.359 37.7326 120.108 36.4438C118.857 35.2246 117.884 33.7791 117.188 32.1071C116.528 30.4003 116.215 28.4497 116.25 26.2552C116.215 23.817 116.615 21.518 117.449 19.3584C118.318 17.1988 119.552 15.3352 121.151 13.7678C122.68 12.2351 124.401 11.1205 126.312 10.4239C128.259 9.69237 130.518 9.32663 133.09 9.32663C137.018 9.32663 140.129 10.3194 142.423 12.3048C144.717 14.2554 146.142 16.7808 146.698 19.8809H139.086C138.634 18.4876 137.835 17.4078 136.688 16.6415C135.541 15.8751 134.185 15.492 132.621 15.492C131.231 15.492 129.927 15.7532 128.711 16.2757C127.529 16.7634 126.521 17.4774 125.687 18.4179C124.853 19.3236 124.21 20.4034 123.758 21.6573C123.341 22.9113 123.149 24.2698 123.184 25.7327C123.184 27.0564 123.358 28.2581 123.706 29.3379C124.088 30.3829 124.609 31.2363 125.27 31.8981C125.895 32.5948 126.643 33.1172 127.512 33.4656C128.38 33.8139 129.423 33.9881 130.64 33.9881C132.343 33.9881 133.837 33.6397 135.123 32.9431C136.409 32.2464 137.365 31.2015 137.991 29.8082Z" fill="#FFE500"/>
<path d="M182.706 10.2671L177.075 39.2129H170.714L171.027 37.4887H170.923C170.054 38.3944 168.924 39.0562 167.534 39.4742C166.144 39.927 164.666 40.1534 163.102 40.1534C161.469 40.1534 159.853 39.8922 158.254 39.3697C156.69 38.8472 155.299 38.0286 154.083 36.914C152.623 35.66 151.493 34.1448 150.694 32.3683C149.929 30.5571 149.564 28.4671 149.599 26.0985C149.599 23.6254 150.016 21.309 150.85 19.1494C151.719 16.955 152.988 15.074 154.656 13.5065C156.116 12.1132 157.784 11.0683 159.661 10.3716C161.538 9.67495 163.554 9.32663 165.709 9.32663C168.003 9.32663 169.967 9.70978 171.601 10.4761C173.234 11.2424 174.555 12.3571 175.563 13.82H175.667L176.345 10.2671H182.706ZM165.709 15.492C163.068 15.5268 160.861 16.4847 159.088 18.3657C157.35 20.2118 156.498 22.7023 156.533 25.8372C156.533 28.3104 157.194 30.2958 158.514 31.7936C159.87 33.2566 161.695 33.9881 163.989 33.9881C166.665 33.9881 168.872 33.065 170.61 31.2189C172.383 29.3379 173.269 26.8822 173.269 23.8518C173.269 21.309 172.574 19.2887 171.184 17.7909C169.828 16.2583 168.003 15.492 165.709 15.492Z" fill="#FFE500"/>
<path d="M198.459 39.2129L201.17 25.3148L188.97 39.2129H180.524L194.757 23.8518L186.676 10.2671H194.497L201.483 23.5383L204.09 10.2671L211.024 10.2671L208.417 23.5383L219.731 10.2671H227.968L215.038 24.4788L222.859 39.2129H214.83L208.104 25.3148L205.393 39.2129H198.459Z" fill="#FFE500"/>
<path d="M232.027 10.2671H238.961L236.875 20.9259H247.668L249.753 10.2671H256.687L251.057 39.2129H244.122L246.469 27.0912H235.676L233.33 39.2129H226.396L232.027 10.2671Z" fill="#FFE500"/>
<path d="M274.522 9.32663C276.816 9.32663 278.797 9.65753 280.466 10.3194C282.134 10.9463 283.594 11.8694 284.845 13.0885C286.062 14.3425 287 15.8055 287.66 17.4774C288.321 19.1494 288.651 21.0304 288.651 23.1203C288.651 25.6283 288.217 27.9795 287.348 30.1739C286.479 32.3683 285.28 34.2145 283.75 35.7123C282.186 37.2449 280.431 38.377 278.484 39.1084C276.573 39.8051 274.487 40.1534 272.228 40.1534C269.934 40.1534 267.935 39.8399 266.232 39.2129C264.564 38.586 263.104 37.6455 261.853 36.3915C260.602 35.1724 259.646 33.7442 258.985 32.1071C258.325 30.4351 257.995 28.4845 257.995 26.2552C257.995 23.817 258.412 21.518 259.246 19.3584C260.115 17.1988 261.332 15.3352 262.896 13.7678C264.425 12.27 266.145 11.1553 268.057 10.4239C270.004 9.69237 272.159 9.32663 274.522 9.32663ZM274.157 15.492C272.836 15.492 271.602 15.7358 270.455 16.2235C269.308 16.7111 268.318 17.4252 267.484 18.3657C266.649 19.3061 266.006 20.4208 265.555 21.7096C265.137 22.9636 264.929 24.3394 264.929 25.8372C264.929 26.9519 265.068 27.9969 265.346 28.9722C265.659 29.9475 266.111 30.7835 266.702 31.4801C267.327 32.2813 268.109 32.9083 269.048 33.3611C270.021 33.7791 271.168 33.9881 272.489 33.9881C273.775 33.9881 274.991 33.7617 276.138 33.3088C277.285 32.8212 278.293 32.0897 279.162 31.1144C279.962 30.2087 280.587 29.1289 281.039 27.875C281.491 26.5861 281.717 25.1754 281.717 23.6428C281.717 22.563 281.56 21.5354 281.248 20.5601C280.935 19.5848 280.5 18.7314 279.944 17.9999C279.284 17.2336 278.467 16.624 277.494 16.1712C276.555 15.7184 275.443 15.492 274.157 15.492Z" fill="#FFE500"/>
<path d="M321.531 27.8227H298.643C298.712 28.6587 298.921 29.4424 299.269 30.1739C299.616 30.8706 300.103 31.4975 300.728 32.0549C301.389 32.7167 302.171 33.2043 303.074 33.5178C303.978 33.8313 305.004 33.9881 306.151 33.9881C306.88 33.9881 307.593 33.9184 308.288 33.7791C308.983 33.6049 309.644 33.3437 310.269 32.9953C310.756 32.7515 311.19 32.4554 311.573 32.1071C311.99 31.7239 312.355 31.306 312.668 30.8531H320.488C319.862 32.2116 319.098 33.4307 318.194 34.5106C317.325 35.5904 316.404 36.4786 315.431 37.1752C314.11 38.1506 312.581 38.882 310.843 39.3697C309.14 39.8922 307.211 40.1534 305.056 40.1534C302.935 40.1534 301.076 39.8399 299.477 39.2129C297.913 38.6208 296.488 37.6455 295.202 36.287C293.846 34.9285 292.856 33.4133 292.23 31.7414C291.639 30.0346 291.344 28.2407 291.344 26.3597C291.344 23.817 291.796 21.4483 292.699 19.2539C293.603 17.0595 294.82 15.2133 296.349 13.7155C297.843 12.2526 299.564 11.1553 301.51 10.4239C303.457 9.69237 305.681 9.32663 308.184 9.32663C310.374 9.32663 312.303 9.64012 313.971 10.2671C315.639 10.8593 317.117 11.8172 318.403 13.1408C319.584 14.4296 320.471 15.9622 321.062 17.7387C321.687 19.5151 322 21.4135 322 23.4338C322 24.2001 321.948 24.949 321.844 25.6805C321.774 26.412 321.67 27.1261 321.531 27.8227ZM299.269 21.6573H315.066C314.962 20.7865 314.701 19.968 314.284 19.2016C313.901 18.4005 313.45 17.7387 312.928 17.2162C312.268 16.6589 311.503 16.2409 310.634 15.9622C309.8 15.6487 308.914 15.492 307.975 15.492C306.828 15.492 305.733 15.6661 304.691 16.0145C303.683 16.328 302.814 16.7808 302.084 17.3729C301.423 17.8954 300.85 18.5398 300.363 19.3061C299.877 20.0376 299.512 20.8214 299.269 21.6573Z" fill="#FFE500"/>
<path d="M129.404 81.8828L135.035 52.937H141.969L139.362 66.2082L152.292 52.937H160.529L146.14 67.1486L155.524 81.8828H147.287L139.049 67.9846L136.338 81.8828H129.404Z" fill="#FFE500"/>
<path d="M157.77 91.5488L165.278 52.937H171.638L171.326 54.6612H171.43C172.299 53.7904 173.411 53.146 174.767 52.728C176.122 52.2751 177.599 52.0313 179.198 51.9965C181.006 51.9965 182.639 52.2577 184.099 52.7802C185.594 53.3027 186.967 54.1213 188.218 55.2359C189.747 56.664 190.877 58.2838 191.607 60.095C192.337 61.9063 192.702 63.8918 192.702 66.0514C192.702 68.5594 192.267 70.9105 191.398 73.105C190.529 75.2646 189.278 77.1107 187.644 78.6434C186.185 80.0367 184.481 81.0816 182.535 81.7783C180.623 82.475 178.573 82.8233 176.383 82.8233C174.332 82.8233 172.542 82.5098 171.013 81.8828C169.484 81.2558 168.232 80.2631 167.259 78.9046H167.155L164.704 91.5488H157.77ZM178.156 58.1618C175.514 58.1618 173.324 59.1023 171.586 60.9833C169.883 62.8642 169.032 65.3373 169.032 68.4026C169.032 70.9454 169.692 72.9657 171.013 74.4635C172.368 75.9264 174.211 76.6579 176.539 76.6579C179.216 76.6579 181.423 75.7349 183.161 73.8887C184.899 72.0426 185.767 69.6043 185.767 66.5739C185.767 63.9963 185.072 61.9586 183.682 60.4608C182.326 58.9282 180.484 58.1618 178.156 58.1618Z" fill="#FFE500"/>
<path d="M225.608 70.4926H202.72C202.789 71.3285 202.998 72.1123 203.346 72.8438C203.693 73.5404 204.18 74.1674 204.805 74.7247C205.466 75.3865 206.248 75.8742 207.152 76.1877C208.055 76.5012 209.081 76.6579 210.228 76.6579C210.958 76.6579 211.67 76.5883 212.365 76.4489C213.06 76.2748 213.721 76.0135 214.346 75.6652C214.833 75.4214 215.267 75.1253 215.65 74.777C216.067 74.3938 216.432 73.9758 216.745 73.523H224.565C223.939 74.8815 223.175 76.1006 222.271 77.1804C221.402 78.2602 220.481 79.1484 219.508 79.8451C218.187 80.8204 216.658 81.5519 214.92 82.0395C213.217 82.562 211.288 82.8233 209.133 82.8233C207.013 82.8233 205.153 82.5098 203.554 81.8828C201.99 81.2906 200.565 80.3153 199.279 78.9569C197.923 77.5984 196.933 76.0832 196.307 74.4112C195.716 72.7044 195.421 70.9105 195.421 69.0296C195.421 66.4868 195.873 64.1182 196.776 61.9238C197.68 59.7293 198.897 57.8832 200.426 56.3854C201.921 54.9224 203.641 53.8252 205.587 53.0937C207.534 52.3622 209.758 51.9965 212.261 51.9965C214.451 51.9965 216.38 52.31 218.048 52.937C219.716 53.5291 221.194 54.487 222.48 55.8106C223.661 57.0994 224.548 58.6321 225.139 60.4085C225.764 62.185 226.077 64.0834 226.077 66.1037C226.077 66.87 226.025 67.6189 225.921 68.3504C225.851 69.0818 225.747 69.7959 225.608 70.4926ZM203.346 64.3272H219.143C219.039 63.4564 218.778 62.6378 218.361 61.8715C217.979 61.0704 217.527 60.4085 217.005 59.8861C216.345 59.3287 215.58 58.9107 214.711 58.6321C213.877 58.3186 212.991 58.1618 212.052 58.1618C210.905 58.1618 209.811 58.336 208.768 58.6843C207.76 58.9978 206.891 59.4506 206.161 60.0428C205.501 60.5653 204.927 61.2097 204.44 61.976C203.954 62.7075 203.589 63.4912 203.346 64.3272Z" fill="#FFE500"/>
<path d="M250.563 72.478H258.071C256.924 75.9264 254.994 78.5215 252.283 80.2631C249.572 81.9699 246.427 82.8233 242.847 82.8233C240.587 82.7884 238.641 82.475 237.007 81.8828C235.374 81.3255 233.931 80.4024 232.68 79.1136C231.429 77.8945 230.456 76.4489 229.76 74.777C229.1 73.0702 228.787 71.1195 228.822 68.9251C228.787 66.4868 229.187 64.1879 230.021 62.0283C230.89 59.8686 232.124 58.0051 233.723 56.4376C235.252 54.905 236.973 53.7904 238.884 53.0937C240.831 52.3622 243.09 51.9965 245.662 51.9965C249.59 51.9965 252.7 52.9892 254.994 54.9747C257.288 56.9253 258.714 59.4506 259.27 62.5507H251.658C251.206 61.1574 250.406 60.0776 249.259 59.3113C248.112 58.545 246.757 58.1618 245.193 58.1618C243.803 58.1618 242.499 58.4231 241.283 58.9456C240.101 59.4332 239.093 60.1473 238.259 61.0878C237.424 61.9934 236.781 63.0732 236.33 64.3272C235.913 65.5812 235.721 66.9396 235.756 68.4026C235.756 69.7262 235.93 70.928 236.277 72.0078C236.66 73.0527 237.181 73.9061 237.842 74.568C238.467 75.2646 239.215 75.7871 240.083 76.1354C240.952 76.4838 241.995 76.6579 243.212 76.6579C244.915 76.6579 246.409 76.3096 247.695 75.6129C248.981 74.9163 249.937 73.8713 250.563 72.478Z" fill="#FFE500"/>
<path d="M281.879 52.937L287.979 81.8828H280.888L276.873 60.9833L265.977 81.8828H258.156L274.058 52.937H281.879Z" fill="#FFE500"/>
<path d="M307.871 51.9965C310.165 51.9965 312.146 52.3274 313.815 52.9892C315.483 53.6162 316.943 54.5393 318.194 55.7584C319.411 57.0124 320.349 58.4753 321.009 60.1473C321.67 61.8193 322 63.7002 322 65.7902C322 68.2981 321.566 70.6493 320.697 72.8438C319.828 75.0382 318.629 76.8843 317.099 78.3821C315.535 79.9148 313.78 81.0468 311.833 81.7783C309.922 82.475 307.836 82.8233 305.577 82.8233C303.283 82.8233 301.284 82.5098 299.581 81.8828C297.913 81.2558 296.453 80.3153 295.202 79.0614C293.951 77.8422 292.995 76.4141 292.334 74.777C291.674 73.105 291.344 71.1544 291.344 68.9251C291.344 66.4868 291.761 64.1879 292.595 62.0283C293.464 59.8686 294.681 58.0051 296.245 56.4376C297.774 54.9398 299.494 53.8252 301.406 53.0937C303.353 52.3622 305.508 51.9965 307.871 51.9965ZM307.506 58.1618C306.185 58.1618 304.951 58.4057 303.804 58.8933C302.657 59.381 301.667 60.095 300.833 61.0355C299.998 61.976 299.355 63.0906 298.904 64.3795C298.486 65.6334 298.278 67.0093 298.278 68.5071C298.278 69.6217 298.417 70.6667 298.695 71.642C299.008 72.6173 299.46 73.4533 300.051 74.15C300.676 74.9511 301.458 75.5781 302.397 76.0309C303.37 76.4489 304.517 76.6579 305.838 76.6579C307.124 76.6579 308.34 76.4315 309.487 75.9787C310.634 75.491 311.642 74.7595 312.511 73.7842C313.311 72.8786 313.936 71.7988 314.388 70.5448C314.84 69.256 315.066 67.8453 315.066 66.3127C315.066 65.2328 314.909 64.2053 314.597 63.23C314.284 62.2547 313.849 61.4013 313.293 60.6698C312.633 59.9035 311.816 59.2939 310.843 58.8411C309.904 58.3883 308.792 58.1618 307.506 58.1618Z" fill="#FFE500"/>
</svg>
