<svg width="374" height="104" viewBox="0 0 374 104" fill="none" xmlns="http://www.w3.org/2000/svg">
<path d="M52.3436 14.123L42.8598 14.123C42.0492 12.1522 40.7117 10.6842 38.8474 9.71894C36.983 8.75367 34.8147 8.27103 32.3424 8.27103C29.5459 8.27103 27.0939 8.75367 24.9863 9.71894C22.8788 10.6842 21.1158 12.0316 19.6973 13.761C18.3598 15.3698 17.3466 17.24 16.6576 19.3717C16.0091 21.5033 15.7051 23.6953 15.7456 25.9476C15.7456 27.9988 16.0496 29.8489 16.6576 31.498C17.2655 33.1067 18.1166 34.4742 19.2109 35.6004C20.3457 36.8472 21.6832 37.7924 23.2233 38.4359C24.804 39.0392 26.567 39.3408 28.5124 39.3408C31.0657 39.381 33.3759 38.8984 35.4429 37.8929C37.5099 36.8874 39.1919 35.54 40.4888 33.8508H50.1551C48.0881 38.0337 45.1699 41.2915 41.4007 43.6242C37.6315 45.9167 33.1935 47.063 28.0868 47.063C24.7229 47.063 21.8251 46.5603 19.3933 45.5548C16.9615 44.5493 14.7932 43.0209 12.8883 40.9697C11.024 38.9989 9.64598 36.7869 8.75434 34.3334C7.86269 31.88 7.41687 29.1853 7.41687 26.2493C7.41687 22.6295 8.04507 19.2108 9.30148 15.9932C10.5984 12.7354 12.4425 9.89993 14.8337 7.48674C17.1034 5.19421 19.7175 3.46476 22.6762 2.29839C25.6753 1.13201 29.1406 0.548828 33.0719 0.548828C37.8544 0.548828 41.9479 1.69509 45.3523 3.98762C48.7568 6.28015 51.0872 9.65861 52.3436 14.123Z" fill="#FFE500"/>
<path d="M91.9372 12.5544L85.3714 45.9771H77.9546L78.3193 43.9862H78.1977C77.1845 45.0319 75.8673 45.7961 74.2461 46.2787C72.6249 46.8016 70.9024 47.063 69.0786 47.063C67.1737 47.063 65.2891 46.7614 63.4248 46.1581C61.601 45.5548 59.9798 44.6096 58.5613 43.3226C56.859 41.8747 55.5418 40.1251 54.6096 38.0739C53.718 35.9825 53.2924 33.5693 53.333 30.8343C53.333 27.9787 53.8193 25.3041 54.792 22.8105C55.8053 20.2766 57.2846 18.1048 59.23 16.2949C60.9322 14.6861 62.8776 13.4795 65.0662 12.6751C67.2548 11.8707 69.6055 11.4685 72.1183 11.4685C74.7933 11.4685 77.0832 11.9109 78.988 12.7958C80.8929 13.6806 82.433 14.9676 83.6084 16.6569H83.73L84.5203 12.5544H91.9372ZM72.1183 18.5874C69.0381 18.6276 66.4645 19.7337 64.3975 21.9055C62.371 24.0372 61.3781 26.9129 61.4186 30.5327C61.4186 33.3883 62.1886 35.6808 63.7287 37.4103C65.3094 39.0995 67.4372 39.9441 70.1121 39.9441C73.2329 39.9441 75.8065 38.8783 77.833 36.7466C79.9 34.5748 80.9335 31.7393 80.9335 28.2402C80.9335 25.3041 80.1229 22.9714 78.5017 21.2419C76.9211 19.4722 74.7933 18.5874 72.1183 18.5874Z" fill="#FFE500"/>
<path d="M98.3908 12.5544H106.476L104.045 24.8617H116.629L119.061 12.5544H127.146L120.581 45.9771H112.495L115.231 31.9806H102.646L99.9107 45.9771H91.8251L98.3908 12.5544Z" fill="#FFE500"/>
<path d="M130.981 12.5544L155.238 12.5544L153.84 19.6733H145.754L140.587 45.9771H132.501L137.669 19.6733H129.583L130.981 12.5544Z" fill="#FFE500"/>
<path d="M189.399 32.8252H162.711C162.792 33.7905 163.035 34.6954 163.44 35.54C163.846 36.3444 164.413 37.0684 165.143 37.7119C165.913 38.4761 166.825 39.0392 167.878 39.4011C168.932 39.7631 170.128 39.9441 171.465 39.9441C172.316 39.9441 173.147 39.8637 173.958 39.7028C174.768 39.5017 175.538 39.2 176.268 38.7978C176.835 38.5163 177.342 38.1744 177.788 37.7722C178.274 37.3298 178.7 36.8472 179.064 36.3243H188.184C187.454 37.8929 186.562 39.3006 185.509 40.5474C184.495 41.7942 183.421 42.8198 182.287 43.6242C180.746 44.7504 178.963 45.595 176.937 46.1581C174.951 46.7614 172.701 47.063 170.189 47.063C167.716 47.063 165.548 46.701 163.684 45.9771C161.86 45.2933 160.198 44.1672 158.698 42.5986C157.118 41.03 155.963 39.2805 155.233 37.3499C154.544 35.3792 154.2 33.3078 154.2 31.136C154.2 28.1999 154.727 25.465 155.78 22.9311C156.834 20.3973 158.253 18.2656 160.036 16.5362C161.779 14.847 163.785 13.58 166.055 12.7354C168.324 11.8908 170.918 11.4685 173.836 11.4685C176.39 11.4685 178.639 11.8305 180.584 12.5544C182.53 13.2382 184.252 14.3442 185.752 15.8726C187.13 17.3607 188.163 19.1304 188.852 21.1816C189.582 23.2328 189.947 25.4248 189.947 27.7575C189.947 28.6423 189.886 29.5071 189.764 30.3517C189.683 31.1963 189.562 32.0208 189.399 32.8252ZM163.44 25.7063H181.861C181.739 24.7008 181.435 23.7556 180.949 22.8708C180.503 21.9458 179.976 21.1816 179.368 20.5783C178.598 19.9348 177.707 19.4521 176.694 19.1304C175.721 18.7684 174.687 18.5874 173.593 18.5874C172.256 18.5874 170.979 18.7885 169.763 19.1907C168.588 19.5527 167.574 20.0755 166.723 20.7593C165.953 21.3626 165.285 22.1066 164.717 22.9915C164.15 23.8361 163.724 24.741 163.44 25.7063Z" fill="#FFE500"/>
<path d="M188.466 45.9771L203.969 28.1798L195.944 12.5544H205.063L209.744 22.7501L218.012 12.5544H227.557L213.27 29.1451L222.024 45.9771H212.601L207.434 34.5748L198.132 45.9771L188.466 45.9771Z" fill="#FFE500"/>
<path d="M232.09 12.5544L240.176 12.5544L237.744 24.8617H250.328L252.76 12.5544H260.846L254.28 45.9771H246.194L248.93 31.9806H236.346L233.61 45.9771H225.524L232.09 12.5544Z" fill="#FFE500"/>
<path d="M267.355 12.5544L275.441 12.5544L271.307 33.6095L290.457 12.5544H298.543L291.977 45.9771H283.891L288.025 24.922L268.875 45.9771H260.79L267.355 12.5544Z" fill="#FFE500"/>
<path d="M298.489 45.9771L305.055 12.5544H313.14L310.101 27.8782L325.178 12.5544H334.783L318.004 28.9641L328.947 45.9771L319.341 45.9771L309.736 29.9294L306.575 45.9771H298.489Z" fill="#FFE500"/>
<path d="M374 12.5544L367.434 45.9771H360.017L360.382 43.9862H360.261C359.247 45.0319 357.93 45.7961 356.309 46.2787C354.688 46.8016 352.965 47.063 351.141 47.063C349.237 47.063 347.352 46.7614 345.488 46.1581C343.664 45.5548 342.043 44.6096 340.624 43.3226C338.922 41.8747 337.605 40.1251 336.672 38.0739C335.781 35.9825 335.355 33.5693 335.396 30.8343C335.396 27.9787 335.882 25.3041 336.855 22.8105C337.868 20.2766 339.347 18.1048 341.293 16.2949C342.995 14.6861 344.94 13.4795 347.129 12.6751C349.318 11.8707 351.668 11.4685 354.181 11.4685C356.856 11.4685 359.146 11.9109 361.051 12.7958C362.956 13.6806 364.496 14.9676 365.671 16.6569H365.793L366.583 12.5544L374 12.5544ZM354.181 18.5874C351.101 18.6276 348.527 19.7337 346.46 21.9055C344.434 24.0372 343.441 26.9129 343.481 30.5327C343.481 33.3883 344.251 35.6808 345.792 37.4103C347.372 39.0995 349.5 39.9441 352.175 39.9441C355.296 39.9441 357.869 38.8783 359.896 36.7466C361.963 34.5748 362.996 31.7393 362.996 28.2402C362.996 25.3041 362.186 22.9714 360.565 21.2419C358.984 19.4722 356.856 18.5874 354.181 18.5874Z" fill="#FFE500"/>
<path d="M31.9169 61.68L39.0298 87.9838H43.0422L40.0025 103.549H32.0992L33.7407 95.1027H9.54466L7.90322 103.549H0L3.0397 87.9838H7.0521L22.7978 61.68H31.9169ZM16.1712 87.9838H30.5186L26.0198 70.9708L16.1712 87.9838Z" fill="#FFE500"/>
<path d="M70.1981 61.68L77.311 95.1027H69.043L64.3619 70.9708L51.6559 95.1027H42.5368L61.079 61.68L70.1981 61.68Z" fill="#FFE500"/>
<path d="M113.731 61.68L107.166 95.1027H99.08L101.633 81.8301L89.4137 95.1027H78.9572L91.4807 82.7954C90.4675 82.715 89.5353 82.4938 88.6842 82.1318C87.8331 81.7296 87.1238 81.2268 86.5564 80.6235C85.7053 79.8594 85.0568 78.9142 84.611 77.7881C84.1652 76.6619 83.9625 75.4151 84.0031 74.0476C83.9625 72.1975 84.3678 70.4077 85.219 68.6783C86.1106 66.9488 87.4075 65.4808 89.1098 64.2742C90.3257 63.4296 91.6834 62.7861 93.183 62.3437C94.7231 61.9012 96.3645 61.68 98.1073 61.68H113.731ZM102.606 77.1848L104.247 68.7989H97.2562C96.5672 68.8391 95.9187 68.9397 95.3108 69.1006C94.7434 69.2615 94.257 69.5028 93.8517 69.8245C93.2843 70.267 92.8385 70.83 92.5142 71.5138C92.19 72.1573 92.0482 72.841 92.0887 73.565C92.0887 74.0878 92.1697 74.5705 92.3319 75.0129C92.494 75.4553 92.7574 75.8173 93.1222 76.0988C93.4869 76.501 93.953 76.7826 94.5204 76.9434C95.0879 77.1043 95.8579 77.1848 96.8306 77.1848H102.606Z" fill="#FFE500"/>
<path d="M155.523 61.68L162.636 87.9838H166.649L163.609 103.549H155.706L157.347 95.1027H133.151L131.51 103.549L123.607 103.549L126.646 87.9838L130.659 87.9838L146.404 61.68H155.523ZM139.778 87.9838H154.125L149.626 70.9708L139.778 87.9838Z" fill="#FFE500"/>
<path d="M190.035 60.5941C192.71 60.5941 195.021 60.9762 196.966 61.7404C198.911 62.4643 200.614 63.5301 202.073 64.9378C203.491 66.3857 204.585 68.075 205.356 70.0055C206.126 71.9361 206.511 74.1079 206.511 76.5211C206.511 79.4169 206.004 82.1318 204.991 84.6656C203.978 87.1995 202.579 89.3311 200.796 91.0606C198.972 92.8302 196.925 94.1374 194.656 94.982C192.427 95.7864 189.995 96.1886 187.36 96.1886C184.686 96.1886 182.355 95.8266 180.369 95.1027C178.424 94.3787 176.722 93.2928 175.262 91.8449C173.803 90.4372 172.689 88.7882 171.919 86.8978C171.149 84.9673 170.764 82.715 170.764 80.1409C170.764 77.3255 171.25 74.671 172.223 72.1774C173.236 69.6838 174.655 67.532 176.478 65.7221C178.262 63.9927 180.268 62.7056 182.497 61.861C184.767 61.0164 187.279 60.5941 190.035 60.5941ZM189.61 67.713C188.07 67.713 186.631 67.9945 185.293 68.5576C183.956 69.1207 182.801 69.9452 181.828 71.0311C180.856 72.1171 180.106 73.4041 179.579 74.8922C179.092 76.3401 178.849 77.9288 178.849 79.6583C178.849 80.9453 179.011 82.1519 179.336 83.2781C179.7 84.4042 180.227 85.3695 180.916 86.1739C181.646 87.0989 182.558 87.8229 183.652 88.3457C184.787 88.8284 186.124 89.0697 187.664 89.0697C189.164 89.0697 190.583 88.8083 191.92 88.2854C193.258 87.7223 194.433 86.8777 195.446 85.7516C196.378 84.7059 197.108 83.459 197.635 82.0111C198.162 80.523 198.425 78.8941 198.425 77.1244C198.425 75.8776 198.243 74.6911 197.878 73.565C197.513 72.4388 197.006 71.4534 196.358 70.6088C195.588 69.724 194.635 69.0201 193.501 68.4973C192.406 67.9744 191.109 67.713 189.61 67.713Z" fill="#FFE500"/>
<path d="M214.636 61.68H226.369L230.624 84.8466L243.817 61.68H255.55L248.984 95.1027H240.899L245.58 71.1518L231.901 95.1027H225.153L220.837 71.1518L216.155 95.1027H208.07L214.636 61.68Z" fill="#FFE500"/>
<path d="M295.751 61.68L289.186 95.1027H281.769L282.134 93.1118H282.012C280.999 94.1575 279.682 94.9217 278.06 95.4043C276.439 95.9272 274.717 96.1886 272.893 96.1886C270.988 96.1886 269.103 95.887 267.239 95.2837C265.415 94.6804 263.794 93.7352 262.376 92.4482C260.673 91.0003 259.356 89.2507 258.424 87.1995C257.532 85.1081 257.107 82.6949 257.147 79.9599C257.147 77.1043 257.634 74.4297 258.606 71.9361C259.62 69.4022 261.099 67.2304 263.044 65.4205C264.747 63.8117 266.692 62.6051 268.88 61.8007C271.069 60.9963 273.42 60.5941 275.933 60.5941C278.608 60.5941 280.897 61.0365 282.802 61.9213C284.707 62.8062 286.247 64.0932 287.423 65.7824H287.544L288.335 61.68H295.751ZM275.933 67.713C272.852 67.7532 270.279 68.8593 268.212 71.0311C266.185 73.1628 265.192 76.0385 265.233 79.6583C265.233 82.5139 266.003 84.8064 267.543 86.5359C269.124 88.2251 271.251 89.0697 273.926 89.0697C277.047 89.0697 279.621 88.0039 281.647 85.8722C283.714 83.7004 284.748 80.8649 284.748 77.3657C284.748 74.4297 283.937 72.0969 282.316 70.3675C280.735 68.5978 278.608 67.713 275.933 67.713Z" fill="#FFE500"/>
</svg>
