<svg width="328" height="49" viewBox="0 0 328 49" fill="none" xmlns="http://www.w3.org/2000/svg">
<path d="M0 39.3358L7.49046 0.679105L18.7782 0.679105C20.8242 0.679105 22.4887 0.922886 23.7718 1.41045C25.0896 1.89801 26.2166 2.61194 27.1529 3.55224C27.9505 4.42288 28.5747 5.50249 29.0255 6.79105C29.511 8.04478 29.7538 9.50746 29.7538 11.1791C29.7538 13.5124 29.3203 15.5672 28.4533 17.3433C27.6211 19.1194 26.494 20.5821 25.0722 21.7313C23.7891 22.7761 22.35 23.5423 20.7548 24.0299C19.1943 24.5174 17.5124 24.7438 15.7091 24.709H9.93526L7.12634 39.3358H0ZM13.3164 7.36567L11.2877 18.0224H16.5934C17.4257 18.0224 18.1886 17.9005 18.8822 17.6567C19.6104 17.4129 20.2173 17.0821 20.7028 16.6642C21.327 16.1418 21.7951 15.4975 22.1072 14.7313C22.4193 13.9304 22.5927 13.0597 22.6274 12.1194C22.5927 11.3532 22.4887 10.709 22.3153 10.1866C22.1419 9.62935 21.8818 9.14179 21.5351 8.72388C21.1189 8.27114 20.6161 7.9403 20.0266 7.73134C19.4717 7.48756 18.7608 7.36567 17.8939 7.36567H13.3164Z" fill="#FFE500"/>
<path d="M28.2229 39.3358L35.7134 0.679105L42.6316 0.679105L35.1412 39.3358H28.2229Z" fill="#FFE500"/>
<path d="M75.1545 10.3955L69.5366 39.3358L63.1906 39.3358L63.5027 37.6119H63.3986C62.5317 38.5174 61.4046 39.1791 60.0175 39.597C58.6304 40.0498 57.1566 40.2761 55.5961 40.2761C53.9662 40.2761 52.3537 40.0149 50.7585 39.4925C49.198 38.9701 47.8108 38.1517 46.5971 37.0373C45.1406 35.7836 44.0136 34.2687 43.216 32.4925C42.4531 30.6816 42.089 28.592 42.1237 26.2239C42.1237 23.7512 42.5398 21.4353 43.3721 19.2761C44.239 17.0821 45.5048 15.2015 47.1693 13.6343C48.6258 12.2413 50.2903 11.1965 52.1629 10.5C54.0356 9.80348 56.0469 9.45522 58.1969 9.45522C60.4857 9.45522 62.445 9.83831 64.0748 10.6045C65.7047 11.3706 67.0225 12.4851 68.0281 13.9478H68.1322L68.8084 10.3955H75.1545ZM58.1969 15.6194C55.5614 15.6542 53.3593 16.6119 51.5908 18.4925C49.8569 20.3383 49.0072 22.8284 49.0419 25.9627C49.0419 28.4353 49.7008 30.4204 51.0186 31.9179C52.371 33.3806 54.1916 34.1119 56.4804 34.1119C59.1506 34.1119 61.3526 33.1891 63.0865 31.3433C64.8551 29.4627 65.7394 27.0075 65.7394 23.9776C65.7394 21.4353 65.0458 19.4154 63.6587 17.9179C62.3063 16.3856 60.4857 15.6194 58.1969 15.6194Z" fill="#FFE500"/>
<path d="M99.7146 10.3955H107.413L83.6414 49H75.9429L83.6414 36.6194L78.1796 10.3955L85.618 10.3955L89.2072 28.9403L99.7146 10.3955Z" fill="#FFE500"/>
<path d="M117.841 28.2612H124.968C124.898 28.4353 124.864 28.6269 124.864 28.8358C124.864 29.0448 124.864 29.2537 124.864 29.4627C124.864 29.9851 124.95 30.5075 125.124 31.0299C125.297 31.5174 125.557 31.9353 125.904 32.2836C126.251 32.7363 126.684 33.0672 127.204 33.2761C127.759 33.4851 128.418 33.5896 129.181 33.5896C130.048 33.6244 130.811 33.5199 131.47 33.2761C132.129 32.9975 132.701 32.597 133.186 32.0746C133.603 31.6567 133.897 31.1866 134.071 30.6642C134.279 30.1418 134.4 29.5672 134.435 28.9403C134.435 27.9652 134.227 27.0945 133.811 26.3284C133.394 25.5274 132.718 24.6915 131.782 23.8209C131.505 23.6119 131.21 23.3856 130.898 23.1418C130.586 22.898 129.892 22.3582 128.817 21.5224C126.598 19.8856 125.02 18.3881 124.083 17.0299C123.182 15.6368 122.748 13.9129 122.783 11.8582C122.783 10.0821 123.078 8.42786 123.667 6.89552C124.291 5.36318 125.245 4.02239 126.528 2.87313C127.534 1.96766 128.73 1.27114 130.117 0.783581C131.505 0.261194 133.134 0 135.007 0C136.602 0 138.024 0.243781 139.272 0.731343C140.521 1.21891 141.578 1.96766 142.445 2.97761C143.07 3.74378 143.555 4.68408 143.902 5.79851C144.283 6.87811 144.474 8.06219 144.474 9.35075C144.474 9.73383 144.457 10.0995 144.422 10.4478C144.387 10.796 144.353 11.1269 144.318 11.4403L137.192 11.4403C137.226 11.2662 137.244 11.092 137.244 10.9179C137.278 10.7438 137.313 10.5697 137.348 10.3955C137.348 9.90796 137.278 9.45522 137.14 9.03731C137.001 8.58458 136.81 8.18408 136.568 7.83582C136.255 7.48756 135.891 7.20895 135.475 7C135.094 6.79105 134.591 6.68657 133.967 6.68657C133.412 6.72139 132.909 6.80846 132.458 6.94776C132.007 7.08706 131.609 7.29602 131.262 7.57463C130.776 7.95771 130.43 8.44527 130.221 9.03731C130.013 9.59453 129.909 10.204 129.909 10.8657C129.909 11.8408 130.187 12.7289 130.742 13.5299C131.296 14.3308 132.84 15.602 135.371 17.3433C137.729 19.0149 139.394 20.6866 140.365 22.3582C141.37 24.0299 141.873 25.9453 141.873 28.1045C141.873 29.7761 141.578 31.3607 140.989 32.8582C140.399 34.3209 139.602 35.5746 138.596 36.6194C137.417 37.8383 135.995 38.7438 134.331 39.3358C132.666 39.9627 130.776 40.2761 128.661 40.2761C126.927 40.2761 125.419 40.0498 124.135 39.597C122.887 39.1791 121.777 38.4826 120.806 37.5075C119.731 36.5323 118.951 35.4005 118.466 34.1119C117.98 32.8234 117.737 31.4478 117.737 29.9851C117.703 29.7065 117.685 29.4279 117.685 29.1493C117.72 28.8358 117.772 28.5398 117.841 28.2612Z" fill="#FFE500"/>
<path d="M145.438 39.3358L149.859 16.5597H146.478L147.675 10.3955H151.056L152.928 0.679105L159.847 0.679105L157.974 10.3955H162.136L160.939 16.5597L156.778 16.5597L152.356 39.3358H145.438Z" fill="#FFE500"/>
<path d="M194.428 10.3955L188.81 39.3358H182.464L182.776 37.6119H182.672C181.805 38.5174 180.678 39.1791 179.291 39.597C177.904 40.0498 176.43 40.2761 174.87 40.2761C173.24 40.2761 171.627 40.0149 170.032 39.4925C168.471 38.9701 167.084 38.1517 165.871 37.0373C164.414 35.7836 163.287 34.2687 162.489 32.4925C161.727 30.6816 161.362 28.592 161.397 26.2239C161.397 23.7512 161.813 21.4353 162.646 19.2761C163.512 17.0821 164.778 15.2015 166.443 13.6343C167.899 12.2413 169.564 11.1965 171.436 10.5C173.309 9.80348 175.32 9.45522 177.47 9.45522C179.759 9.45522 181.718 9.83831 183.348 10.6045C184.978 11.3706 186.296 12.4851 187.302 13.9478H187.406L188.082 10.3955H194.428ZM177.47 15.6194C174.835 15.6542 172.633 16.6119 170.864 18.4925C169.13 20.3383 168.281 22.8284 168.315 25.9627C168.315 28.4353 168.974 30.4204 170.292 31.9179C171.644 33.3806 173.465 34.1119 175.754 34.1119C178.424 34.1119 180.626 33.1891 182.36 31.3433C184.129 29.4627 185.013 27.0075 185.013 23.9776C185.013 21.4353 184.319 19.4154 182.932 17.9179C181.58 16.3856 179.759 15.6194 177.47 15.6194Z" fill="#FFE500"/>
<path d="M195.372 39.3358L199.794 16.5597H196.413L197.609 10.3955H200.99L202.863 0.679105L209.781 0.679105L207.908 10.3955L212.07 10.3955L210.873 16.5597H206.712L202.291 39.3358H195.372Z" fill="#FFE500"/>
<path d="M209.927 39.3358L215.545 10.3955H222.463L216.845 39.3358H209.927ZM216.169 7.05224L217.417 0.679105L224.336 0.679105L223.087 7.05224H216.169Z" fill="#FFE500"/>
<path d="M240.265 9.45522C242.554 9.45522 244.531 9.78607 246.195 10.4478C247.86 11.0746 249.316 11.9975 250.564 13.2164C251.778 14.4701 252.715 15.9328 253.373 17.6045C254.032 19.2761 254.362 21.1567 254.362 23.2463C254.362 25.7537 253.928 28.1045 253.061 30.2985C252.194 32.4925 250.998 34.3383 249.472 35.8358C247.912 37.3682 246.16 38.5 244.218 39.2313C242.311 39.9279 240.23 40.2761 237.976 40.2761C235.688 40.2761 233.694 39.9627 231.994 39.3358C230.33 38.709 228.873 37.7687 227.625 36.5149C226.377 35.296 225.423 33.8682 224.764 32.2313C224.105 30.5597 223.776 28.6095 223.776 26.3806C223.776 23.9428 224.192 21.6443 225.024 19.4851C225.891 17.3259 227.105 15.4627 228.665 13.8955C230.191 12.398 231.908 11.2836 233.815 10.5522C235.757 9.8209 237.907 9.45522 240.265 9.45522ZM239.901 15.6194C238.583 15.6194 237.352 15.8632 236.208 16.3507C235.063 16.8383 234.075 17.5522 233.243 18.4925C232.411 19.4328 231.769 20.5473 231.318 21.8358C230.902 23.0896 230.694 24.4652 230.694 25.9627C230.694 27.0771 230.833 28.1219 231.11 29.097C231.422 30.0721 231.873 30.908 232.463 31.6045C233.087 32.4055 233.867 33.0323 234.803 33.4851C235.774 33.903 236.919 34.1119 238.236 34.1119C239.52 34.1119 240.733 33.8856 241.878 33.4328C243.022 32.9453 244.028 32.2139 244.895 31.2388C245.692 30.3333 246.316 29.2537 246.767 28C247.218 26.7114 247.443 25.301 247.443 23.7687C247.443 22.6891 247.287 21.6617 246.975 20.6866C246.663 19.7114 246.23 18.8582 245.675 18.1269C245.016 17.3607 244.201 16.7512 243.23 16.2985C242.294 15.8458 241.184 15.6194 239.901 15.6194Z" fill="#FFE500"/>
<path d="M255.696 39.3358L261.314 10.3955H267.66L267.192 12.6418H267.296C268.267 11.597 269.446 10.8134 270.833 10.291C272.255 9.73383 273.885 9.45522 275.722 9.45522C277.075 9.45522 278.289 9.64677 279.364 10.0299C280.439 10.4129 281.392 11.005 282.225 11.806C283.126 12.7114 283.785 13.791 284.201 15.0448C284.617 16.2985 284.825 17.6915 284.825 19.2239C284.825 19.9204 284.773 20.6169 284.669 21.3134C284.6 21.9751 284.513 22.6542 284.409 23.3507L281.34 39.3358H274.422L277.595 22.9328C277.664 22.5149 277.716 22.097 277.751 21.6791C277.786 21.2264 277.82 20.7736 277.855 20.3209C277.82 18.7537 277.404 17.5871 276.607 16.8209C275.844 16.0547 274.803 15.6542 273.486 15.6194C272.341 15.6194 271.336 15.8109 270.469 16.194C269.602 16.5771 268.839 17.1169 268.18 17.8134C267.556 18.4403 267.036 19.1891 266.619 20.0597C266.238 20.8955 265.926 22.0274 265.683 23.4552L262.614 39.3358H255.696Z" fill="#FFE500"/>
<path d="M301.367 21L309.118 0.679105L328 0.679105L326.283 7.26119H313.539L310.626 14.7836C311.424 14.3308 312.239 14.0174 313.071 13.8433C313.938 13.6343 314.822 13.5299 315.724 13.5299C317.25 13.5299 318.637 13.791 319.885 14.3134C321.134 14.801 322.226 15.5323 323.162 16.5075C324.099 17.5522 324.827 18.8408 325.347 20.3731C325.867 21.8706 326.127 23.5771 326.127 25.4925C326.127 27.5124 325.833 29.3408 325.243 30.9776C324.654 32.6144 323.856 34.0597 322.85 35.3134C321.533 36.9154 319.92 38.1517 318.013 39.0224C316.14 39.8582 313.955 40.2761 311.459 40.2761C309.482 40.2413 307.731 39.9627 306.205 39.4403C304.714 38.9179 303.431 38.0995 302.356 36.9851C301.35 36.0099 300.57 34.8607 300.015 33.5373C299.46 32.1791 299.183 30.8383 299.183 29.5149C299.183 29.0274 299.183 28.6965 299.183 28.5224C299.183 28.3134 299.2 28.1045 299.235 27.8955H306.153C306.118 28.0348 306.101 28.1741 306.101 28.3134C306.101 28.4179 306.101 28.5224 306.101 28.6269C306.101 29.2886 306.222 29.9328 306.465 30.5597C306.708 31.1866 307.072 31.7264 307.557 32.1791C308.043 32.7363 308.598 33.1368 309.222 33.3806C309.846 33.5896 310.626 33.694 311.563 33.694C312.776 33.7289 313.799 33.5896 314.632 33.2761C315.464 32.9627 316.209 32.5099 316.868 31.9179C317.631 31.2214 318.203 30.4378 318.585 29.5672C319.001 28.6965 319.209 27.7388 319.209 26.694C319.209 25.7537 319.088 24.8483 318.845 23.9776C318.602 23.0721 318.255 22.3234 317.805 21.7313C317.25 21.0697 316.574 20.5647 315.776 20.2164C315.013 19.8682 314.163 19.694 313.227 19.694C311.875 19.7289 310.678 20.0075 309.638 20.5299C308.632 21.0174 307.817 21.7488 307.193 22.7239L301.367 21Z" fill="#FFE500"/>
</svg>
