<svg width="712" height="128" viewBox="0 0 712 128" fill="none" xmlns="http://www.w3.org/2000/svg">
<path d="M0.399292 52.6587L10.3947 1.29334L47.6693 1.29334L37.6739 52.6587H28.1644L36.4245 10.1782H18.169L9.90884 52.6587H0.399292Z" fill="#FFE500"/>
<path d="M43.8994 65.5001L53.8948 14.2041H62.3631L61.9467 16.4947H62.0855C63.2424 15.3378 64.7232 14.4818 66.5279 13.9265C68.3326 13.3249 70.2993 13.001 72.428 12.9547C74.8343 12.9547 77.0092 13.3017 78.9528 13.9959C80.9426 14.69 82.7705 15.7775 84.4364 17.2583C86.4725 19.1555 87.9764 21.3073 88.9482 23.7136C89.92 26.12 90.4059 28.7576 90.4059 31.6267C90.4059 34.9585 89.8274 38.0821 88.6706 40.9974C87.5137 43.8665 85.8478 46.319 83.6728 48.3552C81.7293 50.2062 79.4618 51.5944 76.8704 52.5199C74.3253 53.4454 71.595 53.9082 68.6797 53.9082C65.9495 53.9082 63.5663 53.4917 61.5302 52.6587C59.4941 51.8258 57.8282 50.5069 56.5325 48.7022H56.3937L53.1312 65.5001H43.8994ZM71.0397 21.1454C67.5228 21.1454 64.6075 22.3948 62.2937 24.8937C60.0263 27.3925 58.8925 30.6781 58.8925 34.7503C58.8925 38.1284 59.7717 40.8123 61.5302 42.8021C63.3349 44.7457 65.7875 45.7175 68.8879 45.7175C72.4511 45.7175 75.3896 44.4912 77.7033 42.0386C80.0171 39.586 81.174 36.3468 81.174 32.3208C81.174 28.8965 80.2485 26.1894 78.3975 24.1995C76.5928 22.1634 74.1402 21.1454 71.0397 21.1454Z" fill="#FFE500"/>
<path d="M116.03 12.9547C119.084 12.9547 121.722 13.3943 123.943 14.2735C126.164 15.1065 128.108 16.3328 129.774 17.9524C131.393 19.6183 132.643 21.5619 133.522 23.7831C134.401 26.0043 134.841 28.5031 134.841 31.2796C134.841 34.6114 134.262 37.735 133.106 40.6503C131.949 43.5657 130.352 46.0183 128.316 48.0081C126.234 50.0442 123.897 51.5481 121.305 52.5199C118.76 53.4454 115.984 53.9082 112.976 53.9082C109.922 53.9082 107.261 53.4917 104.993 52.6587C102.772 51.8258 100.829 50.5764 99.1627 48.9105C97.4968 47.2908 96.2243 45.3935 95.345 43.2186C94.4658 40.9974 94.0262 38.406 94.0262 35.4444C94.0262 32.2051 94.5815 29.151 95.6921 26.2819C96.849 23.4129 98.4686 20.9371 100.551 18.8548C102.587 16.8649 104.878 15.3841 107.423 14.4123C110.014 13.4406 112.883 12.9547 116.03 12.9547ZM115.544 21.1454C113.786 21.1454 112.143 21.4693 110.616 22.1172C109.089 22.765 107.77 23.7136 106.659 24.9631C105.549 26.2125 104.693 27.6933 104.091 29.4055C103.536 31.0714 103.258 32.8993 103.258 34.8891C103.258 36.3699 103.443 37.7581 103.813 39.0539C104.23 40.3496 104.831 41.4602 105.618 42.3857C106.451 43.45 107.492 44.2829 108.742 44.8845C110.037 45.4398 111.564 45.7175 113.323 45.7175C115.035 45.7175 116.655 45.4167 118.182 44.8151C119.709 44.1673 121.051 43.1955 122.208 41.8998C123.272 40.6966 124.105 39.2621 124.707 37.5962C125.308 35.884 125.609 34.0099 125.609 31.9738C125.609 30.5392 125.401 29.1741 124.984 27.8784C124.568 26.5827 123.989 25.449 123.249 24.4772C122.37 23.4591 121.282 22.6493 119.987 22.0477C118.737 21.4462 117.256 21.1454 115.544 21.1454Z" fill="#FFE500"/>
<path d="M166.816 1.29334L176.048 1.29334L173.757 12.9547C175.886 13.1398 178.014 13.6257 180.143 14.4123C182.272 15.1527 184.099 16.1245 185.627 17.3277C187.524 18.9473 189.028 21.0528 190.138 23.6442C191.295 26.2356 191.874 29.0584 191.874 32.1126C191.827 35.8609 190.879 39.3778 189.028 42.6633C187.177 45.9488 184.516 48.5634 181.045 50.5069C178.917 51.7101 176.487 52.5893 173.757 53.1446C171.027 53.6999 168.389 53.9544 165.844 53.9082L163.553 65.5001H154.321L156.612 53.9082C154.437 53.7231 152.285 53.2603 150.157 52.5199C148.028 51.7795 146.223 50.7846 144.742 49.5352C142.753 47.9618 141.202 45.9026 140.092 43.3574C139.027 40.8123 138.495 38.0358 138.495 35.0279C138.449 31.1871 139.375 27.6008 141.272 24.2689C143.169 20.9371 145.853 18.2995 149.324 16.3559C151.406 15.199 153.812 14.3429 156.543 13.7876C159.273 13.1861 161.934 12.9084 164.525 12.9547L166.816 1.29334ZM158.139 45.7175L162.998 21.1454C161.332 21.0991 159.666 21.2842 158 21.7007C156.381 22.0709 154.9 22.6956 153.558 23.5748C151.753 24.778 150.319 26.3745 149.254 28.3643C148.236 30.3079 147.727 32.5522 147.727 35.0973C147.727 36.717 147.982 38.1746 148.491 39.4703C149 40.7198 149.74 41.8072 150.712 42.7327C151.545 43.612 152.586 44.3292 153.836 44.8845C155.131 45.4398 156.566 45.7175 158.139 45.7175ZM172.23 21.1454L167.371 45.7175C168.991 45.81 170.61 45.6712 172.23 45.301C173.896 44.8845 175.423 44.2135 176.811 43.288C178.57 42.1311 179.981 40.5809 181.045 38.6374C182.11 36.6938 182.642 34.4495 182.642 31.9043C182.642 30.2847 182.364 28.827 181.809 27.5313C181.3 26.2356 180.583 25.1019 179.657 24.1301C178.778 23.2972 177.69 22.603 176.395 22.0477C175.145 21.4924 173.757 21.1917 172.23 21.1454Z" fill="#FFE500"/>
<path d="M235.556 37.5268H205.084C205.176 38.6374 205.454 39.6786 205.917 40.6503C206.379 41.5758 207.027 42.4088 207.86 43.1492C208.74 44.0284 209.781 44.6763 210.984 45.0928C212.187 45.5092 213.552 45.7175 215.079 45.7175C216.051 45.7175 217 45.6249 217.925 45.4398C218.851 45.2084 219.73 44.8614 220.563 44.3986C221.211 44.0747 221.789 43.6814 222.298 43.2186C222.853 42.7096 223.339 42.1543 223.756 41.5527H234.168C233.335 43.3574 232.317 44.9771 231.114 46.4116C229.957 47.8461 228.73 49.0261 227.435 49.9516C225.676 51.2474 223.64 52.2191 221.326 52.867C219.059 53.5611 216.491 53.9082 213.622 53.9082C210.799 53.9082 208.323 53.4917 206.194 52.6587C204.112 51.8721 202.215 50.5764 200.503 48.7716C198.698 46.9669 197.379 44.9539 196.546 42.7327C195.759 40.4652 195.366 38.0821 195.366 35.5832C195.366 32.2051 195.968 29.0584 197.171 26.1431C198.374 23.2278 199.994 20.7752 202.03 18.7853C204.019 16.8418 206.31 15.3841 208.901 14.4123C211.493 13.4406 214.454 12.9547 217.786 12.9547C220.702 12.9547 223.27 13.3712 225.491 14.2041C227.712 14.9908 229.679 16.2633 231.391 18.0218C232.965 19.734 234.145 21.7701 234.931 24.1301C235.764 26.4902 236.181 29.0121 236.181 31.6961C236.181 32.7142 236.111 33.7091 235.972 34.6809C235.88 35.6526 235.741 36.6013 235.556 37.5268ZM205.917 29.3361L226.949 29.3361C226.81 28.1792 226.463 27.0917 225.908 26.0737C225.399 25.0094 224.797 24.1301 224.103 23.436C223.224 22.6956 222.206 22.1403 221.049 21.7701C219.938 21.3536 218.758 21.1454 217.509 21.1454C215.982 21.1454 214.524 21.3768 213.136 21.8395C211.794 22.256 210.637 22.8576 209.665 23.6442C208.786 24.3384 208.022 25.1945 207.374 26.2125C206.727 27.1843 206.241 28.2255 205.917 29.3361Z" fill="#FFE500"/>
<path d="M268.78 40.1645H278.776C277.249 44.7457 274.68 48.1932 271.071 50.5069C267.461 52.7744 263.273 53.9082 258.507 53.9082C255.499 53.8619 252.908 53.4454 250.733 52.6587C248.558 51.9183 246.638 50.692 244.972 48.9799C243.306 47.3602 242.01 45.4398 241.085 43.2186C240.205 40.9511 239.789 38.3597 239.835 35.4444C239.789 32.2051 240.321 29.151 241.432 26.2819C242.589 23.4129 244.231 20.9371 246.36 18.8548C248.396 16.8187 250.687 15.3378 253.232 14.4123C255.823 13.4406 258.831 12.9547 262.255 12.9547C267.485 12.9547 271.626 14.2735 274.68 16.9112C277.734 19.5026 279.632 22.8576 280.372 26.976H270.238C269.636 25.125 268.572 23.6905 267.045 22.6725C265.518 21.6544 263.713 21.1454 261.631 21.1454C259.78 21.1454 258.044 21.4924 256.425 22.1866C254.851 22.8344 253.509 23.7831 252.399 25.0325C251.288 26.2356 250.432 27.6702 249.831 29.3361C249.275 31.002 249.021 32.8067 249.067 34.7503C249.067 36.5087 249.298 38.1052 249.761 39.5397C250.27 40.928 250.964 42.0617 251.844 42.941C252.676 43.8665 253.671 44.5606 254.828 45.0233C255.985 45.4861 257.373 45.7175 258.993 45.7175C261.261 45.7175 263.25 45.2547 264.963 44.3292C266.675 43.4037 267.947 42.0155 268.78 40.1645Z" fill="#FFE500"/>
<path d="M313.18 40.1645L323.175 40.1645C321.648 44.7457 319.08 48.1932 315.471 50.5069C311.861 52.7744 307.673 53.9082 302.907 53.9082C299.899 53.8619 297.308 53.4454 295.133 52.6587C292.958 51.9183 291.037 50.692 289.371 48.9799C287.706 47.3602 286.41 45.4398 285.484 43.2186C284.605 40.9511 284.189 38.3597 284.235 35.4444C284.189 32.2051 284.721 29.151 285.831 26.2819C286.988 23.4129 288.631 20.9371 290.76 18.8548C292.796 16.8187 295.086 15.3378 297.632 14.4123C300.223 13.4406 303.231 12.9547 306.655 12.9547C311.884 12.9547 316.026 14.2735 319.08 16.9112C322.134 19.5026 324.031 22.8576 324.772 26.976H314.638C314.036 25.125 312.972 23.6905 311.445 22.6725C309.918 21.6544 308.113 21.1454 306.03 21.1454C304.179 21.1454 302.444 21.4924 300.824 22.1866C299.251 22.8344 297.909 23.7831 296.799 25.0325C295.688 26.2356 294.832 27.6702 294.23 29.3361C293.675 31.002 293.42 32.8067 293.467 34.7503C293.467 36.5087 293.698 38.1052 294.161 39.5397C294.67 40.928 295.364 42.0617 296.243 42.941C297.076 43.8665 298.071 44.5606 299.228 45.0233C300.385 45.4861 301.773 45.7175 303.393 45.7175C305.66 45.7175 307.65 45.2547 309.362 44.3292C311.074 43.4037 312.347 42.0155 313.18 40.1645Z" fill="#FFE500"/>
<path d="M334.257 14.2041L343.489 14.2041L338.769 38.4291L360.634 14.2041L369.866 14.2041L362.369 52.6587H353.137L357.857 28.4337L335.992 52.6587H326.76L334.257 14.2041Z" fill="#FFE500"/>
<path d="M393.613 12.9547C396.667 12.9547 399.305 13.3943 401.526 14.2735C403.747 15.1065 405.691 16.3328 407.357 17.9524C408.976 19.6183 410.226 21.5619 411.105 23.7831C411.984 26.0043 412.424 28.5031 412.424 31.2796C412.424 34.6114 411.845 37.735 410.689 40.6503C409.532 43.5657 407.935 46.0183 405.899 48.0081C403.817 50.0442 401.48 51.5481 398.888 52.5199C396.343 53.4454 393.567 53.9082 390.559 53.9082C387.505 53.9082 384.844 53.4917 382.576 52.6587C380.355 51.8258 378.412 50.5764 376.746 48.9105C375.08 47.2908 373.807 45.3935 372.928 43.2186C372.049 40.9974 371.609 38.406 371.609 35.4444C371.609 32.2051 372.164 29.151 373.275 26.2819C374.432 23.4129 376.052 20.9371 378.134 18.8548C380.17 16.8649 382.461 15.3841 385.006 14.4123C387.597 13.4406 390.466 12.9547 393.613 12.9547ZM393.127 21.1454C391.369 21.1454 389.726 21.4693 388.199 22.1172C386.672 22.765 385.353 23.7136 384.242 24.9631C383.132 26.2125 382.276 27.6933 381.674 29.4055C381.119 31.0714 380.841 32.8993 380.841 34.8891C380.841 36.3699 381.026 37.7581 381.396 39.0539C381.813 40.3496 382.414 41.4602 383.201 42.3857C384.034 43.45 385.075 44.2829 386.325 44.8845C387.62 45.4398 389.147 45.7175 390.906 45.7175C392.618 45.7175 394.238 45.4167 395.765 44.8151C397.292 44.1673 398.634 43.1955 399.791 41.8998C400.855 40.6966 401.688 39.2621 402.29 37.5962C402.891 35.884 403.192 34.0099 403.192 31.9738C403.192 30.5392 402.984 29.1741 402.567 27.8784C402.151 26.5827 401.572 25.449 400.832 24.4772C399.953 23.4591 398.865 22.6493 397.57 22.0477C396.32 21.4462 394.839 21.1454 393.127 21.1454Z" fill="#FFE500"/>
<path d="M421.701 14.2041H430.933L428.156 28.3643H442.525L445.301 14.2041H454.533L447.036 52.6587H437.805L440.928 36.555H426.56L423.436 52.6587H414.204L421.701 14.2041Z" fill="#FFE500"/>
<path d="M500.42 14.2041L492.924 52.6587H484.455L484.872 50.3681H484.733C483.576 51.5713 482.072 52.4505 480.221 53.0058C478.37 53.6074 476.403 53.9082 474.321 53.9082C472.146 53.9082 469.994 53.5611 467.866 52.867C465.783 52.1729 463.932 51.0854 462.313 49.6046C460.369 47.9387 458.865 45.9257 457.801 43.5657C456.783 41.1594 456.297 38.3829 456.343 35.2362C456.343 31.9506 456.898 28.8733 458.009 26.0043C459.166 23.0889 460.855 20.5901 463.076 18.5077C465.02 16.6567 467.241 15.2684 469.74 14.3429C472.239 13.4174 474.923 12.9547 477.792 12.9547C480.846 12.9547 483.46 13.4637 485.635 14.4818C487.81 15.4998 489.569 16.9806 490.911 18.9242H491.049L491.952 14.2041L500.42 14.2041ZM477.792 21.1454C474.275 21.1917 471.336 22.4642 468.976 24.9631C466.662 27.4157 465.529 30.7243 465.575 34.8891C465.575 38.1746 466.454 40.8123 468.213 42.8021C470.017 44.7457 472.447 45.7175 475.501 45.7175C479.064 45.7175 482.003 44.4912 484.316 42.0386C486.676 39.5397 487.856 36.2773 487.856 32.2514C487.856 28.8733 486.931 26.1894 485.08 24.1995C483.275 22.1634 480.846 21.1454 477.792 21.1454Z" fill="#FFE500"/>
<path d="M528.404 14.2041L536.526 52.6587H527.086L521.741 24.8937L507.233 52.6587H496.822L517.992 14.2041L528.404 14.2041Z" fill="#FFE500"/>
<path d="M548.054 14.2041H557.285L554.648 27.6702H561.52C563.417 27.7164 565.129 27.9941 566.656 28.5031C568.23 28.9659 569.548 29.7063 570.613 30.7243C571.538 31.6961 572.255 32.8761 572.764 34.2644C573.32 35.6526 573.597 37.1566 573.597 38.7762C573.551 40.7198 573.158 42.5708 572.417 44.3292C571.677 46.0414 570.566 47.5685 569.086 48.9105C567.697 50.1599 566.147 51.1085 564.435 51.7564C562.723 52.358 560.594 52.6587 558.049 52.6587H540.557L548.054 14.2041ZM553.051 35.8609L551.385 44.468H558.396C559.136 44.468 559.854 44.3986 560.548 44.2598C561.242 44.0747 561.82 43.8433 562.283 43.5657C562.977 43.1492 563.486 42.617 563.81 41.9692C564.134 41.3213 564.319 40.5809 564.366 39.748C564.366 39.0076 564.25 38.4291 564.018 38.0127C563.833 37.5499 563.533 37.1334 563.116 36.7632C562.7 36.4856 562.214 36.2773 561.658 36.1385C561.149 35.9534 560.525 35.8609 559.784 35.8609H553.051Z" fill="#FFE500"/>
<path d="M584.116 14.2041L593.347 14.2041L590.571 28.3643H604.939L607.716 14.2041H616.948L609.451 52.6587H600.219L603.343 36.555H588.974L585.851 52.6587H576.619L584.116 14.2041Z" fill="#FFE500"/>
<path d="M624.38 14.2041L633.612 14.2041L630.975 27.6702H637.846C639.744 27.7164 641.456 27.9941 642.983 28.5031C644.556 28.9659 645.875 29.7063 646.94 30.7243C647.865 31.6961 648.582 32.8761 649.091 34.2644C649.647 35.6526 649.924 37.1566 649.924 38.7762C649.878 40.7198 649.485 42.5708 648.744 44.3292C648.004 46.0414 646.893 47.5685 645.412 48.9105C644.024 50.1599 642.474 51.1085 640.762 51.7564C639.05 52.358 636.921 52.6587 634.376 52.6587H616.884L624.38 14.2041ZM651.59 52.6587L659.087 14.2041H668.319L660.822 52.6587H651.59ZM629.378 35.8609L627.712 44.468H634.723C635.463 44.468 636.181 44.3986 636.875 44.2598C637.569 44.0747 638.147 43.8433 638.61 43.5657C639.304 43.1492 639.813 42.617 640.137 41.9692C640.461 41.3213 640.646 40.5809 640.692 39.748C640.692 39.0076 640.577 38.4291 640.345 38.0127C640.16 37.5499 639.859 37.1334 639.443 36.7632C639.026 36.4856 638.541 36.2773 637.985 36.1385C637.476 35.9534 636.852 35.8609 636.111 35.8609H629.378Z" fill="#FFE500"/>
<path d="M675.762 14.2041H684.994L680.274 38.4291L702.139 14.2041H711.371L703.874 52.6587H694.642L699.362 28.4337L677.497 52.6587H668.266L675.762 14.2041ZM684.716 0.182739L691.658 0.182739C691.704 1.24707 692.097 2.05688 692.838 2.61219C693.578 3.12121 694.573 3.37572 695.822 3.37572C696.979 3.37572 697.974 3.12121 698.807 2.61219C699.686 2.05688 700.311 1.24707 700.681 0.182739L707.623 0.182739C706.928 3.09807 705.494 5.41183 703.319 7.12401C701.144 8.78992 698.529 9.62287 695.475 9.62287C692.051 9.62287 689.321 8.74364 687.285 6.98518C685.295 5.18045 684.439 2.91297 684.716 0.182739Z" fill="#FFE500"/>
<path d="M207.39 115.13L214.886 76.6755H224.118L220.647 94.3064L237.862 76.6755H248.829L229.671 95.5558L242.165 115.13H231.198L220.231 96.6664L216.621 115.13H207.39Z" fill="#FFE500"/>
<path d="M255.151 76.6755H270.214C272.388 76.6755 274.17 76.9069 275.558 77.3697C276.947 77.8324 278.103 78.5034 279.029 79.3826C279.677 80.0768 280.209 80.9791 280.625 82.0897C281.088 83.1541 281.32 84.3341 281.32 85.6298C281.273 86.8329 281.042 87.9667 280.625 89.031C280.255 90.049 279.654 90.9977 278.821 91.8769C278.127 92.6173 277.34 93.2652 276.461 93.8205C275.581 94.3295 274.656 94.6997 273.684 94.9311C275.489 95.4401 276.877 96.435 277.849 97.9158C278.867 99.3503 279.376 101.063 279.376 103.052C279.33 105.135 278.89 106.963 278.057 108.536C277.224 110.109 276.044 111.428 274.517 112.492C273.221 113.372 271.764 114.043 270.144 114.505C268.571 114.922 266.697 115.13 264.522 115.13H247.654L255.151 76.6755ZM262.856 84.5886L261.606 90.9745H267.853C268.594 91.0208 269.172 90.9746 269.589 90.8357C270.005 90.6969 270.399 90.4655 270.769 90.1416C271.139 89.8177 271.44 89.4243 271.671 88.9616C271.903 88.4526 272.018 87.8973 272.018 87.2957C271.972 86.9255 271.879 86.6015 271.741 86.3239C271.648 86 271.486 85.6992 271.255 85.4215C270.931 85.1439 270.561 84.9588 270.144 84.8662C269.774 84.7274 269.288 84.6349 268.686 84.5886H262.856ZM260.01 98.8876L258.413 107.217H265.077C265.679 107.263 266.257 107.217 266.812 107.078C267.368 106.893 267.9 106.639 268.409 106.315C269.057 105.898 269.543 105.389 269.866 104.788C270.237 104.14 270.422 103.353 270.422 102.428C270.422 101.872 270.329 101.41 270.144 101.039C269.959 100.623 269.728 100.253 269.45 99.9288C269.08 99.6049 268.663 99.3735 268.201 99.2347C267.738 99.0496 267.044 98.9339 266.118 98.8876H260.01Z" fill="#FFE500"/>
<path d="M328.312 76.6755L320.815 115.13H312.347L312.763 112.84H312.625C311.468 114.043 309.964 114.922 308.113 115.477C306.262 116.079 304.295 116.38 302.213 116.38C300.038 116.38 297.886 116.033 295.757 115.338C293.675 114.644 291.824 113.557 290.204 112.076C288.261 110.41 286.757 108.397 285.693 106.037C284.674 103.631 284.189 100.854 284.235 97.7076C284.235 94.4221 284.79 91.3447 285.901 88.4757C287.058 85.5604 288.747 83.0615 290.968 80.9791C292.911 79.1281 295.133 77.7399 297.632 76.8144C300.13 75.8889 302.814 75.4261 305.683 75.4261C308.738 75.4261 311.352 75.9351 313.527 76.9532C315.702 77.9712 317.46 79.452 318.802 81.3956H318.941L319.844 76.6755H328.312ZM305.683 83.6168C302.167 83.6631 299.228 84.9356 296.868 87.4345C294.554 89.8871 293.42 93.1958 293.467 97.3605C293.467 100.646 294.346 103.284 296.104 105.274C297.909 107.217 300.339 108.189 303.393 108.189C306.956 108.189 309.894 106.963 312.208 104.51C314.568 102.011 315.748 98.7488 315.748 94.7228C315.748 91.3448 314.823 88.6608 312.972 86.671C311.167 84.6349 308.738 83.6168 305.683 83.6168Z" fill="#FFE500"/>
<path d="M359.767 76.6755L367.888 106.939H372.469L368.999 124.848H359.975L361.849 115.13H334.223L332.349 124.848H323.325L326.796 106.939H331.377L349.355 76.6755H359.767ZM341.789 106.939H358.17L353.034 87.3651L341.789 106.939Z" fill="#FFE500"/>
<path d="M372.864 127.972L382.859 76.6755L391.328 76.6755L390.911 78.9662H391.05C392.207 77.8093 393.688 76.9532 395.493 76.3979C397.297 75.7963 399.264 75.4724 401.393 75.4261C403.799 75.4261 405.974 75.7732 407.917 76.4673C409.907 77.1614 411.735 78.2489 413.401 79.7297C415.437 81.627 416.941 83.7788 417.913 86.1851C418.885 88.5914 419.371 91.2291 419.371 94.0981C419.371 97.4299 418.792 100.554 417.635 103.469C416.478 106.338 414.812 108.79 412.638 110.827C410.694 112.678 408.426 114.066 405.835 114.991C403.29 115.917 400.56 116.38 397.644 116.38C394.914 116.38 392.531 115.963 390.495 115.13C388.459 114.297 386.793 112.978 385.497 111.174H385.358L382.096 127.972H372.864ZM400.004 83.6168C396.488 83.6168 393.572 84.8662 391.258 87.3651C388.991 89.8639 387.857 93.1495 387.857 97.2217C387.857 100.6 388.736 103.284 390.495 105.274C392.3 107.217 394.752 108.189 397.853 108.189C401.416 108.189 404.354 106.963 406.668 104.51C408.982 102.057 410.139 98.8182 410.139 94.7923C410.139 91.3679 409.213 88.6608 407.362 86.671C405.557 84.6349 403.105 83.6168 400.004 83.6168Z" fill="#FFE500"/>
<path d="M467.137 76.6755L459.641 115.13H451.172L451.589 112.84H451.45C450.293 114.043 448.789 114.922 446.938 115.477C445.087 116.079 443.121 116.38 441.038 116.38C438.863 116.38 436.711 116.033 434.583 115.338C432.5 114.644 430.649 113.557 429.03 112.076C427.086 110.41 425.582 108.397 424.518 106.037C423.5 103.631 423.014 100.854 423.06 97.7076C423.06 94.4221 423.616 91.3447 424.726 88.4757C425.883 85.5604 427.572 83.0615 429.793 80.9791C431.737 79.1281 433.958 77.7399 436.457 76.8144C438.956 75.8889 441.64 75.4261 444.509 75.4261C447.563 75.4261 450.177 75.9351 452.352 76.9532C454.527 77.9712 456.286 79.452 457.628 81.3956H457.767L458.669 76.6755H467.137ZM444.509 83.6168C440.992 83.6631 438.053 84.9356 435.693 87.4345C433.38 89.8871 432.246 93.1958 432.292 97.3605C432.292 100.646 433.171 103.284 434.93 105.274C436.735 107.217 439.164 108.189 442.218 108.189C445.781 108.189 448.72 106.963 451.034 104.51C453.394 102.011 454.574 98.7488 454.574 94.7228C454.574 91.3448 453.648 88.6608 451.797 86.671C449.992 84.6349 447.563 83.6168 444.509 83.6168Z" fill="#FFE500"/>
<path d="M467.009 115.13L474.506 76.6755H483.738L480.267 94.3064L497.482 76.6755H508.449L489.291 95.5558L501.785 115.13H490.818L479.851 96.6664L476.241 115.13H467.009Z" fill="#FFE500"/>
<path d="M531.083 75.4261C534.137 75.4261 536.775 75.8657 538.996 76.7449C541.217 77.5779 543.16 78.8042 544.826 80.4238C546.446 82.0897 547.695 84.0333 548.575 86.2545C549.454 88.4757 549.894 90.9746 549.894 93.7511C549.894 97.0829 549.315 100.206 548.158 103.122C547.001 106.037 545.405 108.49 543.369 110.48C541.286 112.516 538.95 114.02 536.358 114.991C533.813 115.917 531.036 116.38 528.029 116.38C524.974 116.38 522.314 115.963 520.046 115.13C517.825 114.297 515.881 113.048 514.215 111.382C512.549 109.762 511.277 107.865 510.398 105.69C509.518 103.469 509.079 100.877 509.079 97.9158C509.079 94.6766 509.634 91.6224 510.745 88.7533C511.902 85.8843 513.521 83.4086 515.604 81.3262C517.64 79.3364 519.93 77.8556 522.476 76.8838C525.067 75.912 527.936 75.4261 531.083 75.4261ZM530.597 83.6168C528.838 83.6168 527.196 83.9407 525.669 84.5886C524.141 85.2364 522.823 86.1851 521.712 87.4345C520.601 88.6839 519.745 90.1647 519.144 91.8769C518.588 93.5428 518.311 95.3707 518.311 97.3605C518.311 98.8413 518.496 100.23 518.866 101.525C519.283 102.821 519.884 103.932 520.671 104.857C521.504 105.921 522.545 106.754 523.794 107.356C525.09 107.911 526.617 108.189 528.376 108.189C530.088 108.189 531.707 107.888 533.234 107.287C534.762 106.639 536.104 105.667 537.26 104.371C538.325 103.168 539.158 101.734 539.759 100.068C540.361 98.3554 540.662 96.4813 540.662 94.4452C540.662 93.0107 540.453 91.6455 540.037 90.3498C539.62 89.0541 539.042 87.9204 538.302 86.9486C537.422 85.9306 536.335 85.1208 535.039 84.5192C533.79 83.9176 532.309 83.6168 530.597 83.6168Z" fill="#FFE500"/>
<path d="M559.17 76.6755H592.003L584.506 115.13H575.274L581.174 84.8662H566.806L560.906 115.13H551.674L559.17 76.6755Z" fill="#FFE500"/>
<path d="M596.381 76.6755H624.077L622.48 84.8662H613.248L607.348 115.13H598.116L604.016 84.8662H594.785L596.381 76.6755Z" fill="#FFE500"/>
<path d="M663.081 99.9982L632.609 99.9982C632.702 101.109 632.979 102.15 633.442 103.122C633.905 104.047 634.553 104.88 635.386 105.621C636.265 106.5 637.306 107.148 638.509 107.564C639.712 107.981 641.077 108.189 642.604 108.189C643.576 108.189 644.525 108.096 645.45 107.911C646.376 107.68 647.255 107.333 648.088 106.87C648.736 106.546 649.314 106.153 649.823 105.69C650.379 105.181 650.865 104.626 651.281 104.024H661.693C660.86 105.829 659.842 107.449 658.639 108.883C657.482 110.318 656.256 111.498 654.96 112.423C653.201 113.719 651.165 114.691 648.852 115.338C646.584 116.033 644.016 116.38 641.147 116.38C638.324 116.38 635.848 115.963 633.72 115.13C631.637 114.343 629.74 113.048 628.028 111.243C626.223 109.438 624.904 107.425 624.071 105.204C623.285 102.937 622.891 100.554 622.891 98.0546C622.891 94.6766 623.493 91.5299 624.696 88.6145C625.899 85.6992 627.519 83.2466 629.555 81.2568C631.545 79.3132 633.835 77.8556 636.427 76.8838C639.018 75.912 641.98 75.4261 645.312 75.4261C648.227 75.4261 650.795 75.8426 653.016 76.6755C655.238 77.4622 657.204 78.7348 658.916 80.4932C660.49 82.2054 661.67 84.2415 662.457 86.6015C663.289 88.9616 663.706 91.4836 663.706 94.1675C663.706 95.1856 663.637 96.1805 663.498 97.1523C663.405 98.1241 663.266 99.0727 663.081 99.9982ZM633.442 91.8075L654.474 91.8075C654.335 90.6506 653.988 89.5632 653.433 88.5451C652.924 87.4808 652.322 86.6016 651.628 85.9074C650.749 85.167 649.731 84.6117 648.574 84.2415C647.463 83.825 646.283 83.6168 645.034 83.6168C643.507 83.6168 642.049 83.8482 640.661 84.3109C639.319 84.7274 638.162 85.329 637.19 86.1157C636.311 86.8098 635.548 87.6659 634.9 88.6839C634.252 89.6557 633.766 90.6969 633.442 91.8075Z" fill="#FFE500"/>
<path d="M662.987 127.972L672.983 76.6755H681.451L681.035 78.9662H681.174C682.33 77.8093 683.811 76.9532 685.616 76.3979C687.421 75.7963 689.387 75.4724 691.516 75.4261C693.922 75.4261 696.097 75.7732 698.041 76.4673C700.031 77.1614 701.859 78.2489 703.524 79.7297C705.561 81.627 707.064 83.7788 708.036 86.1851C709.008 88.5914 709.494 91.2291 709.494 94.0981C709.494 97.4299 708.916 100.554 707.759 103.469C706.602 106.338 704.936 108.79 702.761 110.827C700.817 112.678 698.55 114.066 695.958 114.991C693.413 115.917 690.683 116.38 687.768 116.38C685.038 116.38 682.654 115.963 680.618 115.13C678.582 114.297 676.916 112.978 675.621 111.174H675.482L672.219 127.972H662.987ZM690.128 83.6168C686.611 83.6168 683.696 84.8662 681.382 87.3651C679.114 89.8639 677.981 93.1495 677.981 97.2217C677.981 100.6 678.86 103.284 680.618 105.274C682.423 107.217 684.876 108.189 687.976 108.189C691.539 108.189 694.478 106.963 696.791 104.51C699.105 102.057 700.262 98.8182 700.262 94.7923C700.262 91.3679 699.336 88.6608 697.485 86.671C695.681 84.6349 693.228 83.6168 690.128 83.6168Z" fill="#FFE500"/>
</svg>
