<svg width="459" height="86" viewBox="0 0 459 86" fill="none" xmlns="http://www.w3.org/2000/svg">
<path d="M70.532 21.4746H55.643C54.3704 18.3568 52.2707 16.0343 49.3438 14.5073C46.4169 12.9802 43.0127 12.2166 39.1314 12.2166C34.7411 12.2166 30.8915 12.9802 27.5829 14.5073C24.2742 16.0343 21.5064 18.1659 19.2794 20.9019C17.1796 23.447 15.5889 26.4057 14.5073 29.778C13.4892 33.1503 13.012 36.6181 13.0756 40.1813C13.0756 43.4263 13.5528 46.3532 14.5073 48.962C15.4617 51.5071 16.7979 53.6705 18.5158 55.4521C20.2974 57.4245 22.3972 58.9198 24.815 59.9379C27.2965 60.8923 30.0644 61.3695 33.1185 61.3695C37.1271 61.4331 40.7539 60.6696 43.999 59.0789C47.244 57.4882 49.8846 55.3566 51.9207 52.6842L67.0961 52.6842C63.851 59.3016 59.2698 64.4555 53.3523 68.1459C47.4349 71.7727 40.4676 73.5861 32.4504 73.5861C27.1693 73.5861 22.6199 72.7908 18.8022 71.2001C14.9845 69.6094 11.5804 67.1915 8.58982 63.9465C5.66292 60.8287 3.49956 57.3291 2.09973 53.4478C0.699911 49.5664 0 45.3034 0 40.6585C0 34.9319 0.986239 29.5235 2.95872 24.4333C4.99482 19.2794 7.88991 14.7936 11.644 10.9759C15.2072 7.34907 19.3112 4.61305 23.9561 2.76783C28.6646 0.922609 34.1048 0 40.2767 0C47.7849 0 54.2113 1.81341 59.5561 5.44022C64.9009 9.06703 68.5595 14.4118 70.532 21.4746Z" fill="#FFE500"/>
<path d="M79.816 18.993H92.5098L88.6921 38.4633H108.449L112.266 18.993H124.96L114.652 71.8682H101.959L106.254 49.7255H86.497L82.202 71.8682H69.5082L79.816 18.993Z" fill="#FFE500"/>
<path d="M182.615 51.0617H140.716C140.843 52.5888 141.225 54.0204 141.861 55.3566C142.497 56.6292 143.388 57.7745 144.533 58.7926C145.742 60.0015 147.174 60.8923 148.828 61.4649C150.483 62.0376 152.36 62.3239 154.459 62.3239C155.796 62.3239 157.1 62.1967 158.373 61.9422C159.645 61.624 160.854 61.1468 161.999 60.5105C162.89 60.0651 163.686 59.5243 164.385 58.888C165.149 58.1881 165.817 57.4245 166.39 56.5974H180.706C179.561 59.0789 178.161 61.3059 176.507 63.2784C174.916 65.2508 173.23 66.8734 171.448 68.1459C169.03 69.9275 166.231 71.2637 163.049 72.1545C159.931 73.1089 156.4 73.5861 152.455 73.5861C148.574 73.5861 145.17 73.0135 142.243 71.8682C139.38 70.7865 136.771 69.0049 134.417 66.5234C131.935 64.0419 130.122 61.2741 128.976 58.2199C127.895 55.1021 127.354 51.8253 127.354 48.3893C127.354 43.7445 128.181 39.4177 129.835 35.4091C131.49 31.4006 133.717 28.0283 136.516 25.2922C139.252 22.6199 142.402 20.6156 145.965 19.2794C149.528 17.9432 153.6 17.2751 158.182 17.2751C162.19 17.2751 165.722 17.8477 168.776 18.993C171.83 20.0747 174.534 21.8245 176.888 24.2424C179.052 26.5966 180.674 29.3963 181.756 32.6413C182.901 35.8864 183.474 39.3541 183.474 43.0446C183.474 44.4444 183.379 45.8124 183.188 47.1486C183.06 48.4848 182.869 49.7892 182.615 51.0617ZM141.861 39.7995H170.78C170.589 38.2088 170.112 36.7135 169.348 35.3137C168.649 33.8503 167.821 32.6413 166.867 31.6869C165.658 30.6688 164.258 29.9053 162.668 29.3963C161.14 28.8236 159.518 28.5373 157.8 28.5373C155.7 28.5373 153.696 28.8554 151.787 29.4917C149.942 30.0644 148.351 30.8915 147.015 31.9732C145.806 32.9277 144.756 34.1048 143.865 35.5046C142.975 36.8408 142.306 38.2724 141.861 39.7995Z" fill="#FFE500"/>
<path d="M196.23 18.993L226.199 18.993L224.003 30.2553L206.728 30.2553L198.616 71.8682H185.922L196.23 18.993Z" fill="#FFE500"/>
<path d="M254.916 17.2751C259.115 17.2751 262.742 17.8796 265.796 19.0885C268.85 20.2338 271.523 21.92 273.813 24.1469C276.04 26.4376 277.758 29.1099 278.967 32.1641C280.176 35.2183 280.781 38.6542 280.781 42.4719C280.781 47.0531 279.985 51.348 278.394 55.3566C276.804 59.3652 274.609 62.7375 271.809 65.4735C268.946 68.2732 265.732 70.3411 262.169 71.6773C258.67 72.9499 254.852 73.5861 250.716 73.5861C246.517 73.5861 242.858 73.0135 239.74 71.8682C236.686 70.7229 234.014 69.0049 231.723 66.7143C229.432 64.4873 227.683 61.8785 226.474 58.888C225.265 55.8338 224.66 52.2707 224.66 48.1984C224.66 43.7445 225.424 39.545 226.951 35.6C228.542 31.6551 230.769 28.251 233.632 25.3877C236.432 22.6517 239.581 20.6156 243.081 19.2794C246.644 17.9432 250.589 17.2751 254.916 17.2751ZM254.248 28.5373C251.83 28.5373 249.571 28.9827 247.471 29.8735C245.371 30.7643 243.558 32.0687 242.031 33.7866C240.504 35.5046 239.327 37.5407 238.5 39.8949C237.736 42.1856 237.354 44.6989 237.354 47.4349C237.354 49.471 237.609 51.3799 238.118 53.1615C238.69 54.943 239.518 56.4701 240.599 57.7427C241.745 59.2061 243.176 60.3515 244.894 61.1786C246.676 61.9422 248.775 62.3239 251.193 62.3239C253.548 62.3239 255.775 61.9103 257.874 61.0832C259.974 60.1924 261.819 58.8562 263.41 57.0746C264.873 55.4203 266.019 53.4478 266.846 51.1572C267.673 48.8029 268.087 46.226 268.087 43.4263C268.087 41.4538 267.8 39.5768 267.228 37.7952C266.655 36.0136 265.86 34.4547 264.842 33.1185C263.633 31.7187 262.137 30.6052 260.356 29.778C258.638 28.9509 256.602 28.5373 254.248 28.5373Z" fill="#FFE500"/>
<path d="M278.456 71.8682L302.794 43.7126L290.196 18.993H304.512L311.861 35.1228L324.841 18.993H339.826L317.397 45.2397L331.141 71.8682H316.347L308.234 53.8295L293.632 71.8682H278.456Z" fill="#FFE500"/>
<path d="M369.372 17.2751C373.572 17.2751 377.198 17.8796 380.252 19.0885C383.307 20.2338 385.979 21.92 388.27 24.1469C390.497 26.4376 392.215 29.1099 393.424 32.1641C394.632 35.2183 395.237 38.6542 395.237 42.4719C395.237 47.0531 394.442 51.348 392.851 55.3566C391.26 59.3652 389.065 62.7375 386.265 65.4735C383.402 68.2732 380.189 70.3411 376.626 71.6773C373.126 72.9499 369.308 73.5861 365.173 73.5861C360.973 73.5861 357.314 73.0135 354.197 71.8682C351.142 70.7229 348.47 69.0049 346.18 66.7143C343.889 64.4873 342.139 61.8785 340.93 58.888C339.721 55.8338 339.117 52.2707 339.117 48.1984C339.117 43.7445 339.88 39.545 341.407 35.6C342.998 31.6551 345.225 28.251 348.088 25.3877C350.888 22.6517 354.038 20.6156 357.537 19.2794C361.1 17.9432 365.045 17.2751 369.372 17.2751ZM368.704 28.5373C366.286 28.5373 364.027 28.9827 361.927 29.8735C359.828 30.7643 358.014 32.0687 356.487 33.7866C354.96 35.5046 353.783 37.5407 352.956 39.8949C352.192 42.1856 351.811 44.6989 351.811 47.4349C351.811 49.471 352.065 51.3799 352.574 53.1615C353.147 54.943 353.974 56.4701 355.056 57.7427C356.201 59.2061 357.633 60.3515 359.351 61.1786C361.132 61.9422 363.232 62.3239 365.65 62.3239C368.004 62.3239 370.231 61.9103 372.331 61.0832C374.43 60.1924 376.276 58.8562 377.866 57.0746C379.33 55.4203 380.475 53.4478 381.302 51.1572C382.129 48.8029 382.543 46.226 382.543 43.4263C382.543 41.4538 382.257 39.5768 381.684 37.7952C381.111 36.0136 380.316 34.4547 379.298 33.1185C378.089 31.7187 376.594 30.6052 374.812 29.778C373.094 28.9509 371.058 28.5373 368.704 28.5373Z" fill="#FFE500"/>
<path d="M441.111 18.993L452.278 60.606H458.577L453.805 85.2301H441.398L443.974 71.8682H405.988L403.411 85.2301H391.004L395.776 60.606H402.075L426.795 18.993H441.111ZM416.392 60.606H438.916L431.853 33.6912L416.392 60.606Z" fill="#FFE500"/>
</svg>
