<svg width="277" height="250" viewBox="0 0 277 250" fill="none" xmlns="http://www.w3.org/2000/svg">
<path fill-rule="evenodd" clip-rule="evenodd" d="M113.332 0.98938H190.052C260.07 0.98938 274.915 17.477 267.596 87.1111L259.577 163.41C252.258 233.044 233.947 249.532 163.929 249.532H87.2096C17.1919 249.532 2.34636 233.044 9.66519 163.41L17.6846 87.1111C25.0034 17.477 43.3148 0.98938 113.332 0.98938Z" fill="#4680C2"/>
<path fill-rule="evenodd" clip-rule="evenodd" d="M222.324 86.5844C223.964 82.7256 223.024 79.9192 217.557 79.9192H199.391C194.806 79.9192 192.431 82.3748 190.92 85.0058C190.92 85.0058 179.213 107.457 164.632 122.015C159.956 126.225 157.869 127.628 155.576 127.628C154.342 127.628 152.902 126.225 153.307 122.366L157.087 86.409C157.566 81.8486 156.376 79.7438 152.496 79.7438H123.925C121.103 79.7438 119.118 81.8486 118.897 83.9534C118.436 88.3384 124.851 89.3908 124.266 101.669L121.464 128.33C120.855 134.118 119.686 135.17 117.394 135.17C111.221 135.17 98.6078 112.544 92.3231 86.7598C91.094 81.6732 89.5331 79.7438 84.9476 79.7438H66.6055C61.3145 79.7438 60.1745 82.1994 59.898 84.8304C59.4002 89.5662 63.0659 113.421 82.3225 144.993C95.0461 166.567 115.17 178.144 134.394 178.144C146.034 178.144 147.721 175.513 148.182 171.128L149.897 154.815C150.45 149.553 151.6 148.676 155.304 148.676C157.949 148.676 162.564 150.079 172.235 160.428C183.29 172.706 184.816 178.319 191.694 178.319H209.86C215.151 178.319 217.897 175.688 217.021 170.601C215.968 165.515 210.746 158.148 203.907 149.378C200.191 144.467 194.413 139.029 192.75 136.398C190.473 132.89 191.326 131.487 193.598 128.33C193.421 128.33 218.925 97.1084 222.324 86.5844Z" fill="white"/>
</svg>
